<svg width="43" height="43" viewBox="0 0 43 43" fill="none" xmlns="http://www.w3.org/2000/svg">
<path fill-rule="evenodd" clip-rule="evenodd" d="M21.75 42.75C10.152 42.75 0.750001 33.348 0.750001 21.75C0.750001 10.152 10.152 0.75 21.75 0.75C33.348 0.75 42.75 10.152 42.75 21.75C42.75 33.348 33.348 42.75 21.75 42.75Z" fill="#0556F3"/>
<path fill-rule="evenodd" clip-rule="evenodd" d="M21.75 42.75C10.152 42.75 0.750001 33.348 0.750001 21.75C0.750001 10.152 10.152 0.75 21.75 0.75C33.348 0.75 42.75 10.152 42.75 21.75C42.75 33.348 33.348 42.75 21.75 42.75Z" fill="#FF454F"/>
<path d="M32.4281 15.5405L32.4905 15.4986C32.3657 15.2681 32.1787 15.0586 31.9916 14.9538L21.952 9.12885C21.7857 9.02408 21.557 8.98218 21.3076 8.98218C21.0582 8.98218 20.8295 9.04504 20.6632 9.12885L10.686 14.9747C10.3326 15.1843 10.0832 15.7081 10.0832 16.1062V27.7771C10.0832 28.0075 10.1248 28.259 10.2703 28.4895L10.2287 28.5104C10.3326 28.678 10.4781 28.8247 10.6236 28.9085L20.6425 34.7544C20.8087 34.8592 21.0374 34.9011 21.2868 34.9011C21.5363 34.9011 21.7649 34.8382 21.9312 34.7544L31.9085 28.9085C32.2618 28.699 32.5112 28.1752 32.5112 27.7771V16.0853C32.532 15.9176 32.5112 15.7291 32.4281 15.5405V15.5405ZM21.3076 27.0646C23.1991 27.0646 24.862 26.017 25.735 24.4665L28.4164 26.0589C27.003 28.5314 24.3424 30.2076 21.3076 30.2076C16.7763 30.2076 13.0972 26.4989 13.0972 21.9312C13.0972 17.3634 16.7763 13.6547 21.3076 13.6547C24.3631 13.6547 27.0238 15.3519 28.4372 17.8453L25.735 19.4168C24.862 17.8453 23.1991 16.7977 21.3076 16.7977C18.5015 16.7977 16.2151 19.1025 16.2151 21.9312C16.2151 24.7598 18.5015 27.0646 21.3076 27.0646V27.0646Z" fill="white"/>
</svg>
