<svg width="215" height="301" viewBox="0 0 215 301" fill="none" xmlns="http://www.w3.org/2000/svg">
<path d="M118.466 240.072C114.691 237.99 110.908 238.794 107.018 240.974L108.867 261.919C108.648 268.278 108.232 270.137 111.903 270.954C119.105 269.883 118.711 268.804 120.513 259.618C121.21 253.318 121.378 248.633 119.57 241.553C119.411 240.932 119.028 240.382 118.466 240.072Z" fill="#2626FF"/>
<path d="M109.313 240.618L89.6117 243.631L90.75 256.519L110.704 248.459C112.48 246.196 111.972 242.424 109.313 240.618Z" fill="#FF986C"/>
<path d="M21.262 255.248C25.7616 231.447 30.0071 214.3 40.327 182.486L70.7639 190.704C69.5766 206.08 59.7216 232.532 46.4387 246.697L103.685 240.983C106.445 244.93 107.422 249.539 104.117 254.351C76.461 261.568 63.1836 268.665 30.807 267.456C24.5508 267.223 20.099 261.4 21.262 255.248Z" fill="#FFC33D"/>
<path d="M46.569 246.708C52.5589 239.55 55.1063 235.398 60.0546 227.481L58.0022 202.253L35.1016 198.352C37.8919 210.568 49.8927 206.725 51.35 215.874C55.3499 240.985 30.9461 252.169 33.9616 261.469C37.774 273.227 71.1738 263.832 83.3956 260.219C85.1121 248.35 88.6429 248.269 105.853 245.685C105.446 244.053 105.018 242.687 103.815 240.994C63.7406 245.367 52.819 245.014 46.569 246.708Z" fill="#ECB231"/>
<path d="M53.6941 226.989C52.507 238.053 41.899 248.48 43.7353 248.888C44.7534 249.115 84.6039 244.577 104.183 243.155" stroke="#CE6F00" stroke-width="0.744513" stroke-linecap="round" stroke-linejoin="round" stroke-dasharray="4.25 2.13"/>
<path d="M141.754 255.659C135.421 251.19 129.507 253.647 128.376 256.226L128.748 266.922C130.535 274.215 127.715 283.728 131.467 285.267C135.472 286.909 140.184 284.606 142.401 274.91C143.959 268.096 144.284 257.444 141.754 255.659Z" fill="#2626FF"/>
<path d="M133.8 255.043L114.099 258.056L115.238 270.945L134.368 264.954C136.388 262.977 136.615 256.594 133.8 255.043Z" fill="#FF986C"/>
<path d="M62.2936 280.579C53.6553 246.609 51.4433 223.298 54.0801 189.149L90.2361 194.075C93.4006 210.054 92.7261 215.335 87.9435 223.767C85.9307 234.207 83.5538 256.674 82.6292 264.96C97.0085 258.336 103.84 259.664 117.974 256.221C120.834 262.184 121.382 265.797 119.07 273.108C101.246 279.137 90.6345 283.647 74.8866 287.983C69.3581 289.505 63.7069 286.136 62.2936 280.579Z" fill="#FFC33D"/>
<path d="M35.0702 32.8707C33.5773 41.9595 33.3646 46.8001 33.3405 55.2715C28.7671 58.7602 20.5117 59.0813 20.7164 56.4302C21.3919 47.6817 24.7582 43.9413 24.8528 33.9486C25.1189 30.5022 23.0644 29.3453 23.1011 25.5459C22.9123 19.0596 27.8968 15.2496 30.0789 14.6171C31.3778 14.2406 34.1058 14.4242 36.4417 15.1084C37.635 16.9542 37.8459 17.8255 37.7259 19.2079L39.2484 19.3255C40.446 19.418 41.3349 20.4846 41.1999 21.6781C40.6248 26.7652 39.9172 29.9966 35.0702 32.8707Z" fill="#FF986C"/>
<path d="M53.0628 217.873L53.0427 214.672M53.0427 214.672L53.1066 206.942L50.5576 205.412C49.9657 209.634 50.2809 214.678 53.0427 214.672Z" stroke="#CE6F00" stroke-width="0.744513" stroke-linecap="round" stroke-linejoin="round"/>
<path d="M33.8058 79.4433C45.3952 86.9626 53.192 89.8867 68.144 94.0957L52.3779 116.213C37.5797 110.167 27.6741 100.666 18.7642 89.6906C17.2369 87.8092 16.4116 85.4489 16.3793 83.0258C16.201 69.651 16.669 67.3622 19.5235 51.2705C26.0681 52.8426 30.1269 52.0892 33.3502 48.3378C32.8852 64.8876 34.2901 64.6267 33.8058 79.4433Z" fill="#FB2F4D"/>
<path d="M155.477 131.932L137.794 139.901L138.203 154.843C146.477 149.15 151.553 145.686 161.043 139.296C163.535 137.617 168.938 140.172 171.837 137.171C173.405 135.548 175.714 128.403 174.798 122.999L170.879 135.764C165.83 134.84 162.13 135.089 162.253 133.498C162.44 131.078 163.75 130.714 164.314 127.523C164.585 125.357 168.208 125.448 168.331 123.857C165.776 123.046 165.039 122.56 162.271 123.389C159.502 124.218 155.997 127.587 155.477 131.932Z" fill="#FF986C"/>
<rect x="166.201" y="110.067" width="11.6455" height="24.6215" rx="1.59538" transform="rotate(13.7511 166.201 110.067)" fill="#0F0648"/>
<rect x="166.684" y="111.187" width="10.1759" height="22.6437" rx="1.06359" transform="rotate(13.7511 166.684 111.187)" fill="#312193"/>
<path d="M95.8904 139.841C91.6936 128.583 96.5086 116.934 104.316 114.114C115.307 123.672 117.362 133.819 128.121 142.267C128.679 142.705 129.426 142.815 130.094 142.578C134.913 140.868 138.074 139.737 142.449 137.836C141.306 142.281 141.249 145.987 145.423 151.133C141.136 155.336 129.937 162.229 125.43 161.881C118.802 161.369 104.538 152.407 95.8904 139.841Z" fill="#FB2F4D"/>
<path d="M91.2854 202.957L53.5768 204.312C53.3304 207.493 53.4673 209.241 53.4323 213.102C71.7582 214.183 80.2289 211.437 92.0789 206.485C91.9729 205.215 91.8721 204.481 91.2854 202.957Z" fill="#ECB231"/>
<path d="M65.2013 107.335C66.1275 101.422 67.0876 98.2892 66.3886 91.9588L82.6312 87.0792C81.7616 96.4326 82.4541 101.127 88.368 107.79C84.0844 111.46 71.6437 113.7 65.2013 107.335Z" fill="#FF986C"/>
<path d="M57.3402 93.3951C58.0885 90.2521 66.9708 94.1377 66.7204 96.2518C65.187 109.201 83.7467 103.701 83.9309 101.315C87.9874 107.495 100.651 109.274 105.034 114.679C100.856 135.958 87.2123 150.372 86.2706 162.567C86.0937 174.836 90.1481 191.645 94.6074 204.814C70.9893 213.658 48.3537 209.777 32.6872 196.833C42.1866 170.853 46.657 157.706 45.4111 132.21C44.914 122.037 54.0007 107.419 57.3402 93.3951Z" fill="#FB2F4D"/>
<path d="M82.3583 88.932L67.0761 94.165C71.607 95.2844 81.0429 92.6783 82.1614 91.482L82.3583 88.932Z" fill="#FF814B"/>
<path d="M91.7119 79.1372C86.4506 91.0196 69.7804 96.1957 61.5966 93.7425C55.831 92.0143 60.2328 64.9068 65.2357 56.5722C71.9238 45.4303 80.815 48.4683 88.0893 52.9492C96.66 58.2287 96.9731 67.2548 91.7119 79.1372Z" fill="#FF986C"/>
<path d="M36.9479 22.4799C37.4075 20.8332 37.6624 20.1345 38.4986 19.6657C38.8225 19.4574 39.3144 19.4622 40.0892 19.7893" stroke="#FF814B" stroke-width="0.531795" stroke-linecap="round" stroke-linejoin="round"/>
<path d="M26.8276 36.0996C30.0314 29.1463 27.7873 26.156 26.5256 22.7418L30.1961 23.5586C31.8277 23.1512 37.1309 20.0937 37.743 19.0742C37.755 17.3002 37.1729 16.0966 36.1738 15.2194" stroke="#FF814B" stroke-width="0.531795" stroke-linecap="round" stroke-linejoin="round"/>
<path d="M95.152 36.4611C86.2111 34.7789 83.2662 38.3658 81.2047 48.6955L88.5591 52.3815L88.5687 52.4101C89.3447 54.7225 94.4609 69.9691 97.5155 74.2606C100.035 77.8007 103.252 78.901 107.063 77.956C104.123 76.1907 101.34 73.6763 101.468 72.0073C101.975 65.4406 105.574 63.5695 106.602 56.573C108.111 46.3011 103.443 38.0209 95.152 36.4611Z" fill="#14004B"/>
<path d="M81.3042 48.7365C84.8246 49.6079 86.5236 50.383 89.9413 52.3531C89.3727 48.1837 86.0403 46.196 82.1357 44.8535C81.3685 46.3389 81.1348 47.2003 81.3042 48.7365Z" fill="#FFC33D"/>
<path d="M84.7704 76.3244C84.4217 78.8824 84.4119 80.1212 84.9955 81.6799C86.7782 80.2721 87.2059 80.1968 88.5412 78.6368L82.0439 89.6784C104.203 75.6403 95.6716 51.6921 81.0388 48.6584C66.7386 45.6936 61.8782 58.5016 61.0183 69.6376C62.6013 65.6753 67.3947 64.0026 69.4671 60.5035C74.4303 71.0559 78.1272 73.0255 84.7704 76.3244Z" fill="#14004B"/>
<path d="M90.5918 83.6741C89.1525 85.9392 84.1569 88.4032 82.6071 87.4183C81.0573 86.4335 83.4504 83.1324 84.8898 80.8673C86.3291 78.6021 88.7523 77.5642 90.3022 78.549C91.852 79.5339 92.0312 81.4089 90.5918 83.6741Z" fill="#FF986C"/>
<path d="M85.2462 208.625C85.1184 215.473 83.4362 217.837 80.0618 223.96L78.0292 271.007C94.7425 263.509 106.175 262.246 118.412 259.19" stroke="#CE6F00" stroke-width="0.744513" stroke-linecap="round" stroke-linejoin="round" stroke-dasharray="4.25 2.13"/>
<path d="M95.89 139.84C92.2003 145.266 84.9466 147.356 79.5731 147.381C63.2992 147.458 51.5965 136.687 45.5 132.749C56.7738 145.621 71.6863 149.183 78.1852 151.541C82.8548 153.235 83.4108 171.594 89.758 188.171C86.8868 173.548 85.9092 168.939 86.4824 161.516C86.892 156.211 92.4007 147.038 95.89 139.84Z" fill="#EE1E3D"/>
<path d="M163.593 123.968L175.49 118.297L174.865 120.827L162.968 126.498L163.593 123.968Z" fill="#705EE3"/>
<path d="M162.737 127.626L174.469 122.229L174.261 123.073L162.528 128.469L162.737 127.626Z" fill="#705EE3"/>
<path d="M183.522 159.759L183.22 161.877L158.721 165.753L159.024 163.635L183.522 159.759Z" fill="#FFC33D"/>
<path d="M160.339 165.974L160.036 168.091L138.359 150.631L138.662 148.514L160.339 165.974Z" fill="#F5AF14"/>
<path d="M184.621 159.556L160.343 163.452L138.88 146.373L163.157 142.477L184.621 159.556Z" fill="#FFC33D"/>
<path d="M183.928 150.257L182.924 157.734L159.574 161.459L160.61 153.789L183.928 150.257Z" fill="#7A4C0E"/>
<path d="M162.424 156.387L161.393 164.003L140.342 146.997L141.383 139.301L162.424 156.387Z" fill="#603322"/>
<path d="M184.967 149.697L162.454 153.285L142.122 137.271L165.074 133.677L184.967 149.697Z" fill="#6D4038"/>
<ellipse rx="11.1667" ry="6.12382" transform="matrix(0.967198 0.236045 -0.166338 0.983502 163.793 142.943)" fill="#F5B614"/>
<rect width="21.7445" height="1.70392" transform="matrix(0.969476 0.213848 -0.180654 0.979052 153.584 138.92)" fill="#F5B614"/>
<ellipse rx="11.1532" ry="5.84017" transform="matrix(0.967237 0.235703 -0.16654 0.983441 164.204 140.939)" fill="#FFD26C"/>
<path d="M201.97 100.773C201.096 105.981 194.497 112.989 189.566 111.578C185.284 110.522 182.576 105.114 183.518 99.4989C184.46 93.8837 191.813 91.4004 196.096 92.456C200.378 93.5116 202.893 95.2676 201.97 100.773Z" fill="#F5B614"/>
<path d="M198.938 99.3659C198.896 102.454 196.038 106.561 193.276 107.93C195.508 104.287 196.614 102.143 197.973 97.8923C198.495 97.9208 198.948 98.5847 198.938 99.3659Z" fill="#FFD26C"/>
<path d="M200.678 92.3244C198.848 109.652 186.522 125.383 168.787 121.467C152.388 117.845 144.979 99.2819 149.027 78.435C149.406 72.0176 161.018 81.8039 175.437 85.349C189.856 88.8941 201.91 84.9926 200.678 92.3244Z" fill="#FFC33D"/>
<path d="M158.177 95.2249L160.777 96.9811C155.22 99.0205 146.859 107.532 151.387 115.507C142.359 112.251 146.556 99.4451 158.177 95.2249Z" fill="#FFD26C"/>
<ellipse rx="26.5149" ry="13.5416" transform="matrix(0.967259 0.235511 -0.166654 0.983406 175.837 83.4892)" fill="#FFD26C"/>
<ellipse rx="22.6347" ry="11.5599" transform="matrix(0.967259 0.235511 -0.166654 0.983406 175.836 83.4888)" fill="#F5B614"/>
<path d="M160.203 99.9575L160.714 96.9579C156.048 97.7862 148.759 103.28 148.641 110.661C148.547 116.567 153.983 116.317 157.417 116.316L157.886 113.561C156.19 113.875 152.125 112.888 151.812 111.431C150.75 106.502 154.399 102.028 160.203 99.9575Z" fill="#F5B614"/>
<path d="M175.727 122.676C169.428 122.425 165.633 121.392 160.15 118.847C162.1 123.02 161.723 125.083 160.726 131.01L159.346 139.211C158.882 141.968 169.128 144.344 169.569 141.725L170.948 133.523C171.795 128.492 172.305 124.598 175.727 122.676Z" fill="#FFC33D"/>
<path d="M154.994 112.007C154.065 112.264 153.403 112.091 151.7 111.575C151.791 112.955 154.834 114.155 157.252 113.363C156.089 113.125 155.41 112.707 154.994 112.007Z" fill="#FFD26C"/>
<g clip-path="url(#clip0_2312:48261)">
<path d="M69.9785 29.2158L108.906 38.5419L103.256 62.1242C103.16 62.5262 102.951 62.8968 102.642 63.1722C91.0674 73.5145 67.9379 65.9019 64.3231 53.9259C64.2221 53.5911 64.2238 53.2362 64.3053 52.8961L69.9785 29.2158Z" fill="#943DFF"/>
<path d="M74.328 64.4665C78.1884 63.4445 82.6649 59.4196 84.3392 55.184L67.5852 39.211L64.3085 52.8881C63.8044 54.9923 68.4676 62.2281 74.328 64.4665Z" fill="#6423CE"/>
<path d="M124.766 39.673L123.796 43.6693L84.382 55.4744L85.3515 51.4778L124.766 39.673Z" fill="#AA93F0"/>
<path d="M85.3517 51.4774L84.3823 55.474L54.37 27.0362L55.3394 23.0398L85.3517 51.4774Z" fill="#845EB5"/>
<path d="M124.767 39.6724L85.3525 51.4773L55.3401 23.0397L94.7544 11.2347L124.767 39.6724Z" fill="#AF99FF"/>
<path d="M103.934 61.9494C104.286 62.9399 103.796 64.8167 103.644 66.786C103.568 67.772 103.867 68.1843 104.217 68.7747C104.393 68.8169 102.328 69.8479 100.662 69.4486C98.9954 69.0494 97.938 67.4418 97.938 67.4418C98.4061 66.9711 99.4924 66.6142 99.6788 65.836C99.9624 64.6525 100.695 62.3891 101.494 61.3647C102.174 60.4937 103.582 60.959 103.934 61.9494Z" fill="#FFC33D"/>
<path d="M89.5593 28.5466L105.719 44.3173C106.307 44.8911 106.55 45.7319 106.359 46.5309L102.683 61.8718" stroke="#FFC33D" stroke-width="2.70919" stroke-linecap="round" stroke-linejoin="round"/>
<path d="M104.092 61.8178C103.486 62.0026 102.417 61.8073 101.443 61.183C101.193 61.4662 101.092 61.6259 101.105 61.9965C102.045 62.6993 102.884 62.8656 104.05 62.7542C104.184 62.3685 104.183 62.1687 104.092 61.8178Z" fill="#F5B614"/>
</g>
<defs>
<clipPath id="clip0_2312:48261">
<rect width="71.403" height="57.8795" fill="white" transform="translate(60.1426 2.94141) rotate(13.4728)"/>
</clipPath>
</defs>
</svg>
