<svg width="85" height="81" viewBox="0 0 85 81" fill="none" xmlns="http://www.w3.org/2000/svg">
<path d="M21.2293 51.632C19.1565 52.1874 17.0278 50.9584 16.4724 48.8856L8.93289 20.7479C8.37749 18.675 10.1091 18.4221 12.182 17.8667C14.2548 17.3113 15.8809 16.6645 16.4363 18.7373C16.4363 18.7373 18.5284 31.0924 22.4664 41.2419C25.9794 50.3009 32.987 50.492 32.987 50.492C33.5424 52.5648 23.3021 51.0766 21.2293 51.632ZM50.0038 53.9725C47.931 54.5279 45.8023 53.2989 45.2469 51.2261L34.6916 11.8333C34.1362 9.76047 35.8679 9.50758 37.9407 8.95217C40.0135 8.39677 41.6396 7.74995 42.195 9.82276C42.195 9.82276 43.9258 19.6288 46.6335 27.3253C49.3383 35.0187 52.7503 49.2155 52.7503 49.2155C53.3052 51.2865 52.0766 53.4171 50.0038 53.9725Z" fill="#7A5C44"/>
<path d="M68.9596 4.66379L3.43962 30.2619L1.42909 22.7585L67.9543 0.912097L68.9596 4.66379Z" fill="#662113"/>
<path d="M51.1466 38.398C50.5252 40.8283 49.4991 42.4765 48.1971 43.5974C47.4636 43.8763 46.0309 44.0069 44.8137 41.6028C43.3932 38.7927 41.634 34.7484 40.2463 29.5692C38.1634 21.7957 36.9796 12.8684 36.9796 12.8684C36.5127 11.1258 39.1579 10.4029 40.3946 9.96099C39.6837 8.4787 36.6965 9.28315 33.0668 10.2557C30.3411 10.9861 29.3747 13.4043 29.7175 15.7794C30.059 18.1568 31.4277 28.082 33.3482 34.9118C34.3904 38.6214 35.7285 42.6398 36.9629 46.0386C35.3762 46.0596 33.7922 46.098 32.2816 46.3058C26.8372 47.0488 19.8103 48.5718 15.9527 38.8572C12.8989 31.1669 11.2204 21.7811 11.2204 21.7811C10.7535 20.0385 13.2871 18.8992 14.5237 18.4572C13.8129 16.975 10.9182 17.5918 7.35838 18.803C4.68665 19.7119 3.57883 21.5126 3.9583 24.6921C4.57065 29.8137 7.53355 41.2015 10.055 48.946C11.4628 53.2694 16.3825 68.8838 24.7985 73.2132C29.7139 75.7403 36.9974 76.0606 45.1483 73.3679C52.8781 70.8142 58.5452 66.1673 61.3434 62.1665C66.2016 55.2212 66.5844 51.0372 65.7404 46.8443C64.3733 40.0692 52.4978 33.1161 51.1466 38.398Z" fill="#A78E81"/>
<path d="M76.5128 40.1767C74.1806 47.2373 66.8356 51.1596 56.9498 47.8956C47.064 44.6315 43.4977 37.1067 45.8299 30.0461C48.1621 22.9855 58.5774 21.4352 64.995 23.6562C71.4126 25.8773 78.845 33.1161 76.5128 40.1767Z" fill="#A78E81"/>
<path d="M73.4789 42.0085C71.8146 47.0525 65.2919 50.2016 56.8201 47.4051C48.3483 44.6086 45.5144 38.3693 47.1806 33.3248C48.8448 28.2807 54.2699 27.563 62.7422 30.3614C71.2144 33.1598 75.1436 36.9664 73.4789 42.0085Z" fill="#E2D2C7"/>
<path d="M45.3124 32.2374C44.9423 34.6004 45.2166 36.9597 46.1757 39.1434C49.2064 39.214 53.4857 39.1349 55.2799 38.23C58.1956 36.7611 58.4897 33.7168 57.4507 31.6549C56.01 28.7919 50.1862 28.4867 45.3124 32.2374Z" fill="#292F33"/>
<path d="M52.2196 36.8208C53.4504 36.491 54.1808 35.226 53.851 33.9952C53.5212 32.7644 52.2562 32.034 51.0254 32.3638C49.7946 32.6936 49.0642 33.9587 49.394 35.1894C49.7238 36.4202 50.9889 37.1506 52.2196 36.8208Z" fill="#F5F8FA"/>
<path d="M75.6281 42.2457C74.5191 44.3644 72.8943 46.0966 70.8231 47.2808C68.3464 45.5338 64.9559 42.9199 64.051 41.1257C62.5821 38.2099 64.1599 35.5896 66.2218 34.5506C69.0867 33.1095 73.9468 36.3309 75.6281 42.2457Z" fill="#292F33"/>
<path d="M69.7548 42.6089C70.9856 42.2791 71.716 41.014 71.3862 39.7833C71.0564 38.5525 69.7913 37.8221 68.5605 38.1519C67.3298 38.4817 66.5994 39.7468 66.9292 40.9775C67.2589 42.2083 68.524 42.9387 69.7548 42.6089Z" fill="#F5F8FA"/>
<path d="M63.3268 43.317C62.5281 45.7386 59.9164 47.0516 57.4967 46.2524C55.0751 45.4537 53.7621 42.842 54.5613 40.4223C55.36 38.0007 57.2478 38.8781 59.6675 39.6773C62.0872 40.4766 64.1255 40.8954 63.3268 43.317Z" fill="#292F33"/>
<path d="M64.5321 48.3178C64.4871 48.3298 64.4392 48.3386 64.3927 48.3451C55.662 49.3696 50.5347 43.8754 50.3207 43.6393C49.9617 43.2449 49.9886 42.6325 50.3843 42.2711C50.7804 41.9036 51.393 41.9386 51.7547 42.3282C51.8022 42.3778 56.4557 47.3193 64.167 46.4151C64.6993 46.3529 65.1815 46.7344 65.2455 47.2661C65.3013 47.7518 64.9917 48.1946 64.5321 48.3178Z" fill="#292F33"/>
</svg>
