<svg width="24" height="24" viewBox="0 0 24 24" fill="none" xmlns="http://www.w3.org/2000/svg">
<path d="M24 12C24 18.6273 18.6273 24 12 24C5.37333 24 0 18.6273 0 12C0 5.37333 5.37333 0 12 0C18.6273 0 24 5.37333 24 12Z" fill="#FFCB4C"/>
<path d="M8.11623 12.2773C9.09083 12.2773 9.8809 11.1711 9.8809 9.8066C9.8809 8.44209 9.09083 7.33594 8.11623 7.33594C7.14163 7.33594 6.35156 8.44209 6.35156 9.8066C6.35156 11.1711 7.14163 12.2773 8.11623 12.2773Z" fill="#65471B"/>
<path d="M16.588 14.1174C19.1219 14.1174 21.176 12.0633 21.176 9.52941C21.176 6.99552 19.1219 4.94141 16.588 4.94141C14.0541 4.94141 12 6.99552 12 9.52941C12 12.0633 14.0541 14.1174 16.588 14.1174Z" fill="#F4F7F9"/>
<path d="M9.88271 6.63029C9.66804 6.63029 9.45604 6.53295 9.31738 6.34829C8.65671 5.46762 7.96538 4.99562 7.26204 4.94562C6.33538 4.88229 5.58004 5.57695 5.43937 5.71762C5.16337 5.99362 4.71671 5.99362 4.44138 5.71762C4.16537 5.44162 4.16537 4.99495 4.44138 4.71962C4.74604 4.41495 5.86071 3.42895 7.36204 3.53762C8.49204 3.61762 9.52937 4.27829 10.4467 5.50095C10.6807 5.81295 10.6174 6.25562 10.306 6.48895C10.178 6.58429 10.0294 6.63029 9.88271 6.63029Z" fill="#65471B"/>
<path d="M21.8818 24.0001C21.4918 24.0001 21.1758 23.6841 21.1758 23.2941V9.88276C21.1758 9.49276 21.4918 9.17676 21.8818 9.17676C22.2718 9.17676 22.5878 9.49276 22.5878 9.88276V23.2948C22.5871 23.6841 22.2718 24.0001 21.8818 24.0001Z" fill="#292F33"/>
<path d="M21.8816 8.47069C21.8456 8.47069 21.8116 8.47868 21.7763 8.48135C21.2883 6.06268 19.1476 4.23535 16.587 4.23535C13.6676 4.23535 11.293 6.61002 11.293 9.52935C11.293 12.4487 13.6676 14.8234 16.587 14.8234C18.899 14.8234 20.8643 13.3314 21.5843 11.2614C21.6803 11.282 21.779 11.294 21.881 11.294C22.661 11.294 23.293 10.662 23.293 9.88202C23.293 9.10268 22.661 8.47069 21.8816 8.47069ZM16.587 13.412C14.4463 13.412 12.705 11.6707 12.705 9.52935C12.705 7.38802 14.447 5.64669 16.587 5.64669C18.7276 5.64669 20.4696 7.38802 20.4696 9.52935C20.4696 11.6707 18.7276 13.412 16.587 13.412Z" fill="#67757F"/>
<path d="M14.1173 19.0582C14.0113 19.0582 13.9033 19.0342 13.802 18.9836C12.5893 18.3769 11.4106 18.3769 10.198 18.9836C9.84865 19.1576 9.42465 19.0169 9.25065 18.6676C9.07598 18.3189 9.21732 17.8949 9.56665 17.7202C11.1806 16.9136 12.818 16.9136 14.4333 17.7202C14.782 17.8949 14.9233 18.3189 14.7493 18.6676C14.626 18.9156 14.3766 19.0582 14.1173 19.0582Z" fill="#65471B"/>
<path d="M18.701 6.27413C18.093 5.87879 17.369 5.64746 16.5897 5.64746C14.4457 5.64746 12.707 7.38546 12.707 9.53013C12.707 10.3095 12.939 11.0335 13.3337 11.6415L18.701 6.27413ZM14.933 13.0368C15.4364 13.2748 15.9964 13.4121 16.5897 13.4121C18.7337 13.4121 20.4724 11.6741 20.4724 9.52946C20.4724 8.93613 20.335 8.37546 20.097 7.87279L14.933 13.0368Z" fill="#BDDDF4"/>
</svg>
