<svg width="382" height="475" viewBox="0 0 382 475" fill="none" xmlns="http://www.w3.org/2000/svg">
<circle cx="191" cy="230" r="191" fill="#FFEFE3"/>
<path d="M317.474 88.4534C301.228 101.991 299.589 122.212 303.167 145.47C304.958 157.111 308.065 169.579 311.353 182.435C311.614 183.453 311.875 184.474 312.137 185.497C315.188 197.402 318.317 209.615 320.655 221.841C325.734 248.404 327.046 274.891 315.76 298.167C304.488 321.417 280.567 341.618 234.826 355.432C182.324 371.288 134.721 354.215 100.209 321.721C65.6806 289.213 44.3023 241.305 44.3023 195.63C44.3023 104.355 119.706 46.2631 209.867 30.1793C241.541 24.5289 283.231 27.0945 309.579 37.1781C322.792 42.2347 331.904 49.0879 334.214 57.5103C336.505 65.8595 332.201 76.1806 317.474 88.4534Z" stroke="#F8A737" stroke-width="1.41704"/>
<path d="M324.383 156.343L307.691 152.923L305.712 165.926C320.814 165.965 324.098 169.309 334.147 169.886C345.886 170.559 348.38 171.138 360.075 171.168C363.411 171.177 363.741 163.556 361.272 162.939L342.857 158.132C342.264 157.978 342.124 157.2 342.625 156.847L345.585 154.764C347.421 153.898 346.937 151.628 345.657 151.932C337.91 153.773 333.086 151.927 324.383 156.343Z" fill="#FF986C"/>
<path d="M40.2694 147.123C29.2753 143.251 24.956 149.01 16.5343 144.36C14.7957 143.4 14.5051 146.147 16.1696 147.913L22.6755 151.845C14.5519 155.322 10.3999 155.048 2.96824 154.718C1.00062 154.63 0.183447 161.871 2.10628 162.395C7.14754 164.544 15.0553 166.201 24.2738 166.168C31.4357 166.143 40.2477 163.796 44.3492 158.639L74.1167 157.125L71.5109 140.865C59.0946 142.99 51.2317 146.131 40.2694 147.123Z" fill="#FF986C"/>
<path d="M181.585 401.64L162.591 404.871L176.316 435.688L192.258 433.333L181.585 401.64Z" fill="#FF986C"/>
<path d="M180.916 312.142L162.957 318.007L180.916 346.229C185.936 346.156 188.701 344.56 193.414 337.711L180.916 312.142Z" fill="#FF986C"/>
<path d="M168.769 418.77L166.895 414.647L182.264 404.15L184.888 411.273C180.39 418.02 174.392 419.52 168.769 418.77Z" fill="#FF814B"/>
<path d="M154.709 234.072L119.311 236.794C112.939 276.792 147.025 374.311 163.522 413.895C170.644 417.269 178.517 416.519 184.215 407.436C165.965 340.768 157.921 303.02 154.709 234.072Z" fill="#FFC33D"/>
<path d="M165.117 103.711C167.075 100.73 171.138 90.0393 168.92 80.7969L188.514 75.6211C187.371 79.2313 185.053 92.0932 193.862 100.784C188.577 107.808 169.37 112.191 165.117 103.711Z" fill="#FF986C"/>
<path d="M187.405 82.6454C181.121 88.9302 174.466 91.5181 168.551 91.5181L188.515 75.6211C187.921 79.087 187.637 79.1814 187.405 82.6454Z" fill="#FF814B"/>
<path d="M195.226 61.0321C192.465 77.5896 175.606 90.7997 168.128 91.5475C160.97 92.2633 143.195 67.9264 149.875 41.8C154.38 24.182 168.332 24.2754 179.88 27.3699C193.486 31.0159 197.521 42.9928 195.226 61.0321Z" fill="#FF986C"/>
<path d="M190.681 7.59444C179.465 10.1553 175.179 19.3296 180.051 34.3554L186.974 35.0565C189.131 36.9154 192.207 53.7567 195.09 60.0999C196.911 64.1049 205.99 73.1596 210.775 70.4722C205.944 65.8766 209.901 51.0183 211.889 46.1969C215.063 38.4965 215.97 28.5087 213.043 20.0585C210.448 12.5661 200.51 5.35041 190.681 7.59444Z" fill="#14004B"/>
<path d="M175.732 24.8282C180.443 23.992 184.296 26.4043 187.695 29.028C186.489 25.2878 181.81 21.298 178.584 19.3253C176.385 19.3253 174.742 22.9947 175.732 24.8282Z" fill="#FFC33D"/>
<path d="M182.251 60.0178C182.251 61.8508 182.984 63.3171 183.55 64.0239C188.116 55.6188 193.615 66.6164 186.284 70.6489C187.017 73.215 187.383 75.4146 187.383 77.9807C213.127 53.9089 196.637 22.237 172.721 23.359C149.76 24.4361 145.226 44.6211 149.077 61.3467C149.886 55.4175 161.693 48.6188 163.447 43.0841C166.833 48.1814 170.731 57.862 182.251 60.0178Z" fill="#14004B"/>
<path d="M51.9727 158.493C54.0461 153.462 54.0227 150.814 51.9727 144.91C55.8326 148.344 56.688 152.144 57.0919 158.241L51.9727 158.493Z" fill="#FF814B"/>
<path d="M108.102 132.091L51.9727 145.151C55.9102 151.528 55.5503 154.768 52.6707 159.807C69.228 160.636 89.0248 161.966 105.466 160.636C121.779 154.768 130.418 151.168 146.289 143.04L152.374 102.576C138.252 115.187 127.454 122 108.102 132.091Z" fill="#FB2F4D"/>
<path d="M215.445 102.447C206.357 100.648 195.564 99.8513 190.674 96.5605C180.469 106.415 169.799 106.438 167.639 98.1589C162.537 98.4886 154.664 100.442 152.376 102.576C147.274 117.335 131.686 126.47 131.686 141.801C131.686 149.544 137.699 163.625 136.437 174.201C133.299 200.48 128.259 218.837 114.941 244.033C133.298 250.152 170.732 233.235 212.126 228.555C208.526 222.436 188.715 201.427 188.715 188.757C188.715 172.262 215.445 156.582 215.445 140.394V102.447Z" fill="#FB2F4D"/>
<path d="M147.821 111.943C141.02 121.373 132.227 129.293 132.227 140.975C132.227 144.629 133.513 149.64 134.797 155.053" stroke="#EE1E3D" stroke-width="1.34952" stroke-linecap="round" stroke-linejoin="round"/>
<path d="M314.328 166.437C312.102 161.868 313.086 156.925 315.391 153.928C311.531 157.09 310.608 160.423 310.204 166.039L314.328 166.437Z" fill="#FF814B"/>
<path d="M214.284 139.291C212.061 144.69 190.888 152.969 177.21 153.329C168.215 153.565 161.453 153.287 154.894 150.809C149.365 152.126 142.743 152.136 137.708 151.03C136.894 150.851 136.369 151.829 137.13 152.169C142.527 154.581 149.506 154.409 154.534 154.409C158.133 155.848 170.371 158.728 177.21 158.368C183.479 158.038 176.379 187.883 194.127 203.361C183.042 187.674 192.328 171.686 194.487 168.086C197.091 163.748 213.204 155.128 215.364 143.25C217.165 140.452 215.364 140.011 214.284 139.291Z" fill="#EE1E3D"/>
<path d="M171.769 331.8L169.895 329.176L183.765 317.93L186.389 323.178C181.12 328.495 177.692 330.522 171.769 331.8Z" fill="#FF814B"/>
<path d="M148.505 243.611C136.784 245.167 127.256 245.956 118.512 244.975L118.912 254.953C120.579 254.602 124.256 255.055 124.91 256.827C133.907 281.193 149.546 301.65 166.52 336.299L148.505 243.611Z" fill="#ECB231"/>
<path d="M193.511 232.461C201.349 232.455 205.603 231.949 212.987 230.432C229.847 260.486 211.154 293.106 174.505 283.577C176.331 297.213 178.143 304.947 184.767 319.129C179.215 327.005 174.877 329.776 164.79 331.568C146.098 298.947 110.728 243.993 131.988 223.101C150.363 205.046 181.141 226.464 193.511 232.461Z" fill="#FFC33D"/>
<path d="M218.253 244.08C213.385 243.074 208.882 241.081 205.883 238.832H216.754C217.4 240.736 217.76 241.811 218.253 244.08Z" fill="#ECB231"/>
<path d="M132.781 223.088C111.52 243.979 146.327 298.429 165.019 331.049" stroke="#ECB231" stroke-width="1.49946" stroke-linecap="round"/>
<path d="M188.639 422.518C190.705 433.389 178.893 436.762 173.27 428.89C174.047 442.433 176.567 449.992 185.976 462.21C189.763 467.128 193.134 470.098 200.091 474.856C201.36 475.724 207.464 472.4 207.381 470.992C207.03 465.02 206.678 459.049 204.972 453.078C200.449 437.255 197.17 429.011 188.639 422.518Z" fill="#2626FF"/>
<path d="M181.752 355.867C180.097 352.248 178.341 348.305 179.64 344.172C184.888 350.92 192.566 336.926 189.748 330.313C192.187 330.745 193.707 331.131 195.204 332.288C196.7 333.445 207.163 358.928 202.515 378.635C201.934 381.1 195.68 384.641 194.394 382.893C190.975 378.246 185.458 363.975 181.752 355.867Z" fill="#2626FF"/>
<path d="M261.192 143.21C243.72 127.407 226.521 104.017 214.283 102.217C208.511 114.78 206.657 125.027 208.524 140.011C217.522 150.089 229.365 157.093 246.412 165.733C266.474 168.446 283.031 169.166 312.187 167.006C310.387 161.607 312.187 156.568 315.389 154.471L261.192 143.21Z" fill="#FB2F4D"/>
<path d="M174.032 289.591C174.115 289.997 174.512 290.258 174.917 290.175C175.323 290.092 175.584 289.695 175.501 289.29L174.032 289.591ZM167.592 248.304C167.439 247.919 167.003 247.731 166.618 247.883C166.233 248.036 166.045 248.471 166.198 248.856L167.592 248.304ZM175.501 289.29C174.011 282.027 174.021 276.885 173.404 270.901C172.788 264.932 171.554 258.305 167.592 248.304L166.198 248.856C170.107 258.723 171.31 265.216 171.912 271.055C172.513 276.88 172.523 282.234 174.032 289.591L175.501 289.29Z" fill="#ECB231"/>
<path d="M216.003 245.207C193.886 259.077 168.02 231.711 162.397 238.084C157.072 244.119 163.897 247.081 166.896 265.074" stroke="#CE6F00" stroke-width="0.979866" stroke-linecap="round" stroke-linejoin="round" stroke-dasharray="5.6 2.8"/>
<path d="M220.126 240.709C212.628 242.208 202.438 238.184 191.566 231.436C199.207 229.895 203.549 229.207 212.119 228.551L220.126 240.709Z" fill="#FB2F4D"/>
</svg>
