<svg width="88" height="88" viewBox="0 0 88 88" fill="none" xmlns="http://www.w3.org/2000/svg">
<ellipse opacity="0.2" cx="46.407" cy="44" rx="41.5945" ry="44" fill="#FCF4F2"/>
<rect x="3.47266" y="13.2979" width="15.477" height="56.2791" rx="2" fill="#A055FF"/>
<rect x="3.47266" y="21.4863" width="14.5097" height="16.3721" fill="#FFC33D"/>
<rect x="3.47266" y="30.6934" width="14.5097" height="7.16279" fill="#FFD29E"/>
<rect x="3.47266" y="59.3447" width="14.5097" height="4.09302" fill="#FFC33D"/>
<path d="M3.47266 15.2979C3.47266 14.1933 4.36809 13.2979 5.47266 13.2979H6.3746V69.5769H5.47266C4.36809 69.5769 3.47266 68.6815 3.47266 67.5769V15.2979Z" fill="black" fill-opacity="0.2"/>
<rect x="17.9844" y="17.3916" width="12.5751" height="52.186" rx="2" fill="#FF7C7C"/>
<rect x="17.9844" y="29.6699" width="11.6078" height="6.13953" fill="#6DC871"/>
<rect x="17.9844" y="37.8545" width="11.6078" height="6.13953" fill="#6DC871"/>
<path d="M17.9844 19.3916C17.9844 18.287 18.8798 17.3916 19.9844 17.3916H21.8536V69.5776H19.9844C18.8798 69.5776 17.9844 68.6822 17.9844 67.5776V19.3916Z" fill="black" fill-opacity="0.2"/>
<rect x="29.5898" y="23.5371" width="12.5751" height="46.0465" rx="2" fill="#1CADFF"/>
<rect x="29.5898" y="59.3525" width="12.5751" height="2.04705" fill="#7FDEE1"/>
<rect x="29.5898" y="62.4189" width="12.5751" height="2.04705" fill="#7FDEE1"/>
<ellipse cx="36.36" cy="38.8887" rx="4.83657" ry="5.11628" fill="#7FDEE1"/>
<path d="M29.5898 25.5371C29.5898 24.4325 30.4853 23.5371 31.5898 23.5371H33.4591V69.5836H31.5898C30.4853 69.5836 29.5898 68.6882 29.5898 67.5836V25.5371Z" fill="black" fill-opacity="0.2"/>
<rect width="15.7057" height="55.5263" rx="2" transform="matrix(0.853284 -0.521447 0.478855 0.877894 32.4922 21.4814)" fill="#FFB856"/>
<rect width="15.6956" height="2.01912" transform="matrix(0.853423 -0.521219 0.479076 0.877773 36.625 29.0664)" fill="#FFE8D6"/>
<rect width="15.6606" height="2.01912" transform="matrix(0.853423 -0.521219 0.479076 0.877773 38.5664 32.6084)" fill="#FFE8D6"/>
<rect width="15.6555" height="2.01912" transform="matrix(0.853423 -0.521219 0.479076 0.877773 40.5117 36.1436)" fill="#FFE8D6"/>
<ellipse cx="61.5099" cy="57.2962" rx="3.86926" ry="4.09302" fill="#FFD29E"/>
<path d="M33.4499 23.2372C32.921 22.2675 33.2562 21.0145 34.1988 20.4386L35.005 19.9459L61.594 68.692L60.7878 69.1847C59.8453 69.7607 58.6524 69.4415 58.1235 68.4718L33.4499 23.2372Z" fill="black" fill-opacity="0.1"/>
<path fill-rule="evenodd" clip-rule="evenodd" d="M2.95971 85.4911C3.27809 85.811 3.72274 85.9549 4.17403 85.9549L67.2545 85.9549C68.3591 85.9549 69.2545 85.0595 69.2545 83.9549V82.8867H63.4495V71.6309H69.2545V70.5596C69.2545 69.455 68.3591 68.5596 67.2545 68.5596L4.22197 68.5596C3.74153 68.5596 3.27027 68.7267 2.93424 69.0701C-1.51831 73.6202 -0.382734 82.1333 2.95971 85.4911Z" fill="#54D5CC"/>
<path d="M4.23862 85.9551C3.73307 85.9551 3.23954 85.771 2.90405 85.3928C-0.389338 81.6803 -1.5014 74.0498 2.89104 69.1422C3.23666 68.756 3.74167 68.5597 4.25991 68.5597L15.0804 68.5597L15.0804 85.9551L4.23862 85.9551Z" fill="black" fill-opacity="0.1"/>
<path d="M67.3164 82.8857C64.5011 82.8857 64.5011 71.6299 67.3164 71.6299L5.44101 71.6299C4.88872 71.6299 4.44101 72.0776 4.44101 72.6299L4.44101 81.8857C4.44101 82.438 4.88872 82.8857 5.44101 82.8857L67.3164 82.8857Z" fill="#F3F4F4"/>
<path d="M69.25 71.6309C43.4159 72.4198 27.6555 74.7006 4.43997 79.8169L4.43997 72.6309C4.43997 72.0786 4.88769 71.6309 5.43997 71.6309L69.25 71.6309Z" fill="black" fill-opacity="0.1"/>
</svg>
