<svg width="102" height="107" viewBox="0 0 102 107" fill="none" xmlns="http://www.w3.org/2000/svg">
<g clip-path="url(#clip0_2703:70410)">
<path fill-rule="evenodd" clip-rule="evenodd" d="M45.0171 63.156C44.4721 62.9904 43.884 63.079 43.4043 63.3967C42.9246 63.716 42.5962 64.2326 42.5022 64.8211L40.6184 76.6915C40.5212 77.2967 40.6837 77.9169 41.0631 78.3851C41.4408 78.8532 41.997 79.124 42.5835 79.124H59.4932C60.0797 79.124 60.6343 78.8532 61.0136 78.3851C61.3913 77.9169 61.5555 77.2967 61.4583 76.6915L59.5729 64.8211C59.4804 64.2326 59.1521 63.716 58.6724 63.3967C58.1911 63.079 57.6046 62.9904 57.0595 63.156C55.1199 63.7394 53.0975 64.0421 51.0431 64.0421C51.0399 64.0421 51.0367 64.0421 51.032 64.0421C48.9792 64.0421 46.9567 63.7394 45.0171 63.156Z" fill="url(#paint0_linear_2703:70410)"/>
<path fill-rule="evenodd" clip-rule="evenodd" d="M73.3208 90.3349V80.3789C73.3208 77.3779 71.0019 74.9453 68.1411 74.9453H33.9297C31.0689 74.9453 28.75 77.3779 28.75 80.3789V90.3349C28.75 91.4885 29.6425 92.4247 30.7422 92.4247H71.3286C72.4283 92.4247 73.3208 91.4885 73.3208 90.3349Z" fill="url(#paint1_linear_2703:70410)"/>
<path fill-rule="evenodd" clip-rule="evenodd" d="M73.868 21.992C73.2464 22.3632 72.8623 23.057 72.8623 23.8077V31.8695C72.8623 32.6368 73.2639 33.344 73.9094 33.7085C74.5533 34.073 75.3374 34.0379 75.9494 33.6149C78.1328 32.1085 80.1633 30.8546 82.0136 30.0755C82.6814 29.7947 83.303 29.5539 83.8719 29.477C84.1827 29.4335 84.4664 29.462 84.6672 29.7629C85.488 30.9951 85.3685 32.6268 84.9174 34.3455C83.813 38.572 80.439 43.0944 75.6737 46.6522C74.4959 47.5316 73.2926 48.3057 72.0861 48.9677C71.675 49.1934 71.3514 49.5629 71.1729 50.011C69.7864 53.4784 67.6093 56.5112 64.8776 58.8619C64.1827 59.4604 63.9548 60.4719 64.323 61.3329C64.6911 62.1939 65.5629 62.6888 66.4506 62.5417C71.3355 61.7342 76.7271 59.4738 81.7586 55.7188C88.7918 50.4657 93.4488 43.5224 95.0824 37.2847C96.4578 32.0233 95.8107 27.133 93.2974 23.363C90.2517 18.7937 86.1366 17.5147 81.051 18.7653C78.9042 19.2936 76.4849 20.4271 73.868 21.992Z" fill="url(#paint2_linear_2703:70410)"/>
<path fill-rule="evenodd" clip-rule="evenodd" d="M29.2284 23.8077C29.2284 23.057 28.8443 22.3632 28.2227 21.992C25.6058 20.4271 23.1865 19.2936 21.0381 18.7653C15.954 17.5147 11.839 18.7937 8.7933 23.363C6.27996 27.133 5.6313 32.0233 7.0083 37.2847C8.6403 43.5224 13.2972 50.4657 20.332 55.7188C25.3619 59.4738 30.7552 61.7342 35.6384 62.5417C36.5261 62.6888 37.3979 62.1939 37.7661 61.3329C38.1342 60.4719 37.9079 59.4604 37.213 58.8619C34.4814 56.5112 32.3043 53.4784 30.9177 50.011C30.7376 49.5629 30.4157 49.1934 30.0045 48.9677C28.798 48.3057 27.5948 47.5316 26.4154 46.6522C21.6517 43.0944 18.2777 38.572 17.1716 34.3455C16.7222 32.6268 16.6011 30.9951 17.4219 29.7629C17.6243 29.462 17.9064 29.4335 18.2171 29.477C18.7877 29.5539 19.4077 29.7947 20.077 30.0755C21.9274 30.8546 23.9562 32.1085 26.1413 33.6149C26.7533 34.0379 27.5374 34.073 28.1813 33.7085C28.8267 33.344 29.2284 32.6368 29.2284 31.8695V23.8077Z" fill="url(#paint3_linear_2703:70410)"/>
<path fill-rule="evenodd" clip-rule="evenodd" d="M65.9729 38.8083L62.7727 35.5698C61.4021 34.1839 59.2362 34.1621 57.8416 35.5247L54.3545 38.9286V15.1562C54.3545 14.0027 53.462 13.0664 52.3623 13.0664H27.2305C26.1292 13.0664 25.2383 14.0027 25.2383 15.1562V41.1572C25.2383 56.1055 36.7882 68.2216 51.0379 68.2216C51.0395 68.2216 51.0395 68.2216 51.0411 68.2216C65.2892 68.2216 76.8407 56.1055 76.8407 41.1572C76.8407 28.2454 76.8407 15.1562 76.8407 15.1562C76.8407 14.0027 75.9482 13.0664 74.8485 13.0664H67.9651C66.8654 13.0664 65.9729 14.0027 65.9729 15.1562V38.8083Z" fill="url(#paint4_linear_2703:70410)"/>
<path fill-rule="evenodd" clip-rule="evenodd" d="M67.9618 4.59766C66.8621 4.59766 65.9696 5.53391 65.9696 6.6875V15.1572C65.9696 16.3108 66.8621 17.2471 67.9618 17.2471H74.8388C76.2301 17.2471 77.5641 16.6669 78.549 15.6354C79.5324 14.6022 80.0854 13.2028 80.0854 11.7433C80.0854 11.2016 80.0854 10.6432 80.0854 10.1015C80.0854 8.64192 79.5324 7.24256 78.549 6.20934C77.5641 5.1778 76.2301 4.59766 74.8388 4.59766H67.9618ZM54.3511 6.6875C54.3511 5.53391 53.4586 4.59766 52.359 4.59766H26.9371C25.5457 4.59766 24.2101 5.1778 23.2268 6.20934C22.2435 7.24256 21.6904 8.64192 21.6904 10.1015C21.6904 10.6432 21.6904 11.2016 21.6904 11.7433C21.6904 13.2028 22.2435 14.6022 23.2268 15.6354C24.2101 16.6669 25.5457 17.2471 26.9371 17.2471H52.359C53.4586 17.2471 54.3511 16.3108 54.3511 15.1572V6.6875Z" fill="url(#paint5_linear_2703:70410)"/>
<path fill-rule="evenodd" clip-rule="evenodd" d="M81.7764 95.3176C81.7764 93.4401 81.0656 91.6411 79.8001 90.3136C78.5363 88.9878 76.8198 88.2422 75.0316 88.2422H27.0406C25.2509 88.2422 23.536 88.9878 22.2706 90.3136C21.0067 91.6411 20.2959 93.4401 20.2959 95.3176V95.3209C20.2959 97.1968 21.0067 98.9974 22.2706 100.323C23.536 101.651 25.2509 102.396 27.0406 102.396H75.0316C76.8198 102.396 78.5363 101.651 79.8001 100.323C81.0656 98.9974 81.7764 97.1968 81.7764 95.3209V95.3176Z" fill="url(#paint6_linear_2703:70410)"/>
<path fill-rule="evenodd" clip-rule="evenodd" d="M54.3513 38.9303V24.7996C54.3513 23.7212 53.5687 22.8201 52.5439 22.7198C52.0483 22.6696 51.5447 22.6445 51.0363 22.6445C42.1925 22.6445 35.0127 30.1763 35.0127 39.4536C35.0127 48.7308 42.1925 56.2626 51.0363 56.2626C59.4066 56.2626 66.2853 49.5166 66.9993 40.9282C67.0503 40.2995 66.8303 39.6793 66.3968 39.2412L62.7694 35.5715C61.3988 34.1855 59.2329 34.1638 57.8384 35.5263L54.3513 38.9303Z" fill="url(#paint7_linear_2703:70410)"/>
<path fill-rule="evenodd" clip-rule="evenodd" d="M57.3485 40.7436L54.1132 39.508C54.2598 39.5749 54.3538 33.3572 54.3538 33.3572C54.3538 32.9359 54.2327 32.5263 54.0064 32.1785L52.6836 30.1455C52.3138 29.5754 51.6971 29.2344 51.0388 29.2344C50.3806 29.2344 49.7638 29.5754 49.3925 30.1455L47.1278 33.6297L43.2693 34.8134C42.6366 35.0074 42.1362 35.5156 41.9338 36.1727C41.7298 36.8297 41.8493 37.5503 42.2509 38.097L44.7101 41.434L44.5905 45.6488C44.5714 46.3393 44.879 46.9964 45.4113 47.4026C45.9436 47.8089 46.6337 47.9126 47.2537 47.6785L51.0388 46.2574L54.824 47.6785C55.444 47.9126 56.1341 47.8089 56.6664 47.4026C57.1987 46.9964 57.5063 46.3393 57.4872 45.6488L57.3485 40.7436Z" fill="url(#paint8_linear_2703:70410)"/>
<path fill-rule="evenodd" clip-rule="evenodd" d="M69.9524 4.59766H50.3652V39.8893C50.3652 41.3856 51.2099 42.7398 52.5184 43.3383C53.8269 43.9352 55.3489 43.6627 56.3928 42.6428L60.2736 38.8544L63.8771 42.5007C64.913 43.549 66.4446 43.8466 67.769 43.2564C69.0934 42.6662 69.9524 41.302 69.9524 39.794V4.59766Z" fill="#EF5451"/>
</g>
<defs>
<linearGradient id="paint0_linear_2703:70410" x1="50.8616" y1="71.8857" x2="50.8616" y2="62.1349" gradientUnits="userSpaceOnUse">
<stop stop-color="#FFA14E"/>
<stop offset="1" stop-color="#D76500"/>
</linearGradient>
<linearGradient id="paint1_linear_2703:70410" x1="51.118" y1="83.9535" x2="51.118" y2="96.5813" gradientUnits="userSpaceOnUse">
<stop stop-color="#455A63"/>
<stop offset="1" stop-color="#18313C"/>
</linearGradient>
<linearGradient id="paint2_linear_2703:70410" x1="84.2444" y1="37.7115" x2="69.0554" y2="37.7115" gradientUnits="userSpaceOnUse">
<stop stop-color="#FDA04E"/>
<stop offset="1" stop-color="#D66400"/>
</linearGradient>
<linearGradient id="paint3_linear_2703:70410" x1="18.3335" y1="37.7601" x2="34.4442" y2="37.7601" gradientUnits="userSpaceOnUse">
<stop stop-color="#FDA04E"/>
<stop offset="1" stop-color="#D66400"/>
</linearGradient>
<linearGradient id="paint4_linear_2703:70410" x1="41.098" y1="24.1233" x2="41.098" y2="7.66834" gradientUnits="userSpaceOnUse">
<stop stop-color="#FDD44F"/>
<stop offset="1" stop-color="#D7A400"/>
</linearGradient>
<linearGradient id="paint5_linear_2703:70410" x1="48.9598" y1="10.3955" x2="48.9598" y2="21.8767" gradientUnits="userSpaceOnUse">
<stop stop-color="#FDA04E"/>
<stop offset="1" stop-color="#D66400"/>
</linearGradient>
<linearGradient id="paint6_linear_2703:70410" x1="50.3661" y1="95.3189" x2="50.3661" y2="111.514" gradientUnits="userSpaceOnUse">
<stop stop-color="#FFD54F"/>
<stop offset="1" stop-color="#D8A500"/>
</linearGradient>
<linearGradient id="paint7_linear_2703:70410" x1="52.5902" y1="44.8649" x2="52.5902" y2="78.5788" gradientUnits="userSpaceOnUse">
<stop stop-color="#EEF4FE"/>
<stop offset="1" stop-color="#5896FF"/>
</linearGradient>
<linearGradient id="paint8_linear_2703:70410" x1="50.3688" y1="39.2907" x2="50.3688" y2="58.1692" gradientUnits="userSpaceOnUse">
<stop stop-color="#FDA04E"/>
<stop offset="1" stop-color="#D66400"/>
</linearGradient>
<clipPath id="clip0_2703:70410">
<rect width="102" height="107" fill="white"/>
</clipPath>
</defs>
</svg>
