<svg width="43" height="43" viewBox="0 0 43 43" fill="none" xmlns="http://www.w3.org/2000/svg">
<path fill-rule="evenodd" clip-rule="evenodd" d="M21.5 42.1687C9.90202 42.1687 0.500001 32.7667 0.500001 21.1687C0.500001 9.57072 9.90202 0.168701 21.5 0.168701C33.098 0.168701 42.5 9.57072 42.5 21.1687C42.5 32.7667 33.098 42.1687 21.5 42.1687Z" fill="#0556F3"/>
<path fill-rule="evenodd" clip-rule="evenodd" d="M21.5 42.1687C9.90202 42.1687 0.500001 32.7667 0.500001 21.1687C0.500001 9.57072 9.90202 0.168701 21.5 0.168701C33.098 0.168701 42.5 9.57072 42.5 21.1687C42.5 32.7667 33.098 42.1687 21.5 42.1687Z" fill="#3EDC70"/>
<path fill-rule="evenodd" clip-rule="evenodd" d="M23.0344 7.22632C23.0344 7.22632 25.7009 9.91591 20.5046 14.0504C17.2824 16.6158 18.4752 18.3283 19.6205 19.9724C19.9563 20.4545 20.2881 20.9307 20.5032 21.4209C18.0705 19.2087 16.2861 17.2609 17.483 15.4483C18.0678 14.5632 18.997 13.8298 19.9371 13.0878C21.8227 11.5996 23.7521 10.0767 23.0344 7.22632ZM21.6573 19.5966C22.8962 21.034 21.3324 22.3264 21.3324 22.3264C21.3324 22.3264 24.4762 20.6908 23.0327 18.6417C22.9748 18.5597 22.9175 18.4794 22.8612 18.4007C21.6075 16.6459 20.8906 15.6424 26.2476 12.5105L26.2467 12.5107C26.1449 12.5368 17.4858 14.7507 21.6573 19.5966ZM17.0955 27.2357C17.0955 27.2357 16.1153 27.8107 17.794 28.0047C19.828 28.2389 20.8674 28.2054 23.1083 27.7784C23.1083 27.7784 23.6986 28.1504 24.5215 28.4729C19.4963 30.6431 13.149 28.3471 17.0955 27.2357ZM16.4811 24.4033C16.4811 24.4033 15.3814 25.2239 17.0615 25.3993C19.2344 25.6254 20.9499 25.6439 23.9199 25.0676C23.9199 25.0676 24.3297 25.4874 24.9751 25.7166C18.9006 27.5075 12.1349 25.8576 16.4811 24.4033ZM27.5044 30.401C29.0295 29.9348 28.3038 29.3316 28.3038 29.3316C30.9607 30.5402 22.531 32.9681 12.2867 31.2941C8.53 30.6795 14.0941 28.5369 15.1126 29.2597C15.1126 29.2597 14.791 29.2373 14.2278 29.3602C13.6876 29.4778 11.9707 30.0347 12.8859 30.4364C15.4331 31.5534 24.6047 31.2864 27.5044 30.401ZM15.9164 22.9917C12.9034 22.5857 17.5681 21.4687 17.5681 21.4687C17.5681 21.4687 15.7562 21.3451 13.5289 22.431C10.8942 23.7153 20.0448 24.3004 24.7828 23.0442C25.2754 22.7055 25.9556 22.4114 25.9556 22.4114C25.9556 22.4114 24.0181 22.7606 22.0873 22.9241C19.7241 23.124 17.1887 23.1633 15.9164 22.9917ZM26.971 21.5644C28.5253 21.238 30.7522 23.6616 25.9363 26.1835C25.916 26.238 25.8535 26.2984 25.8419 26.3096L25.8401 26.3114C32.2707 24.6072 29.9065 20.3046 26.8318 21.3938C26.562 21.49 26.4205 21.7137 26.4205 21.7137C26.4205 21.7137 26.591 21.6442 26.971 21.5644ZM29.9303 30.6479C29.7623 32.8525 22.6634 33.3162 18.0419 33.0183C15.0044 32.8214 14.4133 32.3281 14.4133 32.3279C17.2988 32.8082 22.1654 32.8954 26.1105 32.1468C29.6073 31.4837 29.9303 30.6479 29.9303 30.6479Z" fill="white"/>
<path d="M20.5046 14.0504L20.3957 13.9135L20.3956 13.9135L20.5046 14.0504ZM23.0344 7.22632L23.1587 7.10311C23.1031 7.04711 23.017 7.03516 22.9484 7.07392C22.8797 7.11268 22.8454 7.19258 22.8647 7.26905L23.0344 7.22632ZM19.6205 19.9724L19.4769 20.0724L19.4769 20.0724L19.6205 19.9724ZM20.5032 21.4209L20.3854 21.5504C20.4466 21.6059 20.5382 21.6112 20.6053 21.563C20.6724 21.5148 20.6966 21.4262 20.6634 21.3506L20.5032 21.4209ZM17.483 15.4483L17.337 15.3518L17.337 15.3518L17.483 15.4483ZM19.9371 13.0878L19.8287 12.9504L19.8287 12.9504L19.9371 13.0878ZM21.3324 22.3264L21.221 22.1915C21.152 22.2485 21.1371 22.3484 21.1866 22.4231C21.236 22.4977 21.3338 22.523 21.4132 22.4816L21.3324 22.3264ZM21.6573 19.5966L21.5247 19.7108L21.5248 19.7108L21.6573 19.5966ZM23.0327 18.6417L23.1758 18.5409L23.1757 18.5407L23.0327 18.6417ZM22.8612 18.4007L22.7188 18.5024L22.7188 18.5024L22.8612 18.4007ZM26.2476 12.5105L26.336 12.6616C26.4113 12.6175 26.4427 12.5247 26.4095 12.4439C26.3763 12.3632 26.2887 12.3193 26.2041 12.341L26.2476 12.5105ZM26.2467 12.5107L26.2901 12.6803L26.2902 12.6802L26.2467 12.5107ZM17.794 28.0047L17.7739 28.1786L17.774 28.1786L17.794 28.0047ZM17.0955 27.2357L17.184 27.3867C17.2599 27.3421 17.291 27.2482 17.2565 27.1672C17.222 27.0862 17.1328 27.0434 17.048 27.0673L17.0955 27.2357ZM23.1083 27.7784L23.2016 27.6303C23.1641 27.6067 23.119 27.5982 23.0755 27.6065L23.1083 27.7784ZM24.5215 28.4729L24.5909 28.6336C24.656 28.6055 24.6977 28.5409 24.6965 28.47C24.6953 28.3991 24.6514 28.3359 24.5854 28.31L24.5215 28.4729ZM17.0615 25.3993L17.0434 25.5733L17.0434 25.5733L17.0615 25.3993ZM16.4811 24.4033L16.5857 24.5436C16.6546 24.4922 16.676 24.3984 16.6361 24.3222C16.5963 24.246 16.5071 24.2101 16.4256 24.2374L16.4811 24.4033ZM23.9199 25.0676L24.0451 24.9454C24.0039 24.9032 23.9443 24.8846 23.8865 24.8958L23.9199 25.0676ZM24.9751 25.7166L25.0246 25.8845C25.0973 25.863 25.148 25.7972 25.15 25.7214C25.1521 25.6456 25.1051 25.5771 25.0337 25.5517L24.9751 25.7166ZM28.3038 29.3316L28.3763 29.1723C28.2965 29.136 28.2022 29.1644 28.1556 29.2386C28.109 29.3129 28.1246 29.4102 28.192 29.4662L28.3038 29.3316ZM27.5044 30.401L27.5555 30.5683L27.5555 30.5683L27.5044 30.401ZM12.2867 31.2941L12.2585 31.4668L12.2585 31.4668L12.2867 31.2941ZM15.1126 29.2597L15.1004 29.4343C15.1787 29.4397 15.251 29.3925 15.2774 29.3186C15.3038 29.2448 15.2778 29.1624 15.2139 29.117L15.1126 29.2597ZM14.2278 29.3602L14.265 29.5312L14.2651 29.5312L14.2278 29.3602ZM12.8859 30.4364L12.8156 30.5966L12.8156 30.5967L12.8859 30.4364ZM17.5681 21.4687L17.6089 21.6389C17.6929 21.6187 17.7497 21.5402 17.7425 21.4541C17.7353 21.3679 17.6663 21.3 17.58 21.2941L17.5681 21.4687ZM15.9164 22.9917L15.9397 22.8183L15.9397 22.8183L15.9164 22.9917ZM13.5289 22.431L13.6056 22.5883L13.6056 22.5883L13.5289 22.431ZM24.7828 23.0442L24.8276 23.2133C24.847 23.2082 24.8654 23.1997 24.8819 23.1884L24.7828 23.0442ZM25.9556 22.4114L26.0251 22.572C26.1067 22.5367 26.1489 22.4459 26.1232 22.3608C26.0975 22.2757 26.0121 22.2234 25.9246 22.2391L25.9556 22.4114ZM22.0873 22.9241L22.102 23.0985L22.102 23.0985L22.0873 22.9241ZM25.9363 26.1835L25.8551 26.0285C25.8169 26.0485 25.7874 26.082 25.7723 26.1224L25.9363 26.1835ZM26.971 21.5644L27.007 21.7357L27.007 21.7357L26.971 21.5644ZM25.8419 26.3096L25.7203 26.1838L25.719 26.1851L25.8419 26.3096ZM25.8401 26.3114L25.7171 26.1869C25.6607 26.2426 25.6488 26.3293 25.6881 26.3982C25.7275 26.4671 25.8082 26.5009 25.8849 26.4806L25.8401 26.3114ZM26.8318 21.3938L26.7734 21.2289L26.773 21.229L26.8318 21.3938ZM26.4205 21.7137L26.2726 21.6201C26.232 21.6844 26.2375 21.7676 26.2863 21.826C26.3352 21.8843 26.4161 21.9044 26.4866 21.8757L26.4205 21.7137ZM18.0419 33.0183L18.0306 33.193L18.0306 33.193L18.0419 33.0183ZM29.9303 30.6479L30.1048 30.6612C30.1114 30.5747 30.0536 30.4964 29.9689 30.4773C29.8843 30.4581 29.7984 30.5039 29.7671 30.5849L29.9303 30.6479ZM14.4133 32.3279L14.442 32.1553C14.3913 32.1468 14.3394 32.1611 14.3001 32.1944C14.2609 32.2276 14.2383 32.2765 14.2383 32.3279H14.4133ZM26.1105 32.1468L26.0779 31.9748L26.0779 31.9748L26.1105 32.1468ZM20.6136 14.1874C23.2363 12.1005 23.9112 10.3481 23.8931 9.08541C23.8841 8.45776 23.7035 7.96516 23.5243 7.62887C23.4347 7.46081 23.3454 7.33148 23.2775 7.24328C23.2436 7.19916 23.215 7.16522 23.1943 7.14179C23.184 7.13007 23.1756 7.12096 23.1696 7.1145C23.1665 7.11127 23.1641 7.10871 23.1623 7.10681C23.1613 7.10586 23.1606 7.10507 23.16 7.10446C23.1597 7.10415 23.1594 7.10388 23.1592 7.10366C23.1591 7.10355 23.159 7.10341 23.1589 7.10335C23.1588 7.10323 23.1587 7.10311 23.0344 7.22632C22.9101 7.34953 22.91 7.34943 22.9099 7.34935C22.9099 7.34933 22.9098 7.34926 22.9098 7.34922C22.9097 7.34916 22.9097 7.34914 22.9097 7.34916C22.9098 7.3492 22.91 7.3494 22.9103 7.34976C22.911 7.35048 22.9123 7.35183 22.9142 7.35382C22.9179 7.35779 22.9239 7.36429 22.9318 7.37328C22.9477 7.39126 22.9713 7.41915 23.0001 7.45664C23.0578 7.53168 23.1362 7.64478 23.2154 7.79347C23.3738 8.09068 23.535 8.52889 23.5431 9.09044C23.5592 10.2062 22.9692 11.8658 20.3957 13.9135L20.6136 14.1874ZM19.7641 19.8724C19.1841 19.0398 18.6357 18.2437 18.5996 17.3498C18.5642 16.4758 19.0225 15.4541 20.6136 14.1873L20.3956 13.9135C18.7645 15.2121 18.208 16.3293 18.2499 17.3639C18.2909 18.3787 18.9116 19.2609 19.4769 20.0724L19.7641 19.8724ZM20.6634 21.3506C20.4401 20.8418 20.0976 20.3512 19.7641 19.8724L19.4769 20.0724C19.815 20.5578 20.136 21.0197 20.3429 21.4912L20.6634 21.3506ZM17.337 15.3518C17.017 15.8364 16.8933 16.3365 16.9334 16.8488C16.9732 17.3571 17.1734 17.8662 17.4824 18.3755C18.0978 19.3901 19.1706 20.4457 20.3854 21.5504L20.6209 21.2914C19.403 20.1839 18.3673 19.1594 17.7816 18.194C17.49 17.7132 17.3165 17.2573 17.2823 16.8214C17.2485 16.3895 17.3505 15.9665 17.629 15.5447L17.337 15.3518ZM19.8287 12.9504C18.8944 13.6879 17.9403 14.4387 17.337 15.3518L17.629 15.5448C18.1953 14.6877 19.0996 13.9718 20.0455 13.2252L19.8287 12.9504ZM22.8647 7.26905C23.2104 8.64205 22.9198 9.6844 22.3173 10.5694C21.7069 11.466 20.7765 12.2024 19.8287 12.9504L20.0455 13.2252C20.9833 12.485 21.9604 11.7158 22.6067 10.7663C23.2609 9.80522 23.5761 8.66096 23.2041 7.18359L22.8647 7.26905ZM21.3324 22.3264C21.4439 22.4613 21.444 22.4612 21.4441 22.4612C21.4441 22.4611 21.4442 22.4611 21.4442 22.461C21.4444 22.4609 21.4445 22.4608 21.4447 22.4606C21.4451 22.4603 21.4455 22.46 21.4461 22.4595C21.4471 22.4586 21.4486 22.4574 21.4504 22.4558C21.454 22.4528 21.459 22.4484 21.4653 22.4429C21.4779 22.4318 21.4957 22.4158 21.5175 22.3952C21.561 22.3541 21.6209 22.2943 21.6884 22.2181C21.8228 22.0663 21.9906 21.846 22.1179 21.5749C22.2453 21.3034 22.3345 20.9761 22.3036 20.6147C22.2725 20.2511 22.1212 19.8668 21.7899 19.4823L21.5248 19.7108C21.8129 20.0451 21.9307 20.3614 21.9548 20.6444C21.9792 20.9296 21.9097 21.1949 21.8011 21.4262C21.6922 21.6579 21.5465 21.8504 21.4264 21.986C21.3667 22.0534 21.3141 22.1058 21.277 22.1409C21.2584 22.1585 21.2438 22.1716 21.2341 22.1802C21.2292 22.1844 21.2256 22.1875 21.2234 22.1894C21.2223 22.1904 21.2215 22.191 21.2211 22.1914C21.2209 22.1916 21.2208 22.1917 21.2208 22.1917C21.2207 22.1917 21.2208 22.1917 21.2208 22.1916C21.2208 22.1916 21.2208 22.1916 21.2209 22.1916C21.2209 22.1915 21.221 22.1915 21.3324 22.3264ZM22.8897 18.7425C23.224 19.217 23.2861 19.6544 23.2047 20.0463C23.1217 20.4455 22.8859 20.8146 22.5945 21.1346C22.3041 21.4536 21.9682 21.7133 21.7026 21.8942C21.5703 21.9843 21.4565 22.0541 21.3762 22.1011C21.3361 22.1246 21.3044 22.1424 21.283 22.1542C21.2723 22.1601 21.2642 22.1645 21.2589 22.1673C21.2562 22.1687 21.2543 22.1698 21.2531 22.1704C21.2525 22.1707 21.2521 22.171 21.2518 22.1711C21.2517 22.1711 21.2516 22.1712 21.2516 22.1712C21.2516 22.1712 21.2516 22.1712 21.2516 22.1712C21.2516 22.1712 21.2517 22.1712 21.3324 22.3264C21.4132 22.4816 21.4133 22.4816 21.4134 22.4816C21.4134 22.4815 21.4135 22.4815 21.4136 22.4815C21.4137 22.4814 21.414 22.4813 21.4142 22.4811C21.4147 22.4808 21.4155 22.4805 21.4164 22.48C21.4181 22.4791 21.4207 22.4777 21.4239 22.476C21.4304 22.4725 21.4398 22.4674 21.4518 22.4608C21.4757 22.4477 21.5102 22.4283 21.5532 22.4031C21.6392 22.3527 21.7598 22.2787 21.8996 22.1835C22.1784 21.9936 22.5381 21.7164 22.8533 21.3703C23.1674 21.0253 23.4468 20.6012 23.5474 20.1175C23.6494 19.6264 23.5632 19.0909 23.1758 18.5409L22.8897 18.7425ZM22.7188 18.5024C22.7751 18.5812 22.8322 18.6611 22.8898 18.7426L23.1757 18.5407C23.1174 18.4583 23.0598 18.3776 23.0036 18.2989L22.7188 18.5024ZM26.1593 12.3594C24.8164 13.1445 23.847 13.8003 23.1694 14.3716C22.4935 14.9413 22.0945 15.4381 21.9122 15.9088C21.7261 16.3894 21.7729 16.8243 21.9462 17.2468C22.1153 17.6593 22.4089 18.0687 22.7188 18.5024L23.0036 18.2989C22.6866 17.8553 22.4205 17.4812 22.27 17.1141C22.1237 16.7571 22.091 16.4163 22.2386 16.0352C22.39 15.6442 22.7378 15.1932 23.395 14.6391C24.0505 14.0866 25.0004 13.4424 26.336 12.6616L26.1593 12.3594ZM26.2902 12.6802L26.2911 12.68L26.2041 12.341L26.2032 12.3412L26.2902 12.6802ZM21.79 19.4824C20.7716 18.2995 20.5614 17.3095 20.7698 16.492C20.9814 15.6621 21.6357 14.9611 22.4501 14.3895C24.0778 13.2469 26.2403 12.693 26.2901 12.6803L26.2034 12.3412C26.1513 12.3545 23.9334 12.9206 22.249 14.103C21.4073 14.6938 20.6726 15.4565 20.4307 16.4055C20.1856 17.3668 20.4573 18.4708 21.5247 19.7108L21.79 19.4824ZM17.8141 27.8309C17.4002 27.783 17.1753 27.7138 17.0625 27.6502C17.0078 27.6194 16.9913 27.5965 16.9874 27.5897C16.9857 27.5867 16.9857 27.5872 16.9865 27.5834C16.9915 27.5595 17.0218 27.5141 17.0832 27.4608C17.1097 27.4378 17.1359 27.4187 17.1555 27.4052C17.1652 27.3986 17.173 27.3936 17.1781 27.3904C17.1806 27.3888 17.1824 27.3876 17.1835 27.387C17.184 27.3867 17.1843 27.3865 17.1844 27.3865C17.1844 27.3864 17.1844 27.3864 17.1844 27.3865C17.1843 27.3865 17.1843 27.3865 17.1842 27.3865C17.1842 27.3866 17.1842 27.3866 17.1841 27.3866C17.1841 27.3866 17.184 27.3867 17.0955 27.2357C17.0069 27.0848 17.0069 27.0848 17.0068 27.0849C17.0068 27.0849 17.0067 27.0849 17.0066 27.085C17.0065 27.085 17.0064 27.0851 17.0062 27.0852C17.0059 27.0854 17.0056 27.0856 17.0051 27.0858C17.0043 27.0863 17.0032 27.087 17.002 27.0878C16.9994 27.0893 16.9959 27.0914 16.9917 27.0941C16.9832 27.0994 16.9716 27.1069 16.9578 27.1164C16.9304 27.1352 16.893 27.1625 16.8539 27.1964C16.784 27.257 16.6742 27.3674 16.6439 27.5116C16.6271 27.5917 16.6357 27.6793 16.6831 27.7626C16.7283 27.8421 16.8013 27.9048 16.8908 27.9552C17.0663 28.054 17.3484 28.1294 17.7739 28.1786L17.8141 27.8309ZM23.0755 27.6065C20.8511 28.0303 19.8295 28.063 17.814 27.8309L17.774 28.1786C19.8265 28.4149 20.8837 28.3804 23.141 27.9503L23.0755 27.6065ZM24.5854 28.31C24.1817 28.1518 23.8346 27.9812 23.5885 27.8502C23.4656 27.7848 23.3682 27.7294 23.3018 27.6905C23.2686 27.6711 23.2432 27.6558 23.2262 27.6455C23.2178 27.6403 23.2114 27.6364 23.2073 27.6339C23.2052 27.6326 23.2037 27.6316 23.2027 27.631C23.2023 27.6308 23.2019 27.6305 23.2017 27.6304C23.2016 27.6304 23.2016 27.6303 23.2015 27.6303C23.2015 27.6303 23.2015 27.6303 23.2015 27.6303C23.2015 27.6303 23.2016 27.6303 23.2016 27.6303C23.2016 27.6303 23.2016 27.6303 23.1083 27.7784C23.015 27.9264 23.015 27.9264 23.015 27.9264C23.015 27.9265 23.015 27.9265 23.0151 27.9265C23.0151 27.9265 23.0152 27.9265 23.0152 27.9266C23.0153 27.9267 23.0155 27.9267 23.0157 27.9269C23.0161 27.9271 23.0166 27.9274 23.0172 27.9278C23.0186 27.9287 23.0205 27.9299 23.0229 27.9314C23.0278 27.9344 23.035 27.9388 23.0443 27.9445C23.0628 27.9558 23.09 27.9721 23.125 27.9926C23.195 28.0336 23.2965 28.0913 23.4241 28.1592C23.6789 28.2948 24.0385 28.4716 24.4577 28.6359L24.5854 28.31ZM17.048 27.0673C16.5462 27.2086 16.1851 27.3744 15.9621 27.5636C15.8493 27.6593 15.7645 27.7674 15.7203 27.8886C15.6749 28.0131 15.6766 28.1401 15.7191 28.2611C15.8001 28.4916 16.022 28.6838 16.3 28.8403C16.585 29.0008 16.961 29.1417 17.4006 29.2544C19.155 29.7045 22.0383 29.7359 24.5909 28.6336L24.4521 28.3123C21.9795 29.3801 19.1766 29.3487 17.4876 28.9154C17.0664 28.8074 16.7217 28.6761 16.4717 28.5353C16.2145 28.3905 16.0869 28.2522 16.0493 28.1451C16.0325 28.0973 16.0326 28.0537 16.0491 28.0085C16.0667 27.9602 16.1071 27.8996 16.1886 27.8304C16.3543 27.6898 16.6581 27.5407 17.1429 27.4042L17.048 27.0673ZM17.0797 25.2252C16.6677 25.1822 16.4617 25.1019 16.3682 25.0305C16.3252 24.9978 16.3117 24.9713 16.3067 24.9552C16.3014 24.9382 16.3004 24.9157 16.3095 24.8836C16.3299 24.8125 16.39 24.7299 16.4615 24.6558C16.495 24.621 16.527 24.5922 16.5505 24.5722C16.5622 24.5623 16.5716 24.5547 16.5778 24.5498C16.5809 24.5473 16.5832 24.5455 16.5845 24.5445C16.5852 24.544 16.5857 24.5436 16.5859 24.5435C16.586 24.5434 16.586 24.5434 16.586 24.5434C16.586 24.5434 16.586 24.5434 16.5859 24.5434C16.5859 24.5435 16.5859 24.5435 16.5858 24.5435C16.5858 24.5435 16.5857 24.5436 16.4811 24.4033C16.3764 24.2631 16.3764 24.2631 16.3763 24.2632C16.3763 24.2632 16.3762 24.2632 16.3761 24.2633C16.376 24.2634 16.3759 24.2635 16.3758 24.2636C16.3755 24.2638 16.3751 24.264 16.3747 24.2644C16.3739 24.265 16.3728 24.2658 16.3714 24.2669C16.3687 24.2689 16.365 24.2718 16.3605 24.2754C16.3514 24.2826 16.3388 24.2928 16.3237 24.3056C16.2937 24.3312 16.2529 24.3679 16.2095 24.4128C16.1274 24.498 16.0176 24.6315 15.973 24.7874C15.9497 24.869 15.9425 24.9627 15.9724 25.059C16.0026 25.1562 16.0657 25.24 16.1559 25.3088C16.3287 25.4406 16.6154 25.5287 17.0434 25.5733L17.0797 25.2252ZM23.8865 24.8958C20.9352 25.4684 19.2371 25.4498 17.0797 25.2252L17.0434 25.5733C19.2316 25.8011 20.9646 25.8193 23.9532 25.2394L23.8865 24.8958ZM25.0337 25.5517C24.7311 25.4442 24.4822 25.2914 24.3086 25.1648C24.222 25.1016 24.1549 25.0455 24.11 25.0058C24.0875 24.9859 24.0706 24.9701 24.0597 24.9597C24.0542 24.9544 24.0502 24.9505 24.0478 24.9481C24.0466 24.9469 24.0457 24.946 24.0453 24.9456C24.045 24.9453 24.0449 24.9452 24.0449 24.9452C24.0449 24.9452 24.0449 24.9452 24.0449 24.9452C24.0449 24.9452 24.0449 24.9452 24.045 24.9453C24.045 24.9453 24.045 24.9453 24.045 24.9453C24.045 24.9454 24.0451 24.9454 23.9199 25.0676C23.7946 25.1899 23.7947 25.1899 23.7947 25.19C23.7947 25.19 23.7948 25.19 23.7948 25.19C23.7948 25.1901 23.7949 25.1902 23.795 25.1902C23.7951 25.1904 23.7953 25.1905 23.7954 25.1907C23.7958 25.1911 23.7963 25.1915 23.7968 25.1921C23.798 25.1933 23.7995 25.1948 23.8014 25.1967C23.8053 25.2005 23.8108 25.2059 23.8178 25.2126C23.8318 25.226 23.8519 25.2448 23.878 25.2678C23.93 25.3139 24.0057 25.3771 24.1023 25.4475C24.295 25.5881 24.5737 25.7598 24.9165 25.8815L25.0337 25.5517ZM16.4256 24.2374C15.8755 24.4214 15.4816 24.6145 15.2377 24.8158C14.9935 25.0173 14.8605 25.2656 14.9556 25.5326C15.0397 25.7686 15.2843 25.9489 15.5828 26.0886C15.8916 26.2332 16.3024 26.3546 16.787 26.4487C18.7231 26.8246 21.9616 26.7875 25.0246 25.8845L24.9256 25.5488C21.9141 26.4366 18.7325 26.4699 16.8537 26.1051C16.3846 26.014 16.0044 25.8995 15.7312 25.7716C15.4477 25.6389 15.3193 25.5104 15.2853 25.4151C15.2625 25.351 15.2665 25.2458 15.4605 25.0857C15.6547 24.9254 16.0001 24.7488 16.5366 24.5693L16.4256 24.2374ZM28.3038 29.3316C28.192 29.4662 28.1919 29.4661 28.1918 29.4661C28.1918 29.466 28.1917 29.466 28.1916 29.4659C28.1915 29.4658 28.1914 29.4658 28.1914 29.4657C28.1912 29.4655 28.1911 29.4654 28.191 29.4654C28.1908 29.4652 28.1908 29.4652 28.1909 29.4653C28.1912 29.4656 28.192 29.4663 28.1933 29.4675C28.196 29.4699 28.2006 29.4743 28.2064 29.4802C28.2181 29.4924 28.234 29.5104 28.2495 29.5328C28.282 29.5797 28.3035 29.632 28.3012 29.6838C28.2992 29.7287 28.278 29.8049 28.1606 29.9028C28.0394 30.0039 27.8235 30.1204 27.4532 30.2336L27.5555 30.5683C27.9478 30.4484 28.2132 30.3147 28.3848 30.1716C28.5602 30.0253 28.6436 29.8633 28.6508 29.6992C28.6578 29.5419 28.5932 29.4143 28.5373 29.3335C28.5086 29.2921 28.4797 29.2593 28.4577 29.2367C28.4466 29.2253 28.4371 29.2161 28.4299 29.2095C28.4263 29.2062 28.4232 29.2035 28.4208 29.2014C28.4196 29.2004 28.4186 29.1995 28.4177 29.1988C28.4173 29.1984 28.4169 29.1981 28.4166 29.1978C28.4164 29.1976 28.4163 29.1975 28.4161 29.1974C28.416 29.1973 28.4159 29.1972 28.4159 29.1972C28.4158 29.1971 28.4157 29.197 28.3038 29.3316ZM12.2585 31.4668C17.3996 32.3069 22.0881 32.1185 25.1641 31.5661C26.6958 31.291 27.8498 30.9219 28.4574 30.5307C28.6108 30.4319 28.7377 30.3265 28.8272 30.2138C28.917 30.1007 28.9765 29.9705 28.9735 29.8279C28.9674 29.5376 28.7149 29.3264 28.3763 29.1723L28.2314 29.4909C28.557 29.639 28.6222 29.768 28.6236 29.8353C28.6244 29.8715 28.6101 29.9244 28.5531 29.9961C28.4958 30.0683 28.4028 30.1495 28.2679 30.2364C27.722 30.588 26.6264 30.9479 25.1023 31.2216C22.0666 31.7667 17.4181 31.9553 12.3149 31.1214L12.2585 31.4668ZM15.2139 29.117C15.0446 28.9968 14.8044 28.9493 14.5514 28.9395C14.2926 28.9295 13.993 28.9582 13.6822 29.014C13.0607 29.1256 12.3711 29.3498 11.831 29.6187C11.5614 29.753 11.3215 29.902 11.1451 30.059C10.975 30.2104 10.8324 30.3972 10.8253 30.6094C10.8175 30.8411 10.9696 31.0219 11.2017 31.153C11.4337 31.284 11.7814 31.3888 12.2585 31.4668L12.315 31.1214C11.8528 31.0458 11.5527 30.9492 11.3738 30.8482C11.1952 30.7473 11.1736 30.6655 11.1751 30.6212C11.1772 30.5574 11.2269 30.4548 11.3778 30.3205C11.5223 30.1918 11.7322 30.0589 11.987 29.9321C12.4955 29.6789 13.1532 29.4646 13.744 29.3585C14.0393 29.3055 14.3122 29.2805 14.5379 29.2893C14.7694 29.2982 14.926 29.3419 15.0113 29.4024L15.2139 29.117ZM14.2651 29.5312C14.5377 29.4717 14.7502 29.4477 14.8927 29.4385C14.9639 29.4339 15.0177 29.433 15.0527 29.4331C15.0702 29.4332 15.0831 29.4336 15.0911 29.4339C15.0951 29.434 15.0979 29.4341 15.0994 29.4342C15.1002 29.4343 15.1007 29.4343 15.1009 29.4343C15.1009 29.4343 15.1009 29.4343 15.1009 29.4343C15.1008 29.4343 15.1008 29.4343 15.1007 29.4343C15.1007 29.4343 15.1006 29.4343 15.1006 29.4343C15.1006 29.4343 15.1005 29.4343 15.1005 29.4343C15.1005 29.4343 15.1004 29.4343 15.1126 29.2597C15.1247 29.0851 15.1247 29.0851 15.1246 29.0851C15.1246 29.0851 15.1246 29.0851 15.1245 29.0851C15.1245 29.0851 15.1244 29.0851 15.1243 29.0851C15.1242 29.0851 15.124 29.0851 15.1238 29.0851C15.1234 29.085 15.123 29.085 15.1224 29.085C15.1213 29.0849 15.1199 29.0848 15.1182 29.0847C15.1148 29.0845 15.1101 29.0843 15.1042 29.0841C15.0924 29.0837 15.0758 29.0832 15.0543 29.0831C15.0115 29.0829 14.9496 29.0841 14.8701 29.0892C14.7109 29.0995 14.481 29.1258 14.1905 29.1893L14.2651 29.5312ZM12.9562 30.2762C12.8533 30.231 12.8127 30.1938 12.7997 30.1761C12.7948 30.1695 12.7977 30.1759 12.7977 30.1758C12.8025 30.1627 12.822 30.1312 12.8777 30.085C12.9307 30.041 13.0037 29.994 13.0935 29.9461C13.4565 29.7523 14.0038 29.5881 14.265 29.5312L14.1906 29.1892C13.9116 29.2499 13.3304 29.4229 12.9286 29.6374C12.8272 29.6915 12.7318 29.7511 12.6541 29.8157C12.5789 29.8781 12.5052 29.9574 12.4693 30.0548C12.4286 30.1653 12.4433 30.282 12.5176 30.3832C12.5837 30.4733 12.6897 30.5414 12.8156 30.5966L12.9562 30.2762ZM27.4533 30.2336C26.0291 30.6685 23.033 30.9568 20.0608 30.9946C18.5782 31.0135 17.1087 30.9699 15.8532 30.8524C14.5917 30.7343 13.5653 30.5432 12.9562 30.2761L12.8156 30.5967C13.4801 30.8881 14.5554 31.0825 15.8206 31.2009C17.0917 31.3198 18.574 31.3635 20.0652 31.3446C23.0405 31.3068 26.08 31.0189 27.5555 30.5683L27.4533 30.2336ZM17.5681 21.4687C17.5274 21.2985 17.5273 21.2985 17.5273 21.2985C17.5272 21.2985 17.5272 21.2985 17.5271 21.2985C17.5269 21.2986 17.5267 21.2986 17.5264 21.2987C17.5257 21.2989 17.5248 21.2991 17.5237 21.2994C17.5213 21.2999 17.5179 21.3008 17.5134 21.3018C17.5045 21.304 17.4913 21.3072 17.4744 21.3114C17.4405 21.3198 17.3913 21.3322 17.3299 21.348C17.2071 21.3796 17.0352 21.4252 16.8384 21.4812C16.4463 21.5928 15.9494 21.7474 15.5449 21.9165C15.3435 22.0006 15.1573 22.0915 15.0169 22.1864C14.9468 22.2337 14.882 22.2862 14.8319 22.3442C14.7827 22.4011 14.7366 22.4764 14.729 22.5678C14.7206 22.6665 14.7595 22.7528 14.822 22.8198C14.8806 22.8826 14.9615 22.9309 15.0529 22.9704C15.2362 23.0495 15.512 23.1138 15.893 23.1652L15.9397 22.8183C15.5674 22.7681 15.33 22.7087 15.1916 22.649C15.1222 22.6191 15.0903 22.5942 15.0779 22.581C15.0694 22.5719 15.0792 22.5793 15.0777 22.5971C15.0768 22.6076 15.0734 22.6 15.0968 22.5729C15.1192 22.5469 15.1568 22.5143 15.2129 22.4764C15.3249 22.4007 15.4864 22.3202 15.6799 22.2394C16.0649 22.0785 16.5459 21.9284 16.9342 21.8179C17.1277 21.7628 17.2966 21.718 17.4172 21.6869C17.4775 21.6714 17.5256 21.6593 17.5585 21.6512C17.575 21.6471 17.5877 21.644 17.5962 21.6419C17.6005 21.6409 17.6037 21.6401 17.6058 21.6396C17.6069 21.6393 17.6077 21.6391 17.6082 21.639C17.6084 21.639 17.6086 21.6389 17.6087 21.6389C17.6088 21.6389 17.6088 21.6389 17.6089 21.6389C17.6089 21.6389 17.6089 21.6389 17.5681 21.4687ZM13.6056 22.5883C14.7001 22.0547 15.6918 21.8186 16.4086 21.7159C16.7669 21.6645 17.0562 21.6465 17.2548 21.6413C17.3541 21.6387 17.4307 21.6392 17.4818 21.6404C17.5074 21.641 17.5266 21.6418 17.5391 21.6424C17.5454 21.6426 17.55 21.6429 17.5528 21.6431C17.5543 21.6431 17.5553 21.6432 17.5558 21.6432C17.5561 21.6433 17.5563 21.6433 17.5563 21.6433C17.5564 21.6433 17.5564 21.6433 17.5564 21.6433C17.5563 21.6433 17.5563 21.6433 17.5563 21.6433C17.5563 21.6433 17.5562 21.6433 17.5681 21.4687C17.58 21.2941 17.58 21.2941 17.5799 21.2941C17.5798 21.2941 17.5798 21.2941 17.5797 21.294C17.5796 21.294 17.5794 21.294 17.5792 21.294C17.5788 21.294 17.5784 21.294 17.5778 21.2939C17.5766 21.2938 17.5749 21.2937 17.5729 21.2936C17.5687 21.2934 17.5629 21.2931 17.5553 21.2927C17.5402 21.292 17.5183 21.2912 17.49 21.2905C17.4333 21.2892 17.351 21.2886 17.2456 21.2914C17.0349 21.2969 16.732 21.3159 16.3589 21.3694C15.6129 21.4764 14.585 21.7214 13.4522 22.2737L13.6056 22.5883ZM24.7379 22.875C22.3934 23.4967 18.9416 23.6648 16.4014 23.5156C15.1268 23.4408 14.1061 23.2872 13.5723 23.082C13.44 23.0311 13.3489 22.9811 13.2931 22.9361C13.2658 22.914 13.251 22.8963 13.2434 22.8843C13.2365 22.8733 13.2364 22.8684 13.2364 22.8683C13.2364 22.8682 13.2359 22.8631 13.242 22.8507C13.2488 22.8371 13.2629 22.8162 13.2911 22.7888C13.3486 22.7328 13.4486 22.6649 13.6056 22.5883L13.4522 22.2737C13.2798 22.3577 13.1425 22.4449 13.047 22.538C12.9519 22.6305 12.8795 22.7481 12.8869 22.887C12.8944 23.0252 12.978 23.1315 13.0731 23.2083C13.1692 23.286 13.2984 23.3516 13.4467 23.4087C14.0358 23.6351 15.1049 23.7901 16.3808 23.865C18.9417 24.0154 22.4342 23.848 24.8276 23.2133L24.7379 22.875ZM25.9556 22.4114C25.8862 22.2507 25.8862 22.2507 25.8861 22.2507C25.8861 22.2507 25.8861 22.2508 25.8861 22.2508C25.8861 22.2508 25.886 22.2508 25.886 22.2508C25.8858 22.2509 25.8857 22.2509 25.8855 22.251C25.8851 22.2512 25.8845 22.2514 25.8838 22.2518C25.8824 22.2524 25.8803 22.2533 25.8776 22.2545C25.8722 22.2568 25.8644 22.2603 25.8543 22.2648C25.8341 22.2737 25.805 22.2868 25.7685 22.3036C25.6957 22.3371 25.5935 22.3853 25.4757 22.4442C25.2412 22.5615 24.9397 22.7239 24.6836 22.8999L24.8819 23.1884C25.1185 23.0257 25.4034 22.8717 25.6322 22.7573C25.746 22.7003 25.8447 22.6538 25.9148 22.6216C25.9498 22.6055 25.9776 22.593 25.9966 22.5845C26.0061 22.5803 26.0133 22.5771 26.0181 22.575C26.0206 22.574 26.0224 22.5732 26.0235 22.5727C26.0241 22.5724 26.0245 22.5722 26.0248 22.5721C26.0249 22.572 26.025 22.572 26.0251 22.572C26.0251 22.572 26.0251 22.572 26.0251 22.572C26.0251 22.572 26.0251 22.572 26.0251 22.572C26.0251 22.572 26.0251 22.572 25.9556 22.4114ZM22.102 23.0985C23.0724 23.0163 24.0435 22.8876 24.7712 22.7795C25.1352 22.7255 25.4388 22.6765 25.6515 22.6411C25.7578 22.6234 25.8415 22.609 25.8986 22.5991C25.9272 22.5941 25.9491 22.5903 25.9639 22.5876C25.9714 22.5863 25.977 22.5853 25.9808 22.5846C25.9827 22.5843 25.9842 22.584 25.9851 22.5839C25.9856 22.5838 25.986 22.5837 25.9863 22.5837C25.9864 22.5836 25.9865 22.5836 25.9866 22.5836C25.9866 22.5836 25.9866 22.5836 25.9866 22.5836C25.9867 22.5836 25.9867 22.5836 25.9556 22.4114C25.9246 22.2391 25.9246 22.2391 25.9246 22.2391C25.9246 22.2391 25.9246 22.2391 25.9245 22.2391C25.9245 22.2391 25.9244 22.2392 25.9243 22.2392C25.9241 22.2392 25.9238 22.2393 25.9233 22.2394C25.9224 22.2395 25.921 22.2398 25.9192 22.2401C25.9156 22.2407 25.9101 22.2417 25.9029 22.243C25.8884 22.2456 25.8668 22.2494 25.8386 22.2543C25.7823 22.2641 25.6994 22.2783 25.594 22.2959C25.383 22.331 25.0815 22.3796 24.7198 22.4333C23.996 22.5408 23.0329 22.6684 22.0725 22.7498L22.102 23.0985ZM15.893 23.1651C17.1852 23.3394 19.7363 23.2986 22.102 23.0985L22.0725 22.7498C19.7119 22.9494 17.1923 22.9872 15.9397 22.8183L15.893 23.1651ZM26.0175 26.3386C28.4361 25.072 29.1848 23.7796 29.015 22.7766C28.8473 21.7859 27.7966 21.2122 26.935 21.3932L27.007 21.7357C27.6997 21.5902 28.5396 22.0651 28.6699 22.8351C28.7982 23.5928 28.2524 24.7731 25.8551 26.0285L26.0175 26.3386ZM25.9636 26.4354C25.9704 26.4288 25.9942 26.4059 26.0198 26.3755C26.0426 26.3483 26.0793 26.3009 26.1003 26.2447L25.7723 26.1224C25.7734 26.1196 25.773 26.1215 25.7685 26.1283C25.7644 26.1346 25.7587 26.1421 25.7519 26.1501C25.7383 26.1664 25.725 26.1792 25.7203 26.1838L25.9636 26.4354ZM25.963 26.436L25.9649 26.4341L25.719 26.1851L25.7171 26.1869L25.963 26.436ZM26.8902 21.5588C28.3514 21.0411 29.576 21.8145 29.7273 22.8309C29.8032 23.3409 29.6209 23.951 29.0174 24.5463C28.4117 25.1438 27.3851 25.7209 25.7952 26.1423L25.8849 26.4806C27.5103 26.0498 28.5997 25.45 29.2632 24.7955C29.929 24.1388 30.1692 23.4218 30.0735 22.7793C29.8817 21.4907 28.3868 20.6573 26.7734 21.2289L26.8902 21.5588ZM26.4205 21.7137C26.5684 21.8072 26.5684 21.8073 26.5684 21.8073C26.5684 21.8073 26.5683 21.8074 26.5683 21.8074C26.5683 21.8075 26.5683 21.8075 26.5682 21.8076C26.5682 21.8077 26.5681 21.8078 26.5681 21.8078C26.568 21.808 26.5679 21.8081 26.5679 21.8081C26.5678 21.8082 26.5678 21.8081 26.568 21.8079C26.5684 21.8073 26.5693 21.806 26.5707 21.804C26.5735 21.8 26.5783 21.7933 26.585 21.7847C26.5985 21.7673 26.6195 21.7423 26.6477 21.7146C26.7047 21.6585 26.7865 21.5958 26.8906 21.5587L26.773 21.229C26.6073 21.2881 26.4835 21.3852 26.4023 21.465C26.3614 21.5053 26.3302 21.5422 26.3087 21.5698C26.298 21.5836 26.2896 21.5952 26.2836 21.6038C26.2806 21.6081 26.2782 21.6117 26.2764 21.6144C26.2754 21.6158 26.2747 21.6169 26.2741 21.6179C26.2738 21.6184 26.2735 21.6188 26.2732 21.6192C26.2731 21.6194 26.273 21.6195 26.2729 21.6197C26.2729 21.6198 26.2728 21.6198 26.2728 21.6199C26.2728 21.6199 26.2727 21.62 26.2727 21.62C26.2727 21.6201 26.2726 21.6201 26.4205 21.7137ZM26.935 21.3932C26.7402 21.4341 26.5976 21.4726 26.5025 21.5015C26.4549 21.5159 26.4192 21.5279 26.3947 21.5366C26.3825 21.5409 26.3731 21.5444 26.3664 21.547C26.3631 21.5482 26.3604 21.5493 26.3584 21.55C26.3575 21.5504 26.3566 21.5507 26.356 21.551C26.3557 21.5511 26.3554 21.5513 26.3551 21.5514C26.355 21.5514 26.3549 21.5514 26.3548 21.5515C26.3547 21.5515 26.3547 21.5515 26.3547 21.5515C26.3546 21.5516 26.3546 21.5516 26.3546 21.5516C26.3546 21.5516 26.3545 21.5516 26.4205 21.7137C26.4866 21.8757 26.4865 21.8757 26.4865 21.8758C26.4865 21.8758 26.4865 21.8758 26.4865 21.8758C26.4864 21.8758 26.4864 21.8758 26.4864 21.8758C26.4863 21.8758 26.4863 21.8759 26.4862 21.8759C26.4861 21.8759 26.4861 21.8759 26.4861 21.8759C26.4861 21.8759 26.4863 21.8758 26.4867 21.8757C26.4874 21.8754 26.4887 21.8749 26.4908 21.8741C26.4949 21.8725 26.5018 21.87 26.5115 21.8665C26.5309 21.8597 26.5615 21.8493 26.6041 21.8364C26.6892 21.8106 26.8218 21.7746 27.007 21.7357L26.935 21.3932ZM18.0306 33.193C20.3501 33.3425 23.2932 33.3012 25.682 32.9446C26.875 32.7666 27.9413 32.5083 28.7247 32.1494C29.4968 31.7956 30.055 31.3146 30.1048 30.6612L29.7558 30.6347C29.7216 31.0836 29.3295 31.4873 28.5789 31.8312C27.8395 32.1699 26.8108 32.4223 25.6303 32.5985C23.2724 32.9504 20.3552 32.9921 18.0531 32.8437L18.0306 33.193ZM14.2383 32.3279C14.2514 32.3943 14.2917 32.4538 14.2948 32.4567C14.2959 32.4577 14.2977 32.4593 14.2983 32.4599C14.2995 32.4608 14.3003 32.4616 14.3007 32.4619C14.3017 32.4627 14.3025 32.4634 14.3032 32.4639C14.3045 32.465 14.3059 32.4662 14.3074 32.4673C14.3103 32.4696 14.3139 32.4723 14.318 32.4753C14.3263 32.4813 14.3373 32.4888 14.3515 32.4977C14.3797 32.5155 14.4205 32.5387 14.4774 32.566C14.591 32.6205 14.7696 32.6917 15.0413 32.7679C15.584 32.9201 16.504 33.094 18.0306 33.193L18.0532 32.8437C16.5423 32.7458 15.648 32.5745 15.1358 32.4309C14.88 32.3591 14.7209 32.2946 14.6288 32.2504C14.5828 32.2283 14.5537 32.2114 14.5378 32.2014C14.5298 32.1964 14.5251 32.1931 14.5233 32.1918C14.5224 32.1911 14.5222 32.191 14.5227 32.1914C14.523 32.1916 14.5235 32.192 14.5243 32.1926C14.5246 32.1929 14.5252 32.1934 14.526 32.1941C14.5263 32.1943 14.5272 32.1951 14.5283 32.196C14.5289 32.1965 14.5307 32.1981 14.5318 32.1991C14.5349 32.202 14.5752 32.2615 14.5883 32.3279H14.2383ZM26.0779 31.9748C22.1543 32.7194 17.3085 32.6324 14.442 32.1553L14.3845 32.5005C17.289 32.984 22.1765 33.0714 26.1431 32.3187L26.0779 31.9748ZM29.9303 30.6479C29.7671 30.5849 29.7672 30.5846 29.7673 30.5843C29.7673 30.5842 29.7674 30.584 29.7675 30.5838C29.7676 30.5835 29.7677 30.5832 29.7679 30.5829C29.7681 30.5823 29.7683 30.5817 29.7686 30.5812C29.769 30.5802 29.7693 30.5794 29.7696 30.5788C29.7701 30.5776 29.7703 30.5772 29.7701 30.5777C29.7696 30.5786 29.7674 30.5827 29.7628 30.5899C29.7535 30.6043 29.7342 30.6309 29.6988 30.6679C29.6279 30.7419 29.4928 30.8571 29.2458 30.9962C28.7506 31.2753 27.8159 31.6452 26.0779 31.9748L26.1431 32.3187C27.9018 31.9852 28.8771 31.6057 29.4176 31.3012C29.6885 31.1485 29.8526 31.0133 29.9516 30.9099C30.0012 30.8581 30.0344 30.8143 30.0564 30.7804C30.0674 30.7634 30.0756 30.749 30.0816 30.7373C30.0846 30.7315 30.087 30.7263 30.089 30.722C30.09 30.7198 30.0908 30.7177 30.0916 30.7159C30.092 30.715 30.0923 30.7142 30.0926 30.7133C30.0928 30.7129 30.093 30.7125 30.0931 30.7122C30.0932 30.712 30.0933 30.7117 30.0933 30.7116C30.0934 30.7113 30.0935 30.711 29.9303 30.6479Z" fill="white"/>
</svg>
