<?xml version="1.0" encoding="utf-8"?>
<!-- Generator: Adobe Illustrator 25.2.0, SVG Export Plug-In . SVG Version: 6.00 Build 0)  -->
<svg version="1.1" id="Layer_1" xmlns="http://www.w3.org/2000/svg" xmlns:xlink="http://www.w3.org/1999/xlink" x="0px" y="0px"
	 viewBox="0 0 80 24.7" style="enable-background:new 0 0 80 24.7;" xml:space="preserve">
<style type="text/css">
	.st0{fill:url(#SVGID_1_);}
	.st1{fill:url(#SVGID_2_);}
	.st2{fill:url(#SVGID_3_);}
	.st3{fill-rule:evenodd;clip-rule:evenodd;fill:#6501E5;}
	.st4{fill-rule:evenodd;clip-rule:evenodd;fill:#9327FE;}
	.st5{fill:#9327FE;}
	.st6{fill:#0556F3;}
	.st7{fill:#065AFF;}
</style>
<g>
	
		<linearGradient id="SVGID_1_" gradientUnits="userSpaceOnUse" x1="2.5458" y1="-14.0275" x2="2.5458" y2="-6.546" gradientTransform="matrix(1 0 0 -1 0 5.7541)">
		<stop  offset="0" style="stop-color:#00A3FF"/>
		<stop  offset="1" style="stop-color:#0597EA"/>
	</linearGradient>
	<path class="st0" d="M0.3,8c0-0.2,0.1-0.4,0.3-0.5l3.7-2.2c0.2-0.1,0.4,0,0.4,0.2v15.7c0,0.1-0.1,0.2-0.2,0.2h-4
		c-0.1,0-0.2-0.1-0.2-0.2V8z"/>
	
		<linearGradient id="SVGID_2_" gradientUnits="userSpaceOnUse" x1="2.5458" y1="-6.7865" x2="2.5458" y2="-3.0008" gradientTransform="matrix(1 0 0 -1 0 5.7541)">
		<stop  offset="0" style="stop-color:#00A3FF"/>
		<stop  offset="1" style="stop-color:#0597EA"/>
	</linearGradient>
	<path class="st1" d="M0.3,7.4c0-0.1,0-0.1,0.1-0.2l4-2.3c0.1-0.1,0.3,0,0.3,0.2v8.1c0,0.2-0.1,0.3-0.3,0.3H0.6
		c-0.2,0-0.3-0.1-0.3-0.3V7.4z"/>
	
		<linearGradient id="SVGID_3_" gradientUnits="userSpaceOnUse" x1="4.2315" y1="-5.5858" x2="13.3319" y2="-0.4803" gradientTransform="matrix(1 0 0 -1 0 5.7541)">
		<stop  offset="0" style="stop-color:#6501E5"/>
		<stop  offset="1" style="stop-color:#5F01D8"/>
	</linearGradient>
	<path class="st2" d="M11.5,4.6L0.7,10.8c-0.2,0.1-0.4,0.4-0.4,0.7v4.6L12,9.4c0.2-0.1,0.4-0.4,0.4-0.7V5.2
		C12.4,4.7,11.9,4.4,11.5,4.6z"/>
	<path class="st3" d="M0.8,15.9c-0.3,0.2-0.5,0.5-0.5,0.8c0,0,0,0,0,0h0v-1.1L0.8,15.9z"/>
	<path class="st4" d="M12,9.4c0-0.1,0.1-0.2,0.1-0.3c0-0.2-0.1-0.3-0.1-0.5l0.5-0.3v0.3C12.4,9,12.3,9.2,12,9.4L12,9.4z"/>
	<path class="st5" d="M11.9,8.7C11.8,8.2,4.9,3.6,0.1,0.4C-0.1,0.3,0,0,0.2,0l5.7,0C5.9,0,6,0,6,0l6.1,4.2c0.2,0.1,0.3,0.4,0.3,0.6
		v3.5L11.9,8.7z"/>
	<path class="st6" d="M15.3,13c-0.2,0-0.4-0.1-0.7-0.1c-0.7,0-1.7,0.3-2.1,1.2V13H10v8.3h2.5v-3.6c0-1.7,0.9-2.3,1.9-2.3
		c0.2,0,0.5,0,0.8,0.1V13z"/>
	<path class="st6" d="M20.5,19.2c-0.9,0-1.9-0.7-1.9-2.1c0-1.4,0.9-2.1,1.9-2.1c1,0,1.9,0.7,1.9,2.1S21.4,19.2,20.5,19.2z
		 M20.5,12.7c-2.4,0-4.4,1.8-4.4,4.4s1.9,4.4,4.4,4.4c2.5,0,4.4-1.8,4.4-4.4S22.9,12.7,20.5,12.7z"/>
	<path class="st6" d="M25.9,21.7c0.2,1.5,1.7,3,4.1,3c3.1,0,4.4-2.1,4.4-4.5V13H32v0.9c-0.2-0.4-0.9-1-2.3-1c-2.3,0-3.8,1.9-3.8,4.1
		c0,2.3,1.6,4,3.8,4c1.2,0,1.9-0.5,2.2-0.9v0.4c0,1.5-0.8,2.1-2,2.1c-0.9,0-1.6-0.6-1.8-1.4L25.9,21.7z M30.2,18.7
		c-1,0-1.8-0.7-1.8-1.8c0-1.1,0.8-1.8,1.8-1.8c0.9,0,1.8,0.7,1.8,1.8C31.9,18,31.2,18.7,30.2,18.7z"/>
	<path class="st6" d="M41.7,13c-0.2,0-0.4-0.1-0.7-0.1c-0.7,0-1.7,0.3-2.1,1.2V13h-2.4v8.3H39v-3.6c0-1.7,0.9-2.3,1.9-2.3
		c0.2,0,0.5,0,0.8,0.1V13z"/>
	<path class="st6" d="M42.8,19c0,1.3,1,2.5,2.8,2.5c1.1,0,1.9-0.5,2.3-1.2c0,0.6,0.1,0.9,0.1,0.9h2.3c0-0.1-0.1-0.6-0.1-1.3v-4.1
		c0-1.7-1-3.2-3.6-3.2c-2.4,0-3.5,1.6-3.6,2.8l2.2,0.5c0-0.6,0.5-1.2,1.4-1.2c0.8,0,1.2,0.4,1.2,0.9c0,0.3-0.1,0.5-0.6,0.6l-1.9,0.3
		C43.9,16.7,42.8,17.5,42.8,19z M46.3,19.6c-0.7,0-1-0.4-1-0.9c0-0.6,0.4-0.8,0.9-0.9l1.6-0.3V18C47.8,19.3,47,19.6,46.3,19.6z"/>
	<path class="st6" d="M54.9,21.2v-4.8c0-0.8,0.5-1.4,1.4-1.4c0.9,0,1.3,0.6,1.3,1.4v4.8H60v-4.8c0-0.7,0.5-1.4,1.4-1.4
		s1.3,0.6,1.3,1.4v4.8h2.4v-5.4c0-2.3-1.5-3.2-3-3.2c-1.1,0-1.9,0.4-2.5,1.3c-0.4-0.8-1.3-1.3-2.4-1.3c-0.9,0-2,0.5-2.4,1.2v-1h-2.4
		v8.3H54.9z"/>
	<path class="st6" d="M80,21.2v-2.2h-3.9l3.8-4V13h-6.7v2.2h3.5L73.1,19v2.2H80z"/>
	<path class="st7" d="M70.3,21.2h-2.9l0.9-5.4h-0.9v-3h3.7v3L70.3,21.2z"/>
	<path class="st7" d="M71.2,7.3h-3.7v3.6h3.7V7.3z"/>
</g>
</svg>
