<?xml version="1.0" encoding="utf-8"?>
<!-- Generator: Adobe Illustrator 25.2.0, SVG Export Plug-In . SVG Version: 6.00 Build 0)  -->
<svg version="1.1" id="Layer_1" xmlns="http://www.w3.org/2000/svg" xmlns:xlink="http://www.w3.org/1999/xlink" x="0px" y="0px"
	 viewBox="0 0 113.5 25.6" style="enable-background:new 0 0 113.5 25.6;" xml:space="preserve">
<style type="text/css">
	.st0{fill-rule:evenodd;clip-rule:evenodd;fill:#25265E;}
	.st1{fill:#25265E;}
</style>
<path class="st0" d="M1.3,1.2L1.3,1.2c2.6,1.8,5.6,3.8,7.8,5.3L4.9,8.9V5.2c0-0.2-0.2-0.3-0.3-0.2L0.4,7.5c-0.1,0-0.1,0.1-0.1,0.2
	v0.7l0,0v7.9l0,0v1.1l0,0l0,0l0,0v4.8c0,0.1,0.1,0.2,0.2,0.2h4.2c0.1,0,0.2-0.1,0.2-0.2v-8l7.5-4.3v0l0,0l0,0l0,0l0,0
	c0.3-0.1,0.4-0.4,0.4-0.7V8.7l0,0V5.1c0-0.3-0.1-0.5-0.4-0.7L6.2,0c0,0-0.1,0-0.1,0L0.2,0C0,0-0.1,0.3,0.1,0.4L1.3,1.2L1.3,1.2z
	 M21.3,19.9c-1,0-1.9-0.7-1.9-2.1c0-1.5,0.9-2.1,1.9-2.1c1,0,1.9,0.7,1.9,2.1C23.2,19.2,22.3,19.9,21.3,19.9z M21.3,13.2
	c-2.5,0-4.5,1.9-4.5,4.6c0,2.7,2,4.6,4.5,4.6c2.6,0,4.5-1.9,4.5-4.6C25.8,15.1,23.8,13.2,21.3,13.2z M15.9,13.5
	c-0.2-0.1-0.4-0.1-0.7-0.1c-0.7,0-1.8,0.3-2.2,1.2v-1.2h-2.5v8.6H13v-3.8c0-1.7,0.9-2.3,2-2.3c0.3,0,0.5,0,0.8,0.1V13.5z M31.2,25.6
	c-2.5,0-4-1.5-4.3-3.1l2.3-0.7c0.2,0.8,0.9,1.4,1.8,1.4c1.3,0,2.1-0.6,2.1-2.2v-0.4c-0.3,0.5-1,1-2.3,1c-2.3,0-4-1.8-4-4.2
	c0-2.3,1.6-4.2,4-4.2c1.4,0,2.1,0.6,2.4,1.1v-0.9h2.5V21C35.7,23.5,34.3,25.6,31.2,25.6z M29.5,17.5c0,1.2,0.8,1.9,1.8,1.9
	c1.1,0,1.8-0.7,1.8-1.9c0-1.2-0.8-1.9-1.8-1.9C30.4,15.6,29.5,16.3,29.5,17.5z M43.4,13.5c-0.2-0.1-0.4-0.1-0.7-0.1
	c-0.7,0-1.8,0.3-2.2,1.2v-1.2h-2.5v8.6h2.6v-3.8c0-1.7,0.9-2.3,2-2.3c0.3,0,0.5,0,0.8,0.1V13.5z M47.5,22.3c-1.9,0-3-1.2-3-2.6
	c0-1.5,1.1-2.4,2.5-2.6l2-0.3c0.5-0.1,0.6-0.3,0.6-0.6c0-0.5-0.4-0.9-1.3-0.9c-0.9,0-1.4,0.6-1.5,1.3l-2.3-0.5
	c0.1-1.2,1.2-2.9,3.7-2.9c2.8,0,3.8,1.6,3.8,3.3v4.2c0,0.7,0.1,1.2,0.1,1.3H50c0-0.1-0.1-0.4-0.1-1C49.4,21.8,48.6,22.3,47.5,22.3z
	 M47.1,19.5c0,0.5,0.3,0.9,1,0.9c0.8,0,1.6-0.4,1.6-1.7v-0.4L48,18.6C47.5,18.7,47.1,18.9,47.1,19.5z M57,22.1v-5
	c0-0.8,0.5-1.5,1.4-1.5c0.9,0,1.4,0.6,1.4,1.5v5h2.6v-5c0-0.8,0.5-1.5,1.4-1.5c0.9,0,1.4,0.6,1.4,1.5v5h2.5v-5.6
	c0-2.3-1.5-3.3-3.2-3.3c-1.2,0-2,0.4-2.6,1.4c-0.4-0.8-1.3-1.4-2.5-1.4c-0.9,0-2,0.5-2.5,1.2v-1h-2.5v8.6H57z M83.1,19.8v2.3H76
	v-2.3l3.8-4h-3.7v-2.3h7v2.2l-3.9,4.2H83.1z M73.1,22.1h-3l0.9-5.6h-0.9v-3.1h3.9v3.1L73.1,22.1z M70.1,7.6h3.9v3.7h-3.9V7.6z"/>
<path class="st1" d="M88,20.4c0-0.9-0.7-1.6-1.6-1.6c-0.9,0-1.6,0.7-1.6,1.6c0,0.9,0.7,1.6,1.6,1.6C87.3,22,88,21.3,88,20.4z
	 M89.7,25.2h2.2V21c0.4,0.5,1.2,1.1,2.3,1.1c2.1,0,3.8-1.9,3.8-4.2s-1.6-4.2-3.8-4.2c-1.1,0-2,0.6-2.3,1.1v-0.9h-2.2V25.2z
	 M95.8,17.9c0,1.2-0.8,2.2-2,2.2c-1.2,0-2-0.9-2-2.2s0.8-2.2,2-2.2C95,15.7,95.8,16.6,95.8,17.9z M99.6,21.9h2.2V18
	c0-1.3,0.7-2.1,1.7-2.1c0.4,0,0.7,0.1,1,0.2v-2.2c-0.3-0.1-0.5-0.1-0.7-0.1c-0.9,0-1.7,0.6-2,1.4v-1.3h-2.2V21.9z M113.5,17.9
	c0-2.3-1.9-4.2-4.2-4.2s-4.2,1.8-4.2,4.2s1.9,4.2,4.2,4.2S113.5,20.2,113.5,17.9z M107.3,17.9c0-1.2,0.8-2.1,2-2.1s2,0.9,2,2.1
	s-0.8,2.1-2,2.1S107.3,19.1,107.3,17.9z"/>
</svg>
