<svg width="251" height="153" viewBox="0 0 251 153" fill="none" xmlns="http://www.w3.org/2000/svg">
<path d="M231.126 141.139C244.967 143.577 231.126 153.33 151.774 149.917C104.637 149.917 46.082 145.877 46.082 143.454C46.082 141.03 95.8712 138.701 143.009 138.701C190.066 143.09 217.286 138.701 231.126 141.139Z" fill="#4B4B4B" fill-opacity="0.09"/>
<path d="M118.196 9.98877C118.196 15.693 96.7004 20.2641 69.7977 20.2641C42.895 20.2641 21.5508 15.6922 21.5508 9.98798C25.6083 6.39424 42.895 0 69.7977 0C96.7004 0 113.59 5.92643 118.196 9.98877Z" fill="#D3A01D"/>
<path d="M26.5028 21.3258C23.7829 20.3284 21.0165 20.302 18.4758 21.2493C15.9351 22.1965 9.68968 15.1781 7.99466 17.8215C6.29964 20.4649 5.19548 23.7723 4.79083 27.4183C4.38618 31.0644 8.71298 43.8299 9.70486 47.5221C10.6967 51.2142 12.3375 54.6123 14.4657 57.3819C16.5939 60.1515 19.1362 62.1973 21.8424 63.3178C24.5485 64.4383 27.3254 64.5949 29.8996 63.7724C32.4737 62.9498 34.7566 61.1763 36.5235 58.6264L32.3648 53.0521C31.2059 54.7247 29.7084 55.888 28.0199 56.4276C26.3314 56.9671 24.51 56.8644 22.7349 56.1294C20.9598 55.3944 19.2922 54.0525 17.8962 52.2358C16.5002 50.4191 15.424 48.1901 14.7733 45.7683C14.1227 43.3465 13.9202 40.8152 14.1856 38.4236C14.451 36.032 15.1753 33.8625 16.2871 32.1286C17.3989 30.3947 18.86 29.1562 20.5266 28.5348C22.1932 27.9135 24.0077 27.9308 25.7918 28.585L26.5028 21.3258Z" fill="#FFC33D"/>
<path d="M113.9 21.3258C116.619 20.3284 119.386 20.302 121.927 21.2493C124.467 22.1965 130.713 15.1781 132.408 17.8215C134.103 20.4649 135.207 23.7723 135.612 27.4183C136.016 31.0644 131.689 43.8299 130.697 47.5221C129.706 51.2142 128.065 54.6123 125.937 57.3819C123.808 60.1515 121.266 62.1973 118.56 63.3178C115.854 64.4383 113.077 64.5949 110.503 63.7724C107.929 62.9498 105.646 61.1763 103.879 58.6264L108.038 53.0521C109.196 54.7247 110.694 55.888 112.382 56.4276C114.071 56.9671 115.892 56.8644 117.667 56.1294C119.443 55.3944 121.11 54.0525 122.506 52.2358C123.902 50.4191 124.978 48.1901 125.629 45.7683C126.28 43.3465 126.482 40.8152 126.217 38.4236C125.951 36.032 125.227 33.8625 124.115 32.1286C123.003 30.3947 121.542 29.1562 119.876 28.5348C118.209 27.9135 116.395 27.9308 114.611 28.585L113.9 21.3258Z" fill="#F5B614"/>
<path fill-rule="evenodd" clip-rule="evenodd" d="M69.4792 18.1738C39.7063 17.6525 21.548 9.99023 21.548 9.99023C21.548 9.99023 21.245 45.1718 30.7817 62.7737C35.7074 71.8652 48.9102 85.3013 60.013 91.3714C62.8114 102.631 61.5397 110.87 57.6306 120.1C55.0996 120.525 52.434 120.86 49.8548 120.987C44.3386 121.259 41.8106 132.345 41.8106 132.345C62.8204 135.909 75.7695 136.079 98.3161 132.345C98.3161 132.345 95.3958 121.259 89.8796 120.987C86.8142 120.987 83.7599 120.574 81.025 120.012C78.4789 109.165 77.7718 101.133 78.8062 91.8591C90.089 86.0498 103.894 72.1172 108.956 62.7737C118.493 45.1718 118.19 9.99023 118.19 9.99023C118.19 9.99023 99.252 18.6951 69.4792 18.1738Z" fill="#FFC33D"/>
<path d="M25.6689 144.434C25.2531 144.434 25.019 143.956 25.2738 143.627L33.1258 133.502C33.6887 132.776 34.553 132.348 35.4715 132.341L71.3683 132.043C71.6039 132.041 71.8089 132.204 71.8604 132.434L74.4089 143.824C74.4788 144.137 74.2411 144.434 73.921 144.434H25.6689Z" fill="#7A4C0E"/>
<path d="M116.991 144.434C117.404 144.434 117.639 143.961 117.39 143.632L110.138 134.065C109.31 132.972 108.067 132.309 106.696 132.283C99.172 132.141 74.8457 132.053 71.4746 132.041C71.2399 132.04 71.0491 132.203 70.9979 132.432L68.4489 143.824C68.379 144.137 68.6167 144.434 68.9368 144.434H116.991Z" fill="#7A4C0E"/>
<path d="M36.4999 132.157C34.9371 132.157 33.4642 132.888 32.5187 134.132L25.302 143.631C25.0519 143.96 25.2867 144.434 25.7001 144.434L55.8361 144.433C55.9648 144.433 56.0836 144.387 56.1783 144.3C63.2513 137.786 88.5786 132.156 88.8971 132.156L36.4999 132.157Z" fill="#8A5714"/>
<path d="M54.6892 139.846L55.9951 136.45C56.1139 136.248 84.7752 136.078 85.067 136.573L86.9991 139.846C87.0894 139.999 86.8161 140.147 86.4437 140.147H55.2446C54.8722 140.147 54.5989 139.999 54.6892 139.846Z" fill="#5F3C0D"/>
<path d="M61.0206 92.2493C67.4062 94.1993 75.4025 92.6542 78.6373 91.8242C78.2108 96.3057 78.445 98.6213 78.2476 102.151C73.3388 96.3925 68.3807 94.5262 61.0206 92.2493C60.9824 92.2376 60.9443 92.2258 60.9062 92.2139C60.9444 92.2257 60.9825 92.2375 61.0206 92.2493Z" fill="#FFB205"/>
<path d="M45.4143 21.7838C39.4815 21.2429 32.423 20.2178 27.7025 19.452C26.5044 19.2576 25.4483 20.2625 25.5967 21.4672C29.6937 54.7439 40.3549 79.4407 65.1912 89.4875C44.3659 78.5669 34.0171 42.2035 47.0245 26.4666C48.2056 25.0376 47.2606 21.9521 45.4143 21.7838Z" fill="#FFD26F"/>
<path d="M80.5323 84.848C80.8457 86.4439 77.9107 88.2953 73.9768 88.9833C70.0429 89.6712 66.5998 88.9352 66.2863 87.3393C65.9729 85.7435 69.1891 85.1797 73.123 84.4917C77.0569 83.8038 80.2188 83.2521 80.5323 84.848Z" fill="#FFD26F"/>
<path d="M48.2414 123.165C48.7978 122.678 52.9293 122.597 56.1693 122.611C56.6958 122.613 56.8001 123.393 56.2996 123.556C52.4277 124.819 48.5902 126.556 45.6326 128.978C45.2256 129.311 44.5814 128.841 44.842 128.384C46.1158 126.151 47.7188 123.623 48.2414 123.165Z" fill="#FFD26F"/>
<path d="M6.27391 28.1499C6.03835 27.2233 7.85998 22.4348 9.32001 19.017C9.52623 18.5343 10.1746 18.8178 10.1109 19.3572C9.57716 23.8821 9.76294 27.8393 11.0001 32.1053C11.1562 32.6437 10.3289 33.1863 9.96506 32.7792C8.29902 30.9153 6.48376 28.9753 6.27391 28.1499Z" fill="#FFD26F"/>
<path d="M150.818 86.623L190.521 89.8866C190.521 89.8866 209.324 109.43 204.626 122.522C202.249 129.149 193.133 136.121 193.133 136.121C175.269 146.645 164.992 147.225 146.116 137.208C146.116 137.208 138.318 133.64 136.713 125.242C135.019 116.379 135.747 107.87 140.37 100.221C143.848 94.4652 150.818 86.623 150.818 86.623Z" fill="#99AAB5"/>
<path d="M189.371 111.645C189.371 125.163 179.141 137.419 167.318 136.177C156.599 134.153 144.785 125.163 144.785 111.645C144.785 98.1266 154.766 87.168 167.078 87.168C179.391 87.168 189.371 98.1266 189.371 111.645Z" fill="#66757F"/>
<path d="M188.212 103.801C186.058 108.275 169.239 119.812 149.855 123.292C168.71 152.687 196.25 126.051 188.212 103.801Z" fill="#5D6D78"/>
<path d="M148.144 130.554C151.593 130.111 153.572 129.391 156.532 127.566C169.877 119.339 148.144 87.1673 148.144 87.1673C148.144 87.1673 141.138 92.1023 136.628 99.1338C132.117 106.165 132.681 132.537 148.144 130.554Z" fill="#99AAB5"/>
<path d="M161.097 135.033C161.097 145.246 158.802 152.129 142.61 152.129C126.417 152.129 124.287 137.594 125.094 131.025C125.901 124.456 132.4 116.539 142.61 116.539C152.82 116.539 161.097 124.819 161.097 135.033Z" fill="#99AAB5"/>
<path d="M152.707 141.016C149.471 146.36 142.248 147.903 136.573 144.465C130.897 141.026 128.92 133.906 132.155 128.563C135.39 123.22 140.945 127.691 146.641 127.836C152.337 127.981 155.942 135.673 152.707 141.016Z" fill="#66757F"/>
<path d="M131.177 118.288C133.302 119.333 134.969 120.379 135.113 120.674C135.287 121.033 132.49 123.084 131.343 122.933C130.511 122.069 130.088 120.489 129.898 119.178C129.793 118.458 130.524 117.967 131.177 118.288Z" fill="#292F33"/>
<path d="M141.189 116.796C142.342 118.874 143.09 120.718 143.103 120.984C143.118 121.307 139.578 121.496 138.716 120.725C138.515 119.541 139.056 117.997 139.637 116.807C139.957 116.154 140.837 116.16 141.189 116.796Z" fill="#292F33"/>
<path d="M149.664 118.029C150.317 120.309 150.667 122.252 150.53 122.551C150.364 122.914 146.472 122.436 146.328 121.267C146.227 120.445 147.241 118.861 148.168 117.698C148.622 117.13 149.464 117.33 149.664 118.029Z" fill="#292F33"/>
<path d="M155.373 101.529C155.373 101.529 149.852 95.3812 148.562 95.4899C148.646 90.7539 156.952 90.5065 161.094 90.9748C160.939 91.63 163.138 97.0842 162.44 97.7035C161.568 98.4776 161.723 96.7756 161.094 96.4041C158.511 94.8792 155.373 101.529 155.373 101.529Z" fill="#99AAB5"/>
<path d="M176.322 136.121C176.322 146.334 181.964 153.418 197.69 152.424C213.417 151.429 214.355 139.584 213.243 132.359C212.132 125.134 205.019 117.627 194.809 117.627C184.599 117.627 176.322 125.907 176.322 136.121Z" fill="#99AAB5"/>
<path d="M217.606 62.3446C219.79 50.998 213.045 44.9903 203.647 43.1799C199.706 42.4208 195.495 42.5024 191.799 43.4876C187.996 39.6555 183.191 36.8739 177.345 35.7476C171.498 34.6214 166.004 35.4193 161.051 37.5646C157.984 35.2766 154.105 33.6365 150.164 32.8774C140.766 31.067 132.273 34.1395 130.088 45.4861C128.289 54.8338 132.257 62.0872 138.962 65.3686C138.607 66.6519 138.295 67.9461 138.043 69.2544C135.361 83.186 145.438 90.0349 155.006 93.5197C157.295 96.006 160.904 97.9948 165.202 98.8228C169.5 99.6507 173.588 99.1445 176.637 97.689C186.816 98.0081 198.713 95.3921 201.395 81.4605C201.647 80.1522 201.838 78.8347 201.984 77.5111C209.428 76.9528 215.806 71.6924 217.606 62.3446Z" fill="#99AAB5"/>
<path d="M155.041 41.013C154.283 40.7838 153.517 40.5834 152.747 40.4349C145.227 38.9865 138.434 41.4431 136.686 50.5209C135.678 55.7589 136.941 60.1735 139.625 63.253C142.553 54.241 147.971 46.1579 155.041 41.013ZM198.45 49.2389C197.679 49.0904 196.892 48.9916 196.103 48.923C200.759 56.3264 202.787 65.844 202.159 75.3013C205.797 73.4374 208.608 69.8102 209.617 64.5697C211.365 55.4919 205.969 50.6873 198.45 49.2389Z" fill="#66757F"/>
<path d="M177.632 83.0758C176.066 91.2101 171.468 92.463 166.606 91.5264C161.744 90.5898 157.942 87.7189 159.508 79.5847C161.074 71.4504 166.542 65.6642 171.404 66.6008C176.266 67.5374 179.198 74.9415 177.632 83.0758Z" fill="#292F33"/>
<path d="M156.809 70.4099C158.822 70.7978 160.769 69.4792 161.157 67.4646C161.545 65.4501 160.227 63.5025 158.213 63.1146C156.199 62.7266 154.252 64.0452 153.864 66.0598C153.476 68.0743 154.795 70.0219 156.809 70.4099Z" fill="#292F33"/>
<path d="M183.551 75.5622C185.565 75.9501 187.512 74.6315 187.899 72.617C188.287 70.6024 186.969 68.6548 184.955 68.2669C182.941 67.8789 180.994 69.1976 180.606 71.2121C180.219 73.2266 181.537 75.1742 183.551 75.5622Z" fill="#292F33"/>
<path d="M226.178 81.906C228.439 84.5492 229.423 86.4114 230.394 89.7517C234.77 104.809 197.976 113.502 197.976 113.502L189.394 97.5303C189.394 97.5303 216.043 70.0563 226.178 81.906Z" fill="#99AAB5"/>
<path d="M219.234 100.52C214.943 101.499 210.621 98.5949 209.581 94.034C208.541 89.473 211.177 84.9821 215.468 84.0031C219.76 83.0242 221.257 88.6108 222.936 90.9875C224.614 93.3641 223.525 99.5408 219.234 100.52Z" fill="#66757F"/>
<path d="M223.538 76.9003C220.643 78.6013 219.137 81.4568 218.982 81.4923C220.221 83.0885 220.878 83.5477 222.437 83.4397C223.756 82.1875 224.449 79.6603 224.754 77.7661C224.869 77.0496 224.163 76.5327 223.538 76.9003Z" fill="#292F33"/>
<path d="M229.799 82.0633C226.272 82.7064 223.765 85.0506 223.596 85.0307C224.311 87.0529 224.82 87.7408 226.425 88.1844C228.191 87.3965 229.747 85.0828 230.68 83.2999C231.014 82.661 230.509 81.9337 229.799 82.0633Z" fill="#292F33"/>
<path d="M232.867 90.2624C229.609 89.4414 227.29 90.0312 227.29 90.0312C227.29 90.0312 226.002 91.9856 227.727 94.2922C229.577 94.2605 231.728 92.9232 233.187 91.7637C233.76 91.3086 233.576 90.4412 232.867 90.2624Z" fill="#292F33"/>
<path d="M185.317 142.104C188.552 147.447 195.776 148.991 201.451 145.552C207.126 142.114 209.104 134.994 205.869 129.651C202.46 125.907 197.078 128.779 191.382 128.924C185.686 129.069 182.082 136.761 185.317 142.104Z" fill="#66757F"/>
<path d="M209.198 120.362C206.946 121.123 205.114 121.872 205.029 122.315C204.926 122.853 207.37 125 208.526 124.976C209.449 124.209 210.043 122.686 210.377 121.404C210.56 120.7 209.888 120.129 209.198 120.362Z" fill="#292F33"/>
<path d="M199.411 117.782C198.028 119.676 197.053 121.322 197.058 121.739C197.063 122.246 200.503 122.637 201.446 121.965C201.775 120.812 201.408 119.218 200.962 117.972C200.717 117.287 199.84 117.195 199.411 117.782Z" fill="#292F33"/>
<path d="M190.858 118.077C189.94 120.277 189.337 122.181 189.502 122.478C189.702 122.838 193.062 122.539 193.82 121.665C193.869 120.466 193.138 119.004 192.411 117.897C192.011 117.289 191.138 117.406 190.858 118.077Z" fill="#292F33"/>
<path d="M152.752 131.92C150.598 136.395 144.626 142.024 135.879 144.013C145.972 150.77 157.759 141.398 152.752 131.92Z" fill="#5D6D78"/>
<path d="M206.157 130.193C204.004 134.668 197.724 143.727 188.977 145.716C199.141 151.885 211.536 140.545 206.157 130.193Z" fill="#5D6D78"/>
<path d="M197.073 35.2907C199.558 36.7823 197.297 50.9143 197.297 50.9143C189.252 51.8385 177.386 55.4849 175.205 55.1778C173.024 54.8707 160.407 46.3683 152.531 42.9963C152.531 42.9963 156.318 29.3244 158.803 28.33C161.288 27.3357 194.588 33.7992 197.073 35.2907Z" fill="#393E42"/>
<path d="M197.071 35.2915C199.556 36.783 197.295 50.9241 197.295 50.9241C189.25 51.8483 176.805 55.5974 175.203 55.1785C175.654 53.0305 186.714 48.6823 185.633 43.1282C184.552 37.574 189.332 35.144 197.071 35.2915Z" fill="#353B40"/>
<path d="M137.446 19.4453C136.322 17.0063 194.762 16.3965 194.762 16.3965C194.762 16.3965 224.544 42.0069 221.734 41.3971C218.925 40.7873 176.78 46.2753 174.533 45.0557C172.285 43.8362 138.57 21.8844 137.446 19.4453Z" fill="#292F33"/>
<path d="M249.409 73.1869C248.694 73.7158 245.309 74.7454 243.706 75.1941C243.225 75.3308 240.939 76.6875 243.154 77.8142C245.37 78.9409 250.522 79.5537 250.351 78.5742C250.18 77.5947 250.303 72.5259 249.409 73.1869Z" fill="#292F33"/>
<path d="M219.438 40.2637C223.082 43.5782 232.36 45.2355 229.378 61.6426C227.42 72.4153 235.839 75.0666 239.815 75.5638" stroke="#292F33" stroke-width="1.49155"/>
<ellipse rx="3.26979" ry="2.45315" transform="matrix(0.981419 0.191878 -0.191747 0.981444 241.504 76.1112)" fill="#292F33"/>
</svg>
