<svg width="43" height="43" viewBox="0 0 43 43" fill="none" xmlns="http://www.w3.org/2000/svg">
<path fill-rule="evenodd" clip-rule="evenodd" d="M21.25 42.1629C9.65202 42.1629 0.250001 32.7609 0.250001 21.1629C0.250001 9.56492 9.65202 0.162903 21.25 0.162903C32.848 0.162903 42.25 9.56492 42.25 21.1629C42.25 32.7609 32.848 42.1629 21.25 42.1629Z" fill="#FFC047"/>
<path d="M18.0329 20.9086H24.1489C25.8514 20.9086 27.1925 19.4565 27.1925 17.7332V11.8558C27.1925 10.183 25.8015 8.92621 24.1396 8.64712C23.088 8.47058 22.0013 8.39023 20.9542 8.39531C19.9076 8.40017 18.9382 8.49003 18.0587 8.64712C15.4673 9.10825 15.0273 10.0745 15.0273 11.8558V14.1428H21.1099V14.9886H12.6731C10.8936 14.9886 9.3352 16.0686 8.84796 18.1201C8.28564 20.4712 8.26068 21.9087 8.84796 24.3636C9.28319 26.1908 10.3225 27.463 12.1022 27.463H14.1883V24.7042C14.1883 22.6667 15.956 20.9086 18.0329 20.9086V20.9086ZM17.6474 12.6396C17.0127 12.6396 16.4984 12.1154 16.4984 11.4672C16.4984 10.8162 17.0125 10.2872 17.6474 10.2872C18.2798 10.2872 18.7966 10.8162 18.7966 11.4672C18.7964 12.1154 18.2796 12.6396 17.6474 12.6396ZM33.334 18.1201C32.894 16.3339 32.054 14.9886 30.272 14.9886H28.0315V17.7332C28.0315 19.858 26.187 21.5429 24.1489 21.5429H18.0329C16.3575 21.5429 15.0273 23.0919 15.0273 24.7833V30.6611C15.0273 32.3335 16.442 33.3175 18.0606 33.7975C19.9991 34.3719 21.8348 34.4757 24.1539 33.7975C25.6953 33.3473 27.1925 32.442 27.1925 30.6611V28.3087H21.1099V27.463H30.272C32.0514 27.463 32.7149 26.2418 33.334 24.3634C33.9731 22.4299 33.9456 20.6002 33.334 18.1201V18.1201ZM24.5342 29.8769C25.1691 29.8769 25.6834 30.401 25.6834 31.0497C25.6834 31.7001 25.1693 32.2293 24.5342 32.2293C23.9018 32.2293 23.3852 31.7003 23.3852 31.0497C23.3852 30.401 23.9018 29.8769 24.5342 29.8769Z" fill="white"/>
</svg>
