<svg width="730" height="312" viewBox="0 0 730 312" fill="none" xmlns="http://www.w3.org/2000/svg">
<mask id="mask0" mask-type="alpha" maskUnits="userSpaceOnUse" x="0" y="0" width="730" height="312">
<path d="M0 6C0 2.6863 2.68629 0 6 0H724C727.314 0 730 2.68629 730 6V312H0V6Z" fill="#C4C4C4"/>
</mask>
<g mask="url(#mask0)">
<path fill-rule="evenodd" clip-rule="evenodd" d="M6 366.986C50.7351 366.986 109.783 285.914 87 284.771C64.2166 283.628 11.7131 278.368 6 202.557C0.286942 126.746 -75 239.366 -75 284.771C-75 330.177 -38.7351 366.986 6 366.986Z" fill="#AB72F0" fill-opacity="0.16"/>
<path fill-rule="evenodd" clip-rule="evenodd" d="M738 76.9858C782.735 76.9858 841.783 -4.08557 819 -5.22857C796.217 -6.37156 743.713 -11.6323 738 -87.443C732.287 -163.254 657 -50.6343 657 -5.22857C657 40.1772 693.265 76.9858 738 76.9858Z" fill="#AB72F0" fill-opacity="0.16"/>
<path fill-rule="evenodd" clip-rule="evenodd" d="M564.916 155L571 186.05L559.086 190L553 158.953L564.916 155Z" fill="#F8EB33"/>
<path fill-rule="evenodd" clip-rule="evenodd" d="M265.571 129.292C273.907 142.077 273.368 158.346 268.325 167C267.082 163.721 265.326 161.358 263.461 159.899C266.249 152.089 264.179 138.052 254 130.702C257.569 129.149 261.521 128.606 265.571 129.292Z" fill="#582D7A"/>
<path fill-rule="evenodd" clip-rule="evenodd" d="M656 212.616L659.704 194L668 196.384L664.294 215L656 212.616Z" fill="#2066A3"/>
<path fill-rule="evenodd" clip-rule="evenodd" d="M587.086 78L606 108.961L597.91 117L579 86.0442L587.086 78Z" fill="#F1A944"/>
<path fill-rule="evenodd" clip-rule="evenodd" d="M576.618 259L574 242.936L580.384 241L583 257.058L576.618 259Z" fill="#AF2A30"/>
<path fill-rule="evenodd" clip-rule="evenodd" d="M503.161 320L498 296.608L507.839 293L513 316.387L503.161 320Z" fill="#DA236D"/>
<path fill-rule="evenodd" clip-rule="evenodd" d="M687 270.783L669.482 272L669 259.217L686.522 258L687 270.783Z" fill="#2066A3"/>
<path fill-rule="evenodd" clip-rule="evenodd" d="M705.3 152L718 163.516L713.698 172L701 160.482L705.3 152Z" fill="#0C8944"/>
<path fill-rule="evenodd" clip-rule="evenodd" d="M662.015 29.4452L645.83 52.613L636.878 42.1678L653.063 19L662.015 29.4452Z" fill="#F8EB33"/>
<path fill-rule="evenodd" clip-rule="evenodd" d="M671.973 96L684.261 116.632L676.286 124.56L664 103.928L671.973 96Z" fill="#F8EB33"/>
<path fill-rule="evenodd" clip-rule="evenodd" d="M506 102.099L538.196 102L538.222 115.86L506.022 115.962L506 102.099Z" fill="#F1A944"/>
<path fill-rule="evenodd" clip-rule="evenodd" d="M561.878 32L560 15.2934L567.124 14L569 30.7039L561.878 32Z" fill="#DA236D"/>
<path fill-rule="evenodd" clip-rule="evenodd" d="M525.706 217.382C523.686 211.283 518.706 207.964 513.878 209.372C513.584 206.959 513.292 204.547 513 202.134C520.294 201.038 527.094 206.779 529.236 215.726C528.06 216.275 526.882 216.827 525.706 217.382Z" fill="#0C8944"/>
<path fill-rule="evenodd" clip-rule="evenodd" d="M102.836 51C101.557 50.454 100.279 49.9052 99 49.3592C99.5855 46.8708 99.581 44.339 99.0763 42H103.938C104.155 44.9964 103.807 48.0743 102.836 51Z" fill="#1B5C96"/>
<path fill-rule="evenodd" clip-rule="evenodd" d="M58.2334 253C54.6561 253 51.0808 251.491 48 248.424C48.8017 246.632 49.6054 244.835 50.4072 243.038C52.3632 244.577 54.4867 245.317 56.5787 245.317C60.1914 245.317 63.7076 243.111 66.099 239C67.734 241.193 69.367 243.38 71 245.567C70.3559 246.461 69.6763 247.277 68.9691 248.012L67.6867 248.573L67.8049 249.125C64.8816 251.696 61.5585 253 58.2334 253Z" fill="#117B3F"/>
<path fill-rule="evenodd" clip-rule="evenodd" d="M105.975 197L92 196.936L92.0228 188L106 188.066L105.975 197Z" fill="#DDD32F"/>
<path fill-rule="evenodd" clip-rule="evenodd" d="M61.8389 157L51 149.159L69.1631 107L80 114.843L61.8389 157Z" fill="#D6993B"/>
<path fill-rule="evenodd" clip-rule="evenodd" d="M196.499 241L185 231.963L197.499 203L209 212.037L196.499 241Z" fill="#1B5C96"/>
<path fill-rule="evenodd" clip-rule="evenodd" d="M178.987 42L159 34.4626L162.013 22L182 29.5348L178.987 42Z" fill="#DDD32F"/>
<path fill-rule="evenodd" clip-rule="evenodd" d="M68.698 33L64 22.1486L89.304 4L94 14.8592L68.698 33Z" fill="#D6993B"/>
<path fill-rule="evenodd" clip-rule="evenodd" d="M159.79 122L155 107.926L155.413 107.67L164.967 101.738L174.208 96L179 110.074L159.79 122Z" fill="#C22061"/>
<path fill-rule="evenodd" clip-rule="evenodd" d="M480.359 37L469 17.2703L481.408 5.45483L485.172 1.87256L485.574 1.48866L497.641 -10L509 9.73227L480.359 37Z" fill="#1B5C96"/>
<path fill-rule="evenodd" clip-rule="evenodd" d="M150.38 320C146.144 307.965 136.813 300.597 126.942 300.597C125.064 300.597 123.166 300.865 121.28 301.418C120.519 295.734 119.761 290.048 119 284.365C120.574 284.118 122.143 284 123.692 284C139.724 284 154.08 296.807 159 316.001C156.126 317.333 153.252 318.67 150.38 320Z" fill="#1B5C96"/>
<path fill-rule="evenodd" clip-rule="evenodd" d="M13.7264 85C9.57282 85 5.77035 83.362 3 80.5519C5.31119 78.8519 6.95681 76.5023 7.95421 74.0389C9.35289 74.8954 11.0178 75.3534 12.8062 75.3534C18.2388 75.3534 24.8194 71.1305 28.5871 61C29.7774 65.6292 30.2578 70.776 29.8662 76.0831C24.8618 82.3451 19.0105 85 13.7264 85Z" fill="#C22061"/>
<path fill-rule="evenodd" clip-rule="evenodd" d="M639.972 299.64C640.514 314.406 632.987 324.93 625.473 327C625.994 323.873 625.739 320.984 625 318.626C630.479 315.45 635.106 304.488 630.823 292C634.137 293.606 637.284 296.176 639.972 299.64Z" fill="#582D7A"/>
<path fill-rule="evenodd" clip-rule="evenodd" d="M156.23 202L149 191.61L156.379 184L161 190.641V197.082L156.23 202Z" fill="#D6993B"/>
<path fill-rule="evenodd" clip-rule="evenodd" d="M692.419 26L684 12.7434L704.581 -9L713 4.25922L692.419 26Z" fill="#117B3F"/>
<path fill-rule="evenodd" clip-rule="evenodd" d="M359.006 204.589C335.195 221.064 339.69 228.579 347.262 233.529C348.412 234.281 350.149 235.223 352.309 236.199L336.041 251.485L358.532 264.564C360.805 255.91 365.768 248.608 371.179 241.531C381.962 242.747 393.312 240.459 398.918 228.794C409.915 205.916 382.817 188.115 359.006 204.589Z" fill="#CE9673"/>
<path fill-rule="evenodd" clip-rule="evenodd" d="M344.253 230.903C341.838 230.108 334.848 222.714 356.788 203.807C378.728 184.9 401.128 195.688 398.948 223.712C368.7 249.23 360.042 234.848 344.253 230.903Z" fill="#D4A181"/>
<path fill-rule="evenodd" clip-rule="evenodd" d="M375.617 177.141C360.619 184.226 361.524 203.055 373.956 210.842C375.554 211.843 377.069 212.608 378.495 213.162C382.275 215.127 386.636 216.87 390.623 218.14C389.765 218.864 388.871 219.678 387.943 220.587C387.598 220.926 387.248 221.266 386.895 221.609C387.871 221.684 388.734 222.022 389.324 222.642C391.646 225.083 391.023 228.976 388.646 231.306C385.499 234.391 381.644 234.886 379.322 232.446C378.718 231.811 378.415 230.895 378.424 229.837C373.212 235.079 369.369 239.69 371.154 241.566C373.964 244.52 386.083 243.603 394.548 235.306C403.013 227.008 407.597 217.888 404.787 214.934C404.274 214.395 403.67 213.965 402.972 213.672C401.783 210.328 399.231 206.176 395.704 202.178C394.708 201.05 393.692 199.999 392.677 199.037C393.235 197.423 394.562 196.819 396.177 196.083C398.631 194.966 401.753 193.544 403.863 187.816C408.123 176.254 390.615 170.055 375.617 177.141Z" fill="#2F3676"/>
<path fill-rule="evenodd" clip-rule="evenodd" d="M398.387 237.776C404.01 241.08 412.013 237.688 416.261 230.2C420.508 222.712 419.393 213.963 413.77 210.659C408.147 207.354 400.144 210.746 395.896 218.234C391.649 225.722 392.764 234.471 398.387 237.776Z" fill="#2F3676"/>
<path fill-rule="evenodd" clip-rule="evenodd" d="M360.91 131.691L380.953 114.655C380.953 114.655 401.268 126.769 381.035 129.366C372.51 130.46 367.269 146.626 367.269 146.626L360.91 131.691Z" fill="#D4A181"/>
<path fill-rule="evenodd" clip-rule="evenodd" d="M381.99 106.308L400.759 125.412L396.31 129.938L377.541 110.834L381.99 106.308Z" fill="#FFC33D"/>
<path fill-rule="evenodd" clip-rule="evenodd" d="M384.66 100.428C385.435 99.6382 386.695 99.638 387.471 100.427L388.229 101.199C389.002 101.985 389.002 103.258 388.23 104.045L375.836 116.659C375.06 117.448 373.801 117.449 373.025 116.659L372.266 115.888C371.494 115.101 371.493 113.829 372.266 113.042L384.66 100.428Z" fill="#F5AF14"/>
<path fill-rule="evenodd" clip-rule="evenodd" d="M432.349 136.318C435.978 131.701 441.341 123.967 436.57 121.196C431.8 118.424 431.039 124.326 416.534 120.418L432.349 136.318Z" stroke="#FFC33D" stroke-width="4"/>
<path fill-rule="evenodd" clip-rule="evenodd" d="M409.316 161.529C405.021 165.546 397.78 171.549 394.743 166.917C391.705 162.285 397.451 161.081 392.653 146.666L409.316 161.529Z" stroke="#FFC33D" stroke-width="4"/>
<path fill-rule="evenodd" clip-rule="evenodd" d="M394.923 124.172C404.227 114.393 420.05 115.832 427.493 127.133L439.017 144.628C434.95 153.747 430.09 162.68 415.634 169.354L397.754 156.277C387.373 148.684 386.035 133.515 394.923 124.172Z" fill="#F5AF14"/>
<path fill-rule="evenodd" clip-rule="evenodd" d="M396.757 122.307C404.818 113.835 418.486 114.905 425.171 124.531L439.108 144.599C435.943 152.77 432.029 160.708 419.045 165.834L398.877 150.291C390.053 143.491 389.061 130.396 396.757 122.307Z" fill="#FFC33D"/>
<path fill-rule="evenodd" clip-rule="evenodd" d="M388.175 110.232C390.12 110.712 393.71 114.141 394.112 116.193C394.513 118.244 392.421 121.749 385.666 114.11C383.416 111.566 386.229 109.753 388.175 110.232Z" fill="#D4A181"/>
<path fill-rule="evenodd" clip-rule="evenodd" d="M394.607 121.844C392.6 120.806 389.982 122.763 387.553 122.763L383.109 118.449L384.249 127.503C388.209 129.147 394.411 123.119 394.607 121.844Z" fill="#D4A181"/>
<path fill-rule="evenodd" clip-rule="evenodd" d="M285 376.736C311.555 362.629 347.574 356.938 380.81 364.378C365.093 314.372 387.943 265.912 376.938 261.204C356.06 253.028 334.766 235.497 334.766 235.497C335.328 185.005 354.669 159.601 380.81 135.178L369.54 123.117C332.905 151.362 289.99 207.837 285 376.736Z" fill="#4E5AE6"/>
<path fill-rule="evenodd" clip-rule="evenodd" d="M413.047 305.095C413.047 305.095 421.194 275.881 419.282 269.253C412.798 264.944 407.813 267.275 407.224 268.406C405.014 271.259 404.587 277.49 404.587 277.49L408.674 284.127L401.52 297.317L413.047 305.095Z" fill="#D4A181"/>
<path fill-rule="evenodd" clip-rule="evenodd" d="M376.91 261.232C385.526 265.612 385.23 279.6 395.873 302.738C395.873 302.738 400.98 297.959 404.11 291.907L416.352 298.265C412.927 321.571 408.75 337.906 403.547 348.738C391.841 348.601 369.593 318.681 368.956 285.852C368.956 285.852 365.864 258.087 376.91 261.232Z" fill="#4E5AE6"/>
<path fill-rule="evenodd" clip-rule="evenodd" d="M404.551 292.778C400.121 299.808 394.844 305.539 389.189 310.691L395.943 325.818L393.606 310.573C393.606 310.573 397.014 306.251 399.103 302.853C401.193 299.455 404.551 292.778 404.551 292.778Z" fill="#202ED0"/>
</g>
</svg>
