<svg width="180" height="186" viewBox="0 0 180 186" fill="none" xmlns="http://www.w3.org/2000/svg">
<g clip-path="url(#clip0_106:333)">
<g clip-path="url(#clip1_106:333)">
<path fill-rule="evenodd" clip-rule="evenodd" d="M133.623 125.574C150.49 109.26 164.322 89.5645 166.597 67.8146C167.43 59.8258 165.925 51.9847 164.47 43.9563C164.342 43.2506 163.664 42.7804 162.959 42.91C162.255 43.0371 161.783 43.7146 161.912 44.4177C163.323 52.2026 164.82 59.8017 164.01 67.5413C161.772 88.9632 147.938 108.275 131.243 124.261C131.067 124.162 130.891 124.06 130.715 123.958C126.844 121.715 120.614 121.44 113.797 122.535C103.901 124.122 92.7448 128.507 86.1535 133.123C83.1119 135.251 81.0272 137.48 80.288 139.488C79.6703 141.16 79.8525 142.736 80.9673 144.142C81.8891 145.3 83.1932 146.114 84.8144 146.596C86.9784 147.238 89.7482 147.288 92.8564 146.861C104.357 145.282 120.66 137.226 126.36 132.244C128.146 130.683 129.911 129.087 131.653 127.45C132.772 128.063 133.84 128.653 134.804 129.308C136.219 130.271 137.398 131.369 138.09 132.968C139.368 135.919 139.062 139.098 137.973 142.196C136.232 147.158 132.502 151.912 129.428 155.354C112.136 174.716 87.4466 181.117 63.6604 182.506C39.6047 183.912 16.4445 180.183 2.53246 179.27C1.81668 179.224 1.19587 179.768 1.15059 180.483C1.10193 181.197 1.64597 181.816 2.36124 181.865C16.3495 182.782 39.6317 186.513 63.8111 185.101C88.2599 183.672 113.593 176.986 131.368 157.084C134.637 153.421 138.572 148.337 140.427 143.057C141.734 139.323 142.014 135.491 140.476 131.938C139.578 129.867 138.093 128.404 136.267 127.161C135.448 126.604 134.555 126.089 133.623 125.574ZM129.269 126.125C125.782 124.19 120.245 124.131 114.209 125.101C104.7 126.626 93.977 130.817 87.6419 135.251C85.5203 136.737 83.902 138.228 83.072 139.662C82.4704 140.698 82.3279 141.677 83.0023 142.525C83.7778 143.501 84.9905 144.048 86.4767 144.325C88.1887 144.647 90.2463 144.598 92.5057 144.286C103.535 142.772 119.185 135.065 124.649 130.289C126.203 128.929 127.746 127.539 129.269 126.125Z" fill="#FFC33D"/>
<path fill-rule="evenodd" clip-rule="evenodd" d="M160.946 41.1008C161.512 41.3008 162.197 41.7372 162.91 42.2251C164.526 43.327 166.197 44.7719 167.013 45.4286C167.574 45.8758 168.393 45.7874 168.842 45.227C169.291 44.6666 169.199 43.849 168.639 43.3993C167.64 42.5989 165.424 40.6854 163.506 39.5163C162.521 38.9158 161.584 38.5139 160.872 38.4177C160.172 38.3268 159.651 38.5168 159.243 38.8528C158.813 39.2064 158.48 39.8192 158.336 40.696C158.179 41.6593 158.216 43.0845 158.033 44.6074C157.882 45.885 157.572 47.2533 156.7 48.3821C156.26 48.9497 156.363 49.7666 156.932 50.2047C157.498 50.6421 158.316 50.5401 158.752 49.9718C160.391 47.8559 160.656 45.1418 160.764 42.9777C160.796 42.333 160.887 41.5432 160.946 41.1008Z" fill="#FFC33D"/>
</g>
<path fill-rule="evenodd" clip-rule="evenodd" d="M138.572 37.2783C135.332 34.7896 131.717 32.7397 128.2 30.7791C127.441 30.3595 126.477 30.616 126.107 31.3734C125.68 32.1085 125.964 33.0516 126.666 33.4483C130.077 35.3455 133.588 37.3202 136.672 39.7021C137.328 40.2135 138.304 40.0936 138.836 39.4276C139.367 38.7622 139.227 37.7902 138.572 37.2783Z" fill="#FFC33D"/>
<path fill-rule="evenodd" clip-rule="evenodd" d="M155.463 27.1926C151.993 18.8405 147.471 10.9627 144.18 2.49547C143.897 1.71459 142.997 1.31771 142.211 1.62566C141.425 1.93419 141.006 2.81492 141.346 3.61868C144.63 12.1036 149.145 19.9985 152.608 28.3683C152.953 29.1584 153.862 29.5324 154.654 29.209C155.389 28.8634 155.808 27.9827 155.463 27.1926Z" fill="#FFC33D"/>
<path fill-rule="evenodd" clip-rule="evenodd" d="M175.723 8.54768C174.518 12.0479 173.312 15.5479 172.106 19.0487C171.791 19.8347 172.233 20.7163 173.046 20.9984C173.861 21.2799 174.699 20.8395 175.014 20.0529C176.222 16.547 177.43 13.0418 178.637 9.53652C178.895 8.72762 178.453 7.8501 177.637 7.57256C176.878 7.31791 175.981 7.73936 175.723 8.54768Z" fill="#FFC33D"/>
</g>
<defs>
<clipPath id="clip0_106:333">
<rect width="180" height="186" fill="white"/>
</clipPath>
<clipPath id="clip1_106:333">
<rect width="171.473" height="171.473" fill="white" transform="translate(-13.8693 178.702) rotate(-78.9366)"/>
</clipPath>
</defs>
</svg>
