<svg width="308" height="217" viewBox="0 0 308 217" fill="none" xmlns="http://www.w3.org/2000/svg">
<path d="M53.5938 62.7699C54.3312 61.4748 55.6106 60.5682 57.4323 60.0717C59.2322 59.5753 61.6177 59.3163 64.5453 59.3163C67.4729 59.3163 69.8149 59.6184 71.5715 60.2228C73.3281 60.8272 74.5859 61.7985 75.3232 63.1368C76.0605 64.475 76.5159 65.7054 76.646 66.8062C76.7762 67.9071 76.8629 69.5259 76.8629 71.6628V148.742C76.8629 152.347 76.4292 155.002 75.5401 156.707C74.6509 158.412 73.3064 159.556 71.5065 160.096C69.7065 160.636 67.4512 160.938 64.7621 160.938C62.0731 160.938 59.9261 160.7 58.3648 160.247C56.7817 159.794 55.589 159.233 54.7432 158.585C53.8974 157.938 53.3119 157.009 52.9433 155.822C52.3794 154.246 52.0975 151.851 52.0975 148.613V131.712H14.3639C7.85811 131.712 4.0197 129.963 2.80528 126.445C2.34988 124.977 2.11133 122.97 2.11133 120.488C2.11133 117.984 2.24145 116.149 2.52337 114.94L14.082 68.5114C14.6458 66.3961 15.1229 64.7772 15.535 63.6548C15.947 62.554 16.7927 61.4747 18.0505 60.4603C19.3083 59.4458 20.9131 58.9277 22.8648 58.9277C24.8165 58.9277 26.9418 59.2515 29.2622 59.8991C35.768 61.6474 39.0209 64.6045 39.0209 68.7704C39.0209 70.2598 38.6956 72.1808 38.045 74.5983C37.9583 74.7926 37.9149 74.9221 37.9149 75.0085L29.414 108.832H52.1192V70.9937C52.1192 68.8784 52.1843 67.3027 52.3361 66.2882C52.4011 65.2089 52.8565 64.0649 53.5938 62.7699Z" fill="#CCEDFF"/>
<path d="M64.7402 162.19C61.8994 162.19 59.6657 161.953 57.9742 161.435C56.2176 160.916 54.8948 160.312 53.9189 159.557C52.878 158.758 52.119 157.614 51.6636 156.168C51.0564 154.441 50.7528 151.959 50.7528 148.548V132.921H14.3203C7.22902 132.921 2.9352 130.849 1.52561 126.791C1.00515 125.15 0.766602 123.078 0.766602 120.423C0.766602 117.812 0.918405 115.89 1.22201 114.595L12.7806 68.1448C13.3662 65.9431 13.8432 64.3026 14.277 63.1586C14.7757 61.842 15.7516 60.59 17.1829 59.4245C18.6792 58.2157 20.5659 57.6113 22.7996 57.6113C24.8597 57.6113 27.1151 57.9567 29.5439 58.6258C36.6352 60.5469 40.2351 63.9573 40.2351 68.7491C40.2351 70.3464 39.9098 72.3754 39.2158 74.9008L39.1725 75.0303L39.1074 75.1382C39.1074 75.1382 39.1074 75.1382 39.1074 75.1598L39.064 75.2893L30.9752 107.516H50.7311V70.9723C50.7311 68.7707 50.7961 67.1734 50.9479 66.0942C51.1214 64.907 51.5985 63.6119 52.4226 62.1657C53.3334 60.5684 54.8731 59.4676 57.02 58.8633C58.9501 58.3236 61.444 58.043 64.48 58.043C67.5377 58.043 70.0316 58.3668 71.94 59.0143C74.0001 59.7266 75.5182 60.8922 76.4073 62.5111C77.2314 64.0004 77.7301 65.3819 77.8819 66.6554C78.0337 67.8209 78.0988 69.4614 78.0988 71.6631V148.743C78.0988 152.585 77.6217 155.391 76.6241 157.312C75.5832 159.341 73.9568 160.701 71.8099 161.348C69.9449 161.909 67.5377 162.19 64.7402 162.19ZM22.8212 60.1799C21.1731 60.1799 19.8503 60.59 18.831 61.4103C17.7684 62.2737 17.0528 63.1586 16.7275 64.0436C16.3371 65.1013 15.86 66.6985 15.2962 68.7707L3.73758 115.2C3.47734 116.279 3.34723 118.049 3.34723 120.445C3.34723 122.798 3.56409 124.675 3.97612 126.014C4.97368 128.906 8.44344 130.374 14.2986 130.374H53.3334V148.57C53.3334 151.635 53.5936 153.923 54.0924 155.348L54.1141 155.391C54.396 156.34 54.8514 157.031 55.4803 157.528C56.196 158.067 57.2586 158.564 58.6682 158.974C60.1211 159.406 62.1379 159.621 64.7185 159.621C67.2775 159.621 69.4244 159.362 71.0942 158.844C72.5689 158.391 73.6315 157.484 74.3688 156.081C75.1495 154.571 75.5398 152.088 75.5398 148.699V71.6199C75.5398 69.5477 75.4748 67.9721 75.3447 66.936C75.2362 66.0078 74.8242 64.907 74.1736 63.7199C73.5881 62.6622 72.5905 61.9067 71.1376 61.4103C69.5111 60.8491 67.2992 60.5684 64.5234 60.5684C61.7259 60.5684 59.4705 60.8059 57.779 61.2808C56.3044 61.6909 55.2851 62.3816 54.7213 63.3745C54.0707 64.5185 53.6804 65.533 53.5503 66.3748C53.4202 67.3245 53.3551 68.8571 53.3551 70.9076V110.041H27.7006L36.5701 74.7065C36.5918 74.5123 36.6569 74.2964 36.7653 74.059C37.3725 71.8142 37.6761 70.0226 37.6761 68.6844C37.6761 65.1445 34.7919 62.6622 28.8933 61.0649C26.6597 60.4821 24.6212 60.1799 22.8212 60.1799Z" fill="#202ED0"/>
<path d="M260.456 62.7699C261.193 61.4748 262.473 60.5682 264.295 60.0717C266.095 59.5753 268.48 59.3163 271.408 59.3163C274.335 59.3163 276.677 59.6184 278.434 60.2228C280.19 60.8272 281.448 61.7985 282.186 63.1368C282.923 64.475 283.378 65.7054 283.508 66.8062C283.638 67.9071 283.725 69.5259 283.725 71.6628V148.742C283.725 152.347 283.291 155.002 282.402 156.707C281.513 158.412 280.169 159.556 278.369 160.096C276.569 160.657 274.313 160.938 271.624 160.938C268.935 160.938 266.788 160.7 265.227 160.247C263.644 159.794 262.451 159.233 261.606 158.585C260.76 157.938 260.174 157.009 259.806 155.822C259.242 154.246 258.96 151.851 258.96 148.613V131.712H221.226C214.72 131.712 210.882 129.963 209.668 126.445C209.212 124.977 208.974 122.97 208.974 120.488C208.974 117.984 209.104 116.149 209.386 114.94L220.944 68.5114C221.508 66.3961 221.985 64.7772 222.397 63.6548C222.809 62.554 223.655 61.4747 224.913 60.4603C226.171 59.4458 227.775 58.9277 229.727 58.9277C231.679 58.9277 233.804 59.2515 236.124 59.8991C242.63 61.6474 245.883 64.6045 245.883 68.7704C245.883 70.2598 245.558 72.1808 244.907 74.5983C244.821 74.7926 244.777 74.9221 244.777 75.0085L236.276 108.832H258.916V70.9937C258.916 68.8784 258.981 67.3027 259.133 66.2882C259.263 65.2089 259.697 64.0649 260.456 62.7699Z" fill="#CCEDFF"/>
<path d="M271.581 162.19C268.74 162.19 266.506 161.953 264.815 161.435C263.058 160.916 261.735 160.312 260.76 159.557C259.719 158.758 258.96 157.614 258.504 156.168C257.897 154.441 257.593 151.959 257.593 148.548V132.921H221.183C214.091 132.921 209.798 130.849 208.388 126.791C207.867 125.15 207.629 123.078 207.629 120.423C207.629 117.812 207.781 115.89 208.084 114.595L219.643 68.1448C220.228 65.9431 220.706 64.3026 221.139 63.1586C221.638 61.842 222.614 60.59 224.045 59.4245C225.542 58.2157 227.428 57.6113 229.662 57.6113C231.722 57.6113 233.977 57.9567 236.428 58.6258C243.519 60.5469 247.119 63.9573 247.119 68.7491C247.119 70.3464 246.794 72.3754 246.1 74.9008L246.056 75.0303L245.991 75.1382C245.991 75.1382 245.991 75.1382 245.991 75.1598L245.948 75.2893L237.859 107.516H257.615V70.9723C257.615 68.7707 257.68 67.1734 257.832 66.0942C258.005 64.907 258.483 63.6119 259.307 62.1657C260.217 60.5684 261.779 59.4676 263.904 58.8633C265.834 58.3236 268.328 58.043 271.364 58.043C274.422 58.043 276.916 58.3668 278.824 59.0143C280.884 59.7266 282.402 60.8922 283.291 62.5111C284.115 64.0004 284.614 65.3819 284.766 66.6554C284.918 67.8209 284.983 69.4614 284.983 71.6631V148.743C284.983 152.585 284.506 155.391 283.508 157.312C282.467 159.341 280.841 160.701 278.694 161.348C276.807 161.909 274.4 162.19 271.581 162.19ZM229.662 60.1799C228.014 60.1799 226.691 60.59 225.672 61.4103C224.609 62.2737 223.893 63.1586 223.568 64.0436C223.178 65.1013 222.701 66.6985 222.137 68.7707L210.578 115.2C210.318 116.279 210.188 118.049 210.188 120.445C210.188 122.798 210.405 124.675 210.817 126.014C211.814 128.906 215.284 130.374 221.139 130.374H260.174V148.57C260.174 151.635 260.434 153.923 260.933 155.348L260.955 155.391C261.237 156.34 261.692 157.031 262.321 157.528C263.037 158.067 264.099 158.564 265.509 158.974C266.962 159.406 269 159.621 271.559 159.621C274.118 159.621 276.265 159.362 277.935 158.844C279.409 158.391 280.472 157.484 281.209 156.081C281.99 154.571 282.38 152.088 282.38 148.699V71.6199C282.38 69.5477 282.315 67.9721 282.185 66.936C282.077 66.0078 281.665 64.907 281.014 63.7199C280.429 62.6622 279.431 61.9067 277.978 61.4103C276.352 60.8491 274.14 60.5684 271.364 60.5684C268.566 60.5684 266.311 60.8059 264.62 61.2808C263.145 61.6909 262.126 62.3816 261.562 63.3745C260.911 64.5185 260.521 65.533 260.391 66.3748C260.261 67.3245 260.196 68.8571 260.196 70.9076V110.041H234.541L243.411 74.7065C243.432 74.5123 243.498 74.2964 243.606 74.059C244.213 71.8142 244.517 70.0226 244.517 68.6844C244.517 65.1445 241.633 62.6622 235.734 61.0649C233.522 60.4821 231.483 60.1799 229.662 60.1799Z" fill="#202ED0"/>
<path d="M76.4944 199.747L72.3741 198.862L71.4416 194.782C71.3982 194.631 71.2897 194.545 71.1379 194.545C70.9861 194.545 70.856 194.653 70.8344 194.782L69.9019 198.884L65.7815 199.855C65.6297 199.898 65.543 200.027 65.543 200.157C65.543 200.286 65.6514 200.438 65.8032 200.459L69.9235 201.344L70.856 205.424C70.8994 205.575 71.0078 205.661 71.1596 205.661C71.3114 205.661 71.4416 205.553 71.4632 205.424L72.3957 201.323L76.5161 200.351C76.6679 200.308 76.7546 200.179 76.7546 200.049C76.7546 199.92 76.6245 199.79 76.4944 199.747Z" fill="#202ED0"/>
<path d="M109.371 25.1271L106.356 24.4795L105.684 21.5008C105.662 21.3929 105.576 21.3281 105.446 21.3281C105.337 21.3281 105.25 21.3929 105.207 21.5008L104.513 24.5011L101.499 25.2134C101.39 25.235 101.325 25.3429 101.325 25.4508C101.325 25.5588 101.412 25.6451 101.499 25.6667L104.513 26.3142L105.185 29.2929C105.207 29.4009 105.294 29.4656 105.424 29.4656C105.532 29.4656 105.619 29.4009 105.662 29.2929L106.356 26.2926L109.371 25.5803C109.479 25.5587 109.544 25.4508 109.544 25.3429C109.544 25.235 109.479 25.1486 109.371 25.1271Z" fill="#202ED0"/>
<path d="M224.284 209.375L228.881 208.382L229.922 203.827C229.966 203.676 230.096 203.547 230.269 203.547C230.443 203.547 230.573 203.655 230.616 203.827L231.657 208.403L236.255 209.483C236.406 209.526 236.536 209.655 236.536 209.828C236.536 210.001 236.428 210.13 236.255 210.173L231.657 211.166L230.616 215.721C230.573 215.872 230.443 216.001 230.269 216.001C230.096 216.001 229.966 215.893 229.922 215.721L228.881 211.145L224.284 210.065C224.132 210.022 224.002 209.893 224.002 209.72C224.002 209.569 224.11 209.418 224.284 209.375Z" fill="#202ED0"/>
<path d="M215.935 189.797L218.32 189.279L218.863 186.927C218.884 186.84 218.949 186.775 219.036 186.775C219.123 186.775 219.188 186.84 219.21 186.927L219.752 189.301L222.137 189.862C222.224 189.884 222.289 189.948 222.289 190.035C222.289 190.121 222.224 190.186 222.137 190.207L219.752 190.725L219.21 193.078C219.188 193.165 219.123 193.229 219.036 193.229C218.949 193.229 218.884 193.165 218.863 193.078L218.32 190.704L215.935 190.143C215.848 190.121 215.783 190.056 215.783 189.97C215.805 189.884 215.848 189.819 215.935 189.797Z" fill="#202ED0"/>
<path d="M199.736 13.1454C199.736 13.1454 188.394 9.10908 171.284 17.4408C170.199 17.9589 170.351 19.5561 171.501 19.8799C175.491 21.0023 182.105 22.9881 184.772 24.6718L199.736 13.1454Z" fill="#FFC33D"/>
<path d="M208.258 29.8086C208.258 29.8086 204.854 41.3133 188.025 50.1631C186.963 50.7243 185.77 49.6667 186.182 48.5443C187.635 44.6806 189.89 38.1835 190.107 35.0537L208.258 29.8086Z" fill="#FFC33D"/>
<path d="M187.114 20.2898C185.813 21.369 184.49 22.4914 183.146 23.657L189.912 36.9101C191.668 36.5216 193.36 36.1115 194.986 35.7014C219.838 29.377 231.527 19.9012 237.013 12.6487L230.551 0C221.443 0.172679 206.87 4.01478 187.114 20.2898Z" fill="#202ED0"/>
<path d="M222.755 18.5726C225.68 17.0923 226.846 13.5319 225.358 10.6203C223.871 7.70865 220.294 6.54833 217.369 8.02864C214.444 9.50895 213.278 13.0693 214.765 15.981C216.252 18.8926 219.829 20.0529 222.755 18.5726Z" fill="white"/>
<path d="M237.014 12.6716L230.552 0.022828C237.99 -0.106681 241.785 2.20292 241.785 2.20292L241.85 2.31084C241.85 2.31084 241.503 6.73574 237.014 12.6716Z" fill="#FFC33D"/>
<path d="M203.466 21.3486C203.834 22.0825 203.596 22.989 202.902 23.4207L194.683 28.5795C192.991 29.6372 191.213 30.5437 189.348 31.2776L180.327 34.8391C179.546 35.1413 178.679 34.8175 178.31 34.0837C177.941 33.3498 178.18 32.4432 178.874 32.0115L187.093 26.8527C188.784 25.7951 190.563 24.8885 192.428 24.1546L201.449 20.5931C202.208 20.2909 203.097 20.6147 203.466 21.3486Z" fill="#FFC33D"/>
<path d="M82.349 20.0079C82.349 20.0079 79.725 12.8418 72.7421 14.7844C72.7421 14.7844 71.8746 4.35892 60.5112 3.71138C49.1477 3.06383 45.6563 11.9784 45.6563 11.9784C45.6563 11.9784 36.0494 6.75482 29.5003 14.806C29.5003 14.806 22.0836 14.806 20.5439 20.0295H82.349V20.0079Z" fill="white"/>
<path d="M83.5848 20.8732H19.416L19.7413 19.7724C21.2376 14.6999 27.4181 14.0308 29.1096 13.9445C34.8781 7.23158 42.7501 9.75703 45.2874 10.8363C46.5235 8.54828 50.839 2.28867 60.5977 2.84988C70.4431 3.41108 72.9153 11.009 73.4792 13.7502C79.0308 12.7357 82.2403 17.1175 83.1945 19.7076L83.5848 20.8732ZM21.8665 19.1464H80.9825C79.9633 17.3765 77.5127 14.3546 72.9804 15.6281L71.9828 15.9087L71.8961 14.8726C71.8527 14.4841 70.9202 5.18104 60.4893 4.57666C49.9282 3.97229 46.6319 11.9587 46.5018 12.2824L46.1331 13.189L45.2657 12.7357C44.897 12.5415 36.201 7.96547 30.1939 15.3475L29.9337 15.6713H29.5217C29.4566 15.6497 23.8617 15.7145 21.8665 19.1464Z" fill="#202ED0"/>
<path d="M305.996 37.4059C305.996 37.4059 304.109 32.2471 299.078 33.6501C299.078 33.6501 298.449 26.1602 290.295 25.6853C282.142 25.2104 279.626 31.6211 279.626 31.6211C279.626 31.6211 272.708 27.8654 268.002 33.6501C268.002 33.6501 262.668 33.6501 261.562 37.4059H305.996Z" fill="white"/>
<path d="M307.232 38.2711H260.412L260.737 37.1703C261.822 33.4793 266.202 32.8965 267.59 32.8102C271.689 28.1263 277.175 29.6804 279.236 30.5006C280.276 28.6875 283.486 24.4352 290.36 24.8238C297.343 25.2339 299.273 30.4358 299.794 32.6159C303.806 32.0115 306.126 35.2061 306.82 37.1056L307.232 38.2711ZM262.949 36.5659H304.565C303.762 35.3572 302.114 33.7167 299.317 34.4938L298.319 34.7744L298.232 33.7383C298.211 33.4577 297.538 26.9823 290.252 26.5506C282.792 26.1189 280.45 31.882 280.428 31.9468L280.081 32.8534L279.214 32.3785C278.954 32.249 272.882 29.0544 268.674 34.1916L268.414 34.5154H268.002C267.959 34.5154 264.489 34.5585 262.949 36.5659Z" fill="#202ED0"/>
<path d="M174.406 38.8964C174.58 40.1484 174.623 42.1773 170.568 42.868C170.568 42.868 168.638 47.3361 163.65 45.3503C163.65 45.3503 163.65 51.3077 156.667 49.3219C156.667 49.3219 155.669 62.2297 143.699 58.2581C143.699 58.2581 138.711 63.2226 133.723 61.2368C133.723 61.2368 134.721 69.18 126.74 69.18C126.74 69.18 124.745 74.1445 119.758 72.1587C119.758 72.1587 120.755 78.1162 114.77 79.1091C114.77 79.1091 115.767 86.0593 109.782 87.0522C109.782 87.0522 109.782 94.9955 104.794 97.9742C104.794 97.9742 118.76 105.917 110.78 118.825C110.78 118.825 119.757 121.804 112.775 131.733C112.775 131.733 121.753 133.719 116.765 142.655C116.765 142.655 127.738 144.641 121.753 155.563C121.753 155.563 134.721 152.584 137.713 165.492C137.713 165.492 142.701 164.499 145.694 167.477C145.694 167.477 147.689 162.513 152.677 163.506C152.677 163.506 152.677 152.584 162.652 152.584C162.652 152.584 162.652 144.641 170.633 141.662C170.633 141.662 168.638 133.719 172.628 131.733C172.628 131.733 164.647 117.832 178.613 113.861C178.613 113.861 174.623 108.896 178.613 102.939C178.613 102.939 173.625 99.96 174.623 94.9955C174.623 94.9955 165.645 92.0168 168.638 83.0807C168.638 83.0807 164.647 81.0948 165.645 75.1374C165.645 75.1374 160.657 68.1871 167.64 65.2084C167.64 65.2084 172.628 64.2155 173.625 70.1729C173.625 70.1729 186.594 66.2013 186.594 80.1019C186.594 80.1019 195.572 81.0949 192.579 91.0239C192.579 91.0239 205.547 97.9742 191.581 111.875C191.581 111.875 194.574 115.846 191.581 120.811C191.581 120.811 197.567 125.776 190.584 132.726C190.584 132.726 194.574 142.655 183.601 150.598C183.601 150.598 189.586 165.492 172.628 167.477C172.628 167.477 171.63 174.428 164.647 174.428C164.647 174.428 162.652 179.392 158.662 178.399C158.662 178.399 154.672 185.35 147.689 180.385C147.689 180.385 140.706 186.343 133.723 178.399C133.723 178.399 125.743 190.314 113.772 181.378C113.772 181.378 109.782 178.399 109.782 170.456C109.782 170.456 103.797 165.492 105.792 159.534C105.792 159.534 92.8235 156.556 94.8186 141.662C94.8186 141.662 81.8504 132.726 92.8235 118.825C92.8235 118.825 86.8382 112.868 94.8186 101.946C94.8186 101.946 82.848 90.031 97.8113 80.1019C97.8113 80.1019 97.8113 71.1658 106.789 69.18C106.789 69.18 107.787 63.2226 113.772 65.2084C113.772 65.2084 113.772 60.2439 118.76 61.2368C118.76 61.2368 119.758 56.2723 126.74 57.2652C126.74 57.2652 126.74 40.3858 143.699 46.3432C143.699 46.3432 144.957 40.2131 152.677 43.3645C152.677 43.3645 154.672 36.4142 161.655 40.3858C161.655 40.3858 165.255 36.7811 168.638 38.9612C168.638 38.9612 169.57 35.9177 173.365 37.1049C174.059 37.3207 174.319 38.2057 174.406 38.8964Z" fill="white"/>
<path d="M122.62 185.932C119.432 185.932 116.223 184.723 113.035 182.349C112.861 182.219 108.719 179.046 108.524 170.973C107.158 169.678 103.298 165.491 104.274 160.332C100.934 159.08 92.1946 154.612 93.4958 142.201C91.956 140.949 88.161 137.366 87.3369 131.883C86.6864 127.609 88.0092 123.206 91.2404 118.803C89.7874 116.687 87.1418 110.881 93.2138 102.01C91.7175 100.24 88.573 95.7717 89.0935 90.4187C89.5055 86.2528 92.0428 82.5402 96.5968 79.3672C96.8137 77.1224 98.1365 70.2153 105.77 68.0999C106.095 67.0639 106.898 65.2939 108.589 64.2794C109.782 63.5671 111.17 63.3297 112.731 63.5887C112.97 62.7037 113.447 61.6245 114.423 60.8258C115.355 60.0704 116.548 59.725 117.936 59.8113C118.695 58.2356 120.712 55.6239 125.548 55.8397C125.808 53.4006 126.805 48.4145 130.731 45.6517C133.788 43.4932 137.887 43.191 142.918 44.7019C143.352 43.7954 144.176 42.6298 145.585 41.8743C147.32 40.9462 149.446 40.903 151.961 41.7016C152.525 40.5792 153.609 39.0251 155.474 38.2696C157.253 37.5573 159.269 37.73 161.481 38.8093C163.021 37.6005 165.58 36.3702 168.117 37.2551C168.442 36.8234 168.92 36.3702 169.57 36.0248C170.763 35.3989 172.172 35.3557 173.777 35.8521C174.515 36.0896 175.447 36.7587 175.707 38.7013C176.098 41.5074 174.666 43.2773 171.435 43.9896C170.438 45.6733 168.182 47.7022 164.691 46.9899C164.431 47.9397 163.867 49.1052 162.761 49.9255C161.481 50.8752 159.811 51.199 157.751 50.8536C157.339 52.9473 156.168 56.7247 153.002 58.8184C150.595 60.4157 147.581 60.6963 144.046 59.6602C142.658 60.8258 139.058 63.4592 135.046 62.8548C134.938 64.301 134.504 66.33 133.073 67.9273C131.771 69.395 129.928 70.2152 127.586 70.3879C126.589 72.1579 124.42 74.2732 121.102 73.7983C121.059 74.3379 120.95 74.9423 120.755 75.5899C120.256 77.2087 119.042 79.1945 116.158 80.0579C116.201 82.8208 115.182 86.7924 111.04 88.0227C110.866 90.1165 110.151 94.8867 107.028 97.8438C109.175 99.4411 112.883 102.787 114.141 107.643C115.03 111.075 114.509 114.615 112.623 118.198C113.881 118.911 115.637 120.271 116.396 122.559C117.22 125.019 116.678 127.847 114.791 130.998C116.179 131.624 118.066 132.811 119.02 134.905C119.909 136.891 119.779 139.179 118.651 141.769C120.321 142.373 122.88 143.69 124.138 146.302C125.179 148.46 125.114 151.029 123.965 153.921C125.309 153.857 127.087 153.9 128.952 154.353C132.422 155.195 136.824 157.548 138.711 164.001C140.272 163.894 143.005 163.958 145.325 165.448C146.475 163.786 148.535 161.972 151.484 162.016C151.939 157.871 154.412 151.871 161.481 151.288C161.828 148.87 163.281 143.539 169.158 140.841C168.746 138.596 168.247 133.675 170.98 131.279C169.939 129.077 167.987 123.832 169.874 119.213C171.001 116.45 173.278 114.399 176.683 113.126C175.555 110.838 174.818 107.169 176.922 103.262C175.447 102.074 172.997 99.5059 173.235 95.7933C169.852 94.2823 165.406 90.3108 167.163 83.5763C165.862 82.5186 163.715 80.0579 164.322 75.3956C163.628 74.2732 162.067 71.2729 162.891 68.3805C163.433 66.4594 164.864 64.9701 167.163 63.9988L167.293 63.9556L167.423 63.9341C167.532 63.9125 169.939 63.4592 172.086 64.9269C173.3 65.7472 174.146 66.9991 174.645 68.618C176.727 68.2294 180.803 67.9056 183.926 70.2152C186.377 72.0068 187.7 74.9855 187.895 79.0219C189.304 79.3888 191.69 80.3385 193.186 82.5834C194.552 84.6555 194.856 87.2673 194.097 90.4187C195.615 91.4763 198.629 94.0881 199.258 98.2755C199.887 102.549 197.849 107.19 193.23 112.025C194.01 113.558 195.073 116.752 193.208 120.551C194.01 121.479 195.181 123.249 195.29 125.602C195.398 128.106 194.314 130.588 192.08 133.027C192.774 135.661 194.119 144.035 185.162 151.007C185.791 153.101 186.919 158.217 184.338 162.512C182.408 165.75 178.83 167.8 173.756 168.556C173.018 171.297 170.676 175.226 165.537 175.614C164.539 177.514 162.392 179.974 159.313 179.737C158.51 180.794 156.775 182.651 154.173 183.234C152.091 183.687 149.944 183.234 147.754 181.895C145.651 183.234 139.795 186.018 133.875 180.32C132.379 182.046 129.234 185.004 124.789 185.759C124.03 185.867 123.314 185.932 122.62 185.932ZM111.538 66.0709C110.931 66.0709 110.389 66.2005 109.912 66.4811C108.459 67.3445 108.09 69.3518 108.09 69.3734L107.939 70.2368L107.093 70.4311C99.2209 72.1794 99.1341 79.7774 99.1341 80.0795V80.7702L98.5486 81.1588C94.3198 83.9648 91.9994 87.1594 91.6524 90.6561C91.0886 96.2466 95.7077 100.952 95.7511 100.995L96.5318 101.772L95.8812 102.657C88.7032 112.457 93.5608 117.659 93.756 117.875L94.5367 118.673L93.8427 119.558C90.6115 123.659 89.267 127.653 89.8525 131.473C90.72 137.128 95.5125 140.496 95.5559 140.539L96.2065 140.992L96.0981 141.769C94.2764 155.346 105.597 158.087 106.074 158.217L107.462 158.541L107.006 159.879C105.315 164.908 110.541 169.354 110.606 169.398L111.061 169.786V170.391C111.061 177.492 114.401 180.169 114.531 180.276C117.827 182.737 121.102 183.73 124.246 183.19C129.408 182.305 132.574 177.665 132.617 177.6L133.55 176.197L134.656 177.47C140.684 184.313 146.561 179.521 146.8 179.327L147.559 178.679L148.383 179.262C150.205 180.557 151.918 181.032 153.501 180.708C156.016 180.169 157.469 177.708 157.491 177.686L157.99 176.844L158.944 177.082C161.807 177.794 163.39 173.93 163.411 173.887L163.737 173.067H164.604C170.351 173.067 171.262 167.455 171.305 167.218L171.457 166.246L172.433 166.117C177.182 165.556 180.413 163.894 182.04 161.195C184.642 156.835 182.387 151.072 182.365 151.007L181.996 150.079L182.82 149.496C192.796 142.287 189.5 133.524 189.348 133.157L189.044 132.38L189.651 131.775C191.733 129.703 192.731 127.674 192.644 125.732C192.536 123.336 190.757 121.781 190.736 121.76L189.89 121.048L190.454 120.098C192.948 115.975 190.627 112.737 190.519 112.586L189.868 111.701L190.649 110.924C195.16 106.435 197.198 102.312 196.656 98.6641C196.049 94.3903 191.972 92.1454 191.928 92.1238L191.018 91.6274L191.321 90.6345C192.167 87.8501 192.059 85.6268 190.996 84.0295C189.5 81.7631 186.485 81.3746 186.442 81.3746L185.292 81.2451V80.1011C185.292 76.3669 184.295 73.7336 182.343 72.309C179.069 69.8915 174.059 71.4024 173.994 71.4024L172.585 71.8341L172.346 70.3879C172.086 68.8122 171.5 67.7114 170.589 67.0639C169.57 66.3516 168.377 66.4163 168.009 66.4595C166.556 67.107 165.688 67.9704 165.363 69.0928C164.691 71.4887 166.686 74.3595 166.708 74.3811L167.011 74.8128L166.924 75.3309C166.1 80.209 169.093 81.8495 169.223 81.9143L170.199 82.4323L169.874 83.4684C167.337 91.0446 174.731 93.6348 175.035 93.7427L176.119 94.1097L175.902 95.2105C175.1 99.2253 179.242 101.772 179.285 101.794L180.457 102.485L179.697 103.607C176.271 108.723 179.589 112.953 179.632 112.996L180.847 114.507L178.982 115.047C175.512 116.04 173.257 117.745 172.259 120.163C170.307 124.933 173.734 130.977 173.756 131.041L174.428 132.229L173.213 132.833C170.72 134.085 171.435 139.503 171.891 141.294L172.172 142.417L171.088 142.827C164.084 145.438 163.953 152.259 163.953 152.54V153.813H162.674C154.086 153.813 154 163.052 154 163.44V165.016L152.46 164.714C148.578 163.937 146.995 167.736 146.93 167.908L146.193 169.721L144.805 168.34C142.333 165.879 138.039 166.7 137.995 166.7L136.759 166.937L136.477 165.707C135.35 160.872 132.617 157.893 128.345 156.878C125.071 156.08 122.121 156.749 122.078 156.749L119.259 157.397L120.647 154.871C122.316 151.828 122.707 149.302 121.796 147.424C120.451 144.64 116.613 143.863 116.57 143.863L114.791 143.539L115.659 141.963C117.025 139.524 117.35 137.517 116.656 135.963C115.615 133.675 112.558 132.941 112.536 132.919L110.649 132.509L111.755 130.933C113.859 127.933 114.596 125.408 113.946 123.4C113.143 120.961 110.433 120.012 110.411 119.99L108.871 119.472L109.717 118.09C111.799 114.723 112.449 111.421 111.647 108.291C110.172 102.506 104.252 99.0742 104.187 99.0526L102.257 97.9518L104.144 96.8294C108.459 94.2608 108.502 87.0946 108.502 87.0082V85.9075L109.587 85.7348C114.271 84.9577 113.534 79.4752 113.512 79.2593L113.338 78.0074L114.596 77.7915C116.591 77.4678 117.784 76.4964 118.305 74.8344C118.695 73.5393 118.521 72.3305 118.521 72.3305L118.153 70.0641L120.3 70.906C123.856 72.3306 125.331 69.2655 125.591 68.6396L125.916 67.8409H126.784C128.735 67.8409 130.188 67.3013 131.143 66.2436C132.812 64.3657 132.487 61.3655 132.487 61.3439L132.227 59.1854L134.244 59.984C138.386 61.6245 142.766 57.3291 142.81 57.2859L143.373 56.7247L144.132 56.9837C147.19 57.9982 149.706 57.8903 151.571 56.6599C154.954 54.4151 155.388 49.2348 155.388 49.17L155.518 47.5943L157.036 48.026C158.315 48.3929 160.093 48.652 161.178 47.8533C162.327 47.0115 162.349 45.3063 162.349 45.2847L162.37 43.4068L164.127 44.0976C167.705 45.5222 169.115 42.8456 169.375 42.306L169.657 41.68L170.351 41.5505C173.409 41.0541 173.257 39.9317 173.127 39.0251C173.062 38.5934 172.975 38.356 172.91 38.2696C172.021 38.0106 171.305 38.0106 170.763 38.2912C170.112 38.6366 169.874 39.2841 169.874 39.2841L169.375 40.9246L167.944 39.9964C165.493 38.4207 162.696 41.1404 162.587 41.2483L161.893 41.9391L161.026 41.4642C159.204 40.4281 157.665 40.1475 156.45 40.644C154.629 41.3779 153.935 43.6443 153.935 43.6659L153.544 45.0473L152.2 44.5077C149.923 43.5795 148.101 43.45 146.822 44.1407C145.369 44.9178 145 46.5367 145 46.5582L144.696 48.0044L143.287 47.508C138.538 45.8459 134.829 45.9107 132.249 47.7238C128.107 50.6378 128.063 57.1348 128.063 57.1996V58.6889L126.589 58.4731C121.08 57.696 120.148 61.0417 120.061 61.4302L119.779 62.6605L118.543 62.4231C117.459 62.2073 116.635 62.3152 116.093 62.7685C115.312 63.416 115.117 64.6895 115.117 65.1428L115.095 66.9128L113.403 66.3515C112.71 66.2005 112.102 66.0709 111.538 66.0709Z" fill="#202ED0"/>
</svg>
