<svg width="120" height="50" viewBox="0 0 120 50" fill="none" xmlns="http://www.w3.org/2000/svg">
<mask id="mask0_21:36" style="mask-type:alpha" maskUnits="userSpaceOnUse" x="0" y="0" width="120" height="50">
<rect width="120" height="50" fill="#C4C4C4"/>
</mask>
<g mask="url(#mask0_21:36)">
<g clip-path="url(#clip0_21:36)">
<path fill-rule="evenodd" clip-rule="evenodd" d="M116.329 45.5383C97.7673 16.8545 63.3512 14.5488 33.0035 24.334C32.482 24.501 31.921 24.2149 31.7539 23.6933C31.5868 23.1718 31.873 22.6109 32.3945 22.4438C63.5916 12.3828 98.9152 14.9732 117.997 44.4609C118.295 44.9197 118.163 45.5341 117.702 45.8333C117.243 46.1315 116.628 45.9994 116.329 45.5383Z" fill="#25265E"/>
<path fill-rule="evenodd" clip-rule="evenodd" d="M33.2685 23.2048C34.9777 23.5551 37.1276 23.971 37.3701 24.0253C43.9443 25.4972 49.9379 27.91 55.7862 31.2822C56.2613 31.5553 56.4242 32.1642 56.1511 32.6392C55.878 33.1143 55.2691 33.2772 54.7941 33.004C49.1239 29.7322 43.3119 27.3906 36.9346 25.9636C36.5629 25.8802 31.7295 24.9482 30.7663 24.6863C30.3708 24.5808 30.1797 24.3981 30.1388 24.3508C29.9116 24.1075 29.8653 23.8558 29.8677 23.6563C29.8721 23.4311 29.97 23.0611 30.3358 22.7283C30.72 22.3815 31.6888 21.8609 31.9227 21.7097C35.4462 19.4189 39.5783 17.1691 42.9709 14.3154C46.2064 11.5942 48.7724 8.31958 49.3353 3.85362C49.4033 3.30988 49.9021 2.92447 50.4458 2.9925C50.9896 3.06054 51.3751 3.55928 51.307 4.10303C50.6767 9.09594 47.8662 12.7939 44.2507 15.8351C40.8778 18.6716 36.797 20.9309 33.2685 23.2048Z" fill="#25265E"/>
</g>
<path fill-rule="evenodd" clip-rule="evenodd" d="M27.5295 38.3439C25.4203 40.5153 23.602 43.0004 21.8578 45.4217C21.484 45.9442 21.5902 46.6754 22.1161 47.0126C22.6206 47.3901 23.339 47.2616 23.6911 46.7791C25.3795 44.4311 27.1336 42.0154 29.1508 39.9495C29.5834 39.5107 29.5786 38.7824 29.134 38.3338C28.6898 37.8854 27.9624 37.9052 27.5295 38.3439Z" fill="black"/>
<path fill-rule="evenodd" clip-rule="evenodd" d="M21.5522 25.0478C15.1076 26.8869 8.92216 29.5403 2.40814 31.2382C1.80918 31.3794 1.43998 32.0081 1.59937 32.6127C1.75916 33.2176 2.37152 33.6016 2.99221 33.4203C9.51863 31.7292 15.7161 29.0824 22.1731 27.25C22.7842 27.0635 23.1373 26.4263 22.9671 25.8157C22.7756 25.2454 22.1633 24.8613 21.5522 25.0478Z" fill="black"/>
<path fill-rule="evenodd" clip-rule="evenodd" d="M9.5636 8.53961C12.0367 9.72645 14.5096 10.9135 16.9831 12.1006C17.5346 12.4 18.2213 12.1506 18.4986 11.5757C18.7755 11.0005 18.5232 10.3457 17.9712 10.0461C15.4941 8.85711 13.0176 7.66807 10.5409 6.47927C9.96767 6.21994 9.28387 6.47069 9.00975 7.04733C8.75736 7.58395 8.99073 8.28049 9.5636 8.53961Z" fill="black"/>
</g>
<defs>
<clipPath id="clip0_21:36">
<rect width="71.8998" height="71.8998" fill="white" transform="matrix(0.909267 -0.416214 -0.416214 -0.909267 54.3518 77.4641)"/>
</clipPath>
</defs>
</svg>
