<svg width="309" height="404" viewBox="0 0 309 404" fill="none" xmlns="http://www.w3.org/2000/svg">
<path d="M275.489 132.973L261.291 130.065L259.608 141.124C272.453 141.157 275.246 144.001 283.793 144.492C293.777 145.065 295.899 145.557 305.845 145.583C308.683 145.59 308.964 139.108 306.863 138.584L291.201 134.495C290.697 134.364 290.577 133.702 291.004 133.402L293.521 131.631C295.083 130.894 294.672 128.963 293.583 129.222C286.994 130.788 282.89 129.218 275.489 132.973Z" fill="#FF986C"/>
<path d="M33.8414 125.132C24.4907 121.839 20.817 126.737 13.654 122.782C12.1754 121.966 11.9282 124.302 13.3439 125.804L18.8773 129.148C11.968 132.106 8.43661 131.872 2.11575 131.591C0.442225 131.517 -0.252803 137.676 1.38262 138.121C5.67036 139.949 12.3961 141.358 20.2367 141.33C26.3281 141.309 33.823 139.313 37.3115 134.926L62.6296 133.639L60.4133 119.809C49.8529 121.616 43.1652 124.288 33.8414 125.132Z" fill="#FF986C"/>
<path d="M154.034 341.606L137.879 344.354L149.553 370.565L163.112 368.562L154.034 341.606Z" fill="#FF986C"/>
<path d="M153.465 265.486L138.191 270.473L153.465 294.477C157.735 294.415 160.087 293.058 164.095 287.233L153.465 265.486Z" fill="#FF986C"/>
<path d="M143.134 356.176L141.54 352.669L154.612 343.741L156.844 349.799C153.018 355.538 147.916 356.813 143.134 356.176Z" fill="#FF814B"/>
<path d="M131.176 199.085L101.068 201.4C95.6488 235.419 124.64 318.362 138.671 352.029C144.729 354.899 151.425 354.261 156.271 346.536C140.749 289.833 133.907 257.727 131.176 199.085Z" fill="#FFC33D"/>
<path d="M140.026 88.2095C141.692 85.6741 145.147 76.5815 143.261 68.7205L159.926 64.3184C158.954 67.3889 156.982 78.3283 164.475 85.7201C159.979 91.6945 143.643 95.4218 140.026 88.2095Z" fill="#FF986C"/>
<path d="M158.983 70.2927C153.637 75.6382 147.977 77.8393 142.946 77.8393L159.926 64.3184C159.422 67.2662 159.179 67.3465 158.983 70.2927Z" fill="#FF814B"/>
<path d="M165.635 51.9099C163.286 65.9924 148.948 77.228 142.587 77.8641C136.499 78.4729 121.381 57.7736 127.063 35.5523C130.894 20.5677 142.76 20.6472 152.582 23.2791C164.155 26.3802 167.587 36.5669 165.635 51.9099Z" fill="#FF986C"/>
<path d="M161.768 6.45815C152.228 8.6362 148.583 16.4392 152.727 29.2191L158.615 29.8155C160.45 31.3965 163.066 45.7205 165.518 51.1156C167.067 54.5219 174.789 62.2232 178.858 59.9376C174.75 56.0288 178.115 43.3914 179.806 39.2906C182.506 32.7412 183.277 24.2463 180.788 17.0592C178.581 10.6867 170.128 4.54954 161.768 6.45815Z" fill="#14004B"/>
<path d="M149.054 21.1166C153.06 20.4054 156.338 22.4571 159.229 24.6886C158.203 21.5075 154.223 18.114 151.48 16.4362C149.609 16.4362 148.212 19.5571 149.054 21.1166Z" fill="#FFC33D"/>
<path d="M154.598 51.0465C154.598 52.6055 155.222 53.8527 155.703 54.4538C159.587 47.305 164.264 56.6588 158.028 60.0886C158.652 62.2711 158.963 64.1419 158.963 66.3245C180.859 45.8507 166.833 18.9128 146.492 19.8671C126.963 20.7833 123.107 37.9512 126.382 52.1767C127.07 47.1338 137.112 41.3513 138.605 36.6439C141.485 40.9793 144.8 49.2129 154.598 51.0465Z" fill="#14004B"/>
<path d="M43.7954 134.803C45.559 130.523 45.539 128.272 43.7954 123.25C47.0784 126.171 47.8059 129.402 48.1495 134.589L43.7954 134.803Z" fill="#FF814B"/>
<path d="M91.5348 112.347L43.7954 123.455C47.1444 128.878 46.8383 131.634 44.3892 135.92C58.4716 136.625 75.3093 137.756 89.2928 136.625C103.168 131.634 110.515 128.572 124.014 121.659L129.19 87.2432C117.178 97.9693 107.994 103.764 91.5348 112.347Z" fill="#FB2F4D"/>
<path d="M182.833 87.1332C175.104 85.6034 165.924 84.9258 161.765 82.127C153.085 90.508 144.01 90.5276 142.173 83.4864C137.833 83.7668 131.137 85.4283 129.191 87.2432C124.852 99.7959 111.594 107.566 111.594 120.606C111.594 127.191 116.708 139.167 115.634 148.162C112.966 170.513 108.679 186.127 97.3521 207.556C112.965 212.761 144.804 198.372 180.01 194.392C176.949 189.188 160.099 171.319 160.099 160.543C160.099 146.513 182.833 133.177 182.833 119.408V87.1332Z" fill="#FB2F4D"/>
<path d="M125.317 95.21C119.533 103.23 112.054 109.966 112.054 119.902C112.054 123.01 113.148 127.272 114.24 131.876" stroke="#EE1E3D" stroke-width="1.1478" stroke-linecap="round" stroke-linejoin="round"/>
<path d="M266.936 141.558C265.043 137.673 265.88 133.468 267.84 130.919C264.557 133.609 263.772 136.444 263.428 141.22L266.936 141.558Z" fill="#FF814B"/>
<path d="M181.846 118.471C179.955 123.063 161.947 130.104 150.313 130.41C142.663 130.611 136.912 130.375 131.333 128.267C126.63 129.387 120.998 129.396 116.715 128.455C116.023 128.303 115.577 129.135 116.224 129.424C120.814 131.476 126.75 131.329 131.027 131.329C134.088 132.553 144.497 135.002 150.313 134.696C155.645 134.416 149.607 159.8 164.701 172.964C155.274 159.622 163.171 146.023 165.008 142.962C167.222 139.272 180.928 131.941 182.764 121.838C184.296 119.458 182.764 119.083 181.846 118.471Z" fill="#EE1E3D"/>
<path d="M145.685 282.205L144.091 279.973L155.888 270.408L158.12 274.872C153.639 279.395 150.723 281.118 145.685 282.205Z" fill="#FF814B"/>
<path d="M125.899 207.198C115.93 208.521 107.826 209.193 100.389 208.358L100.729 216.845C102.147 216.546 105.274 216.932 105.831 218.439C113.483 239.163 126.784 256.561 141.221 286.032L125.899 207.198Z" fill="#ECB231"/>
<path d="M164.178 197.715C170.844 197.709 174.462 197.279 180.742 195.988C195.082 221.55 179.184 249.295 148.012 241.19C149.565 252.788 151.107 259.366 156.741 271.428C152.019 278.127 148.329 280.484 139.75 282.007C123.851 254.263 93.7685 207.522 111.851 189.753C127.479 174.397 153.656 192.613 164.178 197.715Z" fill="#FFC33D"/>
<path d="M185.222 207.596C181.081 206.741 177.251 205.046 174.7 203.133H183.946C184.496 204.752 184.802 205.666 185.222 207.596Z" fill="#ECB231"/>
<path d="M112.525 189.742C94.4425 207.511 124.047 253.822 139.945 281.566" stroke="#ECB231" stroke-width="1.27534" stroke-linecap="round"/>
<path d="M160.034 359.363C161.791 368.609 151.744 371.479 146.962 364.783C147.623 376.302 149.767 382.731 157.769 393.123C160.99 397.306 163.857 399.832 169.774 403.879C170.854 404.617 176.045 401.789 175.975 400.592C175.676 395.513 175.377 390.434 173.925 385.355C170.078 371.898 167.29 364.886 160.034 359.363Z" fill="#2626FF"/>
<path d="M154.176 302.675C152.769 299.596 151.275 296.243 152.38 292.728C156.844 298.467 163.374 286.564 160.977 280.94C163.052 281.308 164.344 281.636 165.617 282.62C166.89 283.604 175.789 305.278 171.836 322.04C171.342 324.136 166.023 327.148 164.929 325.661C162.02 321.709 157.328 309.571 154.176 302.675Z" fill="#2626FF"/>
<path d="M221.743 121.803C206.882 108.362 192.254 88.4682 181.845 86.9375C176.936 97.6231 175.359 106.338 176.947 119.082C184.6 127.654 194.673 133.612 209.171 140.96C226.235 143.267 240.317 143.88 265.115 142.043C263.584 137.451 265.115 133.165 267.839 131.382L221.743 121.803Z" fill="#FB2F4D"/>
<path d="M147.611 246.306C147.682 246.651 148.019 246.873 148.364 246.802C148.709 246.732 148.931 246.395 148.86 246.05L147.611 246.306ZM142.133 211.19C142.003 210.863 141.633 210.702 141.305 210.832C140.978 210.962 140.817 211.332 140.947 211.66L142.133 211.19ZM148.86 246.05C147.593 239.872 147.602 235.499 147.076 230.41C146.553 225.333 145.503 219.696 142.133 211.19L140.947 211.66C144.272 220.052 145.295 225.574 145.808 230.541C146.319 235.495 146.327 240.049 147.611 246.306L148.86 246.05Z" fill="#ECB231"/>
<path d="M183.308 208.555C164.497 220.352 142.497 197.077 137.715 202.497C133.185 207.631 138.99 210.149 141.541 225.454" stroke="#CE6F00" stroke-width="0.833404" stroke-linecap="round" stroke-linejoin="round" stroke-dasharray="4.76 2.38"/>
<path d="M186.814 204.729C180.438 206.005 171.77 202.582 162.524 196.843C169.023 195.532 172.716 194.946 180.004 194.389L186.814 204.729Z" fill="#FB2F4D"/>
</svg>
