<svg width="43" height="43" viewBox="0 0 43 43" fill="none" xmlns="http://www.w3.org/2000/svg">
<path fill-rule="evenodd" clip-rule="evenodd" d="M21.25 42.1629C9.65202 42.1629 0.250001 32.7609 0.250001 21.1629C0.250001 9.56492 9.65202 0.162903 21.25 0.162903C32.848 0.162903 42.25 9.56492 42.25 21.1629C42.25 32.7609 32.848 42.1629 21.25 42.1629Z" fill="#0556F3"/>
<path fill-rule="evenodd" clip-rule="evenodd" d="M21.25 42.1629C9.65202 42.1629 0.250001 32.7609 0.250001 21.1629C0.250001 9.56492 9.65202 0.162903 21.25 0.162903C32.848 0.162903 42.25 9.56492 42.25 21.1629C42.25 32.7609 32.848 42.1629 21.25 42.1629Z" fill="#1786FF"/>
<path d="M32.8223 15.193L32.8871 15.1511C32.7574 14.9211 32.5628 14.7119 32.3683 14.6073L21.9269 8.79271C21.754 8.68813 21.5162 8.6463 21.2568 8.6463C20.9974 8.6463 20.7596 8.70905 20.5866 8.79271L10.2101 14.6282C9.8426 14.8374 9.58319 15.3603 9.58319 15.7577V27.4079C9.58319 27.6379 9.62643 27.8889 9.77775 28.119L9.73452 28.1399C9.8426 28.3072 9.99393 28.4537 10.1453 28.5373L20.565 34.3729C20.7379 34.4774 20.9757 34.5193 21.2352 34.5193C21.4946 34.5193 21.7324 34.4565 21.9053 34.3729L32.2818 28.5373C32.6493 28.3282 32.9087 27.8053 32.9087 27.4079V15.7368C32.9303 15.5695 32.9087 15.3812 32.8223 15.193V15.193ZM25.148 21.9906V21.154H26.2288V20.1082H27.3097V21.154H28.3906V21.9906H27.3097V23.0364H26.2288V21.9906H25.148ZM25.8613 19.0624C24.9534 17.4937 23.224 16.4479 21.2568 16.4479C18.3384 16.4479 15.9604 18.7487 15.9604 21.5723C15.9604 24.396 18.3384 26.6967 21.2568 26.6967C23.224 26.6967 24.9534 25.6509 25.8613 24.1032L28.65 25.6928C27.18 28.1608 24.413 29.8341 21.2568 29.8341C16.5441 29.8341 12.7178 26.132 12.7178 21.5723C12.7178 17.0127 16.5441 13.3105 21.2568 13.3105C24.4346 13.3105 27.2016 15.0047 28.6717 17.4937L25.8613 19.0624V19.0624ZM32.2818 21.9906H31.2009V23.0364H30.3362V21.9906H29.0392V21.154H30.3362V20.1082H31.2009V21.154H32.2818V21.9906Z" fill="white"/>
</svg>
