<svg width="222" height="180" viewBox="0 0 222 180" fill="none" xmlns="http://www.w3.org/2000/svg">
<path fill-rule="evenodd" clip-rule="evenodd" d="M78.9455 124.635C82.4917 124.635 85.3988 122.953 85.3988 120.889C85.3988 118.825 82.507 117.143 78.9455 117.143C75.3992 117.143 72.4922 118.825 72.4922 120.889C72.5074 122.953 75.3992 124.635 78.9455 124.635Z" fill="#E6E6E6"/>
<path fill-rule="evenodd" clip-rule="evenodd" d="M56.5275 137.635C60.0738 137.635 62.9808 135.953 62.9808 133.889C62.9808 131.825 60.089 130.143 56.5275 130.143C52.9812 130.143 50.0742 131.825 50.0742 133.889C50.0742 135.953 52.9812 137.635 56.5275 137.635Z" fill="#E6E6E6"/>
<path d="M34.0939 150.645C37.658 150.645 40.5472 148.968 40.5472 146.899C40.5472 144.83 37.658 143.152 34.0939 143.152C30.5299 143.152 27.6406 144.83 27.6406 146.899C27.6406 148.968 30.5299 150.645 34.0939 150.645Z" fill="#E6E6E6"/>
<path fill-rule="evenodd" clip-rule="evenodd" d="M101.383 111.623C104.929 111.623 107.836 109.941 107.836 107.877C107.836 105.813 104.944 104.131 101.383 104.131C97.8367 104.131 94.9297 105.813 94.9297 107.877C94.9297 109.941 97.8215 111.623 101.383 111.623Z" fill="#E6E6E6"/>
<path fill-rule="evenodd" clip-rule="evenodd" d="M132.263 36.851C120.27 27.5541 119.083 8.24177 126.708 5.1836C130.163 3.79213 132.248 4.80133 133.45 6.11634C138.595 2.38537 146.524 0 155.413 0C170.937 0 183.524 7.29374 183.524 16.3001C183.524 16.6212 183.509 16.9423 183.479 17.2481H183.524C183.524 17.2481 183.22 19.9699 182.2 24.0984C184.377 23.655 187.695 23.6244 189.871 26.7284C191.195 28.6398 191.18 31.1934 190.145 33.9304C187.618 40.5514 179.126 48.1968 169.4 50.154C167.574 52.2336 165.534 54.1755 163.236 55.9187C163.236 56.0869 163.221 56.2551 163.19 56.4233V59.3744C168.609 60.9952 172.307 64.2828 172.307 68.0596V72.3258C172.307 77.7234 164.758 82.1119 155.443 82.1119C146.129 82.1119 138.58 77.7387 138.58 72.3258V68.0596C138.58 64.2828 142.263 61.0105 147.651 59.3897V55.9187C147.59 55.934 138.351 50.6586 132.263 36.851ZM181.104 27.9823C179.232 34.1751 175.975 42.0499 170.496 48.8084C180.861 44.9093 186.538 35.6583 185.579 31.0863C185.092 28.7468 183.113 28.0587 181.104 27.9823ZM129.235 10.3213C128.428 10.4131 127.652 10.7801 126.967 11.5446C123.847 15.0462 124.181 26.0098 131.335 34.6032C128.884 28.3187 125.019 16.5141 129.235 10.3213Z" fill="white"/>
<path fill-rule="evenodd" clip-rule="evenodd" d="M119.813 149.575C123.359 149.575 126.266 147.893 126.266 145.828C126.266 143.764 123.374 142.082 119.813 142.082C116.251 142.082 113.359 143.764 113.359 145.828C113.359 147.893 116.251 149.575 119.813 149.575Z" fill="#E6E6E6"/>
<path d="M97.3791 162.59C100.943 162.59 103.832 160.913 103.832 158.844C103.832 156.775 100.943 155.098 97.3791 155.098C93.815 155.098 90.9258 156.775 90.9258 158.844C90.9258 160.913 93.815 162.59 97.3791 162.59Z" fill="#E6E6E6"/>
<path fill-rule="evenodd" clip-rule="evenodd" d="M74.9611 175.6C78.5073 175.6 81.4144 173.918 81.4144 171.854C81.4144 169.789 78.5226 168.107 74.9611 168.107C71.3996 168.107 68.5078 169.789 68.5078 171.854C68.5078 173.918 71.4148 175.6 74.9611 175.6Z" fill="#E6E6E6"/>
<path fill-rule="evenodd" clip-rule="evenodd" d="M142.235 136.578C145.781 136.578 148.688 134.896 148.688 132.832C148.688 130.768 145.796 129.086 142.235 129.086C138.688 129.086 135.781 130.768 135.781 132.832C135.796 134.896 138.688 136.578 142.235 136.578Z" fill="#E6E6E6"/>
<path d="M169.996 131.198C193.196 131.198 212.003 120.286 212.003 106.825C212.003 93.3636 193.196 82.4512 169.996 82.4512C146.796 82.4512 127.988 93.3636 127.988 106.825C127.988 120.286 146.796 131.198 169.996 131.198Z" fill="#E6E6E6"/>
<path fill-rule="evenodd" clip-rule="evenodd" d="M199.003 91.7441C199.003 95.3833 199.003 95.3069 199.003 99.0073C199.003 112.463 180.191 123.381 156.996 123.381C133.8 123.381 114.988 112.463 114.988 99.0073V91.6371C114.988 86.5146 117.713 81.7745 122.37 77.8447C124.09 73.3186 128.382 69.343 134.302 66.4683C138.762 61.8658 147.255 58.7617 157.011 58.7617C166.752 58.7617 175.244 61.8658 179.719 66.4683C185.655 69.343 189.932 73.3033 191.651 77.8447C196.309 81.7592 199.033 86.5146 199.033 91.6371C199.003 91.6829 199.003 91.7135 199.003 91.7441Z" fill="white"/>
<path d="M196.736 88.7958C200.104 86.6904 201.137 82.2399 199.041 78.8554C196.945 75.4709 192.515 74.434 189.147 76.5394C185.778 78.6448 184.746 83.0952 186.841 86.4798C188.937 89.8643 193.367 90.9012 196.736 88.7958Z" fill="#91B6FF"/>
<path fill-rule="evenodd" clip-rule="evenodd" d="M199.214 91.9753C201.726 91.9753 203.78 89.911 203.78 87.388C203.78 84.865 201.726 82.8008 199.214 82.8008C196.703 82.8008 194.648 84.865 194.648 87.388C194.648 89.9263 196.703 91.9753 199.214 91.9753Z" fill="#91B6FF"/>
<path fill-rule="evenodd" clip-rule="evenodd" d="M203.478 79.4484C204.406 79.739 204.741 80.6717 204.224 81.528C203.706 82.3843 202.534 82.8583 201.591 82.5678C200.662 82.2772 200.328 81.3445 200.845 80.4882C201.378 79.6166 202.55 79.1579 203.478 79.4484Z" fill="#91B6FF"/>
<path d="M200.736 95.7719C202.147 95.5426 203.105 94.2078 202.877 92.7906C202.649 91.3733 201.32 90.4103 199.91 90.6396C198.499 90.8688 197.54 92.2036 197.769 93.6209C197.997 95.0381 199.325 96.0012 200.736 95.7719Z" fill="#91B6FF"/>
<path fill-rule="evenodd" clip-rule="evenodd" d="M125.261 41.3496C122.019 44.9277 121.913 49.7137 126.464 53.1236C127.499 52.8636 132.491 46.472 125.261 41.3496Z" fill="#FFC369"/>
<path fill-rule="evenodd" clip-rule="evenodd" d="M115.156 49.8498C119.235 47.2809 123.953 48.0149 126.48 53.1068C126.039 54.0854 118.9 57.9081 115.156 49.8498Z" fill="#FFC369"/>
<path fill-rule="evenodd" clip-rule="evenodd" d="M119.752 32.7969C115.78 35.5339 114.578 40.1671 118.215 44.525C119.265 44.525 125.612 39.4637 119.752 32.7969Z" fill="#FFC369"/>
<path fill-rule="evenodd" clip-rule="evenodd" d="M107.941 38.7329C112.507 37.1732 116.921 38.9928 118.2 44.5434C117.576 45.3844 109.737 47.4334 107.941 38.7329Z" fill="#FFC369"/>
<path fill-rule="evenodd" clip-rule="evenodd" d="M116.268 22.7969C111.732 24.433 109.404 28.6074 111.824 33.7451C112.843 34.0357 120.255 30.7328 116.268 22.7969Z" fill="#FFC369"/>
<path fill-rule="evenodd" clip-rule="evenodd" d="M103.36 25.5345C108.169 25.1829 111.974 28.0728 111.822 33.761C110.985 34.4185 102.888 34.4185 103.36 25.5345Z" fill="#FFC369"/>
<path fill-rule="evenodd" clip-rule="evenodd" d="M108.216 13.6387C112.234 16.2993 113.512 20.9171 109.936 25.3362C108.885 25.3668 102.463 20.3972 108.216 13.6387Z" fill="#FFC369"/>
<path fill-rule="evenodd" clip-rule="evenodd" d="M32.5908 108.961C32.6364 108.977 47.7803 114.007 54.6902 96.2699L55.086 96.4228L55.2077 96.01C55.2534 96.0253 70.3973 101.056 77.3072 83.3185L77.7029 83.4715L77.8247 83.0586C77.8703 83.0739 93.0142 88.1046 99.9241 70.3672L100.716 70.673C94.1557 87.5082 80.3816 84.6336 77.9464 83.9761C71.3257 100.414 57.7495 97.5696 55.3295 96.9121C48.0695 114.971 32.3777 109.756 32.332 109.741L32.5908 108.961Z" fill="white"/>
<path d="M32.5588 149.545C36.1228 149.545 39.012 147.868 39.012 145.799C39.012 143.73 36.1228 142.053 32.5588 142.053C28.9947 142.053 26.1055 143.73 26.1055 145.799C26.1055 147.868 28.9947 149.545 32.5588 149.545Z" fill="#41366E"/>
<path fill-rule="evenodd" clip-rule="evenodd" d="M32.5586 147.037C35.0547 147.037 37.1094 145.86 37.1094 144.407C37.1094 142.955 35.0699 141.777 32.5586 141.777C30.0473 141.777 28.0078 142.955 28.0078 144.407C28.0078 145.86 30.0473 147.037 32.5586 147.037Z" fill="#6C5F9E"/>
<path fill-rule="evenodd" clip-rule="evenodd" d="M34.5208 144.133C34.5512 144.209 34.5664 144.301 34.5664 144.392C34.5664 144.484 34.5512 144.576 34.5208 144.652C34.3229 145.172 33.5163 145.57 32.5422 145.57C31.5833 145.57 30.7767 145.172 30.5636 144.652H30.5179V144.392V111.517C29.1177 109.82 30.0613 107.205 32.5422 107.205C35.023 107.205 35.9819 109.896 34.5208 111.578V144.133Z" fill="#6C5F9E"/>
<path fill-rule="evenodd" clip-rule="evenodd" d="M54.9767 136.532C58.523 136.532 61.43 134.85 61.43 132.785C61.43 130.721 58.5382 129.039 54.9767 129.039C51.4305 129.039 48.5234 130.721 48.5234 132.785C48.5387 134.85 51.4305 136.532 54.9767 136.532Z" fill="#41366E"/>
<path d="M54.9766 134.024C57.4899 134.024 59.5274 132.846 59.5274 131.394C59.5274 129.941 57.4899 128.764 54.9766 128.764C52.4632 128.764 50.4258 129.941 50.4258 131.394C50.4258 132.846 52.4632 134.024 54.9766 134.024Z" fill="#6C5F9E"/>
<path fill-rule="evenodd" clip-rule="evenodd" d="M56.9544 131.133C56.9848 131.209 57 131.301 57 131.392C57 131.484 56.9848 131.576 56.9544 131.652C56.7565 132.172 55.9499 132.57 54.9758 132.57C54.0169 132.57 53.2103 132.172 52.9972 131.652H52.9515V131.392V98.5171C51.5513 96.8198 52.4949 94.2051 54.9758 94.2051C57.4566 94.2051 58.4155 96.8963 56.9544 98.5783V131.133Z" fill="#6C5F9E"/>
<path fill-rule="evenodd" clip-rule="evenodd" d="M99.8322 110.522C103.378 110.522 106.285 108.84 106.285 106.776C106.285 104.711 103.394 103.029 99.8322 103.029C96.2859 103.029 93.3789 104.711 93.3789 106.776C93.3789 108.84 96.2859 110.522 99.8322 110.522Z" fill="#41366E"/>
<path d="M99.832 108C102.345 108 104.383 106.823 104.383 105.37C104.383 103.918 102.345 102.74 99.832 102.74C97.3187 102.74 95.2812 103.918 95.2812 105.37C95.2812 106.823 97.3187 108 99.832 108Z" fill="#6C5F9E"/>
<path fill-rule="evenodd" clip-rule="evenodd" d="M101.794 105.109C101.825 105.186 101.84 105.277 101.84 105.369C101.84 105.461 101.825 105.553 101.794 105.629C101.596 106.149 100.79 106.546 99.8156 106.546C98.8568 106.546 98.0501 106.149 97.837 105.629H97.7914V105.369V72.4937C96.3911 70.7964 97.3348 68.1816 99.8156 68.1816C102.297 68.1816 103.255 70.8728 101.794 72.5548V105.109Z" fill="#6C5F9E"/>
<path fill-rule="evenodd" clip-rule="evenodd" d="M77.3986 123.535C80.9448 123.535 83.8519 121.853 83.8519 119.789C83.8519 117.725 80.9601 116.043 77.3986 116.043C73.8371 116.043 70.9453 117.725 70.9453 119.789C70.9605 121.853 73.8523 123.535 77.3986 123.535Z" fill="#41366E"/>
<path fill-rule="evenodd" clip-rule="evenodd" d="M77.3984 121.012C79.8945 121.012 81.9492 119.835 81.9492 118.382C81.9492 116.929 79.9097 115.752 77.3984 115.752C74.9024 115.752 72.8477 116.929 72.8477 118.382C72.8477 119.835 74.9024 121.012 77.3984 121.012Z" fill="#6C5F9E"/>
<path fill-rule="evenodd" clip-rule="evenodd" d="M79.3763 118.123C79.4067 118.199 79.4219 118.291 79.4219 118.383C79.4219 118.474 79.4067 118.566 79.3763 118.643C79.1784 119.163 78.3718 119.56 77.3977 119.56C76.4388 119.56 75.6321 119.163 75.419 118.643H75.3734V118.383V85.5073C73.9731 83.8101 74.9168 81.1953 77.3977 81.1953C79.8785 81.1953 80.8374 83.8865 79.3763 85.5685V118.123Z" fill="#6C5F9E"/>
<path fill-rule="evenodd" clip-rule="evenodd" d="M141.212 122.878L60.4394 169.73L33.0586 153.72L117.393 104.805L141.212 122.878Z" fill="#FFBF59"/>
<path fill-rule="evenodd" clip-rule="evenodd" d="M158.824 80.2324C175.048 80.2324 189.111 85.5689 196.113 93.3673H200.831C200.831 97.1135 200.831 96.9912 200.831 100.737C200.831 114.193 182.019 125.111 158.824 125.111C135.628 125.111 116.816 114.193 116.816 100.737V93.3673H121.535C128.536 85.5689 142.599 80.2324 158.824 80.2324Z" fill="#41366E"/>
<path fill-rule="evenodd" clip-rule="evenodd" d="M141.214 122.881C128.84 119.563 119.723 112.851 117.395 104.808V97.4375L143.512 110.129L141.214 115.511V122.881Z" fill="#FF983D"/>
<path d="M158.824 117.757C182.024 117.757 200.831 106.845 200.831 93.3834C200.831 79.9222 182.024 69.0098 158.824 69.0098C135.624 69.0098 116.816 79.9222 116.816 93.3834C116.816 106.845 135.624 117.757 158.824 117.757Z" fill="#6C5F9E"/>
<path fill-rule="evenodd" clip-rule="evenodd" d="M141.214 115.508C128.84 112.189 119.723 105.477 117.395 97.4338L123.848 93.6875L145.399 106.241L150.331 110.202L141.214 115.508Z" fill="#FFC369"/>
<path fill-rule="evenodd" clip-rule="evenodd" d="M158.822 72.9219C172.52 72.9219 184.392 77.4174 190.313 84.023H194.3C194.3 87.1882 194.3 87.0812 194.3 90.2311C194.3 101.592 178.426 110.797 158.838 110.797C139.249 110.797 123.375 101.592 123.375 90.2311V84.023H127.363C133.253 77.4327 145.124 72.9219 158.822 72.9219Z" fill="#41366E"/>
<path fill-rule="evenodd" clip-rule="evenodd" d="M150.346 110.216C136.693 108.274 126.161 101.745 123.848 93.6104V87.4023L129.022 88.8703L150.361 104.008V110.216H150.346Z" fill="#FF983D"/>
<path d="M158.822 104.588C178.407 104.588 194.285 95.3797 194.285 84.0213C194.285 72.6629 178.407 63.4551 158.822 63.4551C139.237 63.4551 123.359 72.6629 123.359 84.0213C123.359 95.3797 139.237 104.588 158.822 104.588Z" fill="#6C5F9E"/>
<path fill-rule="evenodd" clip-rule="evenodd" d="M150.346 103.992C136.693 102.05 126.161 95.5211 123.848 87.3864L132.797 82.1875L158.838 93.3651L162.096 97.1725L150.346 103.992Z" fill="#FFC369"/>
<path fill-rule="evenodd" clip-rule="evenodd" d="M158.823 67.0996C169.127 67.0996 178.046 70.5706 182.261 75.6166H184.864V82.207C184.864 90.5558 173.206 97.3144 158.823 97.3144C144.44 97.3144 132.781 90.5558 132.781 82.207V75.6166H135.384C139.615 70.5859 148.519 67.0996 158.823 67.0996Z" fill="#41366E"/>
<path fill-rule="evenodd" clip-rule="evenodd" d="M162.08 97.1913C161.014 97.2678 159.934 97.3137 158.823 97.3137C144.44 97.3137 132.781 90.5551 132.781 82.2063V75.6159H135.384C135.521 75.4477 135.673 75.2795 135.825 75.1113L156.829 88.2003L162.08 90.6162V97.1913Z" fill="#FF983D"/>
<path d="M158.823 90.7206C173.205 90.7206 184.864 83.9568 184.864 75.6132C184.864 67.2697 173.205 60.5059 158.823 60.5059C144.44 60.5059 132.781 67.2697 132.781 75.6132C132.781 83.9568 144.44 90.7206 158.823 90.7206Z" fill="#6C5F9E"/>
<path fill-rule="evenodd" clip-rule="evenodd" d="M158.822 62.2031C170.77 62.2031 180.45 67.8149 180.45 74.7569C180.45 78.0445 178.273 81.0262 174.712 83.2739L174.682 83.2892C174.301 83.5186 173.921 83.748 173.51 83.962L162.064 90.5983C160.999 90.6747 159.918 90.7206 158.807 90.7206C144.424 90.7206 132.766 83.962 132.766 75.6132C132.766 74.864 132.857 74.1147 133.055 73.3807L138.701 70.1085C141.898 65.4754 149.706 62.2031 158.822 62.2031Z" fill="#FFC369"/>
<path fill-rule="evenodd" clip-rule="evenodd" d="M136.083 39.2055C123.861 29.9698 122.613 10.4281 130.284 7.35463C133.739 5.96316 135.824 6.97236 137.027 8.28737C135.276 9.55652 133.861 10.9633 132.811 12.4924C132.004 12.5841 131.228 12.9511 130.543 13.7156C127.301 17.3549 127.788 29.0371 135.778 37.7682L136.068 38.8232L135.855 38.6703C135.9 38.7315 135.961 38.7774 136.007 38.8385L136.083 39.2055Z" fill="#FFC369"/>
<path fill-rule="evenodd" clip-rule="evenodd" d="M158.974 64.7246C165.655 64.7246 171.423 66.9724 174.163 70.2446H175.852V74.5108C175.852 79.9084 168.303 84.2969 158.989 84.2969C149.674 84.2969 142.125 79.9237 142.125 74.5108V70.2446H143.814C146.524 66.9724 152.292 64.7246 158.974 64.7246Z" fill="#FF983D"/>
<path d="M158.973 80.0176C168.287 80.0176 175.837 75.6362 175.837 70.2315C175.837 64.8267 168.287 60.4453 158.973 60.4453C149.66 60.4453 142.109 64.8267 142.109 70.2315C142.109 75.6362 149.66 80.0176 158.973 80.0176Z" fill="#FFC369"/>
<path d="M158.975 34.772C174.5 34.772 187.086 27.4742 187.086 18.4719C187.086 9.46966 174.5 2.17188 158.975 2.17188C143.449 2.17188 130.863 9.46966 130.863 18.4719C130.863 27.4742 143.449 34.772 158.975 34.772Z" fill="#FFC369"/>
<path fill-rule="evenodd" clip-rule="evenodd" d="M187.04 19.4199H187.086C187.086 19.4199 184.224 44.9557 166.767 58.0905C166.767 58.2587 166.752 58.4269 166.721 58.5951V65.6595C166.721 69.8339 163.327 73.2438 159.172 73.2438H158.7C154.545 73.2438 151.151 69.8339 151.151 65.6595V58.0752C151.151 58.0752 133.892 48.2279 131 20.215C132.507 28.3957 144.439 34.7567 158.944 34.7567C173.951 34.7719 186.188 27.9828 187.04 19.4199Z" fill="#FFC369"/>
<path d="M158.973 32.1747C172.027 32.1747 182.609 26.0407 182.609 18.474C182.609 10.9074 172.027 4.77344 158.973 4.77344C145.918 4.77344 135.336 10.9074 135.336 18.474C135.336 26.0407 145.918 32.1747 158.973 32.1747Z" fill="#FF983D"/>
<path fill-rule="evenodd" clip-rule="evenodd" d="M174.468 28.8274C170.313 30.9222 164.91 32.1761 158.974 32.1761C153.038 32.1761 147.635 30.9069 143.48 28.8274C140.527 26.7937 138.762 24.1637 138.762 21.3043C138.762 14.8362 147.818 9.57617 158.974 9.57617C170.13 9.57617 179.186 14.8209 179.186 21.3043C179.186 24.1637 177.405 26.7784 174.468 28.8274Z" fill="#E0692D"/>
<path fill-rule="evenodd" clip-rule="evenodd" d="M171.684 52.5531C181.942 51.0393 191.059 43.0116 193.692 36.1002C194.727 33.3631 194.757 30.8095 193.418 28.8982C189.963 23.9592 183.586 26.9409 183.586 26.9409L179.933 29.6015V30.8401C179.933 30.8401 188.091 28.1489 189.156 33.2408C190.161 38.0115 183.92 47.8894 172.658 51.4522L171.881 52.2167L172.14 52.1861C172.064 52.2014 171.988 52.232 171.927 52.2473L171.684 52.5531Z" fill="#FFC369"/>
<path fill-rule="evenodd" clip-rule="evenodd" d="M73.1494 134.272C73.195 134.287 88.3389 139.318 95.2488 121.58L95.6445 121.733L95.7663 121.321C95.812 121.336 110.956 126.367 117.866 108.629L118.261 108.782L118.383 108.369C118.429 108.384 133.573 113.415 140.483 95.6777L141.274 95.9836C134.714 112.819 120.94 109.944 118.505 109.287C111.884 125.724 98.308 122.88 95.8881 122.223C88.6281 140.281 72.9363 135.067 72.8906 135.052L73.1494 134.272Z" fill="white"/>
<path fill-rule="evenodd" clip-rule="evenodd" d="M73.1173 174.836C76.6636 174.836 79.5706 173.154 79.5706 171.09C79.5706 169.026 76.6788 167.344 73.1173 167.344C69.5711 167.344 66.6641 169.026 66.6641 171.09C66.6793 173.154 69.5711 174.836 73.1173 174.836Z" fill="#41366E"/>
<path d="M73.1172 172.328C75.6305 172.328 77.668 171.151 77.668 169.698C77.668 168.246 75.6305 167.068 73.1172 167.068C70.6039 167.068 68.5664 168.246 68.5664 169.698C68.5664 171.151 70.6039 172.328 73.1172 172.328Z" fill="#6C5F9E"/>
<path fill-rule="evenodd" clip-rule="evenodd" d="M75.095 169.437C75.1255 169.514 75.1407 169.605 75.1407 169.697C75.1407 169.789 75.1255 169.865 75.095 169.957C74.8972 170.477 74.0905 170.875 73.1164 170.875C72.1423 170.875 71.3509 170.477 71.1378 169.957H71.0921V169.697V136.822C69.6919 135.125 70.6355 132.51 73.1164 132.51C75.5973 132.51 76.5562 135.201 75.095 136.883V169.437Z" fill="#6C5F9E"/>
<path fill-rule="evenodd" clip-rule="evenodd" d="M95.5509 161.827C99.0972 161.827 102.004 160.145 102.004 158.08C102.004 156.016 99.1124 154.334 95.5509 154.334C92.0047 154.334 89.0977 156.016 89.0977 158.08C89.0977 160.16 92.0047 161.827 95.5509 161.827Z" fill="#41366E"/>
<path fill-rule="evenodd" clip-rule="evenodd" d="M95.5508 159.319C98.0469 159.319 100.102 158.141 100.102 156.689C100.102 155.236 98.0621 154.059 95.5508 154.059C93.0547 154.059 91 155.236 91 156.689C91 158.141 93.0395 159.319 95.5508 159.319Z" fill="#6C5F9E"/>
<path fill-rule="evenodd" clip-rule="evenodd" d="M97.513 156.427C97.5434 156.504 97.5587 156.596 97.5587 156.687C97.5587 156.779 97.5434 156.871 97.513 156.947C97.3151 157.467 96.5085 157.865 95.5344 157.865C94.5755 157.865 93.7688 157.467 93.5558 156.947H93.5101V156.687V123.812C92.1099 122.115 93.0535 119.5 95.5344 119.5C98.0153 119.5 98.9741 122.191 97.513 123.873V156.427Z" fill="#6C5F9E"/>
<path fill-rule="evenodd" clip-rule="evenodd" d="M140.406 135.815C143.953 135.815 146.86 134.133 146.86 132.069C146.86 130.004 143.968 128.322 140.406 128.322C136.845 128.322 133.953 130.004 133.953 132.069C133.953 134.133 136.845 135.815 140.406 135.815Z" fill="#41366E"/>
<path fill-rule="evenodd" clip-rule="evenodd" d="M140.406 133.307C142.902 133.307 144.957 132.13 144.957 130.677C144.957 129.224 142.918 128.047 140.406 128.047C137.91 128.047 135.855 129.224 135.855 130.677C135.855 132.114 137.895 133.307 140.406 133.307Z" fill="#6C5F9E"/>
<path fill-rule="evenodd" clip-rule="evenodd" d="M142.368 130.416C142.399 130.492 142.414 130.584 142.414 130.676C142.414 130.767 142.399 130.859 142.368 130.936C142.171 131.455 141.364 131.853 140.39 131.853C139.431 131.853 138.624 131.455 138.411 130.936H138.366V130.676V97.8003C136.965 96.103 137.909 93.4883 140.39 93.4883C142.871 93.4883 143.83 96.1795 142.368 97.8615V130.416Z" fill="#6C5F9E"/>
<path fill-rule="evenodd" clip-rule="evenodd" d="M117.973 148.825C121.519 148.825 124.426 147.143 124.426 145.078C124.426 143.014 121.534 141.332 117.973 141.332C114.411 141.332 111.52 143.014 111.52 145.078C111.52 147.143 114.427 148.825 117.973 148.825Z" fill="#41366E"/>
<path d="M117.973 146.303C120.486 146.303 122.524 145.126 122.524 143.673C122.524 142.22 120.486 141.043 117.973 141.043C115.459 141.043 113.422 142.22 113.422 143.673C113.422 145.126 115.459 146.303 117.973 146.303Z" fill="#6C5F9E"/>
<path fill-rule="evenodd" clip-rule="evenodd" d="M119.95 143.412C119.981 143.488 119.996 143.58 119.996 143.672C119.996 143.763 119.981 143.84 119.95 143.932C119.753 144.452 118.946 144.849 117.972 144.849C117.013 144.849 116.206 144.452 115.993 143.932H115.948V143.672V110.796C114.547 109.099 115.491 106.484 117.972 106.484C120.453 106.484 121.412 109.176 119.95 110.858V143.412Z" fill="#6C5F9E"/>
<path fill-rule="evenodd" clip-rule="evenodd" d="M116.497 107.34C117.03 106.989 117.608 107.004 117.775 107.356C117.943 107.723 117.638 108.288 117.106 108.64C116.573 108.992 115.995 108.976 115.827 108.625C115.66 108.258 115.964 107.692 116.497 107.34Z" fill="#9387C4"/>
<path fill-rule="evenodd" clip-rule="evenodd" d="M138.839 94.4062C139.371 94.0546 139.934 94.0393 140.117 94.4062C140.284 94.7579 140.011 95.339 139.478 95.7059C138.945 96.0576 138.382 96.0729 138.199 95.7059C138.017 95.339 138.306 94.7732 138.839 94.4062Z" fill="#9387C4"/>
<path fill-rule="evenodd" clip-rule="evenodd" d="M93.6491 120.81C94.0752 120.336 94.6384 120.199 94.8819 120.505C95.1406 120.81 94.9884 121.437 94.5623 121.911C94.1361 122.385 93.573 122.523 93.3295 122.217C93.0708 121.911 93.2077 121.284 93.6491 120.81Z" fill="#9387C4"/>
<path fill-rule="evenodd" clip-rule="evenodd" d="M71.3065 133.611C71.7327 133.137 72.2958 133 72.5394 133.305C72.7981 133.611 72.6459 134.238 72.2197 134.712C71.7936 135.186 71.2304 135.324 70.9717 135.018C70.7282 134.712 70.8804 134.085 71.3065 133.611Z" fill="#9387C4"/>
<path fill-rule="evenodd" clip-rule="evenodd" d="M75.9188 82.0687C76.4515 81.7171 77.0299 81.7323 77.1973 82.084C77.3648 82.451 77.0603 83.0168 76.5276 83.3685C75.9949 83.7202 75.4166 83.7049 75.2491 83.3532C75.0817 82.9862 75.3861 82.4204 75.9188 82.0687Z" fill="#9387C4"/>
<path fill-rule="evenodd" clip-rule="evenodd" d="M98.2604 69.1309C98.7931 68.7792 99.3563 68.7639 99.5389 69.1309C99.7063 69.4825 99.4324 70.0636 98.8997 70.4305C98.367 70.7822 97.8039 70.7975 97.6212 70.4305C97.4386 70.0636 97.7277 69.4825 98.2604 69.1309Z" fill="#9387C4"/>
<path fill-rule="evenodd" clip-rule="evenodd" d="M53.0745 95.5371C53.5007 95.063 54.0638 94.9254 54.3225 95.2312C54.5813 95.5371 54.4291 96.164 54.0029 96.638C53.5768 97.1121 53.0136 97.2497 52.7701 96.9439C52.4962 96.638 52.6331 96.0111 53.0745 95.5371Z" fill="#9387C4"/>
<path fill-rule="evenodd" clip-rule="evenodd" d="M30.7316 108.318C31.1578 107.844 31.7209 107.707 31.9644 108.012C32.2232 108.318 32.071 108.945 31.6448 109.419C31.2186 109.893 30.6555 110.031 30.412 109.725C30.1533 109.435 30.3054 108.792 30.7316 108.318Z" fill="#9387C4"/>
<path fill-rule="evenodd" clip-rule="evenodd" d="M195.899 41.3477C199.141 44.9257 199.248 49.7118 194.697 53.1216C193.662 52.8617 188.67 46.4701 195.899 41.3477Z" fill="#FFC369"/>
<path fill-rule="evenodd" clip-rule="evenodd" d="M206.019 49.8518C201.94 47.2829 197.222 48.0169 194.695 53.1087C195.121 54.0873 202.275 57.91 206.019 49.8518Z" fill="#FFC369"/>
<path fill-rule="evenodd" clip-rule="evenodd" d="M201.424 32.7949C205.396 35.532 206.598 40.1651 202.961 44.523C201.895 44.523 195.564 39.4617 201.424 32.7949Z" fill="#FFC369"/>
<path fill-rule="evenodd" clip-rule="evenodd" d="M213.219 38.729C208.653 37.1693 204.239 38.9889 202.961 44.5395C203.6 45.3805 211.438 47.4295 213.219 38.729Z" fill="#FFC369"/>
<path fill-rule="evenodd" clip-rule="evenodd" d="M204.909 22.7988C209.444 24.435 211.773 28.6094 209.353 33.7471C208.318 34.0376 200.921 30.7348 204.909 22.7988Z" fill="#FFC369"/>
<path fill-rule="evenodd" clip-rule="evenodd" d="M217.814 25.5345C213.005 25.1829 209.2 28.0728 209.352 33.761C210.174 34.4185 218.271 34.4185 217.814 25.5345Z" fill="#FFC369"/>
<path fill-rule="evenodd" clip-rule="evenodd" d="M212.946 13.6387C208.928 16.2993 207.649 20.9171 211.226 25.3362C212.291 25.3668 218.699 20.3972 212.946 13.6387Z" fill="#FFC369"/>
<path d="M117.758 75.1976C118.885 75.1976 119.798 74.2802 119.798 73.1486C119.798 72.017 118.885 71.0996 117.758 71.0996C116.632 71.0996 115.719 72.017 115.719 73.1486C115.719 74.2802 116.632 75.1976 117.758 75.1976Z" fill="white"/>
<path d="M123.497 69.9246C124.051 69.9246 124.501 69.4728 124.501 68.9154C124.501 68.3581 124.051 67.9062 123.497 67.9062C122.942 67.9062 122.492 68.3581 122.492 68.9154C122.492 69.4728 122.942 69.9246 123.497 69.9246Z" fill="white"/>
<path fill-rule="evenodd" clip-rule="evenodd" d="M183.676 65.1372C184.726 65.1372 185.578 64.2809 185.578 63.2258C185.578 62.1707 184.726 61.3145 183.676 61.3145C182.626 61.3145 181.773 62.1707 181.773 63.2258C181.773 64.2809 182.626 65.1372 183.676 65.1372Z" fill="white"/>
<path d="M195.325 18.2642C195.934 16.7991 195.246 15.1154 193.787 14.5036C192.329 13.8917 190.653 14.5833 190.044 16.0484C189.435 17.5135 190.124 19.1972 191.582 19.8091C193.04 20.421 194.716 19.7293 195.325 18.2642Z" fill="white"/>
<path fill-rule="evenodd" clip-rule="evenodd" d="M185.641 8.44139C186.6 8.44139 187.376 7.66156 187.376 6.69824C187.376 5.73491 186.6 4.95508 185.641 4.95508C184.682 4.95508 183.906 5.73491 183.906 6.69824C183.906 7.66156 184.682 8.44139 185.641 8.44139Z" fill="white"/>
<path fill-rule="evenodd" clip-rule="evenodd" d="M13.2886 120.123C13.2886 120.123 4.5675 101.055 25.2972 91.6207L91.5651 56.8187L97.0139 59.9839C97.3487 60.1674 97.714 60.1827 98.0488 59.9992C98.3837 59.831 98.5967 59.5099 98.6272 59.1276L99.6013 47.8888C99.6317 47.583 99.5404 47.3078 99.3273 47.0784C99.1142 46.8491 98.8555 46.7267 98.5511 46.7267L81.8395 46.4668C81.3372 46.4668 80.9263 46.7726 80.7893 47.2619C80.6523 47.7359 80.8654 48.2405 81.2916 48.4852L83.3615 49.6932L16.9566 82.8132C16.9566 82.8132 -5.61469 91.8501 1.32563 112.539L13.2886 120.123Z" fill="white"/>
<path fill-rule="evenodd" clip-rule="evenodd" d="M171.457 60.8574C174.516 62.1113 176.616 64.1297 177.042 66.6679C177.955 71.9892 171.243 77.5856 162.051 79.1606C156.206 80.1698 150.773 79.2982 147.363 77.1575C150.712 78.5184 155.247 78.9618 160.042 78.1361C169.219 76.5611 175.931 70.9647 175.033 65.6435C174.714 63.7015 173.42 62.0654 171.457 60.8574Z" fill="white"/>
<path fill-rule="evenodd" clip-rule="evenodd" d="M108.992 60.0469L114.228 63.0745V64.7106L108.992 61.683V60.0469ZM108.992 63.2732V64.9094L111.747 66.5149V64.8788L108.992 63.2732Z" fill="#41366E"/>
<path fill-rule="evenodd" clip-rule="evenodd" d="M215.332 57.7852L221.998 61.6538V63.1064L215.332 59.2378V57.7852ZM215.332 60.6446V62.0972L218.209 63.7639V62.3113L215.332 60.6446Z" fill="#41366E"/>
<path fill-rule="evenodd" clip-rule="evenodd" d="M211.33 54.4182C209.656 53.5007 208.073 54.1429 207.799 55.8555C207.51 57.5681 208.636 59.6935 210.311 60.611C211.985 61.5284 213.568 60.8862 213.842 59.1736C214.131 57.461 213.004 55.3356 211.33 54.4182Z" fill="#41366E"/>
<path fill-rule="evenodd" clip-rule="evenodd" d="M211.178 55.9169C210.493 55.5347 209.839 55.8099 209.717 56.5133C209.595 57.2167 210.067 58.0882 210.752 58.4705C211.437 58.8528 212.091 58.5775 212.213 57.8742C212.335 57.1708 211.863 56.2992 211.178 55.9169ZM208.469 58.8069C209.047 58.4552 209.854 58.4552 210.676 58.9139C211.467 59.3421 212.106 60.0913 212.487 60.917C211.863 61.1311 211.087 61.0547 210.295 60.6112C209.565 60.1984 208.925 59.5562 208.469 58.8069Z" fill="white"/>
<path fill-rule="evenodd" clip-rule="evenodd" d="M35.8279 162.709C46.9385 163.229 55.9487 167.449 55.9487 172.128C55.9487 176.807 46.9385 180.187 35.8279 179.667C24.7173 179.147 15.707 174.927 15.707 170.248C15.707 165.553 24.7173 162.189 35.8279 162.709Z" fill="#E6E6E6"/>
<path fill-rule="evenodd" clip-rule="evenodd" d="M44.6591 102.784C43.9285 98.3649 43.0153 94.2363 40.8084 94.114L34.903 90.4748L34.553 89.1445L34.5986 87.4319L37.7644 87.9212C40.367 83.808 39.1951 77.1259 39.1342 76.7895V76.7742C44.1873 74.2206 38.8146 63.777 35.8619 69.5875C24.4317 67.5691 20.5354 72.401 24.6904 75.2604C20.0179 76.8048 26.8669 83.3493 27.3387 87.0038V88.8234L27.0039 90.4442C24.4773 91.3158 19.8048 94.6798 19.8048 94.6798C19.6983 94.9091 13.732 108.411 19.5308 112.631C20.0027 117.601 20.6419 121.286 20.6419 121.286C20.6419 121.286 23.0162 147.219 21.9204 163.779C22.0269 163.856 22.1791 163.947 22.3465 164.054C22.3313 164.36 22.3009 164.681 22.2857 164.987C22.2704 165.018 21.5551 165.614 21.8291 166.379C21.2964 167.327 21.1898 169.055 21.3725 170.278C21.3877 170.4 21.616 170.599 21.6921 170.691L21.9052 170.889C21.9204 170.905 21.9508 170.92 21.966 170.935L22.3161 171.211L23.0467 171.669L23.6098 171.929L24.1273 172.097C24.1729 172.113 24.2186 172.128 24.2643 172.128C24.4012 172.159 24.5382 172.189 24.6904 172.22L24.9948 172.266C25.0405 172.266 25.1014 172.281 25.147 172.281C25.1927 172.281 25.2536 172.296 25.2992 172.296L25.9689 172.311C26.0298 172.311 26.0907 172.311 26.1515 172.296C26.2124 172.296 26.2733 172.281 26.3342 172.281L27.0952 172.174C28.191 171.96 29.8804 171.302 30.9002 170.813L32.5592 169.896L32.8331 169.712L33.3049 169.36L33.8072 168.947L34.2029 168.581C34.2181 168.55 34.2486 168.535 34.2638 168.504C34.416 168.351 34.5378 168.198 34.6291 168.076C34.69 167.999 34.7356 167.938 34.7661 167.877C34.9791 167.571 34.9791 167.48 35.0248 167.143C35.2683 165.109 34.1573 163.427 31.0524 163.366C30.2609 163.351 29.5152 163.382 28.815 163.473C29.576 157.755 31.1285 144.971 31.1589 131.913C31.2502 132.02 31.3111 132.081 31.3111 132.081C37.5513 145.445 37.8862 165.889 37.8862 165.889C38.0079 166.149 38.1601 166.363 38.3428 166.562V167.128C37.6122 167.571 37.1252 168.198 37.3839 168.84C36.8816 169.727 36.7903 171.149 36.8664 172.128L36.9425 172.801V172.816L36.9577 172.847L36.973 172.862L36.9882 172.877L37.0034 172.908L37.0338 172.938L37.0643 172.969L37.0947 173L37.1252 173.03L37.1556 173.076L37.2013 173.122L37.3991 173.305L37.7948 173.626L38.708 174.192L39.2864 174.437L39.9561 174.636L40.7019 174.758L41.7064 174.773L42.4522 174.682C42.8783 174.651 43.8676 174.299 43.9285 174.299L45.8462 173.565L47.5204 172.724C48.3575 172.25 49.2251 171.639 49.8795 170.92C49.8948 170.905 49.9252 170.874 49.9404 170.859C49.9556 170.844 49.9709 170.813 50.0013 170.798L50.047 170.737L50.0926 170.675L50.1839 170.568L50.26 170.461L50.2905 170.415L50.3209 170.37L50.3513 170.324L50.3818 170.278L50.4122 170.247L50.4274 170.217L50.4427 170.186L50.4579 170.155L50.4731 170.125L50.4883 170.079L50.5036 170.048V170.033L50.5797 169.513C50.7471 167.571 49.7121 165.92 46.592 165.843C45.8919 165.828 45.2222 165.859 44.5982 165.92C46.2267 140.094 40.8693 123.58 40.8693 123.58C40.7475 121.546 40.8236 117.968 40.991 114.023C41.7825 115.246 42.6805 115.98 43.6241 115.873C43.8524 115.842 44.0807 115.812 44.2786 115.766C44.6591 115.628 44.9787 115.429 45.2222 115.185L45.5266 115.078L45.8614 114.91L46.5007 114.405C46.5311 114.374 46.5464 114.359 46.5768 114.329C46.6072 114.298 46.6225 114.267 46.6529 114.237C46.6833 114.206 46.6986 114.176 46.729 114.145C47.9162 112.555 47.977 106.653 47.9922 104.665L47.977 102.616C48.8141 101.469 49.5295 99.6646 49.5295 99.6646C48.6467 97.3251 46.6377 97.371 46.6377 97.371C46.6377 97.371 46.6986 96.897 46.4398 96.5606C46.1659 96.2242 45.4657 96.4841 45.4657 96.4841L45.2222 99.0683L44.8721 102.019L44.6591 102.784ZM38.982 76.8353C38.7537 76.9271 38.4037 77.0647 37.9927 77.187L38.982 76.8353ZM39.1342 76.7742L39.0124 76.8201H38.9972C39.0429 76.8048 39.0886 76.7895 39.1342 76.7742Z" fill="white"/>
<path fill-rule="evenodd" clip-rule="evenodd" d="M45.543 103.12L45.893 100.169C45.893 100.169 48.2217 99.45 50.2155 100.765C50.2155 100.765 49.5002 102.554 48.6631 103.716C47.3998 102.738 45.5582 103.089 45.5582 103.089L45.543 103.12Z" fill="#FFB199"/>
<path fill-rule="evenodd" clip-rule="evenodd" d="M45.8906 100.17L46.1341 97.5861C46.1341 97.5861 46.8343 97.3261 47.1082 97.6625C47.3822 97.9989 47.3061 98.4729 47.3061 98.4729C47.3061 98.4729 49.3151 98.427 50.1979 100.767C48.2193 99.4515 45.8906 100.17 45.8906 100.17Z" fill="#F58282"/>
<path fill-rule="evenodd" clip-rule="evenodd" d="M42.8932 115.001C42.8932 115.001 42.4366 112.448 42.9845 110.812C43.5324 109.176 45.5415 103.09 45.5415 103.09C45.5415 103.09 47.2613 102.616 48.6464 103.717C48.6464 103.717 48.9355 113.289 47.3983 115.246C45.8763 117.203 43.3498 116.209 42.8932 115.001Z" fill="white"/>
<path fill-rule="evenodd" clip-rule="evenodd" d="M42.8932 115.002C42.8932 115.002 42.4366 112.448 42.9845 110.812C43.4259 109.513 44.7653 105.43 45.3132 103.794C47.1396 103.702 48.1898 104.222 48.6616 104.543C48.692 106.898 48.6616 113.641 47.3983 115.262C45.8763 117.204 43.3498 116.21 42.8932 115.002Z" fill="#91B6FF"/>
<path fill-rule="evenodd" clip-rule="evenodd" d="M23.4566 166.457C23.4566 166.457 22.4673 166.778 22.1324 168.384C21.7976 169.974 22.0563 171.35 22.0563 171.35C22.0563 171.35 24.248 174.408 28.7683 172.956C34.5824 171.075 35.6173 168.628 35.6173 168.628C35.6173 168.628 36.7132 164.546 31.721 164.439C26.7289 164.316 23.4566 166.457 23.4566 166.457Z" fill="#41366E"/>
<path fill-rule="evenodd" clip-rule="evenodd" d="M26.1055 164.819C24.0813 164.956 22.4375 165.95 22.4375 167.036C22.4375 168.122 24.0813 168.886 26.1055 168.733C28.1298 168.596 29.7735 167.602 29.7735 166.516C29.7735 165.446 28.1298 164.681 26.1055 164.819Z" fill="#41366E"/>
<path fill-rule="evenodd" clip-rule="evenodd" d="M38.9956 168.965C38.9956 168.965 38.0063 169.286 37.6715 170.891C37.3366 172.482 37.5954 173.858 37.5954 173.858C37.5954 173.858 39.7871 176.916 44.3074 175.463C50.1215 173.583 51.1564 171.136 51.1564 171.136C51.1564 171.136 52.2523 167.053 47.2601 166.946C42.2679 166.824 38.9956 168.965 38.9956 168.965Z" fill="#6C5F9E"/>
<path fill-rule="evenodd" clip-rule="evenodd" d="M42.0555 167.331C39.803 167.468 37.9766 168.462 37.9766 169.548C37.9766 170.634 39.803 171.398 42.0555 171.245C44.3081 171.108 46.1345 170.114 46.1345 169.028C46.1345 167.942 44.3081 167.193 42.0555 167.331Z" fill="#6C5F9E"/>
<path fill-rule="evenodd" clip-rule="evenodd" d="M20.4586 95.6875C20.4586 95.6875 14.3401 109.388 20.1846 113.639C19.6671 108.15 19.3932 101.1 20.4586 95.6875Z" fill="#618BE0"/>
<path fill-rule="evenodd" clip-rule="evenodd" d="M39.7877 77.7832C39.7877 77.7832 41.0966 84.7253 38.4331 88.9303L35.2673 88.441L35.1456 92.6612C35.1456 92.6612 32.1929 94.9549 27.9922 92.6612V88.0128C29.712 87.5541 30.9449 87.6917 32.543 88.1198C33.4105 86.6061 33.6692 85.3369 33.6692 83.6855C31.7211 84.0678 30.5491 82.7833 31.021 81.1625C31.4167 79.8169 33.8519 79.2358 34.278 81.2389H34.9325C35.4195 80.8108 36.211 79.0371 36.211 78.7159C37.5808 78.6854 39.7877 77.7832 39.7877 77.7832Z" fill="#FFB199"/>
<path fill-rule="evenodd" clip-rule="evenodd" d="M35.1912 91.0583L35.1456 92.6639C35.1456 92.6639 32.1929 94.9575 27.9922 92.6639V90.5996C29.225 91.303 31.5537 92.0523 35.1912 91.0583Z" fill="#EBA89B"/>
<path fill-rule="evenodd" clip-rule="evenodd" d="M35.2697 88.4413L35.2088 90.1538L33.3672 88.166L35.2697 88.4413Z" fill="#F58282"/>
<path fill-rule="evenodd" clip-rule="evenodd" d="M35.5722 91.4815L42.8473 95.9617C42.8473 95.9617 41.1579 118.149 41.5536 124.647C41.5536 124.647 27.8556 129.082 21.311 122.293C21.311 122.293 18.4192 105.993 20.4587 95.6865C20.4587 95.6865 25.1312 92.3225 27.6578 91.4509L27.9926 89.8301C32.4521 91.298 35.2221 90.1512 35.2221 90.1512L35.5722 91.4815Z" fill="#91B6FF"/>
<path fill-rule="evenodd" clip-rule="evenodd" d="M27.6562 91.4704L27.9911 89.8496C32.4506 91.3175 35.2206 90.1707 35.2206 90.1707L35.5707 91.501C30.685 93.0607 27.6562 91.4704 27.6562 91.4704Z" fill="white"/>
<path fill-rule="evenodd" clip-rule="evenodd" d="M21.3125 122.293C21.3125 122.293 23.6868 148.226 22.591 164.786C23.4433 165.398 25.9089 166.774 29.3791 165.383C30.1401 159.847 32.0274 144.969 31.8295 130.321C31.8143 128.715 31.723 127.308 31.586 126.07C27.918 125.978 24.0064 125.091 21.3125 122.293Z" fill="#41366E"/>
<path fill-rule="evenodd" clip-rule="evenodd" d="M22.9986 165.062C22.9682 165.445 22.953 165.827 22.9225 166.194C22.7399 168.35 28.0973 168.87 28.2495 166.913C28.2495 166.913 28.3104 166.362 28.3713 165.72C25.86 166.393 23.9727 165.644 22.9986 165.062Z" fill="#F58282"/>
<path fill-rule="evenodd" clip-rule="evenodd" d="M41.5403 124.648C41.5403 124.648 46.9891 141.423 45.2388 167.585C44.1886 168.824 39.9118 169.665 38.5572 166.928C38.5572 166.928 38.2223 146.484 31.9821 133.12C31.9821 133.12 29.5317 130.551 28.375 125.765C34.6913 126.866 41.5403 124.648 41.5403 124.648Z" fill="#6C5F9E"/>
<path fill-rule="evenodd" clip-rule="evenodd" d="M41.5399 124.648L41.5551 125.046C40.5963 125.535 39.1504 126.147 37.2631 126.697C38.9677 130.612 44.5535 145.52 42.1944 167.111C43.9447 167.172 44.9492 166.484 44.9492 166.484L45.0862 166.698C45.0862 166.698 42.651 168.396 38.7851 166.423L38.9069 166.194C40.0636 166.79 41.0833 167.035 41.9356 167.096C44.2947 145.49 38.6786 130.612 37.0044 126.759C34.8888 127.34 32.21 127.829 29.0138 127.936C28.7703 127.263 28.542 126.545 28.3594 125.765C31.2512 126.269 34.2647 126.086 36.6695 125.719L36.7761 125.658L36.7913 125.688C39.5918 125.291 41.5399 124.648 41.5399 124.648Z" fill="#41366E"/>
<path fill-rule="evenodd" clip-rule="evenodd" d="M38.9961 167.543V169.194C38.9961 171.197 44.871 170.601 44.871 169.194V167.925C43.3947 168.797 40.442 169.271 38.9961 167.543Z" fill="#FFB199"/>
<path fill-rule="evenodd" clip-rule="evenodd" d="M42.6659 98.3184C42.3615 102.615 41.7375 111.881 41.5396 118.609C35.5582 110.536 37.7651 98.9912 37.7651 98.9912L41.0069 98.8994C41.5853 98.6853 42.1332 98.5018 42.6659 98.3184Z" fill="#41366E"/>
<path fill-rule="evenodd" clip-rule="evenodd" d="M37.7165 101.376C37.7165 101.376 36.9708 95.2133 41.3237 95.1216C44.6873 95.0451 45.1135 104.097 46.3463 109.816C46.4681 110.428 46.6203 110.994 46.7572 111.498C47.0769 113.302 47.1377 116.024 44.946 116.835C44.7482 116.881 44.5199 116.911 44.2916 116.942C40.7149 117.339 37.9753 105.703 37.7165 101.376Z" fill="#91B6FF"/>
<path fill-rule="evenodd" clip-rule="evenodd" d="M27.9921 88.0132C27.5355 84.3587 20.6865 77.8142 25.3438 76.2698C21.1887 73.3951 25.085 68.5632 36.5153 70.5969C39.468 64.7864 44.8559 75.2148 39.7876 77.7836C39.2853 77.9824 37.4285 78.7011 36.2109 78.7316C36.2109 78.7469 36.2109 78.7775 36.1957 78.8081C36.1652 79.0986 36.0435 80.1843 35.876 81.4228C35.1911 81.4687 34.5976 81.3923 33.9888 81.3005L34.004 80.5971C33.2278 79.4197 31.3405 80.0161 31.0056 81.1782C30.5338 82.799 31.721 84.0834 33.6539 83.7012C33.6539 85.3373 33.3952 86.6064 32.5276 88.1355C30.9448 87.6921 29.7119 87.5545 27.9921 88.0132Z" fill="#41366E"/>
<path fill-rule="evenodd" clip-rule="evenodd" d="M39.9387 78.8399C39.8779 78.2741 39.817 77.8919 39.8018 77.8001C39.8018 77.7848 39.8018 77.7695 39.8018 77.7695C39.8018 77.7695 39.2538 77.9989 38.5233 78.2283C37.8536 78.4423 37.0469 78.6564 36.3773 78.7023C36.3164 78.7023 36.2707 78.7023 36.2098 78.7176C36.2098 78.7329 36.2098 78.7634 36.1946 78.794C36.1642 79.0846 36.0424 80.1702 35.875 81.4088C36.636 80.5219 36.7121 79.2069 36.7121 79.2069C37.7318 79.3139 39.2995 79.1304 39.9387 78.8399Z" fill="#F58282"/>
</svg>
