<svg width="24" height="24" viewBox="0 0 24 24" fill="none" xmlns="http://www.w3.org/2000/svg">
<path d="M24 17.3333C24 18.806 22.7358 20 21.1765 20H2.82353C1.26424 20 0 18.806 0 17.3333V4.20867C0 2.736 4.08776 0 5.64706 0H20.2059C22.3899 0 24 1.54133 24 3.58333V17.3333Z" fill="#F4900C"/>
<path d="M22.5886 19.9999C22.5886 21.4726 21.3243 22.6666 19.7651 22.6666H4.23564C2.67635 22.6666 1.41211 21.4726 1.41211 19.9999V3.99991C1.41211 1.25391 1.39729 1.33324 4.94152 1.33324H19.7651C21.3243 1.33324 22.5886 2.52724 22.5886 3.99991V19.9999Z" fill="#CCD6DD"/>
<path d="M21.1765 20.667C21.1765 21.7717 20.2285 22.667 19.0588 22.667H2.11765C0.948 22.667 0 21.7717 0 20.667V4.66699C0 3.56233 0.948 2.66699 2.11765 2.66699H19.0588C20.2285 2.66699 21.1765 3.56233 21.1765 4.66699V20.667Z" fill="#E1E8ED"/>
<path d="M21.1776 21.3333C21.1776 22.806 19.9134 24 18.3541 24H3.53056C1.97127 24 0.707031 22.806 0.707031 21.3333V6.66667C0.707031 5.194 1.97127 4 3.53056 4H18.3541C19.9134 4 21.1776 5.194 21.1776 6.66667V21.3333Z" fill="#F4900C"/>
<path d="M19.7659 21.333C19.7659 22.8057 18.5016 23.9997 16.9423 23.9997H3.53056C1.97127 23.9997 0.707031 22.8057 0.707031 21.333V7.99967C0.707031 6.52701 1.97127 5.33301 3.53056 5.33301H17.1788C18.7381 5.33301 19.7659 6.30367 19.7659 7.77634V21.333Z" fill="#FFAC33"/>
<path d="M3.52941 4C2.33788 4 2.30753 2.71867 2.82353 2.16667C3.41082 1.53933 4.32353 1.33333 5.95624 1.33333H7.05882V0H5.13953C2.33788 0 0 1.66667 0 3.58333V21.3333C0 22.806 1.26424 24 2.82353 24H4.23529V4H3.52941Z" fill="#F4900C"/>
</svg>
