<svg width="58" height="58" viewBox="0 0 58 58" fill="none" xmlns="http://www.w3.org/2000/svg">
<rect width="58" height="58" rx="29" fill="#1877F2" fill-opacity="0.2"/>
<path fill-rule="evenodd" clip-rule="evenodd" d="M32.725 39V31.255H35.325L35.714 28.237H32.724V26.31C32.724 25.436 32.967 24.84 34.221 24.84H35.819V22.14C35.0451 22.0576 34.2673 22.0176 33.489 22.02C31.185 22.02 29.608 23.427 29.608 26.01V28.237H27V31.255H29.607V39H20.104C19.494 39 19 38.506 19 37.896V20.104C19 19.494 19.494 19 20.104 19H37.896C38.506 19 39 19.494 39 20.104V37.896C39 38.506 38.506 39 37.896 39H32.725V39Z" fill="#1877F2"/>
</svg>
