<svg width="425" height="462" viewBox="0 0 425 462" fill="none" xmlns="http://www.w3.org/2000/svg">
<circle cx="209.223" cy="223.42" r="185.536" fill="#FFEFE3"/>
<path d="M345.099 99.9825C329.319 113.133 327.726 132.775 331.202 155.368C332.941 166.676 335.96 178.787 339.154 191.275C339.407 192.265 339.661 193.256 339.915 194.25C342.878 205.814 345.918 217.678 348.189 229.554C353.123 255.357 354.398 281.087 343.435 303.697C332.485 326.281 309.248 345.904 264.815 359.323C213.816 374.726 167.575 358.141 134.05 326.577C100.51 294.998 79.7429 248.461 79.7429 204.093C79.7429 115.43 152.989 58.9992 240.571 43.3756C271.339 37.8868 311.836 40.379 337.43 50.1741C350.265 55.0861 359.117 61.7432 361.361 69.9247C363.586 78.035 359.405 88.0608 345.099 99.9825Z" stroke="#F8A737" stroke-width="1.3765"/>
<path d="M338.79 151.87L322.575 148.548L320.653 161.179C335.323 161.217 338.513 164.465 348.274 165.025C359.678 165.679 362.1 166.242 373.46 166.271C376.701 166.279 377.022 158.877 374.623 158.278L356.736 153.608C356.16 153.458 356.023 152.702 356.51 152.36L359.385 150.336C361.169 149.495 360.699 147.29 359.455 147.585C351.93 149.374 347.243 147.581 338.79 151.87Z" fill="#FF986C"/>
<path d="M62.8058 142.914C52.1263 139.153 47.9306 144.748 39.7498 140.231C38.061 139.298 37.7787 141.967 39.3955 143.682L45.7153 147.501C37.8241 150.879 33.7909 150.613 26.5719 150.292C24.6605 150.207 23.8667 157.241 25.7345 157.75C30.6316 159.837 38.3131 161.447 47.2679 161.415C54.2249 161.39 62.7848 159.111 66.769 154.101L95.6848 152.63L93.1536 136.835C81.0925 138.899 73.4546 141.95 62.8058 142.914Z" fill="#FF986C"/>
<path d="M200.08 390.15L181.63 393.288L194.962 423.224L210.447 420.936L200.08 390.15Z" fill="#FF986C"/>
<path d="M199.428 303.212L181.983 308.908L199.428 336.323C204.305 336.253 206.991 334.702 211.569 328.05L199.428 303.212Z" fill="#FF986C"/>
<path d="M187.633 406.789L185.812 402.784L200.742 392.588L203.291 399.507C198.922 406.061 193.095 407.518 187.633 406.789Z" fill="#FF814B"/>
<path d="M173.975 227.377L139.589 230.021C133.4 268.874 166.51 363.604 182.535 402.055C189.454 405.332 197.101 404.604 202.636 395.781C184.909 331.02 177.094 294.352 173.975 227.377Z" fill="#FFC33D"/>
<path d="M184.082 100.743C185.984 97.8475 189.93 87.4628 187.776 78.4847L206.809 73.457C205.7 76.9639 203.448 89.4578 212.005 97.9C206.87 104.723 188.213 108.98 184.082 100.743Z" fill="#FF986C"/>
<path d="M205.733 80.2803C199.628 86.3854 193.164 88.8993 187.418 88.8993L206.811 73.457C206.234 76.8237 205.958 76.9155 205.733 80.2803Z" fill="#FF814B"/>
<path d="M213.329 59.2874C210.647 75.3711 194.271 88.2033 187.006 88.9297C180.053 89.625 162.787 65.9844 169.276 40.6054C173.652 23.4915 187.204 23.5822 198.422 26.5882C211.639 30.1299 215.559 41.7641 213.329 59.2874Z" fill="#FF986C"/>
<path d="M208.917 7.37757C198.021 9.86512 193.858 18.777 198.59 33.3729L205.315 34.054C207.411 35.8597 210.399 52.2192 213.2 58.3809C214.968 62.2713 223.788 71.0669 228.435 68.4565C223.743 63.9923 227.586 49.5591 229.517 44.8756C232.601 37.3955 233.482 27.6935 230.639 19.485C228.118 12.207 218.464 5.19774 208.917 7.37757Z" fill="#14004B"/>
<path d="M194.394 24.1184C198.97 23.3061 202.713 25.6494 206.015 28.1981C204.843 24.5649 200.298 20.6892 197.165 18.773C195.028 18.773 193.432 22.3374 194.394 24.1184Z" fill="#FFC33D"/>
<path d="M200.727 58.3015C200.727 60.082 201.439 61.5064 201.988 62.1929C206.424 54.0283 211.766 64.7113 204.644 68.6284C205.357 71.1211 205.712 73.2577 205.712 75.7504C230.719 52.3673 214.701 21.6015 191.469 22.6914C169.165 23.7377 164.761 43.3452 168.502 59.5923C169.287 53.8327 180.756 47.2286 182.461 41.8522C185.75 46.8036 189.536 56.2073 200.727 58.3015Z" fill="#14004B"/>
<path d="M74.1758 153.958C76.1899 149.071 76.1672 146.499 74.1758 140.764C77.9253 144.099 78.7562 147.79 79.1486 153.713L74.1758 153.958Z" fill="#FF814B"/>
<path d="M128.699 128.313L74.1758 141C78.0007 147.194 77.651 150.341 74.8539 155.236C90.9375 156.042 110.168 157.334 126.138 156.042C141.985 150.341 150.377 146.844 165.794 138.949L171.705 99.6426C157.987 111.893 147.498 118.511 128.699 128.313Z" fill="#FB2F4D"/>
<path d="M232.972 99.5165C224.144 97.7693 213.659 96.9954 208.91 93.7988C198.996 103.371 188.632 103.393 186.534 95.3515C181.578 95.6717 173.93 97.5693 171.707 99.6421C166.751 113.979 151.61 122.853 151.61 137.745C151.61 145.266 157.451 158.944 156.224 169.218C153.176 194.745 148.281 212.577 135.344 237.052C153.175 242.996 189.538 226.563 229.747 222.017C226.251 216.073 207.007 195.665 207.007 183.358C207.007 167.334 232.972 152.103 232.972 136.378V99.5165Z" fill="#FB2F4D"/>
<path d="M167.281 108.742C160.675 117.902 152.133 125.595 152.133 136.943C152.133 140.493 153.383 145.361 154.63 150.618" stroke="#EE1E3D" stroke-width="1.31091" stroke-linecap="round" stroke-linejoin="round"/>
<path d="M329.026 161.677C326.864 157.239 327.82 152.437 330.059 149.525C326.309 152.597 325.413 155.835 325.02 161.29L329.026 161.677Z" fill="#FF814B"/>
<path d="M231.844 135.305C229.684 140.549 209.117 148.591 195.83 148.941C187.092 149.171 180.524 148.9 174.152 146.493C168.781 147.772 162.349 147.782 157.458 146.707C156.668 146.534 156.158 147.484 156.897 147.815C162.139 150.158 168.919 149.99 173.803 149.99C177.299 151.388 189.187 154.185 195.83 153.836C201.92 153.515 195.023 182.507 212.263 197.541C201.496 182.304 210.515 166.773 212.613 163.276C215.142 159.062 230.795 150.689 232.893 139.151C234.642 136.433 232.893 136.004 231.844 135.305Z" fill="#EE1E3D"/>
<path d="M190.543 322.307L188.723 319.758L202.196 308.834L204.745 313.932C199.627 319.098 196.297 321.066 190.543 322.307Z" fill="#FF814B"/>
<path d="M167.947 236.641C156.562 238.152 147.306 238.918 138.812 237.965L139.201 247.658C140.821 247.317 144.392 247.757 145.028 249.478C153.767 273.148 168.959 293.018 185.447 326.676L167.947 236.641Z" fill="#ECB231"/>
<path d="M211.664 225.811C219.277 225.805 223.41 225.313 230.582 223.839C246.96 253.034 228.802 284.721 193.201 275.464C194.975 288.711 196.735 296.223 203.17 310C197.777 317.65 193.563 320.342 183.764 322.082C165.607 290.395 131.249 237.012 151.901 216.719C169.75 199.18 199.647 219.985 211.664 225.811Z" fill="#FFC33D"/>
<path d="M235.696 237.098C230.967 236.121 226.593 234.185 223.68 232H234.24C234.867 233.85 235.217 234.893 235.696 237.098Z" fill="#ECB231"/>
<path d="M152.672 216.707C132.02 237.001 165.831 289.893 183.988 321.58" stroke="#ECB231" stroke-width="1.45656" stroke-linecap="round"/>
<path d="M206.93 410.43C208.937 420.99 197.462 424.267 192 416.62C192.756 429.776 195.203 437.118 204.343 448.987C208.022 453.764 211.296 456.649 218.054 461.271C219.287 462.114 225.216 458.885 225.136 457.517C224.795 451.717 224.453 445.916 222.795 440.115C218.401 424.745 215.217 416.737 206.93 410.43Z" fill="#2626FF"/>
<path d="M200.244 345.685C198.637 342.169 196.931 338.339 198.193 334.324C203.291 340.879 210.749 327.285 208.012 320.862C210.381 321.282 211.857 321.656 213.311 322.78C214.765 323.904 224.929 348.659 220.414 367.802C219.849 370.196 213.774 373.636 212.525 371.938C209.203 367.424 203.844 353.561 200.244 345.685Z" fill="#2626FF"/>
<path d="M277.412 139.113C260.439 123.762 243.732 101.041 231.844 99.293C226.237 111.497 224.436 121.45 226.25 136.006C234.991 145.796 246.495 152.6 263.054 160.992C282.542 163.627 298.626 164.327 326.947 162.229C325.199 156.984 326.947 152.089 330.058 150.053L277.412 139.113Z" fill="#FB2F4D"/>
<path d="M192.742 281.306C192.823 281.7 193.208 281.954 193.602 281.874C193.996 281.793 194.25 281.408 194.169 281.014L192.742 281.306ZM186.486 241.2C186.338 240.827 185.914 240.644 185.54 240.792C185.166 240.94 184.983 241.363 185.132 241.737L186.486 241.2ZM194.169 281.014C192.722 273.958 192.731 268.964 192.132 263.151C191.533 257.353 190.335 250.915 186.486 241.2L185.132 241.737C188.929 251.322 190.098 257.629 190.683 263.301C191.267 268.959 191.276 274.16 192.742 281.306L194.169 281.014Z" fill="#ECB231"/>
<path d="M233.511 238.192C212.027 251.665 186.901 225.083 181.438 231.273C176.265 237.135 182.895 240.012 185.808 257.491" stroke="#CE6F00" stroke-width="0.951833" stroke-linecap="round" stroke-linejoin="round" stroke-dasharray="5.44 2.72"/>
<path d="M237.516 233.822C230.233 235.278 220.334 231.369 209.773 224.814C217.196 223.318 221.413 222.649 229.738 222.012L237.516 233.822Z" fill="#FB2F4D"/>
<path d="M409.564 235.833C410.373 242.708 415.226 252.413 419.27 254.84L352.95 298.109C346.736 292.317 343.935 287.656 340.818 275.464L409.564 235.833Z" fill="#F3F4F4"/>
<path d="M340.818 275.464C342.839 283.147 346.108 290.484 352.949 298.109L310.893 297.301C308.062 294.065 304.714 288.814 304.827 282.743L340.818 275.464Z" fill="#DBDCDC"/>
<path d="M419.268 254.839H424.121L353.757 299.727L310.083 298.918C304.911 293.457 302.804 290.021 302.804 282.742L305.23 282.338C305.727 287.979 307.301 292.167 311.296 297.3L352.948 298.109L419.268 254.839Z" fill="#7210ED"/>
<path d="M374.38 247.561L411.18 233.002L340.816 273.441L301.186 281.529L374.38 247.561Z" fill="#7210ED"/>
<path d="M424.121 254.839V257.265L353.757 302.152V299.726L424.121 254.839Z" fill="#9948FF"/>
<path d="M353.758 299.726V302.152L310.084 300.939C301.996 294.873 300.378 289.212 301.187 281.528L340.817 273.441V275.867L302.805 283.146C303.145 290.189 304.784 293.687 310.488 298.917L353.758 299.726Z" fill="#9948FF"/>
<path d="M411.18 233.002V235.024L340.816 275.867V273.441L411.18 233.002Z" fill="#9948FF"/>
<g clip-path="url(#clip0_5955_100457)">
<path d="M32.0938 44.3086L83.5579 58.0984L75.204 89.2756C75.0616 89.8071 74.7703 90.2927 74.3503 90.6483C58.5824 103.999 28.0772 93.0492 23.6924 76.9862C23.5698 76.5372 23.5847 76.065 23.7051 75.6153L32.0938 44.3086Z" fill="#943DFF"/>
<path d="M36.6289 91.3682C41.8016 90.1453 47.9006 84.9488 50.2787 79.3723L28.5531 57.525L23.708 75.607C22.9626 78.3889 28.9106 88.182 36.6289 91.3682Z" fill="#6423CE"/>
<path d="M104.622 60.1632L103.19 65.4463L50.3283 79.7555L51.7599 74.4722L104.622 60.1632Z" fill="#AA93F0"/>
<path d="M51.7597 74.4729L50.328 79.7562L11.4036 40.8535L12.8352 35.5704L51.7597 74.4729Z" fill="#845EB5"/>
<path d="M104.617 60.1635L51.7553 74.4724L12.8309 35.5699L65.6926 21.2608L104.617 60.1635Z" fill="#AF99FF"/>
<path d="M76.1143 89.0663C76.5476 90.3967 75.8288 92.8764 75.5568 95.4913C75.4206 96.8006 75.8035 97.3597 76.2491 98.1578C76.482 98.2202 73.6978 99.5187 71.4946 98.9284C69.2914 98.338 67.9415 96.1615 67.9415 96.1615C68.581 95.5518 70.0391 95.1155 70.3147 94.0867C70.734 92.5221 71.7885 89.5365 72.8885 88.2017C73.8238 87.0669 75.6811 87.7359 76.1143 89.0663Z" fill="#FFC33D"/>
<path d="M58.1713 44.1121L79.1135 65.6691C79.8755 66.4535 80.1689 67.5809 79.8858 68.6372L74.4514 88.9187" stroke="#FFC33D" stroke-width="3.60602" stroke-linecap="round" stroke-linejoin="round"/>
<path d="M76.3282 88.8973C75.5154 89.1217 74.0998 88.8238 72.8253 87.9587C72.4824 88.3266 72.343 88.5355 72.3477 89.0291C73.5733 89.9976 74.6831 90.2485 76.2387 90.1417C76.4303 89.6333 76.4359 89.3674 76.3282 88.8973Z" fill="#F5B614"/>
</g>
<defs>
<clipPath id="clip0_5955_100457">
<rect width="95.0397" height="77.0394" fill="white" transform="translate(19.9375 9) rotate(15)"/>
</clipPath>
</defs>
</svg>
