<svg width="24" height="24" viewBox="0 0 24 24" fill="none" xmlns="http://www.w3.org/2000/svg">
<path d="M20.6227 17.6534C20.2996 18.3999 19.917 19.0872 19.4738 19.719C18.8697 20.5804 18.3751 21.1766 17.9938 21.5077C17.4029 22.0511 16.7698 22.3294 16.0917 22.3453C15.605 22.3453 15.018 22.2068 14.3348 21.9258C13.6492 21.6462 13.0192 21.5077 12.4432 21.5077C11.8391 21.5077 11.1911 21.6462 10.4981 21.9258C9.80402 22.2068 9.24486 22.3532 8.81735 22.3677C8.16718 22.3954 7.51913 22.1092 6.87226 21.5077C6.45939 21.1476 5.94297 20.5302 5.32433 19.6557C4.66057 18.7218 4.11488 17.6388 3.68737 16.4042C3.22952 15.0706 3 13.7793 3 12.529C3 11.0969 3.30945 9.86176 3.92928 8.82669C4.41642 7.99528 5.06447 7.33944 5.87557 6.85798C6.68666 6.37652 7.56305 6.13117 8.50685 6.11548C9.02326 6.11548 9.70047 6.27522 10.542 6.58915C11.3812 6.90415 11.9201 7.06389 12.1563 7.06389C12.3329 7.06389 12.9315 6.87711 13.9463 6.50473C14.9059 6.1594 15.7158 6.01641 16.3793 6.07274C18.1772 6.21784 19.5279 6.92657 20.4262 8.20343C18.8183 9.17769 18.0229 10.5423 18.0387 12.2928C18.0532 13.6563 18.5479 14.791 19.52 15.6919C19.9606 16.11 20.4526 16.4332 21 16.6627C20.8813 17.007 20.756 17.3368 20.6227 17.6534V17.6534ZM16.4993 1.42751C16.4993 2.49623 16.1089 3.49409 15.3306 4.4177C14.3915 5.5157 13.2555 6.15017 12.0236 6.05005C12.0079 5.92184 11.9988 5.7869 11.9988 5.6451C11.9988 4.61913 12.4454 3.52114 13.2386 2.62338C13.6346 2.16883 14.1382 1.79088 14.7489 1.48938C15.3583 1.19237 15.9348 1.02813 16.4769 1C16.4927 1.14287 16.4993 1.28575 16.4993 1.4275V1.42751Z" fill="white"/>
</svg>
