<svg width="270" height="256" viewBox="0 0 270 256" fill="none" xmlns="http://www.w3.org/2000/svg">
<path fill-rule="evenodd" clip-rule="evenodd" d="M102.948 162.635C106.494 162.635 109.401 160.953 109.401 158.888C109.401 156.824 106.509 155.142 102.948 155.142C99.4013 155.142 96.4943 156.824 96.4943 158.888C96.5095 160.953 99.4013 162.635 102.948 162.635Z" fill="#E6E6E6"/>
<path fill-rule="evenodd" clip-rule="evenodd" d="M80.5286 175.636C84.0748 175.636 86.9818 173.954 86.9818 171.89C86.9818 169.825 84.09 168.143 80.5286 168.143C76.9823 168.143 74.0753 169.825 74.0753 171.89C74.0753 173.954 76.9823 175.636 80.5286 175.636Z" fill="#E6E6E6"/>
<path d="M58.0943 188.645C61.6583 188.645 64.5476 186.968 64.5476 184.899C64.5476 182.83 61.6583 181.153 58.0943 181.153C54.5302 181.153 51.641 182.83 51.641 184.899C51.641 186.968 54.5302 188.645 58.0943 188.645Z" fill="#E6E6E6"/>
<path fill-rule="evenodd" clip-rule="evenodd" d="M125.382 149.624C128.928 149.624 131.835 147.942 131.835 145.877C131.835 143.813 128.944 142.131 125.382 142.131C121.836 142.131 118.929 143.813 118.929 145.877C118.929 147.942 121.821 149.624 125.382 149.624Z" fill="#E6E6E6"/>
<path fill-rule="evenodd" clip-rule="evenodd" d="M156.264 74.851C144.27 65.5541 143.083 46.2418 150.708 43.1836C154.163 41.7921 156.248 42.8013 157.451 44.1163C162.595 40.3854 170.525 38 179.413 38C194.938 38 207.525 45.2937 207.525 54.3001C207.525 54.6212 207.509 54.9423 207.479 55.2481H207.525C207.525 55.2481 207.22 57.9699 206.2 62.0984C208.377 61.655 211.695 61.6244 213.871 64.7284C215.195 66.6398 215.18 69.1934 214.145 71.9304C211.619 78.5514 203.126 86.1968 193.4 88.154C191.574 90.2336 189.535 92.1755 187.236 93.9187C187.236 94.0869 187.221 94.2551 187.191 94.4233V97.3744C192.609 98.9952 196.307 102.283 196.307 106.06V110.326C196.307 115.723 188.758 120.112 179.444 120.112C170.129 120.112 162.58 115.739 162.58 110.326V106.06C162.58 102.283 166.263 99.0105 171.651 97.3897V93.9187C171.59 93.934 162.352 88.6586 156.264 74.851ZM205.105 65.9823C203.233 72.1751 199.975 80.0499 194.496 86.8084C204.861 82.9093 210.538 73.6583 209.579 69.0863C209.092 66.7468 207.114 66.0587 205.105 65.9823ZM153.235 48.3213C152.428 48.4131 151.652 48.7801 150.967 49.5446C147.847 53.0462 148.182 64.0098 155.335 72.6032C152.885 66.3187 149.019 54.5141 153.235 48.3213Z" fill="white"/>
<path fill-rule="evenodd" clip-rule="evenodd" d="M143.814 187.574C147.36 187.574 150.267 185.892 150.267 183.828C150.267 181.763 147.375 180.081 143.814 180.081C140.252 180.081 137.36 181.763 137.36 183.828C137.36 185.892 140.252 187.574 143.814 187.574Z" fill="#E6E6E6"/>
<path d="M121.379 200.59C124.944 200.59 127.833 198.913 127.833 196.844C127.833 194.775 124.944 193.098 121.379 193.098C117.815 193.098 114.926 194.775 114.926 196.844C114.926 198.913 117.815 200.59 121.379 200.59Z" fill="#E6E6E6"/>
<path fill-rule="evenodd" clip-rule="evenodd" d="M98.9602 213.6C102.506 213.6 105.414 211.918 105.414 209.853C105.414 207.789 102.522 206.107 98.9602 206.107C95.3988 206.107 92.507 207.789 92.507 209.853C92.507 211.918 95.414 213.6 98.9602 213.6Z" fill="#E6E6E6"/>
<path fill-rule="evenodd" clip-rule="evenodd" d="M166.233 174.578C169.779 174.578 172.686 172.896 172.686 170.831C172.686 168.767 169.794 167.085 166.233 167.085C162.686 167.085 159.779 168.767 159.779 170.831C159.795 172.896 162.686 174.578 166.233 174.578Z" fill="#E6E6E6"/>
<path d="M193.994 169.199C217.194 169.199 236.001 158.287 236.001 144.826C236.001 131.365 217.194 120.452 193.994 120.452C170.794 120.452 151.987 131.365 151.987 144.826C151.987 158.287 170.794 169.199 193.994 169.199Z" fill="#E6E6E6"/>
<path fill-rule="evenodd" clip-rule="evenodd" d="M223.003 129.744C223.003 133.384 223.003 133.307 223.003 137.008C223.003 150.464 204.191 161.381 180.996 161.381C157.801 161.381 138.989 150.464 138.989 137.008V129.637C138.989 124.515 141.713 119.775 146.371 115.845C148.09 111.319 152.382 107.343 158.303 104.469C162.762 99.8661 171.255 96.7621 181.011 96.7621C190.752 96.7621 199.245 99.8661 203.72 104.469C209.655 107.343 213.932 111.304 215.652 115.845C220.309 119.76 223.034 124.515 223.034 129.637C223.003 129.683 223.003 129.714 223.003 129.744Z" fill="white"/>
<path d="M220.736 126.796C224.105 124.69 225.137 120.24 223.042 116.855C220.946 113.471 216.516 112.434 213.147 114.539C209.779 116.645 208.746 121.095 210.842 124.479C212.938 127.864 217.368 128.901 220.736 126.796Z" fill="#91B6FF"/>
<path fill-rule="evenodd" clip-rule="evenodd" d="M223.216 129.976C225.728 129.976 227.782 127.912 227.782 125.389C227.782 122.866 225.728 120.802 223.216 120.802C220.705 120.802 218.65 122.866 218.65 125.389C218.65 127.927 220.705 129.976 223.216 129.976Z" fill="#91B6FF"/>
<path fill-rule="evenodd" clip-rule="evenodd" d="M227.478 117.45C228.406 117.74 228.741 118.673 228.223 119.529C227.706 120.385 226.534 120.86 225.59 120.569C224.662 120.278 224.327 119.346 224.845 118.489C225.377 117.618 226.549 117.159 227.478 117.45Z" fill="#91B6FF"/>
<path d="M224.735 133.772C226.146 133.542 227.105 132.208 226.876 130.79C226.648 129.373 225.32 128.41 223.909 128.639C222.498 128.869 221.54 130.203 221.768 131.621C221.996 133.038 223.325 134.001 224.735 133.772Z" fill="#91B6FF"/>
<path fill-rule="evenodd" clip-rule="evenodd" d="M149.262 79.3488C146.02 82.9268 145.914 87.7129 150.465 91.1227C151.5 90.8628 156.492 84.4712 149.262 79.3488Z" fill="#FFC369"/>
<path fill-rule="evenodd" clip-rule="evenodd" d="M139.156 87.8494C143.235 85.2805 147.953 86.0145 150.48 91.1064C150.038 92.085 142.9 95.9077 139.156 87.8494Z" fill="#FFC369"/>
<path fill-rule="evenodd" clip-rule="evenodd" d="M143.752 70.7975C139.78 73.5345 138.577 78.1677 142.215 82.5255C143.265 82.5255 149.612 77.4643 143.752 70.7975Z" fill="#FFC369"/>
<path fill-rule="evenodd" clip-rule="evenodd" d="M131.942 76.7333C136.508 75.1737 140.922 76.9933 142.2 82.5439C141.576 83.3849 133.738 85.4338 131.942 76.7333Z" fill="#FFC369"/>
<path fill-rule="evenodd" clip-rule="evenodd" d="M140.267 60.7962C135.731 62.4324 133.403 66.6068 135.823 71.7445C136.842 72.035 144.254 68.7322 140.267 60.7962Z" fill="#FFC369"/>
<path fill-rule="evenodd" clip-rule="evenodd" d="M127.36 63.5333C132.17 63.1816 135.975 66.0715 135.823 71.7597C134.986 72.4173 126.888 72.4173 127.36 63.5333Z" fill="#FFC369"/>
<path fill-rule="evenodd" clip-rule="evenodd" d="M132.216 51.6384C136.234 54.299 137.512 58.9169 133.935 63.3359C132.885 63.3665 126.462 58.397 132.216 51.6384Z" fill="#FFC369"/>
<path fill-rule="evenodd" clip-rule="evenodd" d="M56.5877 146.962C56.6334 146.977 71.7773 152.008 78.6872 134.271L79.0829 134.424L79.2047 134.011C79.2503 134.026 94.3942 139.057 101.304 121.319L101.7 121.472L101.822 121.059C101.867 121.075 117.011 126.105 123.921 108.368L124.713 108.674C118.153 125.509 104.379 122.634 101.943 121.977C95.3227 138.415 81.7464 135.571 79.3264 134.913C72.0665 152.972 56.3746 147.757 56.329 147.742L56.5877 146.962Z" fill="white"/>
<path d="M56.5575 187.547C60.1216 187.547 63.0108 185.869 63.0108 183.8C63.0108 181.731 60.1216 180.054 56.5575 180.054C52.9935 180.054 50.1042 181.731 50.1042 183.8C50.1042 185.869 52.9935 187.547 56.5575 187.547Z" fill="#41366E"/>
<path fill-rule="evenodd" clip-rule="evenodd" d="M56.5576 185.038C59.0536 185.038 61.1083 183.861 61.1083 182.408C61.1083 180.956 59.0689 179.778 56.5576 179.778C54.0463 179.778 52.0068 180.956 52.0068 182.408C52.0068 183.861 54.0463 185.038 56.5576 185.038Z" fill="#6C5F9E"/>
<path fill-rule="evenodd" clip-rule="evenodd" d="M58.5206 182.133C58.551 182.21 58.5663 182.301 58.5663 182.393C58.5663 182.485 58.551 182.577 58.5206 182.653C58.3227 183.173 57.5161 183.57 56.542 183.57C55.5831 183.57 54.7765 183.173 54.5634 182.653H54.5177V182.393V149.518C53.1175 147.82 54.0611 145.206 56.542 145.206C59.0229 145.206 59.9817 147.897 58.5206 149.579V182.133Z" fill="#6C5F9E"/>
<path fill-rule="evenodd" clip-rule="evenodd" d="M78.9764 174.532C82.5227 174.532 85.4297 172.85 85.4297 170.786C85.4297 168.722 82.5379 167.04 78.9764 167.04C75.4302 167.04 72.5231 168.722 72.5231 170.786C72.5384 172.85 75.4302 174.532 78.9764 174.532Z" fill="#41366E"/>
<path d="M78.9764 172.024C81.4898 172.024 83.5272 170.846 83.5272 169.394C83.5272 167.941 81.4898 166.764 78.9764 166.764C76.4631 166.764 74.4257 167.941 74.4257 169.394C74.4257 170.846 76.4631 172.024 78.9764 172.024Z" fill="#6C5F9E"/>
<path fill-rule="evenodd" clip-rule="evenodd" d="M80.9551 169.133C80.9855 169.21 81.0008 169.302 81.0008 169.393C81.0008 169.485 80.9855 169.577 80.9551 169.653C80.7572 170.173 79.9506 170.571 78.9765 170.571C78.0176 170.571 77.211 170.173 76.9979 169.653H76.9522V169.393V136.518C75.552 134.821 76.4956 132.206 78.9765 132.206C81.4574 132.206 82.4162 134.897 80.9551 136.579V169.133Z" fill="#6C5F9E"/>
<path fill-rule="evenodd" clip-rule="evenodd" d="M123.83 148.523C127.376 148.523 130.283 146.841 130.283 144.777C130.283 142.713 127.391 141.031 123.83 141.031C120.284 141.031 117.377 142.713 117.377 144.777C117.377 146.841 120.284 148.523 123.83 148.523Z" fill="#41366E"/>
<path d="M123.83 146C126.343 146 128.381 144.822 128.381 143.37C128.381 141.917 126.343 140.74 123.83 140.74C121.317 140.74 119.279 141.917 119.279 143.37C119.279 144.822 121.317 146 123.83 146Z" fill="#6C5F9E"/>
<path fill-rule="evenodd" clip-rule="evenodd" d="M125.793 143.109C125.824 143.186 125.839 143.278 125.839 143.369C125.839 143.461 125.824 143.553 125.793 143.629C125.595 144.149 124.789 144.547 123.815 144.547C122.856 144.547 122.049 144.149 121.836 143.629H121.79V143.369V110.494C120.39 108.797 121.334 106.182 123.815 106.182C126.295 106.182 127.254 108.873 125.793 110.555V143.109Z" fill="#6C5F9E"/>
<path fill-rule="evenodd" clip-rule="evenodd" d="M101.395 161.537C104.942 161.537 107.849 159.855 107.849 157.791C107.849 155.726 104.957 154.044 101.395 154.044C97.834 154.044 94.9422 155.726 94.9422 157.791C94.9574 159.855 97.8492 161.537 101.395 161.537Z" fill="#41366E"/>
<path fill-rule="evenodd" clip-rule="evenodd" d="M101.396 159.012C103.892 159.012 105.946 157.835 105.946 156.382C105.946 154.929 103.907 153.752 101.396 153.752C98.8994 153.752 96.8447 154.929 96.8447 156.382C96.8447 157.835 98.8994 159.012 101.396 159.012Z" fill="#6C5F9E"/>
<path fill-rule="evenodd" clip-rule="evenodd" d="M103.374 156.123C103.405 156.2 103.42 156.291 103.42 156.383C103.42 156.475 103.405 156.567 103.374 156.643C103.176 157.163 102.37 157.56 101.396 157.56C100.437 157.56 99.6301 157.163 99.417 156.643H99.3713V156.383V123.508C97.9711 121.81 98.9147 119.196 101.396 119.196C103.876 119.196 104.835 121.887 103.374 123.569V156.123Z" fill="#6C5F9E"/>
<path fill-rule="evenodd" clip-rule="evenodd" d="M165.213 160.879L84.4404 207.73L57.0596 191.721L141.394 142.805L165.213 160.879Z" fill="#FFBF59"/>
<path fill-rule="evenodd" clip-rule="evenodd" d="M182.822 118.233C199.047 118.233 213.11 123.57 220.111 131.368H224.83C224.83 135.114 224.83 134.992 224.83 138.738C224.83 152.194 206.018 163.112 182.822 163.112C159.627 163.112 140.815 152.194 140.815 138.738V131.368H145.533C152.535 123.57 166.598 118.233 182.822 118.233Z" fill="#41366E"/>
<path fill-rule="evenodd" clip-rule="evenodd" d="M165.213 160.881C152.839 157.563 143.722 150.851 141.393 142.808V135.437L167.511 148.129L165.213 153.511V160.881Z" fill="#FF983D"/>
<path d="M182.822 155.758C206.022 155.758 224.83 144.845 224.83 131.384C224.83 117.923 206.022 107.011 182.822 107.011C159.622 107.011 140.815 117.923 140.815 131.384C140.815 144.845 159.622 155.758 182.822 155.758Z" fill="#6C5F9E"/>
<path fill-rule="evenodd" clip-rule="evenodd" d="M165.213 153.508C152.839 150.19 143.722 143.477 141.393 135.434L147.847 131.688L169.398 144.242L174.33 148.202L165.213 153.508Z" fill="#FFC369"/>
<path fill-rule="evenodd" clip-rule="evenodd" d="M182.822 110.921C196.52 110.921 208.392 115.417 214.313 122.022H218.3C218.3 125.188 218.3 125.081 218.3 128.23C218.3 139.592 202.426 148.797 182.838 148.797C163.249 148.797 147.375 139.592 147.375 128.23V122.022H151.363C157.253 115.432 169.124 110.921 182.822 110.921Z" fill="#41366E"/>
<path fill-rule="evenodd" clip-rule="evenodd" d="M174.344 148.216C160.692 146.274 150.16 139.745 147.846 131.61V125.402L153.021 126.87L174.36 142.008V148.216H174.344Z" fill="#FF983D"/>
<path d="M182.822 142.588C202.408 142.588 218.285 133.381 218.285 122.022C218.285 110.664 202.408 101.456 182.822 101.456C163.237 101.456 147.36 110.664 147.36 122.022C147.36 133.381 163.237 142.588 182.822 142.588Z" fill="#6C5F9E"/>
<path fill-rule="evenodd" clip-rule="evenodd" d="M174.344 141.992C160.692 140.051 150.16 133.521 147.846 125.387L156.796 120.188L182.837 131.365L186.094 135.173L174.344 141.992Z" fill="#FFC369"/>
<path fill-rule="evenodd" clip-rule="evenodd" d="M182.822 105.099C193.126 105.099 202.045 108.57 206.261 113.616H208.864V120.206C208.864 128.555 197.205 135.314 182.822 135.314C168.439 135.314 156.781 128.555 156.781 120.206V113.616H159.383C163.615 108.585 172.518 105.099 182.822 105.099Z" fill="#41366E"/>
<path fill-rule="evenodd" clip-rule="evenodd" d="M186.079 135.191C185.014 135.267 183.933 135.313 182.822 135.313C168.439 135.313 156.781 128.554 156.781 120.206V113.615H159.383C159.52 113.447 159.673 113.279 159.825 113.111L180.828 126.2L186.079 128.615V135.191Z" fill="#FF983D"/>
<path d="M182.822 128.721C197.205 128.721 208.864 121.957 208.864 113.614C208.864 105.27 197.205 98.5063 182.822 98.5063C168.44 98.5063 156.781 105.27 156.781 113.614C156.781 121.957 168.44 128.721 182.822 128.721Z" fill="#6C5F9E"/>
<path fill-rule="evenodd" clip-rule="evenodd" d="M182.822 100.203C194.77 100.203 204.45 105.815 204.45 112.757C204.45 116.044 202.273 119.026 198.712 121.274L198.682 121.289C198.301 121.518 197.921 121.748 197.51 121.962L186.064 128.598C184.999 128.674 183.918 128.72 182.807 128.72C168.424 128.72 156.766 121.962 156.766 113.613C156.766 112.864 156.857 112.114 157.055 111.381L162.701 108.108C165.898 103.475 173.706 100.203 182.822 100.203Z" fill="#FFC369"/>
<path fill-rule="evenodd" clip-rule="evenodd" d="M160.084 77.2046C147.862 67.9689 146.614 48.4271 154.285 45.3537C157.74 43.9622 159.825 44.9714 161.027 46.2864C159.277 47.5556 157.861 48.9623 156.811 50.4914C156.005 50.5832 155.228 50.9501 154.543 51.7147C151.302 55.3539 151.789 67.0361 159.779 75.7672L160.068 76.8223L159.855 76.6694C159.901 76.7305 159.962 76.7764 160.007 76.8376L160.084 77.2046Z" fill="#FFC369"/>
<path fill-rule="evenodd" clip-rule="evenodd" d="M182.975 102.724C189.656 102.724 195.425 104.972 198.164 108.244H199.854V112.51C199.854 117.908 192.304 122.296 182.99 122.296C173.675 122.296 166.126 117.923 166.126 112.51V108.244H167.816C170.525 104.972 176.293 102.724 182.975 102.724Z" fill="#FF983D"/>
<path d="M182.975 118.018C192.288 118.018 199.838 113.636 199.838 108.232C199.838 102.827 192.288 98.4455 182.975 98.4455C173.661 98.4455 166.111 102.827 166.111 108.232C166.111 113.636 173.661 118.018 182.975 118.018Z" fill="#FFC369"/>
<path d="M182.975 72.7714C198.5 72.7714 211.086 65.4736 211.086 56.4713C211.086 47.4691 198.5 40.1713 182.975 40.1713C167.449 40.1713 154.863 47.4691 154.863 56.4713C154.863 65.4736 167.449 72.7714 182.975 72.7714Z" fill="#FFC369"/>
<path fill-rule="evenodd" clip-rule="evenodd" d="M211.04 57.4198H211.086C211.086 57.4198 208.224 82.9556 190.767 96.0904C190.767 96.2586 190.752 96.4268 190.721 96.595V103.659C190.721 107.834 187.327 111.244 183.172 111.244H182.7C178.545 111.244 175.151 107.834 175.151 103.659V96.0751C175.151 96.0751 157.892 86.2278 155 58.215C156.507 66.3956 168.439 72.7566 182.944 72.7566C197.951 72.7719 210.188 65.9827 211.04 57.4198Z" fill="#FFC369"/>
<path d="M182.974 70.174C196.029 70.174 206.611 64.0401 206.611 56.4734C206.611 48.9068 196.029 42.7728 182.974 42.7728C169.92 42.7728 159.338 48.9068 159.338 56.4734C159.338 64.0401 169.92 70.174 182.974 70.174Z" fill="#FF983D"/>
<path fill-rule="evenodd" clip-rule="evenodd" d="M198.468 66.8264C194.313 68.9213 188.91 70.1751 182.974 70.1751C177.039 70.1751 171.636 68.906 167.48 66.8264C164.528 64.7927 162.762 62.1627 162.762 59.3033C162.762 52.8353 171.818 47.5752 182.974 47.5752C194.131 47.5752 203.187 52.82 203.187 59.3033C203.187 62.1627 201.406 64.7774 198.468 66.8264Z" fill="#E0692D"/>
<path fill-rule="evenodd" clip-rule="evenodd" d="M195.683 90.5529C205.942 89.0391 215.058 81.0114 217.691 74.0999C218.726 71.3628 218.757 68.8093 217.417 66.8979C213.963 61.959 207.585 64.9407 207.585 64.9407L203.933 67.6013V68.8399C203.933 68.8399 212.09 66.1487 213.156 71.2405C214.16 76.0113 207.92 85.8892 196.657 89.4519L195.881 90.2165L196.14 90.1859C196.064 90.2012 195.988 90.2318 195.927 90.2471L195.683 90.5529Z" fill="#FFC369"/>
<path fill-rule="evenodd" clip-rule="evenodd" d="M97.1492 172.271C97.1948 172.286 112.339 177.317 119.249 159.58L119.644 159.732L119.766 159.32C119.812 159.335 134.956 164.366 141.866 146.628L142.261 146.781L142.383 146.368C142.429 146.383 157.573 151.414 164.483 133.677L165.274 133.983C158.714 150.818 144.94 147.943 142.505 147.286C135.884 163.723 122.308 160.879 119.888 160.222C112.628 178.28 96.9361 173.066 96.8904 173.051L97.1492 172.271Z" fill="white"/>
<path fill-rule="evenodd" clip-rule="evenodd" d="M97.1185 212.835C100.665 212.835 103.572 211.153 103.572 209.089C103.572 207.025 100.68 205.343 97.1185 205.343C93.5722 205.343 90.6652 207.025 90.6652 209.089C90.6804 211.153 93.5722 212.835 97.1185 212.835Z" fill="#41366E"/>
<path d="M97.1185 210.327C99.6319 210.327 101.669 209.149 101.669 207.697C101.669 206.244 99.6319 205.067 97.1185 205.067C94.6052 205.067 92.5677 206.244 92.5677 207.697C92.5677 209.149 94.6052 210.327 97.1185 210.327Z" fill="#6C5F9E"/>
<path fill-rule="evenodd" clip-rule="evenodd" d="M99.0972 207.436C99.1277 207.513 99.1429 207.605 99.1429 207.696C99.1429 207.788 99.1277 207.865 99.0972 207.956C98.8994 208.476 98.0927 208.874 97.1186 208.874C96.1445 208.874 95.3531 208.476 95.14 207.956H95.0943V207.696V174.821C93.6941 173.124 94.6377 170.509 97.1186 170.509C99.5995 170.509 100.558 173.2 99.0972 174.882V207.436Z" fill="#6C5F9E"/>
<path fill-rule="evenodd" clip-rule="evenodd" d="M119.552 199.826C123.099 199.826 126.006 198.144 126.006 196.08C126.006 194.016 123.114 192.334 119.552 192.334C116.006 192.334 113.099 194.016 113.099 196.08C113.099 198.159 116.006 199.826 119.552 199.826Z" fill="#41366E"/>
<path fill-rule="evenodd" clip-rule="evenodd" d="M119.553 197.318C122.049 197.318 124.104 196.14 124.104 194.688C124.104 193.235 122.064 192.058 119.553 192.058C117.057 192.058 115.002 193.235 115.002 194.688C115.002 196.14 117.041 197.318 119.553 197.318Z" fill="#6C5F9E"/>
<path fill-rule="evenodd" clip-rule="evenodd" d="M121.516 194.427C121.546 194.504 121.561 194.595 121.561 194.687C121.561 194.779 121.546 194.871 121.516 194.947C121.318 195.467 120.511 195.865 119.537 195.865C118.578 195.865 117.772 195.467 117.559 194.947H117.513V194.687V161.812C116.113 160.114 117.056 157.5 119.537 157.5C122.018 157.5 122.977 160.191 121.516 161.873V194.427Z" fill="#6C5F9E"/>
<path fill-rule="evenodd" clip-rule="evenodd" d="M164.406 173.815C167.952 173.815 170.859 172.133 170.859 170.069C170.859 168.005 167.968 166.323 164.406 166.323C160.845 166.323 157.953 168.005 157.953 170.069C157.953 172.133 160.845 173.815 164.406 173.815Z" fill="#41366E"/>
<path fill-rule="evenodd" clip-rule="evenodd" d="M164.406 171.307C166.902 171.307 168.957 170.129 168.957 168.677C168.957 167.224 166.917 166.047 164.406 166.047C161.91 166.047 159.855 167.224 159.855 168.677C159.855 170.114 161.895 171.307 164.406 171.307Z" fill="#6C5F9E"/>
<path fill-rule="evenodd" clip-rule="evenodd" d="M166.369 168.416C166.4 168.493 166.415 168.584 166.415 168.676C166.415 168.768 166.4 168.86 166.369 168.936C166.172 169.456 165.365 169.853 164.391 169.853C163.432 169.853 162.625 169.456 162.412 168.936H162.366V168.676V135.801C160.966 134.103 161.91 131.489 164.391 131.489C166.872 131.489 167.83 134.18 166.369 135.862V168.416Z" fill="#6C5F9E"/>
<path fill-rule="evenodd" clip-rule="evenodd" d="M141.972 186.826C145.518 186.826 148.425 185.144 148.425 183.08C148.425 181.015 145.533 179.333 141.972 179.333C138.41 179.333 135.518 181.015 135.518 183.08C135.518 185.144 138.426 186.826 141.972 186.826Z" fill="#41366E"/>
<path d="M141.972 184.303C144.485 184.303 146.523 183.125 146.523 181.673C146.523 180.22 144.485 179.043 141.972 179.043C139.458 179.043 137.421 180.22 137.421 181.673C137.421 183.125 139.458 184.303 141.972 184.303Z" fill="#6C5F9E"/>
<path fill-rule="evenodd" clip-rule="evenodd" d="M143.95 181.412C143.981 181.489 143.996 181.58 143.996 181.672C143.996 181.764 143.981 181.84 143.95 181.932C143.753 182.452 142.946 182.849 141.972 182.849C141.013 182.849 140.206 182.452 139.993 181.932H139.948V181.672V148.797C138.547 147.099 139.491 144.485 141.972 144.485C144.453 144.485 145.412 147.176 143.95 148.858V181.412Z" fill="#6C5F9E"/>
<path fill-rule="evenodd" clip-rule="evenodd" d="M140.496 145.341C141.028 144.99 141.607 145.005 141.774 145.356C141.941 145.723 141.637 146.289 141.104 146.641C140.572 146.993 139.993 146.977 139.826 146.626C139.658 146.259 139.963 145.693 140.496 145.341Z" fill="#9387C4"/>
<path fill-rule="evenodd" clip-rule="evenodd" d="M162.839 132.406C163.371 132.054 163.935 132.039 164.117 132.406C164.285 132.757 164.011 133.338 163.478 133.705C162.945 134.057 162.382 134.072 162.2 133.705C162.017 133.338 162.306 132.773 162.839 132.406Z" fill="#9387C4"/>
<path fill-rule="evenodd" clip-rule="evenodd" d="M117.65 158.811C118.076 158.337 118.639 158.2 118.883 158.505C119.142 158.811 118.989 159.438 118.563 159.912C118.137 160.386 117.574 160.524 117.331 160.218C117.072 159.912 117.209 159.285 117.65 158.811Z" fill="#9387C4"/>
<path fill-rule="evenodd" clip-rule="evenodd" d="M95.3074 171.61C95.7336 171.136 96.2967 170.999 96.5402 171.305C96.799 171.61 96.6468 172.237 96.2206 172.711C95.7944 173.185 95.2313 173.323 94.9725 173.017C94.729 172.711 94.8812 172.084 95.3074 171.61Z" fill="#9387C4"/>
<path fill-rule="evenodd" clip-rule="evenodd" d="M99.9188 120.068C100.452 119.716 101.03 119.731 101.197 120.083C101.365 120.45 101.06 121.016 100.528 121.368C99.9949 121.719 99.4166 121.704 99.2491 121.352C99.0817 120.985 99.3861 120.42 99.9188 120.068Z" fill="#9387C4"/>
<path fill-rule="evenodd" clip-rule="evenodd" d="M122.262 107.131C122.795 106.779 123.358 106.764 123.541 107.131C123.708 107.482 123.434 108.063 122.901 108.43C122.369 108.782 121.805 108.797 121.623 108.43C121.44 108.063 121.729 107.482 122.262 107.131Z" fill="#9387C4"/>
<path fill-rule="evenodd" clip-rule="evenodd" d="M77.0739 133.536C77.5001 133.062 78.0632 132.924 78.3219 133.23C78.5807 133.536 78.4285 134.163 78.0023 134.637C77.5762 135.111 77.013 135.249 76.7695 134.943C76.4955 134.637 76.6325 134.01 77.0739 133.536Z" fill="#9387C4"/>
<path fill-rule="evenodd" clip-rule="evenodd" d="M54.7306 146.319C55.1567 145.845 55.7199 145.707 55.9634 146.013C56.2221 146.319 56.0699 146.946 55.6438 147.42C55.2176 147.894 54.6545 148.032 54.411 147.726C54.1522 147.435 54.3044 146.793 54.7306 146.319Z" fill="#9387C4"/>
<path fill-rule="evenodd" clip-rule="evenodd" d="M219.898 79.3475C223.14 82.9255 223.247 87.7116 218.696 91.1214C217.661 90.8615 212.669 84.4699 219.898 79.3475Z" fill="#FFC369"/>
<path fill-rule="evenodd" clip-rule="evenodd" d="M230.02 87.8514C225.941 85.2825 221.223 86.0165 218.696 91.1083C219.122 92.0869 226.276 95.9096 230.02 87.8514Z" fill="#FFC369"/>
<path fill-rule="evenodd" clip-rule="evenodd" d="M225.423 70.7955C229.396 73.5325 230.598 78.1657 226.96 82.5236C225.895 82.5236 219.564 77.4623 225.423 70.7955Z" fill="#FFC369"/>
<path fill-rule="evenodd" clip-rule="evenodd" d="M237.219 76.7287C232.653 75.1691 228.239 76.9887 226.96 82.5392C227.6 83.3802 235.438 85.4292 237.219 76.7287Z" fill="#FFC369"/>
<path fill-rule="evenodd" clip-rule="evenodd" d="M228.909 60.7981C233.444 62.4342 235.773 66.6087 233.353 71.7464C232.318 72.0369 224.921 68.7341 228.909 60.7981Z" fill="#FFC369"/>
<path fill-rule="evenodd" clip-rule="evenodd" d="M241.815 63.5329C237.006 63.1812 233.201 66.0712 233.353 71.7594C234.175 72.4169 242.272 72.4169 241.815 63.5329Z" fill="#FFC369"/>
<path fill-rule="evenodd" clip-rule="evenodd" d="M236.945 51.6384C232.927 54.299 231.648 58.9169 235.225 63.3359C236.291 63.3665 242.698 58.397 236.945 51.6384Z" fill="#FFC369"/>
<path d="M141.759 113.198C142.885 113.198 143.798 112.28 143.798 111.149C143.798 110.017 142.885 109.1 141.759 109.1C140.632 109.1 139.719 110.017 139.719 111.149C139.719 112.28 140.632 113.198 141.759 113.198Z" fill="white"/>
<path d="M147.497 107.925C148.052 107.925 148.501 107.474 148.501 106.916C148.501 106.359 148.052 105.907 147.497 105.907C146.942 105.907 146.492 106.359 146.492 106.916C146.492 107.474 146.942 107.925 147.497 107.925Z" fill="white"/>
<path fill-rule="evenodd" clip-rule="evenodd" d="M207.677 103.137C208.727 103.137 209.579 102.281 209.579 101.226C209.579 100.171 208.727 99.3143 207.677 99.3143C206.626 99.3143 205.774 100.171 205.774 101.226C205.774 102.281 206.626 103.137 207.677 103.137Z" fill="white"/>
<path d="M219.327 56.2651C219.936 54.8001 219.247 53.1163 217.789 52.5045C216.331 51.8926 214.655 52.5843 214.046 54.0493C213.437 55.5144 214.125 57.1981 215.583 57.81C217.042 58.4219 218.718 57.7302 219.327 56.2651Z" fill="white"/>
<path fill-rule="evenodd" clip-rule="evenodd" d="M209.64 46.4415C210.599 46.4415 211.375 45.6616 211.375 44.6983C211.375 43.735 210.599 42.9551 209.64 42.9551C208.681 42.9551 207.905 43.735 207.905 44.6983C207.905 45.6616 208.681 46.4415 209.64 46.4415Z" fill="white"/>
<path fill-rule="evenodd" clip-rule="evenodd" d="M37.2886 158.123C37.2886 158.123 28.5675 139.055 49.2972 129.621L115.565 94.8189L121.014 97.9841C121.349 98.1676 121.714 98.1829 122.049 97.9994C122.384 97.8312 122.597 97.5101 122.627 97.1278L123.601 85.889C123.632 85.5832 123.54 85.308 123.327 85.0786C123.114 84.8493 122.855 84.7269 122.551 84.7269L105.84 84.467C105.337 84.467 104.926 84.7728 104.789 85.2621C104.652 85.7361 104.865 86.2407 105.292 86.4854L107.362 87.6934L40.9566 120.813C40.9566 120.813 18.3853 129.85 25.3256 150.539L37.2886 158.123Z" fill="white"/>
<path fill-rule="evenodd" clip-rule="evenodd" d="M195.455 98.8578C198.514 100.112 200.614 102.13 201.041 104.668C201.954 109.99 195.242 115.586 186.049 117.161C180.204 118.17 174.771 117.299 171.362 115.158C174.71 116.519 179.245 116.962 184.04 116.136C193.217 114.561 199.929 108.965 199.031 103.644C198.712 101.702 197.418 100.066 195.455 98.8578Z" fill="white"/>
<path fill-rule="evenodd" clip-rule="evenodd" d="M132.992 98.0464L138.228 101.074V102.71L132.992 99.6825V98.0464ZM132.992 101.273V102.909L135.747 104.514V102.878L132.992 101.273Z" fill="#41366E"/>
<path fill-rule="evenodd" clip-rule="evenodd" d="M239.334 95.7855L246.001 99.6541V101.107L239.334 97.2382V95.7855ZM239.334 98.6449V100.098L242.211 101.764V100.312L239.334 98.6449Z" fill="#41366E"/>
<path fill-rule="evenodd" clip-rule="evenodd" d="M235.332 92.4189C233.657 91.5014 232.074 92.1436 231.801 93.8562C231.511 95.5688 232.638 97.6942 234.312 98.6117C235.986 99.5291 237.569 98.8869 237.843 97.1743C238.132 95.4617 237.006 93.3363 235.332 92.4189Z" fill="#41366E"/>
<path fill-rule="evenodd" clip-rule="evenodd" d="M235.179 93.9184C234.494 93.5362 233.84 93.8114 233.718 94.5148C233.596 95.2182 234.068 96.0897 234.753 96.472C235.438 96.8543 236.092 96.579 236.214 95.8757C236.336 95.1723 235.864 94.3007 235.179 93.9184ZM232.47 96.8084C233.048 96.4567 233.855 96.4567 234.677 96.9154C235.468 97.3436 236.108 98.0928 236.488 98.9185C235.864 99.1326 235.088 99.0562 234.296 98.6127C233.566 98.1999 232.927 97.5577 232.47 96.8084Z" fill="white"/>
<path fill-rule="evenodd" clip-rule="evenodd" d="M59.8295 200.709C70.9401 201.229 79.9503 205.449 79.9503 210.128C79.9503 214.807 70.9401 218.186 59.8295 217.666C48.7189 217.146 39.7086 212.926 39.7086 208.247C39.7086 203.553 48.7189 200.189 59.8295 200.709Z" fill="#E6E6E6"/>
<path fill-rule="evenodd" clip-rule="evenodd" d="M68.6572 140.785C67.9266 136.366 67.0134 132.237 64.8065 132.115L58.9012 128.476L58.5511 127.145L58.5968 125.433L61.7625 125.922C64.3651 121.809 63.1932 115.127 63.1323 114.79V114.775C68.1854 112.221 62.8127 101.778 59.86 107.588C48.4298 105.57 44.5335 110.402 48.6885 113.261C44.016 114.806 50.865 121.35 51.3368 125.005V126.824L51.002 128.445C48.4755 129.317 43.8029 132.681 43.8029 132.681C43.6964 132.91 37.7301 146.412 43.529 150.632C44.0008 155.602 44.64 159.287 44.64 159.287C44.64 159.287 47.0143 185.22 45.9185 201.78C46.025 201.857 46.1772 201.948 46.3447 202.055C46.3294 202.361 46.299 202.682 46.2838 202.988C46.2686 203.019 45.5532 203.615 45.8272 204.38C45.2945 205.328 45.1879 207.055 45.3706 208.279C45.3858 208.401 45.6141 208.6 45.6902 208.692L45.9033 208.89C45.9185 208.906 45.9489 208.921 45.9642 208.936L46.3142 209.211L47.0448 209.67L47.6079 209.93L48.1254 210.098C48.1711 210.114 48.2167 210.129 48.2624 210.129C48.3994 210.159 48.5363 210.19 48.6885 210.221L48.9929 210.266C49.0386 210.266 49.0995 210.282 49.1451 210.282C49.1908 210.282 49.2517 210.297 49.2973 210.297L49.967 210.312C50.0279 210.312 50.0888 210.312 50.1497 210.297C50.2105 210.297 50.2714 210.282 50.3323 210.282L51.0933 210.175C52.1891 209.961 53.8786 209.303 54.8983 208.814L56.5573 207.896L56.8312 207.713L57.3031 207.361L57.8053 206.948L58.201 206.581C58.2163 206.551 58.2467 206.536 58.2619 206.505C58.4141 206.352 58.5359 206.199 58.6272 206.077C58.6881 206 58.7337 205.939 58.7642 205.878C58.9773 205.572 58.9773 205.48 59.0229 205.144C59.2664 203.11 58.1554 201.428 55.0505 201.367C54.2591 201.352 53.5133 201.383 52.8132 201.474C53.5742 195.755 55.1266 182.972 55.157 169.914C55.2484 170.021 55.3092 170.082 55.3092 170.082C61.5494 183.446 61.8843 203.89 61.8843 203.89C62.006 204.15 62.1582 204.364 62.3409 204.563V205.129C61.6103 205.572 61.1233 206.199 61.382 206.841C60.8798 207.728 60.7884 209.15 60.8645 210.129L60.9406 210.802V210.817L60.9559 210.848L60.9711 210.863L60.9863 210.878L61.0015 210.909L61.032 210.939L61.0624 210.97L61.0928 211L61.1233 211.031L61.1537 211.077L61.1994 211.123L61.3972 211.306L61.793 211.627L62.7062 212.193L63.2845 212.438L63.9542 212.637L64.7 212.759L65.7045 212.774L66.4503 212.682C66.8764 212.652 67.8657 212.3 67.9266 212.3L69.8443 211.566L71.5185 210.725C72.3556 210.251 73.2232 209.64 73.8776 208.921C73.8929 208.906 73.9233 208.875 73.9385 208.86C73.9537 208.844 73.969 208.814 73.9994 208.799L74.0451 208.737L74.0907 208.676L74.182 208.569L74.2581 208.462L74.2886 208.416L74.319 208.37L74.3495 208.325L74.3799 208.279L74.4103 208.248L74.4256 208.218L74.4408 208.187L74.456 208.156L74.4712 208.126L74.4864 208.08L74.5017 208.049V208.034L74.5778 207.514C74.7452 205.572 73.7102 203.921 70.5901 203.844C69.89 203.829 69.2203 203.86 68.5963 203.921C70.2248 178.095 64.8674 161.58 64.8674 161.58C64.7456 159.547 64.8217 155.969 64.9892 152.024C65.7806 153.247 66.6786 153.981 67.6222 153.874C67.8505 153.843 68.0788 153.813 68.2767 153.767C68.6572 153.629 68.9768 153.43 69.2203 153.186L69.5247 153.079L69.8596 152.91L70.4988 152.406C70.5292 152.375 70.5445 152.36 70.5749 152.329C70.6053 152.299 70.6206 152.268 70.651 152.238C70.6814 152.207 70.6967 152.177 70.7271 152.146C71.9143 150.556 71.9751 144.653 71.9904 142.666L71.9751 140.617C72.8122 139.47 73.5276 137.665 73.5276 137.665C72.6448 135.326 70.6358 135.372 70.6358 135.372C70.6358 135.372 70.6967 134.898 70.4379 134.561C70.164 134.225 69.4638 134.485 69.4638 134.485L69.2203 137.069L68.8703 140.02L68.6572 140.785ZM62.9801 114.836C62.7518 114.928 62.4018 115.066 61.9908 115.188L62.9801 114.836ZM63.1323 114.775L63.0106 114.821H62.9953C63.041 114.806 63.0867 114.79 63.1323 114.775Z" fill="white"/>
<path fill-rule="evenodd" clip-rule="evenodd" d="M69.5397 141.121L69.8897 138.17C69.8897 138.17 72.2184 137.451 74.2122 138.766C74.2122 138.766 73.4969 140.555 72.6598 141.717C71.3965 140.739 69.5549 141.09 69.5549 141.09L69.5397 141.121Z" fill="#FFB199"/>
<path fill-rule="evenodd" clip-rule="evenodd" d="M69.8901 138.17L70.1337 135.586C70.1337 135.586 70.8338 135.326 71.1077 135.663C71.3817 135.999 71.3056 136.473 71.3056 136.473C71.3056 136.473 73.3146 136.427 74.1974 138.767C72.2188 137.452 69.8901 138.17 69.8901 138.17Z" fill="#F58282"/>
<path fill-rule="evenodd" clip-rule="evenodd" d="M66.8917 153.002C66.8917 153.002 66.4351 150.449 66.983 148.813C67.5309 147.177 69.54 141.091 69.54 141.091C69.54 141.091 71.2598 140.617 72.6448 141.718C72.6448 141.718 72.934 151.29 71.3968 153.247C69.8748 155.204 67.3483 154.21 66.8917 153.002Z" fill="white"/>
<path fill-rule="evenodd" clip-rule="evenodd" d="M66.8916 153.003C66.8916 153.003 66.435 150.45 66.9829 148.814C67.4243 147.514 68.7636 143.431 69.3115 141.795C71.1379 141.703 72.1881 142.223 72.6599 142.544C72.6904 144.899 72.6599 151.642 71.3967 153.263C69.8747 155.205 67.3482 154.211 66.8916 153.003Z" fill="#91B6FF"/>
<path fill-rule="evenodd" clip-rule="evenodd" d="M47.4558 204.457C47.4558 204.457 46.4665 204.778 46.1316 206.384C45.7968 207.974 46.0555 209.35 46.0555 209.35C46.0555 209.35 48.2472 212.408 52.7675 210.956C58.5816 209.075 59.6165 206.628 59.6165 206.628C59.6165 206.628 60.7124 202.546 55.7202 202.439C50.7281 202.316 47.4558 204.457 47.4558 204.457Z" fill="#41366E"/>
<path fill-rule="evenodd" clip-rule="evenodd" d="M50.1043 202.819C48.08 202.957 46.4363 203.951 46.4363 205.036C46.4363 206.122 48.08 206.887 50.1043 206.734C52.1286 206.596 53.7723 205.602 53.7723 204.516C53.7723 203.446 52.1286 202.682 50.1043 202.819Z" fill="#41366E"/>
<path fill-rule="evenodd" clip-rule="evenodd" d="M62.9954 206.965C62.9954 206.965 62.0061 207.286 61.6713 208.892C61.3365 210.482 61.5952 211.858 61.5952 211.858C61.5952 211.858 63.7869 214.916 68.3072 213.464C74.1213 211.583 75.1562 209.136 75.1562 209.136C75.1562 209.136 76.2521 205.054 71.2599 204.947C66.2677 204.824 62.9954 206.965 62.9954 206.965Z" fill="#6C5F9E"/>
<path fill-rule="evenodd" clip-rule="evenodd" d="M66.0549 205.331C63.8023 205.468 61.9759 206.462 61.9759 207.548C61.9759 208.634 63.8023 209.398 66.0549 209.245C68.3074 209.108 70.1338 208.114 70.1338 207.028C70.1338 205.942 68.3074 205.193 66.0549 205.331Z" fill="#6C5F9E"/>
<path fill-rule="evenodd" clip-rule="evenodd" d="M44.4575 133.687C44.4575 133.687 38.3391 147.388 44.1836 151.639C43.6661 146.149 43.3921 139.1 44.4575 133.687Z" fill="#618BE0"/>
<path fill-rule="evenodd" clip-rule="evenodd" d="M63.7868 115.784C63.7868 115.784 65.0957 122.726 62.4322 126.931L59.2664 126.441L59.1447 130.662C59.1447 130.662 56.192 132.955 51.9913 130.662V126.013C53.7111 125.554 54.944 125.692 56.5421 126.12C57.4096 124.606 57.6683 123.337 57.6683 121.686C55.7202 122.068 54.5482 120.784 55.0201 119.163C55.4158 117.817 57.851 117.236 58.2771 119.239H58.9316C59.4186 118.811 60.2101 117.037 60.2101 116.716C61.5799 116.686 63.7868 115.784 63.7868 115.784Z" fill="#FFB199"/>
<path fill-rule="evenodd" clip-rule="evenodd" d="M59.1903 129.06L59.1447 130.665C59.1447 130.665 56.192 132.959 51.9913 130.665V128.601C53.2241 129.304 55.5528 130.054 59.1903 129.06Z" fill="#EBA89B"/>
<path fill-rule="evenodd" clip-rule="evenodd" d="M59.2667 126.442L59.2058 128.155L57.3642 126.167L59.2667 126.442Z" fill="#F58282"/>
<path fill-rule="evenodd" clip-rule="evenodd" d="M59.5709 129.482L66.846 133.962C66.846 133.962 65.1566 156.149 65.5523 162.648C65.5523 162.648 51.8543 167.082 45.3097 160.293C45.3097 160.293 42.4179 143.993 44.4574 133.687C44.4574 133.687 49.13 130.323 51.6565 129.451L51.9913 127.831C56.4508 129.298 59.2208 128.152 59.2208 128.152L59.5709 129.482Z" fill="#91B6FF"/>
<path fill-rule="evenodd" clip-rule="evenodd" d="M51.6567 129.471L51.9915 127.85C56.451 129.318 59.221 128.171 59.221 128.171L59.5711 129.502C54.6855 131.061 51.6567 129.471 51.6567 129.471Z" fill="white"/>
<path fill-rule="evenodd" clip-rule="evenodd" d="M45.3098 160.294C45.3098 160.294 47.6841 186.228 46.5882 202.788C47.4406 203.399 49.9062 204.775 53.3764 203.384C54.1374 197.849 56.0246 182.971 55.8268 168.322C55.8116 166.717 55.7202 165.31 55.5833 164.071C51.9152 163.979 48.0037 163.093 45.3098 160.294Z" fill="#41366E"/>
<path fill-rule="evenodd" clip-rule="evenodd" d="M46.9992 203.063C46.9687 203.445 46.9535 203.827 46.9231 204.194C46.7404 206.35 52.0979 206.87 52.2501 204.913C52.2501 204.913 52.311 204.362 52.3718 203.72C49.8605 204.393 47.9733 203.644 46.9992 203.063Z" fill="#F58282"/>
<path fill-rule="evenodd" clip-rule="evenodd" d="M65.5374 162.65C65.5374 162.65 70.9862 179.424 69.2359 205.586C68.1857 206.825 63.9089 207.666 62.5543 204.929C62.5543 204.929 62.2195 184.485 55.9793 171.121C55.9793 171.121 53.5289 168.552 52.3721 163.766C58.6884 164.867 65.5374 162.65 65.5374 162.65Z" fill="#6C5F9E"/>
<path fill-rule="evenodd" clip-rule="evenodd" d="M65.5373 162.65L65.5525 163.047C64.5937 163.536 63.1478 164.148 61.2605 164.699C62.9651 168.613 68.5509 183.522 66.1918 205.112C67.9421 205.174 68.9466 204.485 68.9466 204.485L69.0836 204.7C69.0836 204.7 66.6484 206.397 62.7825 204.424L62.9042 204.195C64.061 204.791 65.0807 205.036 65.933 205.097C68.2921 183.491 62.6759 168.613 61.0017 164.76C58.8861 165.341 56.2074 165.83 53.0112 165.937C52.7677 165.264 52.5394 164.546 52.3568 163.766C55.2486 164.27 58.2621 164.087 60.6669 163.72L60.7734 163.659L60.7886 163.689C63.5891 163.292 65.5373 162.65 65.5373 162.65Z" fill="#41366E"/>
<path fill-rule="evenodd" clip-rule="evenodd" d="M62.9954 205.543V207.194C62.9954 209.197 68.8703 208.601 68.8703 207.194V205.925C67.394 206.797 64.4413 207.271 62.9954 205.543Z" fill="#FFB199"/>
<path fill-rule="evenodd" clip-rule="evenodd" d="M66.6636 136.319C66.3592 140.615 65.7352 149.882 65.5374 156.61C59.5559 148.536 61.7628 136.991 61.7628 136.991L65.0047 136.9C65.583 136.686 66.1309 136.502 66.6636 136.319Z" fill="#41366E"/>
<path fill-rule="evenodd" clip-rule="evenodd" d="M61.7169 139.377C61.7169 139.377 60.9711 133.215 65.3241 133.123C68.6877 133.046 69.1138 142.099 70.3467 147.817C70.4684 148.429 70.6206 148.995 70.7576 149.499C71.0772 151.304 71.1381 154.026 68.9464 154.836C68.7486 154.882 68.5203 154.912 68.292 154.943C64.7153 155.341 61.9756 143.704 61.7169 139.377Z" fill="#91B6FF"/>
<path fill-rule="evenodd" clip-rule="evenodd" d="M51.9915 126.014C51.5349 122.359 44.6859 115.815 49.3432 114.27C45.1881 111.396 49.0844 106.564 60.5147 108.598C63.4674 102.787 68.8552 113.215 63.787 115.784C63.2847 115.983 61.4279 116.702 60.2103 116.732C60.2103 116.748 60.2103 116.778 60.1951 116.809C60.1646 117.099 60.0428 118.185 59.8754 119.423C59.1905 119.469 58.5969 119.393 57.9881 119.301L58.0034 118.598C57.2271 117.42 55.3399 118.017 55.005 119.179C54.5332 120.8 55.7204 122.084 57.6533 121.702C57.6533 123.338 57.3946 124.607 56.527 126.136C54.9441 125.693 53.7113 125.555 51.9915 126.014Z" fill="#41366E"/>
<path fill-rule="evenodd" clip-rule="evenodd" d="M63.9392 116.841C63.8783 116.275 63.8175 115.893 63.8022 115.801C63.8022 115.786 63.8022 115.77 63.8022 115.77C63.8022 115.77 63.2543 116 62.5238 116.229C61.8541 116.443 61.0474 116.657 60.3777 116.703C60.3169 116.703 60.2712 116.703 60.2103 116.718C60.2103 116.734 60.2103 116.764 60.1951 116.795C60.1647 117.085 60.0429 118.171 59.8755 119.41C60.6365 118.523 60.7126 117.208 60.7126 117.208C61.7323 117.315 63.3 117.131 63.9392 116.841Z" fill="#F58282"/>
</svg>
