<svg width="135" height="91" viewBox="0 0 135 91" fill="none" xmlns="http://www.w3.org/2000/svg">
<g filter="url(#filter0_i_3023:81249)">
<ellipse cx="67.5" cy="67" rx="67.5" ry="24" fill="white" fill-opacity="0.87"/>
</g>
<g clip-path="url(#clip0_3023:81249)">
<path d="M105.5 62.5H93C91.6193 62.5 90.5 63.6193 90.5 65V77.5C90.5 78.8807 91.6193 80 93 80H105.5C106.881 80 108 78.8807 108 77.5V65C108 63.6193 106.881 62.5 105.5 62.5Z" fill="#9BBBFA"/>
<path d="M43 62.5H30.5C29.1193 62.5 28 63.6193 28 65V77.5C28 78.8807 29.1193 80 30.5 80H43C44.3807 80 45.5 78.8807 45.5 77.5V65C45.5 63.6193 44.3807 62.5 43 62.5Z" fill="#9BBBFA"/>
<path d="M94.084 0.248837C93.6597 0.0448372 93.1865 -0.0352335 92.7188 0.0178394C92.251 0.0709122 91.8078 0.254972 91.44 0.548837L86.4385 0.548087H82.0358C81.5924 0.1939 81.0418 0.000969448 80.4744 0.000969448C79.9069 0.000969448 79.3563 0.1939 78.913 0.548087L74.2233 0.549337L69.5357 0.548087C69.0922 0.193293 68.5412 0 67.9732 0C67.4053 0 66.8542 0.193293 66.4107 0.548087L61.7232 0.549337L57.0413 0.548087C56.5977 0.193256 56.0465 4.67132e-05 55.4785 0.000273919C54.9105 0.000501124 54.3595 0.194151 53.9163 0.549337H49.245L44.5625 0.549087C44.1948 0.254689 43.7514 0.0701619 43.2834 0.0167644C42.8154 -0.036633 42.3418 0.0432723 41.9173 0.247274C41.4927 0.451276 41.1344 0.771074 40.8837 1.16982C40.6329 1.56857 40.4999 2.03005 40.5 2.50109V80.0011H95.5V2.50109C95.5003 2.03037 95.3675 1.56916 95.117 1.17066C94.8664 0.772153 94.5083 0.452593 94.084 0.248837Z" fill="#CDDDFD"/>
<path d="M50.5 50H85.5C86.163 50 86.7989 49.7366 87.2678 49.2678C87.7366 48.7989 88 48.163 88 47.5C88 46.837 87.7366 46.2011 87.2678 45.7322C86.7989 45.2634 86.163 45 85.5 45H50.5C49.837 45 49.2011 45.2634 48.7322 45.7322C48.2634 46.2011 48 46.837 48 47.5C48 48.163 48.2634 48.7989 48.7322 49.2678C49.2011 49.7366 49.837 50 50.5 50Z" fill="#0556F3"/>
<path d="M75.5 55H50.5C49.837 55 49.2011 55.2634 48.7322 55.7322C48.2634 56.2011 48 56.837 48 57.5C48 58.163 48.2634 58.7989 48.7322 59.2678C49.2011 59.7366 49.837 60 50.5 60H75.5C76.163 60 76.7989 59.7366 77.2678 59.2678C77.7366 58.7989 78 58.163 78 57.5C78 56.837 77.7366 56.2011 77.2678 55.7322C76.7989 55.2634 76.163 55 75.5 55Z" fill="#0556F3"/>
<path d="M75.5 65H50.5C49.837 65 49.2011 65.2634 48.7322 65.7322C48.2634 66.2011 48 66.837 48 67.5C48 68.163 48.2634 68.7989 48.7322 69.2678C49.2011 69.7366 49.837 70 50.5 70H75.5C76.163 70 76.7989 69.7366 77.2678 69.2678C77.7366 68.7989 78 68.163 78 67.5C78 66.837 77.7366 66.2011 77.2678 65.7322C76.7989 65.2634 76.163 65 75.5 65Z" fill="#0556F3"/>
<path d="M85.5 55H83C82.337 55 81.7011 55.2634 81.2322 55.7322C80.7634 56.2011 80.5 56.837 80.5 57.5C80.5 58.163 80.7634 58.7989 81.2322 59.2678C81.7011 59.7366 82.337 60 83 60H85.5C86.163 60 86.7989 59.7366 87.2678 59.2678C87.7366 58.7989 88 58.163 88 57.5C88 56.837 87.7366 56.2011 87.2678 55.7322C86.7989 55.2634 86.163 55 85.5 55Z" fill="#0556F3"/>
<path d="M85.5 65H83C82.337 65 81.7011 65.2634 81.2322 65.7322C80.7634 66.2011 80.5 66.837 80.5 67.5C80.5 68.163 80.7634 68.7989 81.2322 69.2678C81.7011 69.7366 82.337 70 83 70H85.5C86.163 70 86.7989 69.7366 87.2678 69.2678C87.7366 68.7989 88 68.163 88 67.5C88 66.837 87.7366 66.2011 87.2678 65.7322C86.7989 65.2634 86.163 65 85.5 65Z" fill="#0556F3"/>
<g clip-path="url(#clip1_3023:81249)">
<path d="M83.7072 30.7932L77.5372 24.6232C77.3536 24.4395 77.1057 24.3344 76.8459 24.3302C76.5862 24.326 76.335 24.4231 76.1456 24.6008C75.7907 24.935 75.5099 25.3399 75.3212 25.7894C75.1326 26.2388 75.0402 26.7229 75.0502 27.2102C75.0567 27.4407 75.0069 27.6694 74.9052 27.8763C74.8035 28.0833 74.6529 28.2624 74.4665 28.3981C74.28 28.5338 74.0633 28.6221 73.8351 28.6553C73.6069 28.6885 73.3741 28.6656 73.1567 28.5886C73.1266 28.5779 73.0959 28.5688 73.0649 28.5612C72.3628 28.3371 71.6075 28.3429 70.9089 28.5778C70.2104 28.8128 69.605 29.2646 69.1811 29.8674C69.1508 29.9102 69.1243 29.9556 69.102 30.0031C68.999 30.1927 68.9601 30.4105 68.9911 30.624C69.022 30.8375 69.1212 31.0352 69.2738 31.1877L76.2938 38.2077C76.4218 38.3357 76.582 38.4265 76.7576 38.4705C76.9331 38.5145 77.1173 38.5101 77.2904 38.4576C77.4636 38.4052 77.6194 38.3068 77.741 38.1728C77.8627 38.0389 77.9457 37.8744 77.9813 37.697L78.8502 33.3502L83.1969 32.4811C83.3743 32.4456 83.5388 32.3625 83.6727 32.2409C83.8067 32.1192 83.9051 31.9635 83.9575 31.7903C84.0099 31.6171 84.0143 31.4329 83.9703 31.2574C83.9263 31.0819 83.8355 30.9216 83.7076 30.7936L83.7072 30.7932Z" fill="#0556F3"/>
<path d="M66.9064 30.0167C66.8818 29.9642 66.8527 29.914 66.8194 29.8667C66.3963 29.2646 65.7923 28.8131 65.0951 28.5779C64.3979 28.3427 63.6438 28.3359 62.9425 28.5586C62.9097 28.5663 62.8775 28.576 62.8458 28.5874C62.6316 28.664 62.402 28.688 62.1766 28.6573C61.9511 28.6265 61.7364 28.542 61.5505 28.4108C61.3646 28.2796 61.213 28.1056 61.1085 27.9035C61.004 27.7014 60.9497 27.4771 60.9501 27.2496V27.1296C60.9518 26.6552 60.8553 26.1856 60.6668 25.7503C60.4782 25.315 60.2016 24.9235 59.8544 24.6003C59.6648 24.4229 59.4137 24.326 59.1541 24.3302C58.8944 24.3344 58.6466 24.4393 58.4628 24.6227L52.2928 30.7927C52.1649 30.9206 52.074 31.0809 52.03 31.2565C51.986 31.432 51.9905 31.6161 52.0429 31.7893C52.0953 31.9625 52.1937 32.1183 52.3277 32.2399C52.4616 32.3616 52.6261 32.4446 52.8035 32.4802L57.1501 33.3496L58.0201 37.6959C58.0556 37.8733 58.1387 38.0377 58.2603 38.1717C58.382 38.3056 58.5377 38.4041 58.7109 38.4565C58.8841 38.5089 59.0683 38.5133 59.2438 38.4693C59.4193 38.4253 59.5796 38.3345 59.7076 38.2066L66.7276 31.1866C66.878 31.036 66.9765 30.8413 67.0086 30.6309C67.0408 30.4205 67.005 30.2053 66.9064 30.0167Z" fill="#0556F3"/>
<path d="M66.73 31.1893L64.61 33.3093C64.3067 33.0643 64.0287 32.7896 63.78 32.4893C63.3197 32.6093 62.8458 32.6698 62.37 32.6693C60.9792 32.6674 59.642 32.1324 58.6338 31.1743C57.6255 30.2163 57.0229 28.9082 56.95 27.5193C56.627 27.3969 56.3185 27.2393 56.03 27.0493L58.46 24.6193C58.6439 24.4363 58.8916 24.332 59.151 24.3282C59.4103 24.3245 59.661 24.4217 59.85 24.5993C60.199 24.9215 60.4771 25.3128 60.6665 25.7484C60.8558 26.184 60.9524 26.6543 60.95 27.1293V27.2493C60.9486 27.4767 61.0025 27.7012 61.107 27.9032C61.2115 28.1053 61.3636 28.279 61.55 28.4093C61.7366 28.541 61.9519 28.6261 62.1781 28.6574C62.4043 28.6887 62.6347 28.6653 62.85 28.5893L62.94 28.5593C63.642 28.336 64.3969 28.3427 65.0947 28.5783C65.7926 28.814 66.3971 29.2662 66.82 29.8693C66.8544 29.9165 66.8845 29.9667 66.91 30.0193C67.0048 30.2089 67.0383 30.4233 67.0061 30.6329C66.9738 30.8424 66.8774 31.0368 66.73 31.1893Z" fill="#376CFB"/>
<path d="M79.9701 27.0493C79.6816 27.2393 79.3731 27.3969 79.0501 27.5193C78.9772 28.9082 78.3746 30.2163 77.3663 31.1743C76.3581 32.1324 75.0209 32.6674 73.6301 32.6693C73.1543 32.6698 72.6805 32.6093 72.2201 32.4893C71.9741 32.792 71.6958 33.067 71.3901 33.3093L69.2701 31.1893C69.117 31.0359 69.0178 30.837 68.9871 30.6225C68.9565 30.408 68.9961 30.1894 69.1001 29.9993C69.1231 29.9538 69.1498 29.9103 69.1801 29.8693C69.6036 29.2668 70.2081 28.815 70.9058 28.5795C71.6035 28.3439 72.3581 28.3368 73.0601 28.5593C73.1001 28.5693 73.1301 28.5793 73.1601 28.5893C73.3772 28.6679 73.6104 28.6917 73.8389 28.6585C74.0674 28.6254 74.2842 28.5363 74.4701 28.3993C74.6556 28.2625 74.8053 28.0828 74.9063 27.8755C75.0073 27.6683 75.0566 27.4397 75.0501 27.2093C75.0395 26.7213 75.132 26.2366 75.3215 25.7869C75.5111 25.3371 75.7934 24.9324 76.1501 24.5993C76.3391 24.4217 76.5898 24.3245 76.8491 24.3282C77.1085 24.332 77.3562 24.4363 77.5401 24.6193L79.9701 27.0493Z" fill="#376CFB"/>
<path d="M79.82 18.6302L79.822 18.6292C80.1601 18.1878 80.3859 17.6707 80.4798 17.1226C80.5737 16.5745 80.5329 16.0118 80.361 15.483C80.189 14.9542 79.8911 14.4751 79.4929 14.087C79.0946 13.6989 78.608 13.4134 78.0749 13.2552C77.7732 13.1651 77.5096 12.9781 77.3249 12.7231C77.1402 12.4681 77.0448 12.1593 77.0534 11.8445C77.0675 11.2884 76.9461 10.7372 76.6996 10.2384C76.4531 9.73969 76.089 9.30841 75.6387 8.98179C75.1884 8.65517 74.6653 8.44302 74.1147 8.36365C73.5641 8.28428 73.0024 8.34007 72.4782 8.5262C72.1809 8.62923 71.858 8.6319 71.559 8.53382C71.26 8.43574 71.0014 8.24232 70.8229 7.9832C70.5074 7.52529 70.0852 7.151 69.5928 6.89261C69.1004 6.63421 68.5525 6.49947 67.9965 6.5C67.4404 6.50053 66.8928 6.63632 66.4009 6.89566C65.909 7.15499 65.4875 7.53009 65.1729 7.9886C64.994 8.24771 64.7347 8.4406 64.4351 8.53743C64.1354 8.63425 63.8123 8.6296 63.5156 8.5242C62.991 8.33904 62.4293 8.28426 61.8789 8.3646C61.3285 8.44494 60.8058 8.65798 60.3561 8.98534C59.9064 9.31271 59.543 9.74457 59.2974 10.2437C59.0518 10.7428 58.9313 11.2941 58.9463 11.8502C58.954 12.1642 58.8581 12.4721 58.6735 12.7262C58.4889 12.9804 58.2258 13.1667 57.9248 13.2565C57.3917 13.4147 56.905 13.7001 56.5069 14.0883C56.1087 14.4764 55.8109 14.9556 55.6391 15.4845C55.4674 16.0134 55.4269 16.5761 55.5211 17.1241C55.6154 17.6722 55.8415 18.189 56.18 18.6302C56.3708 18.8802 56.4741 19.186 56.4737 19.5005C56.4734 19.815 56.3694 20.1207 56.178 20.3702C55.8398 20.8117 55.6141 21.3287 55.5202 21.8768C55.4263 22.4249 55.4671 22.9876 55.639 23.5164C55.8109 24.0453 56.1088 24.5244 56.5071 24.9125C56.9053 25.3005 57.392 25.586 57.9251 25.7442C58.2268 25.8343 58.4904 26.0213 58.6751 26.2763C58.8597 26.5314 58.9552 26.8402 58.9466 27.1549C58.9325 27.711 59.0539 28.2622 59.3004 28.761C59.5468 29.2597 59.9109 29.691 60.3613 30.0176C60.8116 30.3442 61.3346 30.5564 61.8853 30.6358C62.4359 30.7151 62.9975 30.6593 63.5218 30.4732C63.8191 30.3703 64.142 30.3676 64.441 30.4657C64.7399 30.5638 64.9985 30.7572 65.1771 31.0162C65.4926 31.4741 65.9147 31.8484 66.4072 32.1068C66.8996 32.3652 67.4474 32.4999 68.0035 32.4994C68.5596 32.4989 69.1072 32.3631 69.5991 32.1038C70.091 31.8444 70.5125 31.4693 70.8271 31.0108C71.006 30.7518 71.2654 30.5589 71.565 30.4621C71.8645 30.3653 72.1877 30.3699 72.4844 30.4752C73.0088 30.6603 73.5705 30.7151 74.1208 30.6348C74.6712 30.5545 75.1937 30.3416 75.6434 30.0143C76.0932 29.6871 76.4565 29.2554 76.7022 28.7564C76.9479 28.2574 77.0685 27.7062 77.0537 27.1502C77.046 26.8362 77.1419 26.5284 77.3265 26.2743C77.5111 26.0201 77.7742 25.8338 78.0752 25.744C78.6083 25.5859 79.095 25.3004 79.4932 24.9122C79.8914 24.5241 80.1892 24.0449 80.3609 23.516C80.5326 22.9871 80.5731 22.4243 80.4789 21.8763C80.3846 21.3283 80.1585 20.8114 79.82 20.3702C79.6288 20.1205 79.5252 19.8147 79.5252 19.5002C79.5252 19.1857 79.6288 18.8799 79.82 18.6302Z" fill="#E6ECFF"/>
<path d="M74.5743 17.2752C74.5165 17.0977 74.4102 16.94 74.2675 16.8197C74.1248 16.6994 73.9513 16.6214 73.7667 16.5945L70.4015 16.1057L68.8966 13.0569C68.8046 12.901 68.6735 12.7717 68.5162 12.6819C68.359 12.5921 68.1811 12.5449 68.0001 12.5449C67.819 12.5449 67.6411 12.5921 67.4839 12.6819C67.3266 12.7717 67.1956 12.901 67.1036 13.0569L65.5987 16.1057L62.2335 16.5945C62.0487 16.6212 61.8751 16.6991 61.7323 16.8194C61.5895 16.9396 61.4832 17.0975 61.4255 17.275C61.3677 17.4526 61.3609 17.6427 61.4056 17.824C61.4504 18.0052 61.545 18.1703 61.6788 18.3006L64.1144 20.6736L63.5401 24.0252C63.5087 24.209 63.5293 24.3979 63.5995 24.5706C63.6698 24.7432 63.787 24.8928 63.9378 25.0025C64.0886 25.1121 64.267 25.1774 64.4529 25.191C64.6389 25.2045 64.8249 25.1659 64.9901 25.0793L68.0001 23.4973L71.0101 25.0793C71.1752 25.1659 71.3612 25.2045 71.5472 25.191C71.7331 25.1774 71.9116 25.1121 72.0624 25.0024C72.2132 24.8928 72.3304 24.7432 72.4006 24.5705C72.4709 24.3978 72.4915 24.2089 72.4601 24.0251L71.8858 20.6735L74.3214 18.3005C74.4548 18.1701 74.5492 18.005 74.5939 17.8239C74.6386 17.6427 74.6318 17.4527 74.5743 17.2752Z" fill="#0556F3"/>
</g>
</g>
<defs>
<filter id="filter0_i_3023:81249" x="0" y="40" width="135" height="51" filterUnits="userSpaceOnUse" color-interpolation-filters="sRGB">
<feFlood flood-opacity="0" result="BackgroundImageFix"/>
<feBlend mode="normal" in="SourceGraphic" in2="BackgroundImageFix" result="shape"/>
<feColorMatrix in="SourceAlpha" type="matrix" values="0 0 0 0 0 0 0 0 0 0 0 0 0 0 0 0 0 0 127 0" result="hardAlpha"/>
<feOffset dy="-3"/>
<feGaussianBlur stdDeviation="12"/>
<feComposite in2="hardAlpha" operator="arithmetic" k2="-1" k3="1"/>
<feColorMatrix type="matrix" values="0 0 0 0 0.919062 0 0 0 0 0.924688 0 0 0 0 0.930938 0 0 0 1 0"/>
<feBlend mode="normal" in2="shape" result="effect1_innerShadow_3023:81249"/>
</filter>
<clipPath id="clip0_3023:81249">
<rect width="80" height="80" fill="white" transform="translate(28)"/>
</clipPath>
<clipPath id="clip1_3023:81249">
<rect width="32" height="32" fill="white" transform="translate(52 6.5)"/>
</clipPath>
</defs>
</svg>
