<svg width="849" height="571" viewBox="0 0 849 571" fill="none" xmlns="http://www.w3.org/2000/svg">
<g filter="url(#filter0_d_4183_91117)">
<rect x="12" y="8" width="825" height="547" rx="6.44133" fill="#25265E"/>
<path d="M330.028 91H334.668V81.816H341.868V77.4H334.668V72.696H343.852V68.28H330.028V91ZM345.451 84.28C345.451 88.536 347.595 91.352 351.467 91.352C353.515 91.352 355.019 90.456 355.851 89.176V91H360.235V75H355.851V82.808C355.851 85.912 354.507 87.352 352.555 87.352C350.667 87.352 349.835 85.944 349.835 83.544V75H345.451V84.28ZM364.456 91H368.84V83.192C368.84 80.12 370.376 78.648 372.392 78.648C374.216 78.648 375.208 80.056 375.208 82.36V91H379.592V81.624C379.592 77.464 377.288 74.648 373.416 74.648C371.336 74.648 369.672 75.544 368.84 76.824V75H364.456V91ZM398.861 68.28H391.309V91H395.949V83.576H398.861C403.469 83.576 406.829 80.248 406.829 75.928C406.829 71.608 403.469 68.28 398.861 68.28ZM398.797 79.224H395.949V72.632H398.797C400.909 72.632 402.317 74.072 402.317 75.928C402.317 77.784 400.909 79.224 398.797 79.224ZM409.487 91H413.871V83.352C413.871 80.728 415.247 79.096 417.327 79.096C418.031 79.096 418.639 79.224 419.311 79.448V75C418.767 74.84 418.287 74.808 417.839 74.808C416.047 74.808 414.415 75.992 413.871 77.56V75H409.487V91ZM437.326 83C437.326 78.328 433.55 74.648 428.91 74.648C424.27 74.648 420.493 78.328 420.493 83C420.493 87.672 424.27 91.352 428.91 91.352C433.55 91.352 437.326 87.672 437.326 83ZM424.91 83C424.91 80.536 426.606 78.744 428.91 78.744C431.214 78.744 432.878 80.536 432.878 83C432.878 85.464 431.214 87.256 428.91 87.256C426.606 87.256 424.91 85.464 424.91 83ZM445.735 69.592C445.735 68.056 444.487 66.808 442.919 66.808C441.415 66.808 440.135 68.056 440.135 69.592C440.135 71.128 441.415 72.376 442.919 72.376C444.487 72.376 445.735 71.128 445.735 69.592ZM445.127 75H440.743V91.512C440.743 93.464 439.847 94.2 438.215 94.2C437.959 94.2 437.575 94.168 437.383 94.136V97.88C437.863 97.976 438.503 98.008 439.175 98.008C442.375 98.008 445.127 96.12 445.127 92.216V75ZM464.914 85.784H460.338C459.826 86.872 458.482 87.544 456.946 87.544C454.226 87.544 452.818 85.912 452.626 84.024H465.106C465.33 78.008 461.458 74.648 456.754 74.648C451.89 74.648 448.338 78.2 448.338 82.968C448.338 87.832 451.826 91.352 456.722 91.352C460.786 91.352 463.954 89.016 464.914 85.784ZM456.626 78.2C458.13 78.2 459.762 79 460.306 81.144H452.786C453.202 79.384 454.61 78.2 456.626 78.2ZM483.884 84.888H479.34C478.732 86.328 477.548 87.384 475.692 87.384C473.388 87.384 471.692 85.656 471.692 83C471.692 80.344 473.388 78.616 475.692 78.616C477.548 78.616 478.732 79.672 479.34 81.112H483.884C483.02 77.432 480.108 74.648 475.692 74.648C470.828 74.648 467.276 78.36 467.276 83C467.276 87.64 470.828 91.352 475.692 91.352C480.108 91.352 483.02 88.568 483.884 84.888ZM497.171 90.84V86.968C496.659 87.16 496.083 87.256 495.379 87.256C493.491 87.256 492.659 86.488 492.659 84.536V78.84H497.171V75H492.659V70.552H488.275V75H485.043V78.84H488.275V85.4C488.275 89.304 490.995 91.192 494.387 91.192C495.603 91.192 496.467 91.064 497.171 90.84ZM513.164 86.488C513.164 83.992 511.852 82.328 508.716 81.528L505.9 80.76C504.94 80.536 504.076 80.184 504.076 79.288C504.076 78.52 504.844 78.072 505.964 78.072C506.924 78.072 507.852 78.488 508.076 79.704H512.492C512.236 76.504 509.548 74.648 506.028 74.648C502.028 74.648 499.596 76.632 499.596 79.384C499.596 81.72 500.876 83.64 503.66 84.344L506.668 85.112C508.076 85.464 508.684 85.88 508.684 86.712C508.684 87.48 507.98 87.992 506.604 87.992C505.196 87.992 503.98 87.32 503.82 85.912H499.243C499.404 89.048 502.348 91.352 506.476 91.352C510.348 91.352 513.164 89.496 513.164 86.488ZM300.277 131H304.661V118.84H309.173V115H304.661V113.464C304.661 111.512 305.493 110.744 307.381 110.744C308.085 110.744 308.661 110.84 309.173 111.032V107.16C308.469 106.936 307.605 106.808 306.389 106.808C302.997 106.808 300.277 109.016 300.277 112.92V115H297.045V118.84H300.277V131ZM327.107 123C327.107 118.328 323.331 114.648 318.691 114.648C314.051 114.648 310.275 118.328 310.275 123C310.275 127.672 314.051 131.352 318.691 131.352C323.331 131.352 327.107 127.672 327.107 123ZM314.691 123C314.691 120.536 316.387 118.744 318.691 118.744C320.995 118.744 322.659 120.536 322.659 123C322.659 125.464 320.995 127.256 318.691 127.256C316.387 127.256 314.691 125.464 314.691 123ZM330.268 131H334.652V123.352C334.652 120.728 336.028 119.096 338.108 119.096C338.812 119.096 339.42 119.224 340.092 119.448V115C339.548 114.84 339.068 114.808 338.62 114.808C336.828 114.808 335.196 115.992 334.652 117.56V115H330.268V131ZM354.786 137.688L364.834 115H360.002L355.746 125.368L351.458 115H346.658L353.378 130.104L350.018 137.688H354.786ZM382.232 123C382.232 118.328 378.456 114.648 373.816 114.648C369.176 114.648 365.4 118.328 365.4 123C365.4 127.672 369.176 131.352 373.816 131.352C378.456 131.352 382.232 127.672 382.232 123ZM369.816 123C369.816 120.536 371.512 118.744 373.816 118.744C376.12 118.744 377.784 120.536 377.784 123C377.784 125.464 376.12 127.256 373.816 127.256C371.512 127.256 369.816 125.464 369.816 123ZM385.201 124.28C385.201 128.536 387.345 131.352 391.217 131.352C393.265 131.352 394.769 130.456 395.601 129.176V131H399.985V115H395.601V122.808C395.601 125.912 394.257 127.352 392.305 127.352C390.417 127.352 389.585 125.944 389.585 123.544V115H385.201V124.28ZM404.206 131H408.59V123.352C408.59 120.728 409.966 119.096 412.046 119.096C412.75 119.096 413.358 119.224 414.03 119.448V115C413.486 114.84 413.006 114.808 412.558 114.808C410.766 114.808 409.134 115.992 408.59 117.56V115H404.206V131ZM431.361 108.28H423.809V131H428.449V123.576H431.361C435.969 123.576 439.329 120.248 439.329 115.928C439.329 111.608 435.969 108.28 431.361 108.28ZM431.297 119.224H428.449V112.632H431.297C433.409 112.632 434.817 114.072 434.817 115.928C434.817 117.784 433.409 119.224 431.297 119.224ZM457.388 123C457.388 118.328 453.612 114.648 448.972 114.648C444.332 114.648 440.556 118.328 440.556 123C440.556 127.672 444.332 131.352 448.972 131.352C453.612 131.352 457.388 127.672 457.388 123ZM444.972 123C444.972 120.536 446.668 118.744 448.972 118.744C451.276 118.744 452.94 120.536 452.94 123C452.94 125.464 451.276 127.256 448.972 127.256C446.668 127.256 444.972 125.464 444.972 123ZM460.549 131H464.934V123.352C464.934 120.728 466.31 119.096 468.39 119.096C469.094 119.096 469.702 119.224 470.374 119.448V115C469.83 114.84 469.35 114.808 468.902 114.808C467.11 114.808 465.478 115.992 464.934 117.56V115H460.549V131ZM483.703 130.84V126.968C483.191 127.16 482.615 127.256 481.911 127.256C480.023 127.256 479.191 126.488 479.191 124.536V118.84H483.703V115H479.191V110.552H474.807V115H471.575V118.84H474.807V125.4C474.807 129.304 477.527 131.192 480.919 131.192C482.135 131.192 482.999 131.064 483.703 130.84ZM488.527 131H492.911V118.84H497.423V115H492.911V113.464C492.911 111.512 493.743 110.744 495.631 110.744C496.335 110.744 496.911 110.84 497.423 111.032V107.16C496.719 106.936 495.855 106.808 494.639 106.808C491.247 106.808 488.527 109.016 488.527 112.92V115H485.295V118.84H488.527V131ZM515.357 123C515.357 118.328 511.581 114.648 506.941 114.648C502.301 114.648 498.525 118.328 498.525 123C498.525 127.672 502.301 131.352 506.941 131.352C511.581 131.352 515.357 127.672 515.357 123ZM502.941 123C502.941 120.536 504.637 118.744 506.941 118.744C509.245 118.744 510.909 120.536 510.909 123C510.909 125.464 509.245 127.256 506.941 127.256C504.637 127.256 502.941 125.464 502.941 123ZM518.518 131H522.902V107H518.518V131ZM532.104 109.592C532.104 108.056 530.856 106.808 529.288 106.808C527.784 106.808 526.504 108.056 526.504 109.592C526.504 111.128 527.784 112.376 529.288 112.376C530.856 112.376 532.104 111.128 532.104 109.592ZM527.112 131H531.496V115H527.112V131ZM551.482 123C551.482 118.328 547.706 114.648 543.066 114.648C538.426 114.648 534.65 118.328 534.65 123C534.65 127.672 538.426 131.352 543.066 131.352C547.706 131.352 551.482 127.672 551.482 123ZM539.066 123C539.066 120.536 540.762 118.744 543.066 118.744C545.37 118.744 547.034 120.536 547.034 123C547.034 125.464 545.37 127.256 543.066 127.256C540.762 127.256 539.066 125.464 539.066 123Z" fill="white"/>
<path d="M360.016 505H363.256L359.98 501.832L362.518 498.826H359.566L358.36 500.284L356.272 498.25C357.514 497.566 358.45 496.72 358.45 495.19C358.45 493.57 357.046 492.004 354.886 492.004C352.78 492.004 351.268 493.498 351.268 495.208C351.268 496.342 351.934 497.17 352.654 497.89C351.394 498.682 350.386 499.69 350.386 501.364C350.386 503.47 351.826 505.198 354.634 505.198C356.11 505.198 357.226 504.676 358.468 503.506L360.016 505ZM353.626 495.226C353.626 494.506 354.202 494.092 354.85 494.092C355.498 494.092 356.02 494.56 356.02 495.298C356.02 496.036 355.624 496.396 354.796 496.81L354.76 496.828C354.112 496.252 353.626 495.856 353.626 495.226ZM352.798 501.436C352.798 500.824 353.158 500.122 354.256 499.438L356.884 501.976C356.074 502.714 355.372 503.02 354.616 503.02C353.77 503.02 352.798 502.552 352.798 501.436ZM368.053 505H370.519V500.608C370.519 498.88 371.257 498.052 372.319 498.052C373.291 498.052 373.723 498.862 373.723 500.194V505H376.189V500.608C376.189 498.88 376.927 498.052 377.989 498.052C378.961 498.052 379.393 498.862 379.393 500.194V505H381.859V499.78C381.859 497.35 380.635 495.802 378.493 495.802C377.467 495.802 376.261 496.342 375.703 497.458C375.163 496.414 374.227 495.802 372.913 495.802C371.815 495.802 371.005 496.324 370.519 497.026V496H368.053V505ZM383.544 500.5C383.544 503.056 385.38 505.198 387.774 505.198C389.016 505.198 389.97 504.568 390.366 503.992V505H392.832V496H390.366V497.008C389.97 496.432 389.016 495.802 387.774 495.802C385.38 495.802 383.544 497.944 383.544 500.5ZM390.564 500.5C390.564 501.904 389.646 502.948 388.296 502.948C386.946 502.948 386.028 501.904 386.028 500.5C386.028 499.096 386.946 498.052 388.296 498.052C389.646 498.052 390.564 499.096 390.564 500.5ZM395.229 505H397.695V500.608C397.695 498.88 398.559 498.052 399.693 498.052C400.719 498.052 401.277 498.844 401.277 500.14V505H403.743V499.726C403.743 497.386 402.447 495.802 400.269 495.802C399.099 495.802 398.163 496.306 397.695 497.026V496H395.229V505ZM409.161 508.762L414.813 496H412.095L409.701 501.832L407.289 496H404.589L408.369 504.496L406.479 508.762H409.161ZM419.698 505H422.164V500.608C422.164 498.88 422.902 498.052 423.964 498.052C424.936 498.052 425.368 498.862 425.368 500.194V505H427.834V500.608C427.834 498.88 428.572 498.052 429.634 498.052C430.606 498.052 431.038 498.862 431.038 500.194V505H433.504V499.78C433.504 497.35 432.28 495.802 430.138 495.802C429.112 495.802 427.906 496.342 427.348 497.458C426.808 496.414 425.872 495.802 424.558 495.802C423.46 495.802 422.65 496.324 422.164 497.026V496H419.698V505ZM444.638 500.5C444.638 497.872 442.514 495.802 439.904 495.802C437.294 495.802 435.17 497.872 435.17 500.5C435.17 503.128 437.294 505.198 439.904 505.198C442.514 505.198 444.638 503.128 444.638 500.5ZM437.654 500.5C437.654 499.114 438.608 498.106 439.904 498.106C441.2 498.106 442.136 499.114 442.136 500.5C442.136 501.886 441.2 502.894 439.904 502.894C438.608 502.894 437.654 501.886 437.654 500.5ZM446.417 505H448.883V500.698C448.883 499.222 449.657 498.304 450.827 498.304C451.223 498.304 451.565 498.376 451.943 498.502V496C451.637 495.91 451.367 495.892 451.115 495.892C450.107 495.892 449.189 496.558 448.883 497.44V496H446.417V505ZM461.95 502.066H459.376C459.088 502.678 458.332 503.056 457.468 503.056C455.938 503.056 455.146 502.138 455.038 501.076H462.058C462.184 497.692 460.006 495.802 457.36 495.802C454.624 495.802 452.626 497.8 452.626 500.482C452.626 503.218 454.588 505.198 457.342 505.198C459.628 505.198 461.41 503.884 461.95 502.066ZM457.288 497.8C458.134 497.8 459.052 498.25 459.358 499.456H455.128C455.362 498.466 456.154 497.8 457.288 497.8ZM466.968 503.344C466.968 502.354 466.176 501.544 465.168 501.544C464.178 501.544 463.368 502.354 463.368 503.344C463.368 504.334 464.178 505.144 465.168 505.144C466.176 505.144 466.968 504.334 466.968 503.344ZM471.995 503.344C471.995 502.354 471.203 501.544 470.195 501.544C469.205 501.544 468.395 502.354 468.395 503.344C468.395 504.334 469.205 505.144 470.195 505.144C471.203 505.144 471.995 504.334 471.995 503.344ZM477.023 503.344C477.023 502.354 476.231 501.544 475.223 501.544C474.233 501.544 473.423 502.354 473.423 503.344C473.423 504.334 474.233 505.144 475.223 505.144C476.231 505.144 477.023 504.334 477.023 503.344Z" fill="white" fill-opacity="0.67"/>
<g clip-path="url(#clip0_4183_91117)">
<path d="M172.158 242.034L165.719 231.765L172.25 227.188C178.516 228.632 181.891 228.032 187.621 223.983L186.817 231.844L172.158 242.034Z" fill="#E08878"/>
<path d="M166.14 246.286C161.329 251.415 150.107 268.149 151.535 271.014C153.471 274.897 161.531 259.412 172.619 247.896L171.917 239.308C169.437 237.004 164.443 232.832 164.306 234.583C164.134 236.771 153.723 243.112 153.723 243.112C153.723 243.112 136.243 251.925 137.965 254.537C139.687 257.149 162.395 244.89 164.122 243.924C165.504 243.152 166.971 245.401 166.14 246.286Z" fill="#FCB7A0"/>
<path d="M162.637 234.987C162.244 239.996 170.687 242.128 174.957 242.568C176.357 240.789 177.077 236.436 168.758 233.264C169.016 232.655 169.417 231.301 168.954 230.76C169.934 230.311 171.982 229.107 172.331 227.875C175.733 228.666 183.504 229.192 187.364 224.959L187.671 245.142C203.594 226.861 202.397 222.043 190.653 215.136C184.6 211.576 169.728 219.459 166.401 221.718C163.074 223.977 163.128 228.726 162.637 234.987Z" fill="#FCB7A0"/>
<path d="M181.201 247.146C179.077 250.13 174.398 254.362 172.674 247.423C170.52 238.749 177.131 230.762 179.058 230.283C180.6 229.9 181.272 231.507 181.415 232.358C181.969 230.11 184.704 226.817 186.578 226.778C188.564 226.737 191.081 228.032 187.981 239.443L188.113 242.287C188.291 243.157 188.459 243.944 188.215 244.503C186.208 249.11 182.048 248.138 181.201 247.146Z" fill="#FCB7A0"/>
<path d="M181.206 247.153C179.082 250.136 174.404 254.368 172.68 247.429C170.525 238.756 177.136 230.769 179.064 230.29C180.606 229.907 181.278 231.514 181.421 232.365C181.91 230.03 184.67 226.77 186.583 226.785C188.438 226.8 188.535 228.979 186.155 238.674L186.585 241.227C186.057 239.926 185.986 239.361 186.155 238.674C188.535 228.979 188.438 226.8 186.583 226.785C184.67 226.77 181.91 230.03 181.421 232.365C179.596 239.394 179.528 242.671 181.206 247.153Z" fill="#FCB7A0"/>
<path d="M181.206 247.153C179.082 250.136 174.404 254.368 172.68 247.429C170.525 238.756 177.136 230.769 179.064 230.29C180.606 229.907 181.278 231.514 181.421 232.365M181.206 247.153C182.054 248.145 186.039 249.115 188.046 244.508M181.206 247.153C179.528 242.671 179.596 239.394 181.421 232.365M181.421 232.365C181.91 230.03 184.67 226.77 186.583 226.785C188.438 226.8 188.535 228.979 186.155 238.674M186.155 238.674C185.986 239.361 186.057 239.926 186.585 241.227L186.155 238.674Z" stroke="#E08878" stroke-width="0.612926"/>
<path d="M162.634 234.986C162.241 239.995 170.683 242.127 174.954 242.567C176.353 240.788 177.073 236.435 168.754 233.263C169.012 232.654 169.413 231.3 168.951 230.758C169.931 230.31 171.978 229.106 172.327 227.873L166.24 221.85C162.913 224.109 163.125 228.725 162.634 234.986Z" fill="#FCB7A0"/>
<path d="M166.374 222.007C163.326 223.526 163.125 228.725 162.634 234.986C162.241 239.995 170.683 242.127 174.954 242.567C176.353 240.788 177.073 236.435 168.754 233.263C169.012 232.654 169.413 231.3 168.951 230.758C169.931 230.31 171.978 229.106 172.327 227.873" stroke="#E08878" stroke-width="0.612926"/>
<path d="M189.405 210.943C186.434 213.482 184.59 214.389 183.851 214.436C188.05 219.805 196.776 229.412 199.595 225.601C202.414 221.791 210.64 215.968 214.401 213.533L207.114 205.397L197.77 203.115C194.822 205.975 191.362 209.27 189.405 210.943Z" fill="#FCB7A0"/>
<path d="M169.587 241.151C169.092 239.432 169.257 236.526 173.878 238.653" stroke="#E08878" stroke-width="0.612926" stroke-linecap="round"/>
<path d="M182.772 231.353C183.613 232.59 185.361 232.581 185.773 232.32C186.482 231.644 186.678 230.341 186.666 229.551M175.704 234.843C176.507 236.547 178.113 236.497 178.815 236.259C179.324 235.372 180.237 233.791 179.949 231.864" stroke="#E08878" stroke-width="0.612926"/>
<path d="M189.55 210.79C188.998 211.379 188.586 211.444 188.586 211.444L189.41 209.124C189.41 209.124 192.03 204.178 194.113 202.25C194.295 202.081 194.423 201.854 194.507 201.577L226.603 210.177C222.054 215.056 216.517 213.098 213.573 215.614C211.711 217.205 206.956 220.575 206.956 220.575C204.829 221.983 204.134 222.728 201.695 223.605C201.695 223.605 202.849 221.995 203.857 221.194C200.211 212.863 193.522 210.796 189.55 210.79Z" fill="#1A4E66"/>
<path d="M189.55 210.79C188.998 211.379 188.586 211.444 188.586 211.444L189.41 209.124C189.41 209.124 192.03 204.178 194.113 202.25C194.295 202.081 194.423 201.854 194.507 201.577L198.684 202.697C196.205 204.887 194.916 209.516 194.563 211.768C192.721 211.055 190.963 210.792 189.55 210.79Z" fill="#0F445C"/>
<path d="M214.552 214.8C208.133 204.399 203.173 203.459 194.634 201.665" stroke="#0F3644" stroke-width="0.612926"/>
<path d="M214.417 214.644C209.301 220.102 201.679 223.899 201.702 223.608C201.725 223.317 203.945 221.147 203.945 221.147C201.912 217.179 198.404 211.484 189.377 210.776C189.377 210.776 188.592 211.447 188.435 211.581C188.278 211.715 188.826 210.703 188.952 210.596" stroke="#0F3644" stroke-width="0.612926"/>
<path d="M213.507 213.254C210.785 215.579 204.962 220.23 203.438 220.228M212.077 210.944C209.31 213.218 203.509 217.831 202.433 218.098M210.198 208.746C207.372 211.161 201.567 216.068 200.957 216.371M199.616 214.801C200.051 213.588 205.249 209.085 208.045 206.774M197.534 213.32C197.791 211.462 202.753 207.223 205.626 205.001M195.296 211.972C195.554 210.016 199.821 206.074 202.633 203.753M193.012 211.207C195.418 207.377 198.025 204.462 199.584 202.936M190.997 210.756C191.251 208.912 194.705 204.524 196.729 202.171M194.931 201.689C192.949 203.926 189.41 208.581 188.599 211.447" stroke="#0F3644" stroke-width="0.612926"/>
<path d="M113.924 275.474L123.881 267.944C128.606 277.037 137.531 295.476 135.425 296.489C132.791 297.754 127.127 302.199 124.663 304.889C122.692 307.041 116.98 310.177 115.295 310.624L113.924 275.474Z" fill="#EC7B86"/>
<path d="M132.249 273.144C132.253 267.025 126.795 267.204 124.065 268.058L120.497 275.073C113.63 279.67 117.488 281.47 120.276 281.796C117.433 284.672 120.463 287.013 122.334 287.824C120.252 291.173 123.035 292.92 124.746 293.28C122.499 296.896 126.779 298.501 134.684 296.818C141.008 295.472 139.143 291.059 137.419 289.021C140.662 286.181 138.06 282.472 136.354 280.972C137.938 276.046 134.277 273.701 132.249 273.144Z" fill="#FF9BA5"/>
<path d="M95.2372 300.008C93.7808 302.691 82.5336 309.013 76.9275 311.949L70.8964 334.458L90.0557 336.362C95.5482 329.222 109.165 316.227 115.287 310.622L118.685 292.42C120.779 286.334 117.445 280.832 115.516 278.841C115.989 278.08 115.487 276.625 115.176 275.992C116.374 276.103 118.205 274.797 118.972 274.13C130.987 282.389 132.653 274.19 131.203 273.553C129.752 272.915 122.088 266.569 120.684 265.432C119.28 264.296 109.96 270.376 106.854 272.403C103.747 274.43 100.106 281.137 99.7675 288.049C99.4286 294.962 97.0576 296.655 95.2372 300.008Z" fill="#FF9BA5"/>
<path d="M77.463 311.646C83.069 308.711 93.7926 302.691 95.2489 300.008C97.0694 296.654 99.4404 294.962 99.7793 288.049C100.118 281.137 103.759 274.429 106.866 272.403C109.972 270.376 119.291 264.296 120.696 265.432C122.1 266.569 129.764 272.915 131.214 273.553C132.665 274.19 130.999 282.389 118.984 274.13C118.217 274.797 116.385 276.103 115.188 275.992C115.498 276.625 116.001 278.08 115.528 278.841C117.457 280.832 121.172 286.57 119.078 292.656" stroke="#EC7B86" stroke-width="0.831229"/>
<path d="M119.22 282.244C120.912 281.361 125.644 278.955 126.858 278.021M121.587 288.2C127.228 285.921 130.832 284.289 136.342 281.013M124.118 293.466C129.312 292.478 132.769 291.561 137.408 289.062" stroke="#EC7B86" stroke-width="0.831229"/>
<path d="M126.731 270.557C126.004 271.16 124.679 272.5 125.193 273.031C125.708 273.561 128.356 274.733 129.616 275.252" stroke="#EC7B86" stroke-width="0.664983" stroke-linecap="round"/>
<path d="M86.8648 306.135C87.5599 305.575 87.9868 305.312 87.9868 305.312L84.7369 305.755L77.5787 309.533L70.5677 335.699L93.0877 341.733C94.2376 339.765 95.1849 336.722 96.1074 334.717C96.6834 333.465 100.941 327.5 100.941 327.5C102.527 325.231 103.344 323.909 104.226 321.209C104.226 321.209 102.354 322.948 101.432 324.006C90.5091 318.708 87.2493 310.719 86.8648 306.135Z" fill="#D7E0DC"/>
<path d="M86.8982 306.218L87.9888 305.313L84.8305 305.724C84.8305 305.724 81.0689 307.51 77.5922 309.499L70.572 335.698L75.1138 336.915C76.0494 331.165 80.2335 316.234 83.5919 313.661L84.4047 315.749C85.8981 314.066 86.903 313.473 89.1721 313.171C87.7883 310.728 87.6182 309.303 86.8982 306.218Z" fill="#BCC5C1"/>
<path d="M81.8359 307.561C84.664 319.595 88.8977 323.926 100.123 328.37" stroke="#B3BCB8" stroke-width="0.831229"/>
<path d="M82.4182 310.03L76.4663 314.038M83.5912 313.661C81.8886 314.479 78.5623 316.384 75.0714 319.07M85.0727 317.22C82.2639 319.012 75.8189 323.705 73.0594 326.578M86.8371 319.9C84.3102 322.551 73.5091 332.776 71.5917 333.484M89.2907 322.744C87.4046 325.088 77.4987 335.279 75.3399 336.894C75.2854 336.935 75.2359 336.97 75.1916 337M92.3358 324.636C90.9884 327.229 83.8151 337.433 81.367 338.655M95.3808 326.529C94.4123 328.653 89.2458 337.359 86.3451 339.989M98.4721 327.922C97.2584 330.158 92.2151 338.402 89.8082 340.917" stroke="#B3BCB8" stroke-width="0.831229"/>
</g>
<path d="M71.466 376.193H75.026V368.852H75.9098L81.8759 376.193H86.1725L79.9118 368.46C82.2196 367.723 83.4963 366.25 83.4963 363.917C83.4963 361.02 81.4094 358.762 78.144 358.762H71.466V376.193ZM75.026 365.808V362.027H77.7267C79.0525 362.027 79.9609 362.714 79.9609 363.917C79.9609 365.096 79.0525 365.808 77.7267 365.808H75.026ZM98.7635 370.055C98.7635 366.471 95.8664 363.647 92.3064 363.647C88.7464 363.647 85.8493 366.471 85.8493 370.055C85.8493 373.64 88.7464 376.463 92.3064 376.463C95.8664 376.463 98.7635 373.64 98.7635 370.055ZM89.2374 370.055C89.2374 368.165 90.5386 366.79 92.3064 366.79C94.0741 366.79 95.3508 368.165 95.3508 370.055C95.3508 371.946 94.0741 373.321 92.3064 373.321C90.5386 373.321 89.2374 371.946 89.2374 370.055ZM113.146 371.504H109.659C109.193 372.609 108.285 373.419 106.861 373.419C105.093 373.419 103.792 372.093 103.792 370.055C103.792 368.018 105.093 366.692 106.861 366.692C108.285 366.692 109.193 367.502 109.659 368.607H113.146C112.483 365.783 110.249 363.647 106.861 363.647C103.129 363.647 100.403 366.495 100.403 370.055C100.403 373.615 103.129 376.463 106.861 376.463C110.249 376.463 112.483 374.327 113.146 371.504ZM115.431 376.193H118.795V370.546L123.803 376.193H127.952L121.962 369.442L126.823 363.917H122.772L118.795 368.435V357.78H115.431V376.193ZM132.854 375.506C133.149 375.015 133.346 374.475 133.346 373.935C133.346 372.584 132.265 371.479 130.915 371.479C129.54 371.479 128.46 372.584 128.46 373.935C128.46 375.015 129.172 375.874 129.908 376.193L128.116 379.925H130.105L132.854 375.506ZM147.703 358.762H141.908V376.193H145.468V370.497H147.703C151.238 370.497 153.816 367.944 153.816 364.629C153.816 361.315 151.238 358.762 147.703 358.762ZM147.653 367.158H145.468V362.101H147.653C149.274 362.101 150.354 363.205 150.354 364.629C150.354 366.053 149.274 367.158 147.653 367.158ZM154.83 370.055C154.83 373.542 157.334 376.463 160.599 376.463C162.293 376.463 163.595 375.604 164.135 374.818V376.193H167.498V363.917H164.135V365.292C163.595 364.507 162.293 363.647 160.599 363.647C157.334 363.647 154.83 366.569 154.83 370.055ZM164.405 370.055C164.405 371.97 163.153 373.394 161.311 373.394C159.47 373.394 158.218 371.97 158.218 370.055C158.218 368.14 159.47 366.716 161.311 366.716C163.153 366.716 164.405 368.14 164.405 370.055ZM170.768 381.325H174.132V374.818C174.697 375.604 175.998 376.463 177.692 376.463C180.957 376.463 183.462 373.542 183.462 370.055C183.462 366.569 180.957 363.647 177.692 363.647C175.998 363.647 174.697 364.507 174.132 365.292V363.917H170.768V381.325ZM180.049 370.055C180.049 371.97 178.797 373.394 176.955 373.394C175.114 373.394 173.862 371.97 173.862 370.055C173.862 368.14 175.114 366.716 176.955 366.716C178.797 366.716 180.049 368.14 180.049 370.055ZM197.853 372.191H194.343C193.95 373.026 192.919 373.542 191.74 373.542C189.653 373.542 188.573 372.29 188.426 370.841H198.001C198.173 366.225 195.202 363.647 191.593 363.647C187.861 363.647 185.136 366.373 185.136 370.031C185.136 373.763 187.812 376.463 191.568 376.463C194.686 376.463 197.117 374.671 197.853 372.191ZM191.495 366.373C192.648 366.373 193.901 366.986 194.318 368.631H188.548C188.868 367.281 189.948 366.373 191.495 366.373ZM200.451 376.193H203.815V370.325C203.815 368.312 204.87 367.06 206.466 367.06C207.006 367.06 207.473 367.158 207.988 367.33V363.917C207.571 363.795 207.203 363.77 206.859 363.77C205.484 363.77 204.232 364.679 203.815 365.882V363.917H200.451V376.193ZM96.0646 410.193H100.484L96.0155 405.872L99.4773 401.772H95.4508L93.8058 403.761L90.9578 400.986C92.6519 400.053 93.9286 398.9 93.9286 396.813C93.9286 394.603 92.0136 392.467 89.0674 392.467C86.1948 392.467 84.1325 394.505 84.1325 396.837C84.1325 398.384 85.0409 399.513 86.0229 400.495C84.3043 401.576 82.9294 402.951 82.9294 405.234C82.9294 408.106 84.8936 410.463 88.7236 410.463C90.7369 410.463 92.2591 409.751 93.9532 408.156L96.0646 410.193ZM87.3487 396.862C87.3487 395.88 88.1344 395.315 89.0183 395.315C89.9021 395.315 90.6141 395.953 90.6141 396.96C90.6141 397.967 90.074 398.458 88.9446 399.022L88.8955 399.047C88.0116 398.261 87.3487 397.721 87.3487 396.862ZM86.2194 405.332C86.2194 404.497 86.7104 403.54 88.208 402.607L91.7926 406.069C90.6878 407.075 89.7303 407.493 88.6991 407.493C87.5452 407.493 86.2194 406.854 86.2194 405.332ZM106.242 404.792C106.389 407.665 108.771 410.488 112.944 410.488C116.603 410.488 119.009 408.278 119.009 405.308C119.009 402.607 117.314 400.815 114.491 400.029L112.453 399.464C111.029 399.047 110.244 398.458 110.268 397.377C110.293 396.346 111.275 395.757 112.527 395.757C113.558 395.757 114.712 396.297 115.105 397.77H118.64C118.518 395.168 116.283 392.467 112.527 392.467C109.041 392.467 106.659 394.407 106.684 397.623C106.708 400.274 108.5 401.993 111.25 402.779L113.092 403.319C114.761 403.785 115.424 404.497 115.424 405.43C115.424 406.535 114.368 407.198 112.944 407.198C111.398 407.198 110.047 406.363 109.802 404.792H106.242ZM133.538 405.504H130.051C129.585 406.609 128.676 407.419 127.252 407.419C125.485 407.419 124.183 406.093 124.183 404.055C124.183 402.018 125.485 400.692 127.252 400.692C128.676 400.692 129.585 401.502 130.051 402.607H133.538C132.875 399.783 130.641 397.647 127.252 397.647C123.521 397.647 120.795 400.495 120.795 404.055C120.795 407.615 123.521 410.463 127.252 410.463C130.641 410.463 132.875 408.327 133.538 405.504ZM139.653 393.768C139.653 392.59 138.695 391.632 137.492 391.632C136.338 391.632 135.356 392.59 135.356 393.768C135.356 394.947 136.338 395.904 137.492 395.904C138.695 395.904 139.653 394.947 139.653 393.768ZM135.823 410.193H139.186V397.917H135.823V410.193ZM152.286 406.732C152.286 404.817 151.28 403.54 148.873 402.926L146.713 402.337C145.976 402.165 145.313 401.895 145.313 401.207C145.313 400.618 145.903 400.274 146.762 400.274C147.499 400.274 148.211 400.594 148.382 401.527H151.771C151.574 399.071 149.512 397.647 146.811 397.647C143.742 397.647 141.876 399.17 141.876 401.281C141.876 403.073 142.858 404.546 144.994 405.087L147.302 405.676C148.382 405.946 148.849 406.265 148.849 406.903C148.849 407.493 148.309 407.885 147.253 407.885C146.173 407.885 145.24 407.37 145.117 406.29H141.606C141.729 408.696 143.988 410.463 147.155 410.463C150.126 410.463 152.286 409.039 152.286 406.732ZM164.586 406.732C164.586 404.817 163.579 403.54 161.173 402.926L159.013 402.337C158.276 402.165 157.613 401.895 157.613 401.207C157.613 400.618 158.203 400.274 159.062 400.274C159.798 400.274 160.51 400.594 160.682 401.527H164.07C163.874 399.071 161.812 397.647 159.111 397.647C156.042 397.647 154.176 399.17 154.176 401.281C154.176 403.073 155.158 404.546 157.294 405.087L159.602 405.676C160.682 405.946 161.149 406.265 161.149 406.903C161.149 407.493 160.609 407.885 159.553 407.885C158.473 407.885 157.54 407.37 157.417 406.29H153.906C154.029 408.696 156.287 410.463 159.455 410.463C162.425 410.463 164.586 409.039 164.586 406.732ZM179.12 404.055C179.12 400.471 176.223 397.647 172.663 397.647C169.103 397.647 166.206 400.471 166.206 404.055C166.206 407.64 169.103 410.463 172.663 410.463C176.223 410.463 179.12 407.64 179.12 404.055ZM169.594 404.055C169.594 402.165 170.895 400.79 172.663 400.79C174.431 400.79 175.707 402.165 175.707 404.055C175.707 405.946 174.431 407.321 172.663 407.321C170.895 407.321 169.594 405.946 169.594 404.055ZM181.546 410.193H184.909V404.325C184.909 402.312 185.965 401.06 187.561 401.06C188.101 401.06 188.567 401.158 189.083 401.33V397.917C188.666 397.795 188.297 397.77 187.954 397.77C186.579 397.77 185.327 398.679 184.909 399.882V397.917H181.546V410.193ZM200.886 406.732C200.886 404.817 199.879 403.54 197.473 402.926L195.313 402.337C194.576 402.165 193.913 401.895 193.913 401.207C193.913 400.618 194.503 400.274 195.362 400.274C196.098 400.274 196.81 400.594 196.982 401.527H200.37C200.174 399.071 198.112 397.647 195.411 397.647C192.342 397.647 190.476 399.17 190.476 401.281C190.476 403.073 191.458 404.546 193.594 405.087L195.902 405.676C196.982 405.946 197.449 406.265 197.449 406.903C197.449 407.493 196.909 407.885 195.853 407.885C194.773 407.885 193.84 407.37 193.717 406.29H190.206C190.329 408.696 192.588 410.463 195.755 410.463C198.726 410.463 200.886 409.039 200.886 406.732Z" fill="white"/>
<g clip-path="url(#clip1_4183_91117)">
<path d="M427.399 257.909L466.815 243.323C471.234 243.639 473.434 243.438 477.862 244.112C474.967 250.226 474.95 253.564 471.979 260.108C456.575 294.026 440.489 310.834 409.973 326.252C377.869 319.436 354.647 285.736 353.567 283.291C352.487 280.846 347.724 279.245 348.053 278.509C348.383 277.772 427.399 257.909 427.399 257.909Z" fill="#FFABDD"/>
<path d="M425.458 253.081L464.874 238.495C469.293 238.811 471.493 238.61 475.921 239.284C473.026 245.398 473.009 248.736 470.037 255.28C454.633 289.198 438.547 306.006 408.032 321.424C375.928 314.608 352.706 280.907 351.626 278.462C350.545 276.017 345.783 274.417 346.112 273.681C346.441 272.944 425.458 253.081 425.458 253.081Z" fill="#FF81CC"/>
<path d="M344.122 271.096C375.176 265.746 399.878 232.868 408.347 217.097C432.68 226.548 446.34 228.271 470.739 226.294C467.302 231.67 468.5 232.875 466.706 239.141C453.993 283.559 424.157 306.266 409.947 313.075C370.76 306.961 351.5 277.242 351.391 275.55C351.304 274.196 346.509 272.017 344.122 271.096Z" fill="#FFABDD" stroke="#FFABDD" stroke-width="0.228155" stroke-linecap="square"/>
<path d="M421.968 240.344C413.2 252.666 389.591 279.473 383.03 283.112" stroke="white" stroke-width="1.8675" stroke-linecap="round"/>
<path d="M437.818 248.798C429.05 261.121 404.278 289.871 398.452 295.122" stroke="white" stroke-width="1.8675" stroke-linecap="round"/>
<path d="M441.67 263.185C427.701 257.962 410.229 248.557 404.151 245.39" stroke="white" stroke-width="1.8675" stroke-linecap="round"/>
<path d="M429.339 281.992C415.068 276.657 393.086 265.346 389.434 262.792" stroke="white" stroke-width="1.8675" stroke-linecap="round"/>
<path d="M418.682 265.711C416.861 268.089 414.11 268.474 412.6 267.317C411.091 266.161 410.747 263.405 412.568 261.027C414.39 258.649 417.141 258.264 418.65 259.421C420.16 260.577 420.504 263.333 418.682 265.711Z" stroke="white" stroke-width="2.5614"/>
<path d="M385.267 274.737C382.888 276.557 380.132 276.211 378.977 274.7C377.822 273.19 378.209 270.44 380.588 268.62C382.967 266.8 385.723 267.146 386.878 268.657C388.033 270.167 387.647 272.918 385.267 274.737Z" stroke="white" stroke-width="2.5614"/>
<path d="M418.624 293.401C416.757 295.744 414 296.076 412.512 294.891C411.025 293.706 410.733 290.944 412.6 288.602C414.467 286.259 417.224 285.927 418.711 287.112C420.199 288.297 420.491 291.059 418.624 293.401Z" stroke="white" stroke-width="2.5614"/>
<path d="M431.401 249.591C429.534 251.934 426.777 252.266 425.29 251.081C423.803 249.896 423.511 247.134 425.377 244.791C427.244 242.448 430.002 242.116 431.489 243.301C432.976 244.486 433.268 247.248 431.401 249.591Z" stroke="white" stroke-width="2.5614"/>
<path d="M443.333 248.109L445.541 260.063M437.748 256.635L451.671 251.911" stroke="#FF004B" stroke-width="2.5614" stroke-linecap="round"/>
<path d="M398.072 248.79L399.72 260.834M392.095 257.047L406.223 252.976" stroke="#FF004B" stroke-width="2.5614" stroke-linecap="round"/>
<path d="M396.88 276.107C397.629 281.481 398.101 284.167 399.088 288.061M391.295 284.633C396.81 282.948 399.867 281.914 405.218 279.909" stroke="#FF004B" stroke-width="2.5614" stroke-linecap="round"/>
<path d="M411.302 232.896C411.817 238.297 412.179 239.557 412.995 243.49M405.359 239.727C410.942 238.283 413.265 237.849 418.698 236.078" stroke="#FF004B" stroke-width="2.5614" stroke-linecap="round"/>
</g>
<path d="M346.698 382.891H350.282V368.847H354.971V365.459H342.057V368.847H346.698V382.891ZM360.779 366.466C360.779 365.287 359.821 364.33 358.618 364.33C357.464 364.33 356.482 365.287 356.482 366.466C356.482 367.644 357.464 368.602 358.618 368.602C359.821 368.602 360.779 367.644 360.779 366.466ZM356.948 382.891H360.312V370.615H356.948V382.891ZM375.499 378.201H372.012C371.546 379.306 370.637 380.116 369.213 380.116C367.446 380.116 366.144 378.79 366.144 376.753C366.144 374.715 367.446 373.389 369.213 373.389C370.637 373.389 371.546 374.199 372.012 375.304H375.499C374.836 372.481 372.601 370.345 369.213 370.345C365.481 370.345 362.756 373.193 362.756 376.753C362.756 380.313 365.481 383.161 369.213 383.161C372.601 383.161 374.836 381.025 375.499 378.201ZM386.162 382.891H389.747V368.847H394.436V365.459H381.522V368.847H386.162V382.891ZM393.542 376.753C393.542 380.239 396.046 383.161 399.311 383.161C401.006 383.161 402.307 382.301 402.847 381.516V382.891H406.211V370.615H402.847V371.99C402.307 371.204 401.006 370.345 399.311 370.345C396.046 370.345 393.542 373.266 393.542 376.753ZM403.117 376.753C403.117 378.668 401.865 380.092 400.023 380.092C398.182 380.092 396.93 378.668 396.93 376.753C396.93 374.838 398.182 373.414 400.023 373.414C401.865 373.414 403.117 374.838 403.117 376.753ZM421.437 378.201H417.951C417.484 379.306 416.576 380.116 415.152 380.116C413.384 380.116 412.083 378.79 412.083 376.753C412.083 374.715 413.384 373.389 415.152 373.389C416.576 373.389 417.484 374.199 417.951 375.304H421.437C420.774 372.481 418.54 370.345 415.152 370.345C411.42 370.345 408.695 373.193 408.695 376.753C408.695 380.313 411.42 383.161 415.152 383.161C418.54 383.161 420.774 381.025 421.437 378.201ZM432.101 382.891H435.686V368.847H440.375V365.459H427.461V368.847H432.101V382.891ZM452.322 376.753C452.322 373.168 449.425 370.345 445.865 370.345C442.305 370.345 439.408 373.168 439.408 376.753C439.408 380.337 442.305 383.161 445.865 383.161C449.425 383.161 452.322 380.337 452.322 376.753ZM442.796 376.753C442.796 374.862 444.097 373.487 445.865 373.487C447.633 373.487 448.909 374.862 448.909 376.753C448.909 378.643 447.633 380.018 445.865 380.018C444.097 380.018 442.796 378.643 442.796 376.753ZM466.68 378.889H463.169C462.776 379.723 461.745 380.239 460.566 380.239C458.48 380.239 457.399 378.987 457.252 377.538H466.827C466.999 372.923 464.028 370.345 460.419 370.345C456.687 370.345 453.962 373.07 453.962 376.728C453.962 380.46 456.638 383.161 460.395 383.161C463.513 383.161 465.943 381.368 466.68 378.889ZM460.321 373.07C461.475 373.07 462.727 373.684 463.144 375.329H457.375C457.694 373.978 458.774 373.07 460.321 373.07ZM479.147 379.429C479.147 377.514 478.141 376.237 475.734 375.623L473.574 375.034C472.837 374.862 472.174 374.592 472.174 373.905C472.174 373.315 472.764 372.972 473.623 372.972C474.36 372.972 475.072 373.291 475.243 374.224H478.632C478.435 371.769 476.373 370.345 473.672 370.345C470.603 370.345 468.737 371.867 468.737 373.978C468.737 375.771 469.719 377.244 471.855 377.784L474.163 378.373C475.243 378.643 475.71 378.962 475.71 379.601C475.71 380.19 475.17 380.583 474.114 380.583C473.034 380.583 472.101 380.067 471.978 378.987H468.467C468.59 381.393 470.849 383.161 474.016 383.161C476.987 383.161 479.147 381.737 479.147 379.429Z" fill="white"/>
<g clip-path="url(#clip2_4183_91117)">
<path d="M684.617 245.863L730.965 253.843L729.946 291.872L684.617 290.684C683.858 273.18 682.846 263.366 684.617 245.863Z" fill="#6677DC"/>
<path d="M654.398 262.161L684.788 245.693C683.657 269.324 685.385 281.949 686.656 304.945H654.738L654.398 262.161Z" fill="#778AF7"/>
<path d="M730.763 261.474C730.763 272.568 709.844 276.54 695.051 276.54C680.259 276.54 654.318 274.8 654.318 263.706C652.583 266.465 682.776 241.386 695.051 222.973C709.844 222.973 730.763 250.38 730.763 261.474Z" fill="url(#paint0_linear_4183_91117)"/>
<path d="M706.52 274.213C706.52 274.213 729.191 254.502 731.986 254.179C734.781 253.856 733.572 299.017 731.986 302.395C730.4 305.774 708.217 327.692 707.538 326.843C706.859 325.994 706.52 274.213 706.52 274.213Z" fill="#6B7FF3"/>
<path d="M705.84 272.008C715.939 264.875 721.405 260.863 730.627 253.672L731.985 254.181C724.16 261.336 718.267 265.821 706.519 274.215L705.84 272.008Z" fill="#5C70EA"/>
<path d="M650.664 263.181C649.476 262.671 682.582 245.293 682.582 245.293L684.619 245.802L654.399 263.86C654.399 263.86 651.852 263.69 650.664 263.181Z" fill="#5C70EA"/>
<path d="M693.615 205.455C695.653 204.097 746.415 211.057 746.415 211.057L731.984 254.18L682.41 245.352C687.078 229.889 691.578 206.813 693.615 205.455Z" fill="#8395FF"/>
<path d="M680.439 229.734C679.59 230.753 674.667 230.753 672.629 230.244C670.592 229.734 670.32 219.242 677.383 211.908C686.211 202.74 702 202.061 708.961 214.794C715.922 227.527 702.679 238.223 696.228 239.242C691.345 240.013 699.284 249.259 696.228 251.296C693.172 253.333 691.304 252.824 690.116 252.654C688.928 252.483 680.587 236.766 687.399 234.318C704.886 228.037 700.812 215.643 690.795 216.492C682.782 217.171 681.288 228.715 680.439 229.734Z" fill="#EFCD1B" stroke="#F0C024" stroke-width="1.35819"/>
<circle cx="696.228" cy="262.161" r="6.79097" fill="#EFCD1B" stroke="#F0C024" stroke-width="1.35819"/>
<path d="M746.414 211.059C746.414 211.059 748.791 212.417 748.621 213.096C748.451 213.775 739.914 238.308 733.598 254.181C733.202 255.176 732.919 256.219 732.919 256.219L731.983 254.181L730.285 254.012L746.414 211.059Z" fill="#7585E1"/>
<path d="M650.663 263.18C651.172 262.331 706.518 274.215 706.518 274.215C706.518 274.215 711.782 324.469 707.537 326.845C703.293 329.222 653.719 315.81 652.021 313.603C650.323 311.396 650.154 264.029 650.663 263.18Z" fill="#8395FF"/>
<path d="M654.399 262.16C674.742 266.624 685.474 268.793 705.841 272.007L706.52 274.214C684.462 270.975 672.227 268.552 650.664 263.179L654.399 262.16Z" fill="#5C70EA"/>
<path d="M669.509 267.594C670.253 266.217 670.868 265.727 671.547 265.727L682.582 267.934C680.952 267.662 680.488 269.122 680.545 269.971C679.339 290.097 679.961 301.838 681.038 322.13L681.054 322.431C676.436 323.518 670.924 320.733 669.509 319.375C668.831 302.886 668.717 269.063 669.509 267.594Z" fill="#91D5DD"/>
<path d="M723.669 261.311C723.117 259.846 722.48 260.292 721.801 260.292L714.161 266.065C715.35 266.235 715.93 266.431 716.199 267.253C718.572 274.509 720.016 314.927 718.654 317.087L718.576 317.167C718.603 317.154 718.629 317.127 718.654 317.087L726.725 308.848C727.837 308.97 727.777 272.198 723.669 261.311Z" fill="#91D5DD"/>
<path d="M660.021 316.55C670.996 318.662 701.511 294.303 706.769 274.309C708.183 275.391 710.953 322.996 707.885 326.76C706.24 328.778 689.471 324.714 681.101 322.296C676.079 323.412 671.615 320.808 669.383 319.506L660.021 316.55C659.574 316.464 659.16 316.334 658.781 316.158L660.021 316.55Z" fill="#AFBBFF" fill-opacity="0.24"/>
</g>
<path d="M610.402 382.891H613.962V375.844H619.486V372.456H613.962V368.847H621.008V365.459H610.402V382.891ZM634.295 376.753C634.295 373.168 631.397 370.345 627.837 370.345C624.277 370.345 621.38 373.168 621.38 376.753C621.38 380.337 624.277 383.161 627.837 383.161C631.397 383.161 634.295 380.337 634.295 376.753ZM624.768 376.753C624.768 374.862 626.07 373.487 627.837 373.487C629.605 373.487 630.882 374.862 630.882 376.753C630.882 378.643 629.605 380.018 627.837 380.018C626.07 380.018 624.768 378.643 624.768 376.753ZM636.72 382.891H640.084V377.023C640.084 375.01 641.139 373.757 642.735 373.757C643.275 373.757 643.742 373.856 644.258 374.027V370.615C643.84 370.492 643.472 370.467 643.128 370.467C641.753 370.467 640.501 371.376 640.084 372.579V370.615H636.72V382.891ZM646.407 382.891H649.77V376.9C649.77 374.543 650.777 373.414 652.225 373.414C653.551 373.414 654.14 374.518 654.14 376.335V382.891H657.504V376.9C657.504 374.543 658.511 373.414 659.959 373.414C661.285 373.414 661.874 374.518 661.874 376.335V382.891H665.238V375.771C665.238 372.456 663.568 370.345 660.647 370.345C659.247 370.345 657.602 371.081 656.841 372.603C656.105 371.179 654.828 370.345 653.036 370.345C651.538 370.345 650.433 371.057 649.77 372.014V370.615H646.407V382.891ZM678.811 382.891H681.978L689.196 365.459H685.268L680.407 377.563L675.472 365.459H671.617L678.811 382.891ZM688.179 376.753C688.179 380.239 690.683 383.161 693.949 383.161C695.643 383.161 696.944 382.301 697.484 381.516V382.891H700.848V370.615H697.484V371.99C696.944 371.204 695.643 370.345 693.949 370.345C690.683 370.345 688.179 373.266 688.179 376.753ZM697.754 376.753C697.754 378.668 696.502 380.092 694.661 380.092C692.819 380.092 691.567 378.668 691.567 376.753C691.567 374.838 692.819 373.414 694.661 373.414C696.502 373.414 697.754 374.838 697.754 376.753ZM704.118 382.891H707.481V364.477H704.118V382.891ZM714.541 366.466C714.541 365.287 713.584 364.33 712.381 364.33C711.227 364.33 710.245 365.287 710.245 366.466C710.245 367.644 711.227 368.602 712.381 368.602C713.584 368.602 714.541 367.644 714.541 366.466ZM710.711 382.891H714.075V370.615H710.711V382.891ZM716.519 376.753C716.519 380.239 719.023 383.161 722.288 383.161C723.983 383.161 725.284 382.301 725.824 381.516V382.891H729.188V364.477H725.824V371.99C725.284 371.204 723.983 370.345 722.288 370.345C719.023 370.345 716.519 373.266 716.519 376.753ZM726.094 376.753C726.094 378.668 724.842 380.092 723 380.092C721.159 380.092 719.907 378.668 719.907 376.753C719.907 374.838 721.159 373.414 723 373.414C724.842 373.414 726.094 374.838 726.094 376.753ZM731.672 376.753C731.672 380.239 734.176 383.161 737.442 383.161C739.136 383.161 740.437 382.301 740.977 381.516V382.891H744.341V370.615H740.977V371.99C740.437 371.204 739.136 370.345 737.442 370.345C734.176 370.345 731.672 373.266 731.672 376.753ZM741.247 376.753C741.247 378.668 739.995 380.092 738.154 380.092C736.312 380.092 735.06 378.668 735.06 376.753C735.06 374.838 736.312 373.414 738.154 373.414C739.995 373.414 741.247 374.838 741.247 376.753ZM755.688 382.768V379.797C755.295 379.944 754.853 380.018 754.313 380.018C752.865 380.018 752.226 379.429 752.226 377.931V373.561H755.688V370.615H752.226V367.202H748.863V370.615H746.383V373.561H748.863V378.594C748.863 381.589 750.95 383.038 753.552 383.038C754.485 383.038 755.148 382.94 755.688 382.768ZM770.024 376.753C770.024 373.168 767.127 370.345 763.567 370.345C760.007 370.345 757.11 373.168 757.11 376.753C757.11 380.337 760.007 383.161 763.567 383.161C767.127 383.161 770.024 380.337 770.024 376.753ZM760.498 376.753C760.498 374.862 761.799 373.487 763.567 373.487C765.335 373.487 766.612 374.862 766.612 376.753C766.612 378.643 765.335 380.018 763.567 380.018C761.799 380.018 760.498 378.643 760.498 376.753ZM772.45 382.891H775.814V377.023C775.814 375.01 776.869 373.757 778.465 373.757C779.005 373.757 779.472 373.856 779.987 374.027V370.615C779.57 370.492 779.202 370.467 778.858 370.467C777.483 370.467 776.231 371.376 775.814 372.579V370.615H772.45V382.891Z" fill="white"/>
</g>
<defs>
<filter id="filter0_d_4183_91117" x="0" y="0" width="849" height="571" filterUnits="userSpaceOnUse" color-interpolation-filters="sRGB">
<feFlood flood-opacity="0" result="BackgroundImageFix"/>
<feColorMatrix in="SourceAlpha" type="matrix" values="0 0 0 0 0 0 0 0 0 0 0 0 0 0 0 0 0 0 127 0" result="hardAlpha"/>
<feOffset dy="4"/>
<feGaussianBlur stdDeviation="6"/>
<feColorMatrix type="matrix" values="0 0 0 0 0 0 0 0 0 0.0705833 0 0 0 0 0.320833 0 0 0 0.12 0"/>
<feBlend mode="normal" in2="BackgroundImageFix" result="effect1_dropShadow_4183_91117"/>
<feBlend mode="normal" in="SourceGraphic" in2="effect1_dropShadow_4183_91117" result="shape"/>
</filter>
<linearGradient id="paint0_linear_4183_91117" x1="695.052" y1="286.026" x2="693.936" y2="252.546" gradientUnits="userSpaceOnUse">
<stop stop-color="#FFF4EB"/>
<stop offset="1" stop-color="#FFF4EB" stop-opacity="0"/>
</linearGradient>
<clipPath id="clip0_4183_91117">
<rect width="135.034" height="122.759" fill="white" transform="translate(73.4648 204)"/>
</clipPath>
<clipPath id="clip1_4183_91117">
<rect width="135.034" height="122.759" fill="white" transform="translate(343.406 204)"/>
</clipPath>
<clipPath id="clip2_4183_91117">
<rect width="135.034" height="122.759" fill="white" transform="translate(626.973 204)"/>
</clipPath>
</defs>
</svg>
