<svg width="58" height="58" viewBox="0 0 58 58" fill="none" xmlns="http://www.w3.org/2000/svg">
<rect width="58" height="58" rx="29" fill="#C32AA3" fill-opacity="0.2"/>
<path d="M29 26.6188C28.5291 26.6189 28.0688 26.7587 27.6773 27.0205C27.2858 27.2823 26.9807 27.6542 26.8006 28.0894C26.6206 28.5245 26.5735 29.0032 26.6655 29.4651C26.7575 29.927 26.9844 30.3512 27.3174 30.6841C27.6505 31.017 28.0748 31.2438 28.5367 31.3356C28.9986 31.4274 29.4773 31.3802 29.9124 31.1999C30.3474 31.0196 30.7193 30.7144 30.9809 30.3229C31.2425 29.9313 31.3821 29.4709 31.3821 29C31.3817 28.3684 31.1305 27.7629 30.6839 27.3164C30.2372 26.8699 29.6316 26.619 29 26.6188V26.6188ZM34.5674 24.7884C34.4462 24.4812 34.2631 24.2022 34.0296 23.9686C33.7961 23.7351 33.517 23.552 33.2098 23.4308C32.2723 23.0607 30.0402 23.1438 29 23.1438C27.9598 23.1438 25.7299 23.0576 24.7897 23.4308C24.4825 23.552 24.2035 23.7351 23.97 23.9686C23.7364 24.2022 23.5534 24.4812 23.4321 24.7884C23.0625 25.7259 23.1451 27.9603 23.1451 28.9996C23.1451 30.0388 23.0625 32.2705 23.4339 33.2112C23.5552 33.5184 23.7382 33.7974 23.9717 34.0309C24.2053 34.2645 24.4843 34.4475 24.7915 34.5687C25.729 34.9388 27.9612 34.8558 29.0018 34.8558C30.0424 34.8558 32.2714 34.942 33.2116 34.5687C33.5188 34.4475 33.7978 34.2645 34.0314 34.0309C34.2649 33.7974 34.448 33.5184 34.5692 33.2112C34.942 32.2737 34.8563 30.0393 34.8563 29C34.8563 27.9607 34.942 25.7295 34.5692 24.7888L34.5674 24.7884ZM29 32.6607C28.276 32.6607 27.5682 32.446 26.9662 32.0438C26.3642 31.6415 25.895 31.0698 25.6179 30.4009C25.3409 29.732 25.2684 28.9959 25.4096 28.2858C25.5509 27.5757 25.8995 26.9234 26.4115 26.4115C26.9234 25.8995 27.5757 25.5509 28.2858 25.4096C28.9959 25.2684 29.732 25.3409 30.4009 25.6179C31.0698 25.895 31.6415 26.3642 32.0438 26.9662C32.446 27.5682 32.6607 28.276 32.6607 29C32.6613 29.4809 32.567 29.9572 32.3833 30.4016C32.1995 30.846 31.9299 31.2498 31.5898 31.5898C31.2498 31.9299 30.846 32.1995 30.4016 32.3833C29.9572 32.567 29.4809 32.6613 29 32.6607V32.6607ZM32.8116 26.0402C32.6426 26.0403 32.4773 25.9902 32.3368 25.8964C32.1962 25.8026 32.0866 25.6691 32.0219 25.513C31.9571 25.3569 31.9401 25.1851 31.9731 25.0193C32.006 24.8535 32.0873 24.7012 32.2068 24.5817C32.3263 24.4621 32.4785 24.3807 32.6443 24.3477C32.8101 24.3147 32.9819 24.3316 33.138 24.3962C33.2942 24.4609 33.4277 24.5704 33.5216 24.711C33.6155 24.8515 33.6656 25.0167 33.6656 25.1857C33.6661 25.298 33.6444 25.4092 33.6018 25.513C33.5592 25.6168 33.4965 25.7112 33.4173 25.7908C33.3381 25.8704 33.244 25.9335 33.1404 25.9766C33.0368 26.0197 32.9256 26.0419 32.8134 26.042L32.8116 26.0402ZM36.8571 19H21.1429C20.5745 19 20.0295 19.2258 19.6276 19.6276C19.2258 20.0295 19 20.5745 19 21.1429V36.8571C19 37.4255 19.2258 37.9705 19.6276 38.3724C20.0295 38.7742 20.5745 39 21.1429 39H36.8571C37.4255 39 37.9705 38.7742 38.3724 38.3724C38.7742 37.9705 39 37.4255 39 36.8571V21.1429C39 20.5745 38.7742 20.0295 38.3724 19.6276C37.9705 19.2258 37.4255 19 36.8571 19V19ZM36.0929 31.9464C36.0353 33.0906 35.7741 34.1045 34.9388 34.9375C34.1036 35.7705 33.0906 36.0371 31.9478 36.0915C30.7688 36.158 27.2339 36.158 26.0549 36.0915C24.9107 36.0339 23.9004 35.7723 23.0638 34.9375C22.2272 34.1027 21.9643 33.0884 21.9098 31.9464C21.8433 30.767 21.8433 27.2317 21.9098 26.0536C21.9674 24.9094 22.2254 23.8955 23.0638 23.0625C23.9022 22.2295 24.9152 21.9661 26.0549 21.9116C27.2339 21.8451 30.7688 21.8451 31.9478 21.9116C33.092 21.9692 34.1054 22.2308 34.9388 23.0656C35.7723 23.9004 36.0384 24.9147 36.0929 26.0589C36.1594 27.2339 36.1594 30.7661 36.0929 31.9464Z" fill="#C32AA3"/>
</svg>
