<svg width="56" height="56" viewBox="0 0 56 56" fill="none" xmlns="http://www.w3.org/2000/svg">
<rect width="56" height="56" rx="28" fill="#D9FFE5"/>
<path d="M35 21L21 35" stroke="#56BD5B" stroke-width="2" stroke-linecap="round" stroke-linejoin="round"/>
<path d="M33.5 36C34.8807 36 36 34.8807 36 33.5C36 32.1193 34.8807 31 33.5 31C32.1193 31 31 32.1193 31 33.5C31 34.8807 32.1193 36 33.5 36Z" stroke="#56BD5B" stroke-width="2" stroke-linecap="round" stroke-linejoin="round"/>
<path d="M22.5 25C23.8807 25 25 23.8807 25 22.5C25 21.1193 23.8807 20 22.5 20C21.1193 20 20 21.1193 20 22.5C20 23.8807 21.1193 25 22.5 25Z" stroke="#56BD5B" stroke-width="2" stroke-linecap="round" stroke-linejoin="round"/>
</svg>
