<svg width="36" height="36" viewBox="0 0 36 36" fill="none" xmlns="http://www.w3.org/2000/svg">
<path d="M8.13672 15.5867C8.13672 15.3987 8.23679 15.2248 8.39942 15.1303L11.8508 13.1249C12.0268 13.0227 12.2474 13.1497 12.2474 13.3532V27.8755C12.2474 27.9764 12.1656 28.0582 12.0647 28.0582H8.31941C8.21851 28.0582 8.13672 27.9764 8.13672 27.8755V15.5867Z" fill="url(#paint0_linear_6250_41333)"/>
<path d="M8.13672 14.9895C8.13672 14.9242 8.17151 14.8639 8.22798 14.8313L11.9732 12.6663C12.095 12.5959 12.2474 12.6838 12.2474 12.8244L12.2474 20.2938C12.2474 20.4451 12.1247 20.5678 11.9733 20.5678H8.41076C8.25942 20.5678 8.13672 20.4451 8.13672 20.2938V14.9895Z" fill="url(#paint1_linear_6250_41333)"/>
<path d="M18.5229 12.4441L8.50362 18.1969C8.27666 18.3272 8.13672 18.5689 8.13672 18.8306V23.1019L18.9785 16.8423C19.2046 16.7118 19.3439 16.4705 19.3439 16.2095V12.9194C19.3439 12.498 18.8883 12.2343 18.5229 12.4441Z" fill="url(#paint2_linear_6250_41333)"/>
<path fill-rule="evenodd" clip-rule="evenodd" d="M8.57812 22.8482C8.31514 22.9899 8.1364 23.2678 8.1364 23.5874C8.1364 23.5895 8.13641 23.5915 8.13642 23.5936L8.13639 23.5936V22.5977L8.57812 22.8482Z" fill="#6501E5"/>
<path fill-rule="evenodd" clip-rule="evenodd" d="M18.9537 16.8574C18.9901 16.7706 19.0103 16.6752 19.0103 16.5751C19.0103 16.4196 18.9617 16.2755 18.8789 16.157L19.3461 15.8926V16.2089C19.3461 16.4698 19.207 16.7109 18.9812 16.8415L18.9537 16.8574Z" fill="#9327FE"/>
<path d="M18.8837 16.1701C18.7584 15.7849 12.3334 11.4689 7.91111 8.47895C7.7619 8.37808 7.83416 8.14564 8.01426 8.14564L13.2812 8.1456C13.3183 8.1456 13.3545 8.15687 13.385 8.17792L19.0292 12.0718C19.2269 12.2082 19.345 12.4331 19.345 12.6734L19.345 15.902L18.8837 16.1701Z" fill="#9327FE"/>
<defs>
<linearGradient id="paint0_linear_6250_41333" x1="10.192" y1="26.4827" x2="10.192" y2="19.5474" gradientUnits="userSpaceOnUse">
<stop stop-color="#00A3FF"/>
<stop offset="1" stop-color="#0597EA"/>
</linearGradient>
<linearGradient id="paint1_linear_6250_41333" x1="10.192" y1="19.7705" x2="10.192" y2="16.2611" gradientUnits="userSpaceOnUse">
<stop stop-color="#00A3FF"/>
<stop offset="1" stop-color="#0597EA"/>
</linearGradient>
<linearGradient id="paint2_linear_6250_41333" x1="11.6734" y1="18.5117" x2="20.1093" y2="13.779" gradientUnits="userSpaceOnUse">
<stop stop-color="#6501E5"/>
<stop offset="1" stop-color="#5F01D8"/>
</linearGradient>
</defs>
</svg>
