<svg width="93" height="22" viewBox="0 0 93 22" fill="none" xmlns="http://www.w3.org/2000/svg">
<path fill-rule="evenodd" clip-rule="evenodd" d="M70.375 7.3125C69.2359 7.3125 68.3125 8.23591 68.3125 9.375V18.625C68.3125 19.7641 69.2359 20.6875 70.375 20.6875H90.625C91.7641 20.6875 92.6875 19.7641 92.6875 18.625V9.375C92.6875 8.23591 91.7641 7.3125 90.625 7.3125H70.375ZM69.6875 9.375C69.6875 8.9953 69.9953 8.6875 70.375 8.6875H90.625C91.0047 8.6875 91.3125 8.9953 91.3125 9.375V18.625C91.3125 19.0047 91.0047 19.3125 90.625 19.3125H70.375C69.9953 19.3125 69.6875 19.0047 69.6875 18.625V9.375ZM74.7254 10.8765C75.9587 10.8765 76.8815 11.7907 76.8815 12.9723C76.8815 14.1539 75.9587 15.0595 74.7254 15.0595H74.0182V17H72.6468V10.8765H74.7254ZM74.7081 13.7744C75.1997 13.7744 75.5533 13.4208 75.5533 12.9723C75.5533 12.5152 75.1997 12.1702 74.7081 12.1702H74.0182V13.7744H74.7081ZM79.1306 17H77.7593V10.8765H80.1742C81.3299 10.8765 82.0716 11.7045 82.0716 12.7222C82.0716 13.5157 81.649 14.0245 80.8728 14.3005L83.0375 17H81.3902L79.3548 14.473H79.1306V17ZM79.1306 12.1357V13.3087H80.0103C80.4157 13.3087 80.7089 13.0758 80.7089 12.7222C80.7089 12.3513 80.4157 12.1357 80.0103 12.1357H79.1306ZM89.2278 13.9383C89.2278 15.6804 87.8047 17.1035 86.0625 17.1035C84.3118 17.1035 82.8973 15.6804 82.8973 13.9383C82.8973 12.1961 84.3118 10.773 86.0625 10.773C87.8047 10.773 89.2278 12.1961 89.2278 13.9383ZM84.2773 13.9383C84.2773 14.9301 85.0621 15.7753 86.0625 15.7753C87.0544 15.7753 87.8392 14.9301 87.8392 13.9383C87.8392 12.9464 87.0544 12.1012 86.0625 12.1012C85.0621 12.1012 84.2773 12.9464 84.2773 13.9383Z" fill="#2C334E"/>
<path d="M1.00439 8.42279C1.00439 8.26082 1.09057 8.11109 1.23061 8.02972L4.20262 6.30291C4.35415 6.21486 4.54411 6.32419 4.54411 6.49944V19.0048C4.54411 19.0917 4.47368 19.1621 4.38679 19.1621H1.16172C1.07483 19.1621 1.00439 19.0917 1.00439 19.0048V8.42279Z" fill="#2C334E"/>
<path d="M1.0044 7.90845C1.0044 7.85228 1.03435 7.80036 1.08298 7.77225L4.30806 5.90794C4.41294 5.84731 4.54412 5.923 4.54412 6.04414L4.54412 12.4761C4.54412 12.6064 4.43846 12.7121 4.30813 12.7121H1.24038C1.11005 12.7121 1.0044 12.6064 1.0044 12.4761V7.90845Z" fill="#2C334E"/>
<path d="M9.94807 5.71745L1.32034 10.6713C1.1249 10.7835 1.00439 10.9916 1.00439 11.217V14.8951L10.3404 9.50486C10.5351 9.39245 10.655 9.18471 10.655 8.95989V6.12674C10.655 5.76392 10.2627 5.53679 9.94807 5.71745Z" fill="#2C334E"/>
<path fill-rule="evenodd" clip-rule="evenodd" d="M1.38477 14.6757C1.15831 14.7977 1.0044 15.037 1.0044 15.3123C1.0044 15.314 1.00441 15.3158 1.00442 15.3176L1.00438 15.3175L1.00438 14.46L1.38477 14.6757Z" fill="#2C334E"/>
<path fill-rule="evenodd" clip-rule="evenodd" d="M10.3193 9.51738C10.3507 9.44258 10.368 9.36044 10.368 9.27426C10.368 9.14037 10.3262 9.01624 10.2549 8.91422L10.6572 8.68652L10.6572 8.95894C10.6572 9.1836 10.5375 9.39122 10.343 9.50369L10.3193 9.51738Z" fill="#2C334E"/>
<path d="M10.2602 8.92526C10.1524 8.59361 4.61972 4.87701 0.811637 2.30235C0.683155 2.21549 0.745377 2.01533 0.900468 2.01533L5.4359 2.0153C5.46782 2.0153 5.49897 2.02501 5.52524 2.04313L10.3855 5.39622C10.5558 5.51369 10.6575 5.70734 10.6575 5.9142L10.6574 8.69441L10.2602 8.92526Z" fill="#2C334E"/>
<path d="M12.9248 12.3598C12.7927 12.3199 12.5946 12.2933 12.3965 12.2933C11.8681 12.2933 11.036 12.5063 10.6926 13.2518V12.3598H8.75098V18.9761H10.7586V16.0873C10.7586 14.7694 11.4851 14.2901 12.2908 14.2901C12.4889 14.2901 12.7003 14.3035 12.9248 14.3567V12.3598Z" fill="#2C334E"/>
<path d="M17.0768 17.3121C16.3239 17.3121 15.5974 16.7662 15.5974 15.6613C15.5974 14.5431 16.3239 14.0239 17.0768 14.0239C17.8429 14.0239 18.5561 14.5431 18.5561 15.6613C18.5561 16.7796 17.8429 17.3121 17.0768 17.3121ZM17.0768 12.1602C15.1219 12.1602 13.5898 13.6112 13.5898 15.6613C13.5898 17.7114 15.1219 19.1758 17.0768 19.1758C19.0448 19.1758 20.5638 17.7114 20.5638 15.6613C20.5638 13.6112 19.0448 12.1602 17.0768 12.1602Z" fill="#2C334E"/>
<path d="M21.3938 19.3489C21.5788 20.5337 22.7807 21.7051 24.6695 21.7051C27.1263 21.7051 28.1829 20.0544 28.1829 18.1507V12.3598H26.2677V13.0654C26.0828 12.7193 25.5148 12.24 24.445 12.24C22.6486 12.24 21.3938 13.731 21.3938 15.4749C21.3938 17.3121 22.7015 18.6965 24.445 18.6965C25.396 18.6965 25.9639 18.3105 26.2017 17.9511V18.2572C26.2017 19.4554 25.5809 19.9479 24.577 19.9479C23.8242 19.9479 23.2958 19.482 23.1638 18.843L21.3938 19.3489ZM24.8148 16.9393C24.0091 16.9393 23.4015 16.3802 23.4015 15.4749C23.4015 14.5697 24.0619 14.0106 24.8148 14.0106C25.5677 14.0106 26.2149 14.5697 26.2149 15.4749C26.2149 16.3802 25.6337 16.9393 24.8148 16.9393Z" fill="#2C334E"/>
<path d="M34.053 12.3598C33.9209 12.3199 33.7228 12.2933 33.5247 12.2933C32.9963 12.2933 32.1642 12.5063 31.8208 13.2518V12.3598H29.8792V18.9761H31.8868V16.0873C31.8868 14.7694 32.6133 14.2901 33.419 14.2901C33.6171 14.2901 33.8285 14.3035 34.053 14.3567V12.3598Z" fill="#2C334E"/>
<path d="M34.9262 17.1523C34.9262 18.204 35.7583 19.1625 37.198 19.1625C38.0698 19.1625 38.7038 18.7897 39.0472 18.2306C39.0472 18.6832 39.1 18.9229 39.1132 18.9761H40.9228C40.9096 18.9095 40.8435 18.4702 40.8435 17.9511V14.7161C40.8435 13.3583 40.0642 12.1602 37.9377 12.1602C36.0093 12.1602 35.1375 13.4115 35.0583 14.3567L36.8018 14.7161C36.8414 14.2236 37.2244 13.7443 37.9245 13.7443C38.5585 13.7443 38.8887 14.0771 38.8887 14.4632C38.8887 14.6895 38.7698 14.8626 38.4132 14.9158L36.8678 15.1554C35.7847 15.3152 34.9262 15.9808 34.9262 17.1523ZM37.6867 17.6981C37.132 17.6981 36.9074 17.3653 36.9074 17.0192C36.9074 16.5532 37.2244 16.3536 37.6471 16.287L38.8887 16.0873V16.3802C38.8887 17.4052 38.2811 17.6981 37.6867 17.6981Z" fill="#2C334E"/>
<path d="M44.5405 18.9761V15.1688C44.5405 14.5697 44.9236 14.0239 45.6236 14.0239C46.3501 14.0239 46.6803 14.5165 46.6803 15.1421V18.9761H48.6615V15.1554C48.6615 14.5697 49.0446 14.0239 49.7578 14.0239C50.4711 14.0239 50.8013 14.5165 50.8013 15.1421V18.9761H52.7429V14.6895C52.7429 12.8923 51.5542 12.1602 50.3126 12.1602C49.4276 12.1602 48.7936 12.453 48.2785 13.1985C47.9483 12.5462 47.2747 12.1602 46.3369 12.1602C45.6236 12.1602 44.7783 12.5329 44.4481 13.1186V12.3598H42.5329V18.9761H44.5405Z" fill="#2C334E"/>
<path d="M64.6011 18.9761V17.2322H61.5236L64.5483 14.0239V12.3598H59.1725V14.0905H61.9859L59.0932 17.1922V18.9761H64.6011Z" fill="#2C334E"/>
<path d="M56.8636 18.9619H54.5552L55.2343 14.6244H54.5552V12.207H57.5386V14.6244L56.8636 18.9619Z" fill="#2C334E"/>
<path d="M57.5386 7.83984H54.5552V10.7001H57.5386V7.83984Z" fill="#2C334E"/>
</svg>
