<svg width="166" height="227" viewBox="0 0 166 227" fill="none" xmlns="http://www.w3.org/2000/svg">
<g clip-path="url(#clip0_5416_9012)">
<path d="M103.478 62.8713L91.075 51.3414L98.2329 42.8038C107.211 42.4872 111.549 40.4566 117.816 32.9219L119.574 43.8202L103.478 62.8713Z" fill="#E08878"/>
<path d="M96.8911 70.7818C92.2532 79.4425 83.1607 106.082 86.1237 109.431C90.1391 113.971 95.4173 90.1602 106.215 70.6116L102.163 59.2764C97.9835 57.0632 89.7361 53.2398 90.1839 55.6519C90.7436 58.667 78.9875 70.9883 78.9875 70.9883C78.9875 70.9883 58.5855 89.2009 61.8534 92.1032C65.1213 95.0055 91.3317 70.2516 93.3133 68.3242C94.8985 66.7824 97.6914 69.2875 96.8911 70.7818Z" fill="#FCB7A0"/>
<path d="M88.0695 56.8025C89.3505 63.7039 101.514 63.5284 107.436 62.5779C108.681 59.6703 108.079 53.537 95.7058 52.2641C95.8339 51.3485 95.8852 49.3765 95.0653 48.8134C96.2259 47.8543 98.5532 45.4888 98.578 43.6994C103.456 43.5375 114.132 41.4369 117.81 34.3289L125.522 61.454C140.4 31.0281 137.042 24.9584 118.697 19.8842C109.242 17.2691 92.0236 33.2834 88.3508 37.5348C84.6779 41.7861 86.4681 48.1758 88.0695 56.8025Z" fill="#FCB7A0"/>
<path d="M117.531 66.5025C115.743 71.2962 110.96 78.6987 106.125 69.9583C100.081 59.0328 106.114 45.8647 108.542 44.5216C110.485 43.4472 111.972 45.3723 112.473 46.4691C112.408 43.2352 114.908 37.8022 117.422 37.0727C120.087 36.2996 123.952 37.1357 123.895 53.6556L125.101 57.4454C125.656 58.5558 126.167 59.5571 126.041 60.3984C124.998 67.3412 119.033 67.5343 117.531 66.5025Z" fill="#FCB7A0"/>
<path d="M117.536 66.5074C115.749 71.3012 110.965 78.7036 106.13 69.9632C100.086 59.0377 106.12 45.8696 108.548 44.5266C110.49 43.4521 111.978 45.3772 112.479 46.4741C112.294 43.1471 114.84 37.7488 117.428 37.0777C119.935 36.4271 120.855 39.332 121.148 53.2754L122.651 56.5659C121.468 55.0007 121.169 54.264 121.148 53.2754C120.855 39.332 119.935 36.4271 117.428 37.0777C114.84 37.7488 112.294 43.1471 112.479 46.4741C112.557 56.6192 113.651 61.066 117.536 66.5074Z" fill="#FCB7A0"/>
<path d="M117.536 66.5074C115.749 71.3012 110.965 78.7036 106.13 69.9632C100.086 59.0377 106.12 45.8696 108.548 44.5266C110.49 43.4521 111.978 45.3772 112.479 46.4741M117.536 66.5074C119.039 67.5392 124.767 67.4071 125.81 60.4643M117.536 66.5074C113.651 61.0659 112.557 56.6192 112.479 46.4741M112.479 46.4741C112.294 43.1471 114.84 37.7488 117.428 37.0776C119.935 36.4271 120.855 39.332 121.148 53.2754M121.148 53.2754C121.169 54.264 121.468 55.0007 122.651 56.5659L121.148 53.2754Z" stroke="#E08878" stroke-width="0.461661"/>
<path d="M88.0691 56.805C89.3501 63.7064 101.514 63.5308 107.435 62.5804C108.681 59.6728 108.078 53.5395 95.7055 52.2666C95.8336 51.351 95.8848 49.379 95.0649 48.8159C96.2255 47.8568 98.5528 45.4912 98.5776 43.7018L88.1864 37.7747C84.5135 42.026 86.4678 48.1783 88.0691 56.805Z" fill="#FCB7A0"/>
<path d="M88.4242 37.938C84.859 41.0899 86.4678 48.1783 88.0691 56.805C89.3501 63.7064 101.514 63.5308 107.435 62.5804C108.681 59.6728 108.078 53.5395 95.7055 52.2666C95.8336 51.351 95.8848 49.379 95.0649 48.8159C96.2255 47.8568 98.5528 45.4912 98.5776 43.7018" stroke="#E08878" stroke-width="0.461661"/>
<path d="M115.504 14.6821C112.412 19.1824 110.252 21.0731 109.272 21.4037C116.879 27.1308 132.129 36.9402 134.555 30.7785C136.98 24.6169 145.976 13.7851 150.171 9.13943L137.396 0.795221L123.961 1.0939C121.018 6.01999 117.54 11.7176 115.504 14.6821Z" fill="#FCB7A0"/>
<path d="M99.6784 62.6139C98.3887 60.4735 97.5605 56.4925 104.565 57.691" stroke="#E08878" stroke-width="0.461661" stroke-linecap="round"/>
<path d="M113.946 44.6142C115.528 45.9807 117.885 45.3357 118.345 44.8352C119.057 43.6662 118.852 41.8363 118.549 40.7747M105.67 51.8808C107.371 53.8892 109.519 53.2413 110.381 52.6664C110.747 51.2842 111.407 48.8208 110.321 46.3247" stroke="#E08878" stroke-width="0.461661"/>
<path d="M115.652 14.4203C115.12 15.4146 114.588 15.6515 114.588 15.6515L114.861 12.2235C114.861 12.2235 116.609 4.60116 118.722 1.24607C118.907 0.953123 118.997 0.600546 119.01 0.196392L165.432 0.196395C161.057 8.42401 152.878 7.78379 149.814 12.2433C147.877 15.0644 142.679 21.3315 142.679 21.3315C140.319 24.0008 139.649 25.2572 136.675 27.322C136.675 27.322 137.651 24.7323 138.721 23.2871C130.788 13.363 121.015 12.9917 115.652 14.4203Z" fill="#1A4E66"/>
<path d="M115.652 14.4203C115.12 15.4146 114.588 15.6515 114.588 15.6515L114.861 12.2235C114.861 12.2235 116.609 4.60116 118.722 1.24606C118.907 0.953121 118.997 0.600546 119.01 0.196392L125.053 0.196392C122.498 4.04828 122.433 10.7606 122.771 13.9283C120.028 13.6315 117.561 13.912 115.652 14.4203Z" fill="#0F445C"/>
<path d="M150.828 10.7896C138.406 -0.925609 131.373 -0.399959 119.201 0.266964" stroke="#0F3644" stroke-width="0.461661"/>
<path d="M150.593 10.6268C145.663 19.8426 136.75 27.7218 136.676 27.3208C136.602 26.9199 138.814 23.1889 138.814 23.1889C134.636 18.5691 127.842 12.1522 115.405 14.4609C115.405 14.4609 114.588 15.6504 114.425 15.8881C114.261 16.1259 114.635 14.5624 114.766 14.3721" stroke="#0F3644" stroke-width="0.461661"/>
<path d="M148.853 9.08217C146.021 13.2047 139.844 21.5866 137.788 22.1344M146.088 6.48276C143.177 10.5508 137.016 18.8743 135.661 19.6238M142.758 4.19567C139.818 8.47673 133.758 17.1964 133.045 17.8268M130.667 16.1932C130.816 14.3992 136.202 6.44243 139.139 2.31383M127.323 14.9463C126.997 12.347 132.161 4.8329 135.235 0.795411M123.815 13.9373C123.455 11.2045 127.789 4.34176 130.745 0.193161M120.457 13.7307C122.318 7.69299 124.781 2.81586 126.334 0.193162M117.574 13.8508C117.25 11.2707 120.324 4.10089 122.205 0.193162M119.604 0.193162C117.738 3.92888 114.645 11.4892 114.588 15.6502" stroke="#0F3644" stroke-width="0.461661"/>
<path d="M36.9776 129.043L47.6909 115.281C57.356 125.843 76.0669 147.498 73.5902 149.626C70.4943 152.286 64.4574 160.332 62.1059 164.853C60.2246 168.47 53.6495 174.767 51.5372 175.98L36.9776 129.043Z" fill="#EC7B86"/>
<path d="M60.8739 119.277C58.6664 111.019 51.366 113.233 47.9917 115.372L45.7126 126.13C38.108 134.816 43.966 135.85 47.8456 135.281C45.0491 140.19 49.9847 142.253 52.802 142.671C51.204 147.944 55.5913 149.295 58.0304 149.162C56.3052 154.854 62.6607 155.472 72.7199 150.343C80.7673 146.24 76.6544 140.959 73.592 138.832C76.9404 133.828 72.0885 129.762 69.244 128.355C69.6002 121.136 63.8124 119.295 60.8739 119.277Z" fill="#FF9BA5"/>
<path d="M20.6428 168.907C19.6476 173.054 6.75618 185.652 0.252639 191.641L0.252951 224.196L26.7956 219.837C31.6259 208.217 45.3023 185.758 51.5367 175.98L49.5408 150.188C50.1658 141.219 43.6768 135 40.3542 133.011C40.7174 131.813 39.5131 130.03 38.8655 129.289C40.5214 129.006 42.5212 126.581 43.3142 125.404C62.5149 132.204 61.7983 120.538 59.6104 120.202C57.4224 119.866 44.7854 114.074 42.4795 113.048C40.1736 112.022 29.7963 123.596 26.3372 127.455C22.8781 131.313 20.39 141.68 22.4322 151.131C24.4744 160.582 21.8869 163.723 20.6428 168.907Z" fill="#FF9BA5"/>
<path d="M0.850621 191.042C7.35417 185.053 19.6483 173.053 20.6435 168.906C21.8875 163.722 24.4751 160.581 22.4329 151.13C20.3907 141.679 22.8787 131.312 26.3378 127.453C29.797 123.595 40.1743 112.021 42.4802 113.047C44.7861 114.073 57.4231 119.865 59.611 120.201C61.7989 120.537 62.5155 132.203 43.3148 125.402C42.5219 126.579 40.5221 129.005 38.8662 129.288C39.5137 130.029 40.7181 131.812 40.3549 133.01C43.6775 134.998 50.7657 141.399 50.1406 150.369" stroke="#EC7B86" stroke-width="0.626088"/>
<path d="M46.5644 136.265C48.5285 134.461 54.0436 129.503 55.3437 127.804M51.9113 143.446C58.7004 138.331 62.9728 134.826 69.2247 128.413M57.2309 149.638C63.8831 146.426 68.2164 143.939 73.5728 138.89" stroke="#EC7B86" stroke-width="0.626088"/>
<path d="M52.4952 117.781C51.7325 118.858 50.4287 121.145 51.3148 121.675C52.2008 122.205 56.1987 122.828 58.0869 123.073" stroke="#EC7B86" stroke-width="0.500871" stroke-linecap="round"/>
<path d="M11.5559 180.201C12.2914 179.194 12.7726 178.685 12.7726 178.685L8.5472 180.457L0.253683 188.144L0.253686 225.988L32.8249 225.988C33.6652 222.917 33.8432 218.468 34.3631 215.429C34.6877 213.531 38.2762 203.942 38.2762 203.942C39.5961 200.307 40.2209 198.227 40.4341 194.265C40.4341 194.265 38.5365 197.288 37.6758 199.049C21.0198 195.849 13.7325 186.248 11.5559 180.201Z" fill="#D7E0DC"/>
<path d="M11.6264 180.302L12.7708 178.686L8.6577 180.383C8.6577 180.383 4.22748 184.154 0.254927 188.094L0.254932 225.987L6.82373 225.987C6.00708 217.889 6.25459 196.228 9.85597 191.541L11.7079 194.065C13.1147 191.254 14.2561 190.09 17.2092 188.863C14.4586 186.067 13.7138 184.206 11.6264 180.302Z" fill="#BCC5C1"/>
<path d="M5.28906 183.941C13.4568 199.158 20.7361 203.473 37.491 205.411" stroke="#B3BCB8" stroke-width="0.626088"/>
<path d="M6.96083 187.064L0.378571 194.625M9.85665 191.54C7.85495 193.26 4.05497 197.033 0.31531 201.919M13.1429 195.807C10.0004 199.241 3.0003 207.904 0.315312 212.779M16.4927 198.785C14.0412 203.276 3.16298 220.98 0.831535 222.628M20.8321 201.736C19.1346 205.582 9.45195 222.915 7.12285 225.875C7.06408 225.95 7.00999 226.016 6.96083 226.072M25.6254 203.188C24.7446 207.174 18.7542 223.537 15.8925 226.072M30.4188 204.641C29.88 207.858 26.056 221.474 23.0925 226.072M35.0942 205.404C34.2649 208.86 30.4401 221.808 28.1012 226.072" stroke="#B3BCB8" stroke-width="0.626088"/>
</g>
<defs>
<clipPath id="clip0_5416_9012">
<rect width="166" height="227" fill="white"/>
</clipPath>
</defs>
</svg>
