<svg width="124" height="124" viewBox="0 0 124 124" fill="none" xmlns="http://www.w3.org/2000/svg">
<path d="M71.8657 3.77081V39.1089C71.1837 38.9868 70.5036 38.8647 69.8042 38.7776C68.3724 38.5857 66.9212 38.4811 65.437 38.4811C47.6721 38.4811 33.261 52.8923 33.261 70.6572C33.261 71.7577 33.3133 72.8582 33.4354 73.9238C33.4354 74.0633 33.4528 74.1854 33.4702 74.3074H15.7576C12.77 74.3074 9.97611 78.7792 7.74023 80.4745V12.9081C7.74023 6.39225 13.0509 1.099 19.5493 1.099H69.1939C70.6606 1.099 71.8657 2.30412 71.8657 3.77081ZM78.3447 83.5648C85.4708 76.4387 85.4708 64.8854 78.3447 57.7612C71.2186 50.6351 59.6652 50.6351 52.541 57.7612C45.4169 64.8873 45.4149 76.4406 52.541 83.5648C59.6672 90.689 71.2186 90.6909 78.3447 83.5648ZM47.676 88.4299C37.8645 78.6184 37.8645 62.7076 47.676 52.8961C57.4875 43.0846 73.3982 43.0846 83.2097 52.8961C93.0212 62.7076 93.0212 78.6184 83.2097 88.4299C73.3982 98.2414 57.4875 98.2414 47.676 88.4299ZM90.5587 95.7788L83.5643 88.7844L90.5587 95.7788ZM115.738 117.107L111.887 120.959C110.373 122.472 107.921 122.472 106.407 120.959L88.6347 103.186C87.1216 101.673 87.1216 99.2198 88.6347 97.7066L92.4865 93.8549C93.9997 92.3417 96.4525 92.3417 97.9657 93.8549L115.738 111.628C117.252 113.139 117.252 115.594 115.738 117.107Z" fill="#9BBBFA"/>
<path d="M45.0325 95.5342H16.2102C10.2718 95.5342 5.43191 90.8009 5.22266 84.9129V84.5467C5.24009 84.2154 5.25753 83.8996 5.30984 83.5857H5.22266V14.2716C5.22266 6.39375 11.6164 0 19.4943 0H66.9204C70.4312 0 73.2967 2.84812 73.2967 6.35888V6.93431H76.1623C79.673 6.93431 82.5386 9.78244 82.5386 13.2932V43.4077C81.4207 42.6909 80.2504 42.0631 79.0453 41.5032V13.2932C79.0453 11.7044 77.753 10.4276 76.1623 10.4276H73.2967V39.4417C72.8259 39.3196 72.3532 39.215 71.8649 39.1104C71.1829 38.9883 70.5028 38.8662 69.8034 38.7791V6.35888C69.8034 4.78756 68.5111 3.49331 66.9204 3.49331H19.4943C13.5558 3.49331 8.71597 8.31381 8.71597 14.2716V76.8955C10.6728 75.0607 13.3098 73.9253 16.2102 73.9253H33.4346C33.4346 74.0648 33.452 74.1869 33.4695 74.3089C33.5915 75.3571 33.7485 76.4053 33.9752 77.4186H16.2102C12.1395 77.4186 8.82059 80.6852 8.71597 84.7385C8.82059 88.7743 12.1395 92.0409 16.2102 92.0409H41.3997C42.5002 93.3139 43.7227 94.4686 45.0325 95.5342ZM79.5781 84.8005C75.6798 88.6988 70.561 90.6459 65.4421 90.6459C60.3232 90.6459 55.2024 88.6988 51.3042 84.8005C43.5077 77.004 43.5077 64.3211 51.3042 56.5266C59.1026 48.7339 71.7855 48.732 79.5781 56.5266C87.3746 64.3211 87.3746 77.004 79.5781 84.8005ZM77.1078 58.9969C70.6772 52.5663 60.207 52.5683 53.7725 58.9969C47.34 65.4294 47.34 75.8996 53.7725 82.3321C60.207 88.7627 70.6753 88.7627 77.1078 82.3321C83.5403 75.8977 83.5403 65.4294 77.1078 58.9969ZM117.243 118.073L112.853 122.464C111.863 123.454 110.545 124 109.146 124C107.745 124 106.428 123.454 105.44 122.465L87.1285 104.152C85.0845 102.108 85.0845 98.7854 87.1285 96.7413L88.0895 95.7803L83.1702 90.861C72.6244 100.128 56.5025 99.727 46.441 89.6656C45.3638 88.5883 44.426 87.4277 43.5697 86.2265H17.487V82.7332H41.45C36.3932 72.6621 38.0439 60.0567 46.4391 51.6615C51.5134 46.5853 58.2617 43.7894 65.4402 43.7894C72.6186 43.7894 79.3669 46.5853 84.4412 51.6615C94.5046 61.7249 94.9018 77.8468 85.6367 88.3907L90.556 93.31L91.517 92.349C93.4952 90.3708 96.9478 90.3708 98.9279 92.349L117.241 110.66C119.285 112.706 119.285 116.031 117.243 118.073ZM81.9728 54.1318C77.5573 49.7162 71.6867 47.2827 65.4421 47.2827C59.1975 47.2827 53.3269 49.7162 48.9113 54.1318C39.7954 63.2477 39.7954 78.0793 48.9113 87.1953C58.0273 96.3112 72.8588 96.3112 81.9748 87.1953C91.0907 78.0793 91.0888 63.2477 81.9728 54.1318ZM114.773 113.133L96.4595 94.8213C96.1282 94.4919 95.6903 94.3097 95.2253 94.3097C94.7603 94.3097 94.3205 94.4919 93.9912 94.8213L89.6008 99.2116C88.9207 99.8917 88.9207 101.002 89.6008 101.682L107.914 119.995C108.577 120.658 109.722 120.656 110.384 119.995L114.775 115.605C115.453 114.921 115.453 113.815 114.773 113.133Z" fill="#0556F3"/>
</svg>
