<svg width="42" height="42" viewBox="0 0 42 42" fill="none" xmlns="http://www.w3.org/2000/svg">
<path fill-rule="evenodd" clip-rule="evenodd" d="M21 42C9.40202 42 0 32.598 0 21C0 9.40202 9.40202 0 21 0C32.598 0 42 9.40202 42 21C42 32.598 32.598 42 21 42Z" fill="#0556F3"/>
<path fill-rule="evenodd" clip-rule="evenodd" d="M21 42C9.40202 42 0 32.598 0 21C0 9.40202 9.40202 0 21 0C32.598 0 42 9.40202 42 21C42 32.598 32.598 42 21 42Z" fill="#3EDC70"/>
<path fill-rule="evenodd" clip-rule="evenodd" d="M22.5344 7.05859C22.5344 7.05859 25.2009 9.74819 20.0046 13.8827C16.7824 16.4481 17.9752 18.1605 19.1205 19.8047C19.4563 20.2868 19.7881 20.763 20.0032 21.2532C17.5705 19.0409 15.7861 17.0932 16.983 15.2806C17.5678 14.3955 18.497 13.6621 19.4371 12.9201C21.3227 11.4318 23.2521 9.90896 22.5344 7.05859ZM21.1573 19.4289C22.3962 20.8663 20.8324 22.1587 20.8324 22.1587C20.8324 22.1587 23.9762 20.5231 22.5327 18.474C22.4748 18.3919 22.4175 18.3117 22.3612 18.2329C21.1075 16.4782 20.3906 15.4747 25.7476 12.3428L25.7467 12.343C25.6449 12.369 16.9858 14.583 21.1573 19.4289ZM16.5955 27.068C16.5955 27.068 15.6153 27.643 17.294 27.837C19.328 28.0712 20.3674 28.0376 22.6083 27.6106C22.6083 27.6106 23.1986 27.9827 24.0215 28.3052C18.9963 30.4754 12.649 28.1794 16.5955 27.068ZM15.9811 24.2356C15.9811 24.2356 14.8814 25.0562 16.5615 25.2316C18.7344 25.4577 20.4499 25.4761 23.4199 24.8999C23.4199 24.8999 23.8297 25.3196 24.4751 25.5489C18.4006 27.3397 11.6349 25.6898 15.9811 24.2356ZM27.0044 30.2332C28.5295 29.7671 27.8038 29.1639 27.8038 29.1639C30.4607 30.3725 22.031 32.8003 11.7867 31.1264C8.03 30.5118 13.5941 28.3692 14.6126 29.092C14.6126 29.092 14.291 29.0696 13.7278 29.1925C13.1876 29.31 11.4707 29.867 12.3859 30.2687C14.9331 31.3857 24.1047 31.1187 27.0044 30.2332ZM15.4164 22.824C12.4034 22.4179 17.0681 21.3009 17.0681 21.3009C17.0681 21.3009 15.2562 21.1774 13.0289 22.2633C10.3942 23.5476 19.5448 24.1327 24.2828 22.8764C24.7754 22.5377 25.4556 22.2436 25.4556 22.2436C25.4556 22.2436 23.5181 22.5929 21.5873 22.7564C19.2241 22.9562 16.6887 22.9956 15.4164 22.824ZM26.471 21.3967C28.0253 21.0702 30.2522 23.4939 25.4363 26.0158C25.416 26.0703 25.3535 26.1307 25.3419 26.1419L25.3401 26.1437C31.7707 24.4395 29.4065 20.1369 26.3318 21.2261C26.062 21.3223 25.9205 21.5459 25.9205 21.5459C25.9205 21.5459 26.091 21.4765 26.471 21.3967ZM29.4303 30.4802C29.2623 32.6848 22.1634 33.1485 17.5419 32.8506C14.5044 32.6537 13.9133 32.1604 13.9133 32.1602C16.7988 32.6404 21.6654 32.7277 25.6105 31.979C29.1073 31.316 29.4303 30.4802 29.4303 30.4802Z" fill="white"/>
<path d="M20.0046 13.8827L19.8957 13.7458L19.8956 13.7458L20.0046 13.8827ZM22.5344 7.05859L22.6587 6.93538C22.6031 6.87939 22.517 6.86743 22.4484 6.9062C22.3797 6.94496 22.3454 7.02486 22.3647 7.10133L22.5344 7.05859ZM19.1205 19.8047L18.9769 19.9047L19.1205 19.8047ZM20.0032 21.2532L19.8854 21.3826C19.9466 21.4382 20.0382 21.4435 20.1053 21.3953C20.1724 21.3471 20.1966 21.2585 20.1634 21.1828L20.0032 21.2532ZM16.983 15.2806L16.837 15.1841L16.837 15.1841L16.983 15.2806ZM19.4371 12.9201L19.3287 12.7827L19.4371 12.9201ZM20.8324 22.1587L20.721 22.0238C20.652 22.0808 20.6371 22.1807 20.6866 22.2553C20.736 22.33 20.8338 22.3552 20.9132 22.3139L20.8324 22.1587ZM21.1573 19.4289L21.0247 19.543L21.0248 19.5431L21.1573 19.4289ZM22.5327 18.474L22.6758 18.3732L22.6757 18.373L22.5327 18.474ZM22.3612 18.2329L22.2188 18.3347L22.3612 18.2329ZM25.7476 12.3428L25.836 12.4938C25.9113 12.4498 25.9427 12.357 25.9095 12.2762C25.8763 12.1955 25.7887 12.1516 25.7041 12.1733L25.7476 12.3428ZM25.7467 12.343L25.7901 12.5126L25.7902 12.5125L25.7467 12.343ZM17.294 27.837L17.2739 28.0108L17.274 28.0108L17.294 27.837ZM16.5955 27.068L16.684 27.2189C16.7599 27.1744 16.791 27.0804 16.7565 26.9995C16.722 26.9185 16.6328 26.8757 16.548 26.8996L16.5955 27.068ZM22.6083 27.6106L22.7016 27.4626C22.6641 27.439 22.619 27.4304 22.5755 27.4387L22.6083 27.6106ZM24.0215 28.3052L24.0909 28.4659C24.156 28.4378 24.1977 28.3731 24.1965 28.3022C24.1953 28.2313 24.1514 28.1682 24.0854 28.1423L24.0215 28.3052ZM16.5615 25.2316L16.5434 25.4056L16.5434 25.4056L16.5615 25.2316ZM15.9811 24.2356L16.0857 24.3758C16.1546 24.3244 16.176 24.2306 16.1361 24.1545C16.0963 24.0783 16.0071 24.0424 15.9256 24.0696L15.9811 24.2356ZM23.4199 24.8999L23.5451 24.7777C23.5039 24.7355 23.4443 24.7169 23.3865 24.7281L23.4199 24.8999ZM24.4751 25.5489L24.5246 25.7167C24.5973 25.6953 24.648 25.6295 24.65 25.5537C24.6521 25.4779 24.6051 25.4094 24.5337 25.384L24.4751 25.5489ZM27.8038 29.1639L27.8763 29.0046C27.7965 28.9683 27.7022 28.9967 27.6556 29.0709C27.609 29.1452 27.6246 29.2424 27.692 29.2985L27.8038 29.1639ZM27.0044 30.2332L27.0555 30.4006L27.0555 30.4006L27.0044 30.2332ZM11.7867 31.1264L11.7585 31.2991L11.7585 31.2991L11.7867 31.1264ZM14.6126 29.092L14.6004 29.2666C14.6787 29.272 14.751 29.2247 14.7774 29.1509C14.8038 29.077 14.7778 28.9947 14.7139 28.9493L14.6126 29.092ZM13.7278 29.1925L13.765 29.3635L13.7651 29.3635L13.7278 29.1925ZM12.3859 30.2687L12.3156 30.4289L12.3156 30.4289L12.3859 30.2687ZM17.0681 21.3009L17.1089 21.4711C17.1929 21.451 17.2497 21.3725 17.2425 21.2863C17.2353 21.2002 17.1663 21.1322 17.08 21.1263L17.0681 21.3009ZM15.4164 22.824L15.4397 22.6506L15.4397 22.6506L15.4164 22.824ZM13.0289 22.2633L13.1056 22.4206L13.1056 22.4206L13.0289 22.2633ZM24.2828 22.8764L24.3276 23.0456C24.347 23.0404 24.3654 23.032 24.3819 23.0206L24.2828 22.8764ZM25.4556 22.2436L25.5251 22.4043C25.6067 22.369 25.6489 22.2781 25.6232 22.193C25.5975 22.1079 25.5121 22.0556 25.4246 22.0714L25.4556 22.2436ZM21.5873 22.7564L21.602 22.9308L21.602 22.9308L21.5873 22.7564ZM25.4363 26.0158L25.3551 25.8608C25.3169 25.8808 25.2874 25.9142 25.2723 25.9547L25.4363 26.0158ZM26.471 21.3967L26.507 21.568L26.507 21.568L26.471 21.3967ZM25.3419 26.1419L25.2203 26.016L25.219 26.0173L25.3419 26.1419ZM25.3401 26.1437L25.2171 26.0192C25.1607 26.0749 25.1488 26.1616 25.1881 26.2305C25.2275 26.2994 25.3082 26.3332 25.3849 26.3129L25.3401 26.1437ZM26.3318 21.2261L26.2734 21.0612L26.273 21.0613L26.3318 21.2261ZM25.9205 21.5459L25.7726 21.4524C25.732 21.5167 25.7375 21.5999 25.7863 21.6582C25.8352 21.7166 25.9161 21.7367 25.9866 21.708L25.9205 21.5459ZM17.5419 32.8506L17.5306 33.0252L17.5306 33.0253L17.5419 32.8506ZM29.4303 30.4802L29.6048 30.4935C29.6114 30.407 29.5536 30.3287 29.4689 30.3095C29.3843 30.2904 29.2984 30.3362 29.2671 30.4171L29.4303 30.4802ZM13.9133 32.1602L13.942 31.9876C13.8913 31.9791 13.8394 31.9934 13.8001 32.0267C13.7609 32.0599 13.7383 32.1087 13.7383 32.1602H13.9133ZM25.6105 31.979L25.5779 31.8071L25.5779 31.8071L25.6105 31.979ZM20.1136 14.0196C22.7363 11.9328 23.4112 10.1804 23.3931 8.91769C23.3841 8.29003 23.2035 7.79744 23.0243 7.46114C22.9347 7.29308 22.8454 7.16376 22.7775 7.07556C22.7436 7.03143 22.715 6.9975 22.6943 6.97406C22.684 6.96234 22.6756 6.95323 22.6696 6.94678C22.6665 6.94355 22.6641 6.94098 22.6623 6.93908C22.6613 6.93813 22.6606 6.93735 22.66 6.93673C22.6597 6.93642 22.6594 6.93616 22.6592 6.93593C22.6591 6.93582 22.659 6.93568 22.6589 6.93563C22.6588 6.9355 22.6587 6.93538 22.5344 7.05859C22.4101 7.1818 22.41 7.18171 22.4099 7.18162C22.4099 7.18161 22.4098 7.18153 22.4098 7.1815C22.4097 7.18144 22.4097 7.18142 22.4097 7.18144C22.4098 7.18148 22.41 7.18168 22.4103 7.18203C22.411 7.18275 22.4123 7.18411 22.4142 7.18609C22.4179 7.19007 22.4239 7.19657 22.4318 7.20555C22.4477 7.22353 22.4713 7.25142 22.5001 7.28892C22.5578 7.36395 22.6362 7.47705 22.7154 7.62574C22.8738 7.92295 23.035 8.36116 23.0431 8.92272C23.0592 10.0384 22.4692 11.6981 19.8957 13.7458L20.1136 14.0196ZM19.2641 19.7046C18.6841 18.872 18.1357 18.0759 18.0996 17.1821C18.0642 16.3081 18.5225 15.2864 20.1136 14.0196L19.8956 13.7458C18.2645 15.0444 17.708 16.1616 17.7499 17.1962C17.7909 18.211 18.4116 19.0932 18.9769 19.9047L19.2641 19.7046ZM20.1634 21.1828C19.9401 20.6741 19.5976 20.1835 19.2641 19.7046L18.9769 19.9047C19.315 20.3901 19.636 20.8519 19.8429 21.3235L20.1634 21.1828ZM16.837 15.1841C16.517 15.6687 16.3933 16.1688 16.4334 16.681C16.4732 17.1893 16.6734 17.6984 16.9824 18.2078C17.5978 19.2224 18.6706 20.2779 19.8854 21.3826L20.1209 21.1237C18.903 20.0162 17.8673 18.9917 17.2816 18.0262C16.99 17.5455 16.8165 17.0896 16.7823 16.6537C16.7485 16.2218 16.8505 15.7988 17.129 15.377L16.837 15.1841ZM19.3287 12.7827C18.3944 13.5202 17.4403 14.271 16.837 15.1841L17.129 15.377C17.6953 14.52 18.5996 13.804 19.5455 13.0574L19.3287 12.7827ZM22.3647 7.10133C22.7104 8.47432 22.4198 9.51668 21.8173 10.4017C21.2069 11.2983 20.2765 12.0346 19.3287 12.7827L19.5455 13.0574C20.4833 12.3173 21.4604 11.548 22.1067 10.5986C22.7609 9.63749 23.0761 8.49323 22.7041 7.01586L22.3647 7.10133ZM20.8324 22.1587C20.9439 22.2936 20.944 22.2935 20.9441 22.2935C20.9441 22.2934 20.9442 22.2934 20.9442 22.2933C20.9444 22.2932 20.9445 22.2931 20.9447 22.2929C20.9451 22.2926 20.9455 22.2922 20.9461 22.2918C20.9471 22.2909 20.9486 22.2897 20.9504 22.2881C20.954 22.285 20.959 22.2807 20.9653 22.2752C20.9779 22.2641 20.9957 22.2481 21.0175 22.2275C21.061 22.1863 21.1209 22.1265 21.1884 22.0503C21.3228 21.8986 21.4906 21.6782 21.6179 21.4072C21.7453 21.1357 21.8345 20.8084 21.8036 20.4469C21.7725 20.0834 21.6212 19.699 21.2899 19.3146L21.0248 19.5431C21.3129 19.8774 21.4307 20.1937 21.4548 20.4767C21.4792 20.7618 21.4097 21.0271 21.3011 21.2584C21.1922 21.4902 21.0465 21.6827 20.9264 21.8182C20.8667 21.8856 20.8141 21.938 20.777 21.9732C20.7584 21.9907 20.7438 22.0039 20.7341 22.0125C20.7292 22.0167 20.7256 22.0198 20.7234 22.0217C20.7223 22.0227 20.7215 22.0233 20.7211 22.0237C20.7209 22.0238 20.7208 22.0239 20.7208 22.024C20.7207 22.024 20.7208 22.024 20.7208 22.0239C20.7208 22.0239 20.7208 22.0239 20.7209 22.0239C20.7209 22.0238 20.721 22.0238 20.8324 22.1587ZM22.3897 18.5747C22.724 19.0493 22.7861 19.4867 22.7047 19.8786C22.6217 20.2778 22.3859 20.6469 22.0945 20.9669C21.8041 21.2858 21.4682 21.5456 21.2026 21.7264C21.0703 21.8166 20.9565 21.8864 20.8762 21.9334C20.8361 21.9569 20.8044 21.9747 20.783 21.9865C20.7723 21.9924 20.7642 21.9968 20.7589 21.9996C20.7562 22.001 20.7543 22.002 20.7531 22.0027C20.7525 22.003 20.7521 22.0032 20.7518 22.0034C20.7517 22.0034 20.7516 22.0035 20.7516 22.0035C20.7516 22.0035 20.7516 22.0035 20.7516 22.0035C20.7516 22.0034 20.7517 22.0034 20.8324 22.1587C20.9132 22.3139 20.9133 22.3139 20.9134 22.3138C20.9134 22.3138 20.9135 22.3138 20.9136 22.3137C20.9137 22.3136 20.914 22.3135 20.9142 22.3134C20.9147 22.3131 20.9155 22.3127 20.9164 22.3123C20.9181 22.3113 20.9207 22.31 20.9239 22.3082C20.9304 22.3048 20.9398 22.2997 20.9518 22.2931C20.9757 22.2799 21.0102 22.2606 21.0532 22.2354C21.1392 22.185 21.2598 22.111 21.3996 22.0157C21.6784 21.8259 22.0381 21.5487 22.3533 21.2025C22.6674 20.8575 22.9468 20.4335 23.0474 19.9498C23.1494 19.4586 23.0632 18.9232 22.6758 18.3732L22.3897 18.5747ZM22.2188 18.3347C22.2751 18.4135 22.3322 18.4933 22.3898 18.5749L22.6757 18.373C22.6174 18.2905 22.5598 18.2099 22.5036 18.1312L22.2188 18.3347ZM25.6593 12.1917C24.3164 12.9768 23.347 13.6326 22.6694 14.2038C21.9935 14.7736 21.5945 15.2704 21.4122 15.7411C21.2261 16.2217 21.2729 16.6565 21.4462 17.0791C21.6153 17.4916 21.9089 17.9009 22.2188 18.3347L22.5036 18.1312C22.1866 17.6876 21.9205 17.3134 21.77 16.9463C21.6237 16.5894 21.591 16.2486 21.7386 15.8675C21.89 15.4765 22.2378 15.0255 22.895 14.4714C23.5505 13.9188 24.5004 13.2747 25.836 12.4938L25.6593 12.1917ZM25.7902 12.5125L25.7911 12.5123L25.7041 12.1733L25.7032 12.1735L25.7902 12.5125ZM21.29 19.3147C20.2716 18.1317 20.0614 17.1418 20.2698 16.3243C20.4814 15.4944 21.1357 14.7934 21.9501 14.2217C23.5778 13.0792 25.7403 12.5253 25.7901 12.5126L25.7034 12.1735C25.6513 12.1868 23.4334 12.7529 21.749 13.9353C20.9073 14.5261 20.1726 15.2888 19.9307 16.2378C19.6856 17.1991 19.9573 18.3031 21.0247 19.543L21.29 19.3147ZM17.3141 27.6631C16.9002 27.6153 16.6753 27.546 16.5625 27.4825C16.5078 27.4517 16.4913 27.4288 16.4874 27.4219C16.4857 27.419 16.4857 27.4195 16.4865 27.4156C16.4915 27.3918 16.5218 27.3464 16.5832 27.2931C16.6097 27.2701 16.6359 27.2509 16.6555 27.2375C16.6652 27.2309 16.673 27.2258 16.6781 27.2226C16.6806 27.221 16.6824 27.2199 16.6835 27.2193C16.684 27.219 16.6843 27.2188 16.6844 27.2187C16.6844 27.2187 16.6844 27.2187 16.6844 27.2187C16.6843 27.2188 16.6843 27.2188 16.6842 27.2188C16.6842 27.2188 16.6842 27.2189 16.6841 27.2189C16.6841 27.2189 16.684 27.2189 16.5955 27.068C16.5069 26.9171 16.5069 26.9171 16.5068 26.9171C16.5068 26.9172 16.5067 26.9172 16.5066 26.9172C16.5065 26.9173 16.5064 26.9174 16.5062 26.9175C16.5059 26.9177 16.5056 26.9179 16.5051 26.9181C16.5043 26.9186 16.5032 26.9192 16.502 26.92C16.4994 26.9216 16.4959 26.9237 16.4917 26.9264C16.4832 26.9317 16.4716 26.9392 16.4578 26.9487C16.4304 26.9675 16.393 26.9947 16.3539 27.0287C16.284 27.0893 16.1742 27.1997 16.1439 27.3438C16.1271 27.424 16.1357 27.5115 16.1831 27.5949C16.2283 27.6744 16.3013 27.7371 16.3908 27.7875C16.5663 27.8863 16.8484 27.9617 17.2739 28.0108L17.3141 27.6631ZM22.5755 27.4387C20.3511 27.8626 19.3295 27.8952 17.314 27.6631L17.274 28.0108C19.3265 28.2472 20.3837 28.2127 22.641 27.7826L22.5755 27.4387ZM24.0854 28.1423C23.6817 27.9841 23.3346 27.8135 23.0885 27.6825C22.9656 27.6171 22.8682 27.5617 22.8018 27.5228C22.7686 27.5034 22.7432 27.4881 22.7262 27.4778C22.7178 27.4726 22.7114 27.4687 22.7073 27.4661C22.7052 27.4649 22.7037 27.4639 22.7027 27.4633C22.7023 27.463 22.7019 27.4628 22.7017 27.4627C22.7016 27.4626 22.7016 27.4626 22.7015 27.4626C22.7015 27.4626 22.7015 27.4626 22.7015 27.4626C22.7015 27.4626 22.7016 27.4626 22.7016 27.4626C22.7016 27.4626 22.7016 27.4626 22.6083 27.6106C22.515 27.7587 22.515 27.7587 22.515 27.7587C22.515 27.7587 22.515 27.7587 22.5151 27.7588C22.5151 27.7588 22.5152 27.7588 22.5152 27.7589C22.5153 27.7589 22.5155 27.759 22.5157 27.7591C22.5161 27.7594 22.5166 27.7597 22.5172 27.7601C22.5186 27.761 22.5205 27.7621 22.5229 27.7637C22.5278 27.7667 22.535 27.7711 22.5443 27.7768C22.5628 27.788 22.59 27.8044 22.625 27.8249C22.695 27.8658 22.7965 27.9236 22.9241 27.9915C23.1789 28.1271 23.5385 28.3039 23.9577 28.4682L24.0854 28.1423ZM16.548 26.8996C16.0462 27.0409 15.6851 27.2067 15.4621 27.3958C15.3493 27.4916 15.2645 27.5996 15.2203 27.7209C15.1749 27.8453 15.1766 27.9724 15.2191 28.0934C15.3001 28.3239 15.522 28.5161 15.8 28.6726C16.085 28.8331 16.461 28.9739 16.9006 29.0867C18.655 29.5367 21.5383 29.5682 24.0909 28.4659L23.9521 28.1446C21.4795 29.2124 18.6766 29.181 16.9876 28.7477C16.5664 28.6397 16.2217 28.5084 15.9717 28.3676C15.7145 28.2228 15.5869 28.0845 15.5493 27.9774C15.5325 27.9296 15.5326 27.886 15.5491 27.8408C15.5667 27.7925 15.6071 27.7318 15.6886 27.6627C15.8543 27.5221 16.1581 27.373 16.6429 27.2365L16.548 26.8996ZM16.5797 25.0575C16.1677 25.0145 15.9617 24.9342 15.8682 24.8628C15.8252 24.8301 15.8117 24.8036 15.8067 24.7874C15.8014 24.7704 15.8004 24.7479 15.8095 24.7159C15.8299 24.6448 15.89 24.5622 15.9615 24.488C15.995 24.4533 16.027 24.4245 16.0505 24.4045C16.0622 24.3946 16.0716 24.387 16.0778 24.382C16.0809 24.3796 16.0832 24.3778 16.0845 24.3768C16.0852 24.3762 16.0857 24.3759 16.0859 24.3757C16.086 24.3757 16.086 24.3756 16.086 24.3757C16.086 24.3757 16.086 24.3757 16.0859 24.3757C16.0859 24.3757 16.0859 24.3758 16.0858 24.3758C16.0858 24.3758 16.0857 24.3758 15.9811 24.2356C15.8764 24.0953 15.8764 24.0954 15.8763 24.0954C15.8763 24.0955 15.8762 24.0955 15.8761 24.0956C15.876 24.0956 15.8759 24.0957 15.8758 24.0958C15.8755 24.0961 15.8751 24.0963 15.8747 24.0966C15.8739 24.0973 15.8728 24.0981 15.8714 24.0991C15.8687 24.1012 15.865 24.1041 15.8605 24.1077C15.8514 24.1148 15.8388 24.125 15.8237 24.1379C15.7937 24.1635 15.7529 24.2002 15.7095 24.2451C15.6274 24.3303 15.5176 24.4638 15.473 24.6197C15.4497 24.7012 15.4425 24.795 15.4724 24.8913C15.5026 24.9884 15.5657 25.0723 15.6559 25.1411C15.8287 25.2729 16.1154 25.3609 16.5434 25.4056L16.5797 25.0575ZM23.3865 24.7281C20.4352 25.3007 18.7371 25.282 16.5797 25.0575L16.5434 25.4056C18.7316 25.6333 20.4646 25.6515 23.4532 25.0717L23.3865 24.7281ZM24.5337 25.384C24.2311 25.2765 23.9822 25.1237 23.8086 24.9971C23.722 24.9339 23.6549 24.8778 23.61 24.838C23.5875 24.8182 23.5706 24.8024 23.5597 24.7919C23.5542 24.7867 23.5502 24.7828 23.5478 24.7804C23.5466 24.7792 23.5457 24.7783 23.5453 24.7779C23.545 24.7776 23.5449 24.7775 23.5449 24.7775C23.5449 24.7774 23.5449 24.7774 23.5449 24.7775C23.5449 24.7775 23.5449 24.7775 23.545 24.7775C23.545 24.7776 23.545 24.7776 23.545 24.7776C23.545 24.7776 23.5451 24.7777 23.4199 24.8999C23.2946 25.0222 23.2947 25.0222 23.2947 25.0222C23.2947 25.0222 23.2948 25.0223 23.2948 25.0223C23.2948 25.0224 23.2949 25.0224 23.295 25.0225C23.2951 25.0226 23.2953 25.0228 23.2954 25.023C23.2958 25.0233 23.2963 25.0238 23.2968 25.0244C23.298 25.0255 23.2995 25.0271 23.3014 25.029C23.3053 25.0328 23.3108 25.0382 23.3178 25.0449C23.3318 25.0582 23.3519 25.0771 23.378 25.1001C23.43 25.1462 23.5057 25.2094 23.6023 25.2798C23.795 25.4203 24.0737 25.592 24.4165 25.7138L24.5337 25.384ZM15.9256 24.0696C15.3755 24.2537 14.9816 24.4467 14.7377 24.648C14.4935 24.8495 14.3605 25.0979 14.4556 25.3649C14.5397 25.6009 14.7843 25.7812 15.0828 25.9209C15.3916 26.0654 15.8024 26.1868 16.287 26.2809C18.2231 26.6569 21.4616 26.6198 24.5246 25.7167L24.4256 25.381C21.4141 26.2689 18.2325 26.3022 16.3537 25.9374C15.8846 25.8463 15.5044 25.7318 15.2312 25.6039C14.9477 25.4712 14.8193 25.3426 14.7853 25.2474C14.7625 25.1832 14.7665 25.078 14.9605 24.918C15.1547 24.7577 15.5001 24.5811 16.0366 24.4016L15.9256 24.0696ZM27.8038 29.1639C27.692 29.2985 27.6919 29.2984 27.6918 29.2983C27.6918 29.2983 27.6917 29.2982 27.6916 29.2982C27.6915 29.2981 27.6914 29.298 27.6914 29.298C27.6912 29.2978 27.6911 29.2977 27.691 29.2976C27.6908 29.2975 27.6908 29.2975 27.6909 29.2976C27.6912 29.2978 27.692 29.2986 27.6933 29.2998C27.696 29.3022 27.7006 29.3065 27.7064 29.3125C27.7181 29.3246 27.734 29.3427 27.7495 29.3651C27.782 29.412 27.8035 29.4643 27.8012 29.516C27.7992 29.561 27.778 29.6372 27.6606 29.7351C27.5394 29.8362 27.3235 29.9527 26.9532 30.0659L27.0555 30.4006C27.4478 30.2807 27.7132 30.147 27.8848 30.0039C28.0602 29.8576 28.1436 29.6956 28.1508 29.5315C28.1578 29.3742 28.0932 29.2465 28.0373 29.1658C28.0086 29.1244 27.9797 29.0916 27.9577 29.069C27.9466 29.0575 27.9371 29.0484 27.9299 29.0418C27.9263 29.0385 27.9232 29.0358 27.9208 29.0337C27.9196 29.0326 27.9186 29.0318 27.9177 29.031C27.9173 29.0307 27.9169 29.0303 27.9166 29.0301C27.9164 29.0299 27.9163 29.0298 27.9161 29.0297C27.916 29.0296 27.9159 29.0295 27.9159 29.0295C27.9158 29.0294 27.9157 29.0293 27.8038 29.1639ZM11.7585 31.2991C16.8996 32.1392 21.5881 31.9508 24.6641 31.3983C26.1958 31.1233 27.3498 30.7542 27.9574 30.363C28.1108 30.2641 28.2377 30.1588 28.3272 30.0461C28.417 29.933 28.4765 29.8027 28.4735 29.6602C28.4674 29.3699 28.2149 29.1587 27.8763 29.0046L27.7314 29.3232C28.057 29.4713 28.1222 29.6003 28.1236 29.6676C28.1244 29.7038 28.1101 29.7567 28.0531 29.8284C27.9958 29.9006 27.9028 29.9818 27.7679 30.0687C27.222 30.4203 26.1264 30.7801 24.6023 31.0539C21.5666 31.599 16.9181 31.7875 11.8149 30.9537L11.7585 31.2991ZM14.7139 28.9493C14.5446 28.8291 14.3044 28.7816 14.0514 28.7718C13.7926 28.7618 13.493 28.7905 13.1822 28.8463C12.5607 28.9578 11.8711 29.1821 11.331 29.451C11.0614 29.5852 10.8215 29.7343 10.6451 29.8913C10.475 30.0427 10.3324 30.2295 10.3253 30.4417C10.3175 30.6734 10.4696 30.8541 10.7017 30.9852C10.9337 31.1162 11.2814 31.221 11.7585 31.2991L11.815 30.9537C11.3528 30.8781 11.0527 30.7815 10.8738 30.6805C10.6952 30.5796 10.6736 30.4978 10.6751 30.4535C10.6772 30.3897 10.7269 30.2871 10.8778 30.1528C11.0223 30.0241 11.2322 29.8912 11.487 29.7643C11.9955 29.5111 12.6532 29.2968 13.244 29.1908C13.5393 29.1377 13.8122 29.1128 14.0379 29.1215C14.2694 29.1305 14.426 29.1741 14.5113 29.2347L14.7139 28.9493ZM13.7651 29.3635C14.0377 29.304 14.2502 29.28 14.3927 29.2708C14.4639 29.2662 14.5177 29.2652 14.5527 29.2654C14.5702 29.2655 14.5831 29.2658 14.5911 29.2661C14.5951 29.2663 14.5979 29.2664 14.5994 29.2665C14.6002 29.2665 14.6007 29.2666 14.6009 29.2666C14.6009 29.2666 14.6009 29.2666 14.6009 29.2666C14.6008 29.2666 14.6008 29.2666 14.6007 29.2666C14.6007 29.2666 14.6006 29.2666 14.6006 29.2666C14.6006 29.2666 14.6005 29.2666 14.6005 29.2666C14.6005 29.2666 14.6004 29.2666 14.6126 29.092C14.6247 28.9174 14.6247 28.9174 14.6246 28.9174C14.6246 28.9174 14.6246 28.9174 14.6245 28.9174C14.6245 28.9174 14.6244 28.9174 14.6243 28.9174C14.6242 28.9174 14.624 28.9174 14.6238 28.9173C14.6234 28.9173 14.623 28.9173 14.6224 28.9172C14.6213 28.9172 14.6199 28.9171 14.6182 28.917C14.6148 28.9168 14.6101 28.9166 14.6042 28.9164C14.5924 28.9159 14.5758 28.9155 14.5543 28.9154C14.5115 28.9152 14.4496 28.9164 14.3701 28.9215C14.2109 28.9318 13.981 28.9581 13.6905 29.0215L13.7651 29.3635ZM12.4562 30.1084C12.3533 30.0633 12.3127 30.0261 12.2997 30.0083C12.2948 30.0017 12.2977 30.0082 12.2977 30.0081C12.3025 29.9949 12.322 29.9635 12.3777 29.9173C12.4307 29.8732 12.5037 29.8263 12.5935 29.7784C12.9565 29.5846 13.5038 29.4203 13.765 29.3635L13.6906 29.0215C13.4116 29.0822 12.8304 29.2552 12.4286 29.4697C12.3272 29.5238 12.2318 29.5834 12.1541 29.648C12.0789 29.7104 12.0052 29.7897 11.9693 29.8871C11.9286 29.9975 11.9433 30.1143 12.0176 30.2155C12.0837 30.3056 12.1897 30.3737 12.3156 30.4289L12.4562 30.1084ZM26.9533 30.0659C25.5291 30.5008 22.533 30.7891 19.5608 30.8269C18.0782 30.8457 16.6087 30.8021 15.3532 30.6847C14.0917 30.5666 13.0653 30.3755 12.4562 30.1084L12.3156 30.4289C12.9801 30.7203 14.0554 30.9147 15.3206 31.0331C16.5917 31.1521 18.074 31.1958 19.5652 31.1769C22.5405 31.139 25.58 30.8512 27.0555 30.4006L26.9533 30.0659ZM17.0681 21.3009C17.0274 21.1308 17.0273 21.1308 17.0273 21.1308C17.0272 21.1308 17.0272 21.1308 17.0271 21.1308C17.0269 21.1309 17.0267 21.1309 17.0264 21.131C17.0257 21.1311 17.0248 21.1314 17.0237 21.1316C17.0213 21.1322 17.0179 21.133 17.0134 21.1341C17.0045 21.1363 16.9913 21.1395 16.9744 21.1437C16.9405 21.1521 16.8913 21.1644 16.8299 21.1803C16.7071 21.2119 16.5352 21.2575 16.3384 21.3135C15.9463 21.4251 15.4494 21.5797 15.0449 21.7487C14.8435 21.8329 14.6573 21.9238 14.5169 22.0186C14.4468 22.066 14.382 22.1184 14.3319 22.1764C14.2827 22.2334 14.2366 22.3087 14.229 22.4C14.2206 22.4988 14.2595 22.5851 14.322 22.6521C14.3806 22.7149 14.4615 22.7632 14.5529 22.8026C14.7362 22.8817 15.012 22.9461 15.393 22.9974L15.4397 22.6506C15.0674 22.6004 14.83 22.541 14.6916 22.4813C14.6222 22.4513 14.5903 22.4265 14.5779 22.4133C14.5694 22.4042 14.5792 22.4116 14.5777 22.4294C14.5768 22.4399 14.5734 22.4323 14.5968 22.4052C14.6192 22.3792 14.6568 22.3466 14.7129 22.3087C14.8249 22.2329 14.9864 22.1525 15.1799 22.0717C15.5649 21.9107 16.0459 21.7607 16.4342 21.6501C16.6277 21.5951 16.7966 21.5503 16.9172 21.5192C16.9775 21.5037 17.0256 21.4916 17.0585 21.4835C17.075 21.4794 17.0877 21.4763 17.0962 21.4742C17.1005 21.4732 17.1037 21.4724 17.1058 21.4719C17.1069 21.4716 17.1077 21.4714 17.1082 21.4713C17.1084 21.4712 17.1086 21.4712 17.1087 21.4712C17.1088 21.4711 17.1088 21.4711 17.1089 21.4711C17.1089 21.4711 17.1089 21.4711 17.0681 21.3009ZM13.1056 22.4206C14.2001 21.887 15.1918 21.6509 15.9086 21.5481C16.2669 21.4968 16.5562 21.4788 16.7548 21.4735C16.8541 21.4709 16.9307 21.4715 16.9818 21.4727C17.0074 21.4733 17.0266 21.4741 17.0391 21.4746C17.0454 21.4749 17.05 21.4752 17.0528 21.4753C17.0543 21.4754 17.0553 21.4755 17.0558 21.4755C17.0561 21.4755 17.0563 21.4755 17.0563 21.4755C17.0564 21.4755 17.0564 21.4755 17.0564 21.4755C17.0563 21.4755 17.0563 21.4755 17.0563 21.4755C17.0563 21.4755 17.0562 21.4755 17.0681 21.3009C17.08 21.1263 17.08 21.1263 17.0799 21.1263C17.0798 21.1263 17.0798 21.1263 17.0797 21.1263C17.0796 21.1263 17.0794 21.1263 17.0792 21.1263C17.0788 21.1263 17.0784 21.1262 17.0778 21.1262C17.0766 21.1261 17.0749 21.126 17.0729 21.1259C17.0687 21.1257 17.0629 21.1254 17.0553 21.125C17.0402 21.1243 17.0183 21.1235 16.99 21.1228C16.9333 21.1215 16.851 21.1209 16.7456 21.1237C16.5349 21.1292 16.232 21.1482 15.8589 21.2017C15.1129 21.3086 14.085 21.5537 12.9522 22.106L13.1056 22.4206ZM24.2379 22.7073C21.8934 23.3289 18.4416 23.4971 15.9014 23.3479C14.6268 23.273 13.6061 23.1194 13.0723 22.9142C12.94 22.8634 12.8489 22.8134 12.7931 22.7683C12.7658 22.7463 12.751 22.7286 12.7434 22.7166C12.7365 22.7055 12.7364 22.7007 12.7364 22.7005C12.7364 22.7005 12.7359 22.6954 12.742 22.6829C12.7488 22.6694 12.7629 22.6485 12.7911 22.621C12.8486 22.565 12.9486 22.4971 13.1056 22.4206L12.9522 22.106C12.7798 22.19 12.6425 22.2772 12.547 22.3703C12.4519 22.4628 12.3795 22.5803 12.3869 22.7193C12.3944 22.8574 12.478 22.9637 12.5731 23.0406C12.6692 23.1182 12.7984 23.1839 12.9467 23.2409C13.5358 23.4674 14.6049 23.6224 15.8808 23.6973C18.4417 23.8477 21.9342 23.6802 24.3276 23.0456L24.2379 22.7073ZM25.4556 22.2436C25.3862 22.083 25.3862 22.083 25.3861 22.083C25.3861 22.083 25.3861 22.083 25.3861 22.083C25.3861 22.0831 25.386 22.0831 25.386 22.0831C25.3858 22.0831 25.3857 22.0832 25.3855 22.0833C25.3851 22.0835 25.3845 22.0837 25.3838 22.084C25.3824 22.0847 25.3803 22.0856 25.3776 22.0867C25.3722 22.0891 25.3644 22.0926 25.3543 22.097C25.3341 22.106 25.305 22.1191 25.2685 22.1359C25.1957 22.1694 25.0935 22.2176 24.9757 22.2765C24.7412 22.3938 24.4397 22.5562 24.1836 22.7322L24.3819 23.0206C24.6185 22.858 24.9034 22.704 25.1322 22.5895C25.246 22.5326 25.3447 22.4861 25.4148 22.4539C25.4498 22.4378 25.4776 22.4252 25.4966 22.4168C25.5061 22.4126 25.5133 22.4094 25.5181 22.4073C25.5206 22.4062 25.5224 22.4054 25.5235 22.4049C25.5241 22.4047 25.5245 22.4045 25.5248 22.4044C25.5249 22.4043 25.525 22.4043 25.5251 22.4043C25.5251 22.4043 25.5251 22.4042 25.5251 22.4042C25.5251 22.4042 25.5251 22.4042 25.5251 22.4042C25.5251 22.4042 25.5251 22.4043 25.4556 22.2436ZM21.602 22.9308C22.5724 22.8486 23.5435 22.7199 24.2712 22.6118C24.6353 22.5577 24.9388 22.5088 25.1515 22.4734C25.2578 22.4557 25.3415 22.4413 25.3986 22.4314C25.4272 22.4264 25.4491 22.4225 25.4639 22.4199C25.4714 22.4186 25.477 22.4176 25.4808 22.4169C25.4827 22.4166 25.4842 22.4163 25.4851 22.4161C25.4856 22.416 25.486 22.416 25.4863 22.4159C25.4864 22.4159 25.4865 22.4159 25.4866 22.4159C25.4866 22.4159 25.4866 22.4159 25.4866 22.4159C25.4867 22.4159 25.4867 22.4159 25.4556 22.2436C25.4246 22.0714 25.4246 22.0714 25.4246 22.0714C25.4246 22.0714 25.4246 22.0714 25.4245 22.0714C25.4245 22.0714 25.4244 22.0714 25.4243 22.0715C25.4241 22.0715 25.4238 22.0716 25.4233 22.0716C25.4224 22.0718 25.421 22.072 25.4192 22.0724C25.4156 22.073 25.4101 22.074 25.4029 22.0753C25.3884 22.0778 25.3668 22.0816 25.3386 22.0865C25.2823 22.0963 25.1994 22.1106 25.094 22.1281C24.883 22.1633 24.5815 22.2119 24.2198 22.2656C23.496 22.3731 22.5329 22.5007 21.5725 22.582L21.602 22.9308ZM15.393 22.9974C16.6852 23.1717 19.2363 23.1308 21.602 22.9308L21.5725 22.582C19.2119 22.7816 16.6923 22.8195 15.4397 22.6506L15.393 22.9974ZM25.5175 26.1708C27.9361 24.9043 28.6848 23.6118 28.515 22.6089C28.3473 21.6182 27.2966 21.0445 26.435 21.2254L26.507 21.568C27.1997 21.4225 28.0396 21.8974 28.1699 22.6673C28.2982 23.4251 27.7524 24.6054 25.3551 25.8608L25.5175 26.1708ZM25.4636 26.2677C25.4704 26.2611 25.4942 26.2381 25.5198 26.2077C25.5426 26.1805 25.5793 26.1331 25.6003 26.077L25.2723 25.9547C25.2734 25.9518 25.273 25.9538 25.2685 25.9606C25.2644 25.9669 25.2587 25.9743 25.2519 25.9824C25.2383 25.9986 25.225 26.0115 25.2203 26.016L25.4636 26.2677ZM25.463 26.2682L25.4649 26.2664L25.219 26.0173L25.2171 26.0192L25.463 26.2682ZM26.3902 21.3911C27.8514 20.8734 29.076 21.6467 29.2273 22.6631C29.3032 23.1731 29.1209 23.7833 28.5174 24.3786C27.9117 24.9761 26.8851 25.5532 25.2952 25.9745L25.3849 26.3129C27.0103 25.8821 28.0997 25.2823 28.7632 24.6278C29.429 23.9711 29.6692 23.2541 29.5735 22.6116C29.3817 21.323 27.8868 20.4896 26.2734 21.0612L26.3902 21.3911ZM25.9205 21.5459C26.0684 21.6395 26.0684 21.6395 26.0684 21.6396C26.0684 21.6396 26.0683 21.6396 26.0683 21.6397C26.0683 21.6397 26.0683 21.6398 26.0682 21.6398C26.0682 21.6399 26.0681 21.64 26.0681 21.6401C26.068 21.6403 26.0679 21.6404 26.0679 21.6404C26.0678 21.6405 26.0678 21.6404 26.068 21.6401C26.0684 21.6396 26.0693 21.6382 26.0707 21.6362C26.0735 21.6322 26.0783 21.6256 26.085 21.6169C26.0985 21.5996 26.1195 21.5746 26.1477 21.5469C26.2047 21.4908 26.2865 21.428 26.3906 21.391L26.273 21.0613C26.1073 21.1204 25.9835 21.2175 25.9023 21.2973C25.8614 21.3376 25.8302 21.3745 25.8087 21.402C25.798 21.4159 25.7896 21.4274 25.7836 21.436C25.7806 21.4404 25.7782 21.4439 25.7764 21.4467C25.7754 21.4481 25.7747 21.4492 25.7741 21.4502C25.7738 21.4507 25.7735 21.4511 25.7732 21.4514C25.7731 21.4516 25.773 21.4518 25.7729 21.452C25.7729 21.452 25.7728 21.4521 25.7728 21.4522C25.7728 21.4522 25.7727 21.4523 25.7727 21.4523C25.7727 21.4523 25.7726 21.4524 25.9205 21.5459ZM26.435 21.2254C26.2402 21.2664 26.0976 21.3049 26.0025 21.3338C25.9549 21.3482 25.9192 21.3602 25.8947 21.3689C25.8825 21.3732 25.8731 21.3767 25.8664 21.3792C25.8631 21.3805 25.8604 21.3815 25.8584 21.3823C25.8575 21.3827 25.8566 21.383 25.856 21.3833C25.8557 21.3834 25.8554 21.3835 25.8551 21.3836C25.855 21.3837 25.8549 21.3837 25.8548 21.3838C25.8547 21.3838 25.8547 21.3838 25.8547 21.3838C25.8546 21.3838 25.8546 21.3838 25.8546 21.3838C25.8546 21.3839 25.8545 21.3839 25.9205 21.5459C25.9866 21.708 25.9865 21.708 25.9865 21.708C25.9865 21.708 25.9865 21.708 25.9865 21.7081C25.9864 21.7081 25.9864 21.7081 25.9864 21.7081C25.9863 21.7081 25.9862 21.7081 25.9862 21.7082C25.9861 21.7082 25.9861 21.7082 25.9861 21.7082C25.9861 21.7082 25.9863 21.7081 25.9867 21.708C25.9874 21.7077 25.9887 21.7072 25.9908 21.7064C25.9949 21.7048 26.0018 21.7022 26.0115 21.6988C26.0309 21.692 26.0615 21.6816 26.1041 21.6687C26.1892 21.6429 26.3218 21.6068 26.507 21.568L26.435 21.2254ZM17.5306 33.0253C19.8501 33.1747 22.7932 33.1335 25.182 32.7769C26.375 32.5989 27.4413 32.3405 28.2247 31.9816C28.9968 31.6279 29.555 31.1468 29.6048 30.4935L29.2558 30.4669C29.2216 30.9159 28.8295 31.3196 28.0789 31.6634C27.3395 32.0022 26.3108 32.2546 25.1303 32.4307C22.7724 32.7827 19.8552 32.8243 17.5531 32.676L17.5306 33.0253ZM13.7383 32.1602C13.7514 32.2266 13.7917 32.2861 13.7948 32.289C13.7959 32.29 13.7977 32.2916 13.7983 32.2922C13.7995 32.2931 13.8003 32.2939 13.8007 32.2942C13.8017 32.295 13.8025 32.2957 13.8032 32.2962C13.8045 32.2973 13.8059 32.2984 13.8074 32.2996C13.8103 32.3019 13.8139 32.3045 13.818 32.3075C13.8263 32.3136 13.8373 32.3211 13.8515 32.33C13.8797 32.3477 13.9205 32.371 13.9774 32.3982C14.091 32.4528 14.2696 32.5239 14.5413 32.6001C15.084 32.7524 16.004 32.9263 17.5306 33.0252L17.5532 32.676C16.0423 32.578 15.148 32.4068 14.6358 32.2631C14.38 32.1914 14.2209 32.1269 14.1288 32.0827C14.0828 32.0606 14.0537 32.0437 14.0378 32.0337C14.0298 32.0287 14.0251 32.0254 14.0233 32.0241C14.0224 32.0234 14.0222 32.0233 14.0227 32.0237C14.023 32.0239 14.0235 32.0243 14.0243 32.0249C14.0246 32.0252 14.0252 32.0257 14.026 32.0264C14.0263 32.0266 14.0272 32.0273 14.0282 32.0283C14.0289 32.0288 14.0307 32.0304 14.0318 32.0314C14.0349 32.0343 14.0752 32.0938 14.0883 32.1602H13.7383ZM25.5779 31.8071C21.6543 32.5517 16.8085 32.4647 13.942 31.9876L13.8845 32.3328C16.789 32.8162 21.6765 32.9037 25.6431 32.151L25.5779 31.8071ZM29.4303 30.4802C29.2671 30.4171 29.2672 30.4169 29.2673 30.4166C29.2673 30.4165 29.2674 30.4163 29.2675 30.4161C29.2676 30.4158 29.2677 30.4154 29.2679 30.4151C29.2681 30.4145 29.2683 30.414 29.2686 30.4135C29.269 30.4125 29.2693 30.4117 29.2696 30.4111C29.2701 30.4099 29.2703 30.4095 29.2701 30.41C29.2696 30.4109 29.2674 30.415 29.2628 30.4222C29.2535 30.4365 29.2342 30.4632 29.1988 30.5002C29.1279 30.5742 28.9928 30.6893 28.7458 30.8285C28.2506 31.1076 27.3159 31.4775 25.5779 31.8071L25.6431 32.151C27.4018 31.8175 28.3771 31.438 28.9176 31.1334C29.1885 30.9808 29.3526 30.8456 29.4516 30.7422C29.5012 30.6904 29.5344 30.6466 29.5564 30.6127C29.5674 30.5957 29.5756 30.5813 29.5816 30.5696C29.5846 30.5637 29.587 30.5586 29.589 30.5542C29.59 30.552 29.5908 30.55 29.5916 30.5482C29.592 30.5473 29.5923 30.5464 29.5926 30.5456C29.5928 30.5452 29.593 30.5448 29.5931 30.5444C29.5932 30.5442 29.5933 30.544 29.5933 30.5439C29.5934 30.5436 29.5935 30.5433 29.4303 30.4802Z" fill="white"/>
</svg>
