<svg width="42" height="42" viewBox="0 0 42 42" fill="none" xmlns="http://www.w3.org/2000/svg">
<path fill-rule="evenodd" clip-rule="evenodd" d="M21 42C9.40202 42 0 32.598 0 21C0 9.40202 9.40202 0 21 0C32.598 0 42 9.40202 42 21C42 32.598 32.598 42 21 42Z" fill="#0556F3"/>
<path fill-rule="evenodd" clip-rule="evenodd" d="M21 42C9.40202 42 0 32.598 0 21C0 9.40202 9.40202 0 21 0C32.598 0 42 9.40202 42 21C42 32.598 32.598 42 21 42Z" fill="#1786FF"/>
<path d="M32.5711 15.0311L32.636 14.9892C32.5062 14.7591 32.3117 14.55 32.1171 14.4454L21.6758 8.63079C21.5028 8.52621 21.265 8.48438 21.0056 8.48438C20.7462 8.48438 20.5084 8.54712 20.3355 8.63079L9.95895 14.4663C9.59144 14.6755 9.33203 15.1984 9.33203 15.5958V27.2459C9.33203 27.476 9.37527 27.727 9.52659 27.9571L9.48336 27.978C9.59144 28.1453 9.74277 28.2917 9.89409 28.3754L20.3138 34.2109C20.4868 34.3155 20.7246 34.3573 20.984 34.3573C21.2434 34.3573 21.4812 34.2946 21.6541 34.2109L32.0307 28.3754C32.3982 28.1662 32.6576 27.6433 32.6576 27.2459V15.5749C32.6792 15.4075 32.6576 15.2193 32.5711 15.0311ZM24.8968 21.8287V20.9921H25.9777V19.9463H27.0586V20.9921H28.1395V21.8287H27.0586V22.8745H25.9777V21.8287H24.8968ZM25.6102 18.9005C24.7022 17.3318 22.9728 16.286 21.0056 16.286C18.0872 16.286 15.7093 18.5868 15.7093 21.4104C15.7093 24.234 18.0872 26.5348 21.0056 26.5348C22.9728 26.5348 24.7022 25.489 25.6102 23.9412L28.3989 25.5308C26.9289 27.9989 24.1618 29.6722 21.0056 29.6722C16.2929 29.6722 12.4666 25.9701 12.4666 21.4104C12.4666 16.8507 16.2929 13.1486 21.0056 13.1486C24.1834 13.1486 26.9505 14.8428 28.4205 17.3318L25.6102 18.9005ZM32.0307 21.8287H30.9498V22.8745H30.0851V21.8287H28.788V20.9921H30.0851V19.9463H30.9498V20.9921H32.0307V21.8287Z" fill="white"/>
</svg>
