<svg width="42" height="42" viewBox="0 0 42 42" fill="none" xmlns="http://www.w3.org/2000/svg">
<path fill-rule="evenodd" clip-rule="evenodd" d="M21 42C9.40202 42 0 32.598 0 21C0 9.40202 9.40202 0 21 0C32.598 0 42 9.40202 42 21C42 32.598 32.598 42 21 42Z" fill="#0556F3"/>
<path fill-rule="evenodd" clip-rule="evenodd" d="M21 42C9.40202 42 0 32.598 0 21C0 9.40202 9.40202 0 21 0C32.598 0 42 9.40202 42 21C42 32.598 32.598 42 21 42Z" fill="#FF454F"/>
<path d="M31.6769 14.7907L31.7393 14.7488C31.6146 14.5183 31.4275 14.3088 31.2404 14.204L21.2008 8.37909C21.0345 8.27433 20.8059 8.23242 20.5565 8.23242C20.307 8.23242 20.0784 8.29528 19.9121 8.37909L9.93482 14.225C9.58146 14.4345 9.33203 14.9583 9.33203 15.3565V27.0273C9.33203 27.2578 9.3736 27.5092 9.5191 27.7397L9.47753 27.7607C9.58146 27.9283 9.72696 28.0749 9.87247 28.1588L19.8913 34.0047C20.0576 34.1094 20.2862 34.1513 20.5357 34.1513C20.7851 34.1513 21.0137 34.0885 21.18 34.0047L31.1573 28.1588C31.5107 27.9492 31.7601 27.4254 31.7601 27.0273V15.3355C31.7809 15.1679 31.7601 14.9793 31.6769 14.7907ZM20.5565 26.3149C22.448 26.3149 24.1109 25.2672 24.9839 23.7167L27.6653 25.3091C26.2518 27.7816 23.5912 29.4578 20.5565 29.4578C16.0251 29.4578 12.346 25.7492 12.346 21.1814C12.346 16.6136 16.0251 12.9049 20.5565 12.9049C23.612 12.9049 26.2726 14.6021 27.686 17.0956L24.9839 18.667C24.1109 17.0956 22.448 16.0479 20.5565 16.0479C17.7503 16.0479 15.4639 18.3527 15.4639 21.1814C15.4639 24.0101 17.7503 26.3149 20.5565 26.3149Z" fill="white"/>
</svg>
