<svg width="42" height="42" viewBox="0 0 42 42" fill="none" xmlns="http://www.w3.org/2000/svg">
<path fill-rule="evenodd" clip-rule="evenodd" d="M21 42C9.40202 42 1.22958e-06 32.598 1.22958e-06 21C1.22958e-06 9.40202 9.40202 0 21 0C32.598 0 42 9.40202 42 21C42 32.598 32.598 42 21 42Z" fill="#FF454F"/>
<path d="M31.6781 14.7905L31.7405 14.7486C31.6157 14.5181 31.4287 14.3086 31.2416 14.2038L21.202 8.37885C21.0357 8.27408 20.807 8.23218 20.5576 8.23218C20.3082 8.23218 20.0795 8.29504 19.9132 8.37885L9.93598 14.2247C9.58262 14.4343 9.33319 14.9581 9.33319 15.3562V27.0271C9.33319 27.2575 9.37476 27.509 9.52026 27.7395L9.47869 27.7604C9.58262 27.928 9.72812 28.0747 9.87363 28.1585L19.8925 34.0044C20.0587 34.1092 20.2874 34.1511 20.5368 34.1511C20.7863 34.1511 21.0149 34.0882 21.1812 34.0044L31.1585 28.1585C31.5118 27.949 31.7612 27.4252 31.7612 27.0271V15.3353C31.782 15.1676 31.7612 14.9791 31.6781 14.7905V14.7905ZM20.5576 26.3146C22.4491 26.3146 24.112 25.267 24.985 23.7165L27.6664 25.3089C26.253 27.7814 23.5924 29.4576 20.5576 29.4576C16.0263 29.4576 12.3472 25.7489 12.3472 21.1812C12.3472 16.6134 16.0263 12.9047 20.5576 12.9047C23.6131 12.9047 26.2738 14.6019 27.6872 17.0953L24.985 18.6668C24.112 17.0953 22.4491 16.0477 20.5576 16.0477C17.7515 16.0477 15.4651 18.3525 15.4651 21.1812C15.4651 24.0098 17.7515 26.3146 20.5576 26.3146V26.3146Z" fill="white"/>
</svg>
