<svg width="42" height="42" viewBox="0 0 42 42" fill="none" xmlns="http://www.w3.org/2000/svg">
<path fill-rule="evenodd" clip-rule="evenodd" d="M21 42C9.40202 42 0 32.598 0 21C0 9.40202 9.40202 0 21 0C32.598 0 42 9.40202 42 21C42 32.598 32.598 42 21 42Z" fill="#FFC047"/>
<path d="M17.7841 20.746H23.9C25.6025 20.746 26.9436 19.2939 26.9436 17.5705V11.6931C26.9436 10.0203 25.5526 8.76355 23.8908 8.48446C22.8391 8.30792 21.7525 8.22757 20.7054 8.23265C19.6588 8.23751 18.6893 8.32737 17.8099 8.48446C15.2185 8.94559 14.7784 9.91183 14.7784 11.6931V13.9802H20.861V14.8259H12.4242C10.6448 14.8259 9.08636 15.9059 8.59912 17.9574C8.0368 20.3085 8.01184 21.746 8.59912 24.201C9.03435 26.0282 10.0736 27.3003 11.8533 27.3003H13.9394V24.5416C13.9394 22.504 15.7072 20.746 17.7841 20.746ZM17.3986 12.4769C16.7639 12.4769 16.2496 11.9528 16.2496 11.3045C16.2496 10.6535 16.7637 10.1245 17.3986 10.1245C18.0309 10.1245 18.5478 10.6535 18.5478 11.3045C18.5475 11.9528 18.0307 12.4769 17.3986 12.4769ZM33.0852 17.9574C32.6451 16.1712 31.8051 14.8259 30.0231 14.8259H27.7826V17.5705C27.7826 19.6954 25.9381 21.3803 23.9 21.3803H17.7841C16.1086 21.3803 14.7784 22.9292 14.7784 24.6207V30.4984C14.7784 32.1709 16.1932 33.1549 17.8118 33.6348C19.7502 34.2093 21.5859 34.3131 23.9051 33.6348C25.4465 33.1847 26.9436 32.2793 26.9436 30.4984V28.1461H20.861V27.3003H30.0231C31.8026 27.3003 32.466 26.0791 33.0852 24.2008C33.7243 22.2672 33.6968 20.4375 33.0852 17.9574ZM24.2853 29.7142C24.9202 29.7142 25.4345 30.2384 25.4345 30.8871C25.4345 31.5374 24.9204 32.0666 24.2853 32.0666C23.653 32.0666 23.1363 31.5376 23.1363 30.8871C23.1363 30.2384 23.653 29.7142 24.2853 29.7142Z" fill="white"/>
</svg>
