<svg width="84" height="51" viewBox="0 0 84 51" fill="none" xmlns="http://www.w3.org/2000/svg">
<rect x="1" y="34" width="29.6774" height="15.4839" rx="1.77419" stroke="url(#paint0_linear_5_159)" stroke-width="1.77419"/>
<path d="M1.03781 11.3193C1.03781 11.1104 1.149 10.9172 1.32971 10.8122L5.16456 8.58402C5.36008 8.47041 5.60519 8.61148 5.60519 8.83761V24.9736C5.60519 25.0857 5.51431 25.1765 5.40219 25.1765H1.24081C1.12869 25.1765 1.03781 25.0857 1.03781 24.9736V11.3193Z" fill="url(#paint1_linear_5_159)"/>
<path d="M1.03778 10.6556C1.03778 10.5831 1.07643 10.5161 1.13919 10.4798L5.30058 8.07426C5.43591 7.99603 5.60516 8.09369 5.60516 8.25L5.60516 16.5493C5.60516 16.7174 5.46884 16.8538 5.30067 16.8538H1.34228C1.17411 16.8538 1.03778 16.7174 1.03778 16.5493V10.6556Z" fill="url(#paint2_linear_5_159)"/>
<path d="M12.578 7.82824L1.44545 14.2203C1.19328 14.365 1.03778 14.6336 1.03778 14.9244V19.6703L13.0842 12.7152C13.3355 12.5702 13.4902 12.3021 13.4902 12.012V8.35636C13.4902 7.88821 12.984 7.59513 12.578 7.82824Z" fill="url(#paint3_linear_5_159)"/>
<path fill-rule="evenodd" clip-rule="evenodd" d="M1.52856 19.3878C1.2364 19.5452 1.03782 19.8539 1.03782 20.209C1.03782 20.2113 1.03783 20.2137 1.03785 20.216L1.03781 20.2159V19.1094L1.52856 19.3878Z" fill="#6501E5"/>
<path fill-rule="evenodd" clip-rule="evenodd" d="M13.0567 12.7315C13.0971 12.635 13.1195 12.529 13.1195 12.4178C13.1195 12.245 13.0655 12.0849 12.9736 11.9532L13.4927 11.6594V12.011C13.4927 12.3008 13.3382 12.5687 13.0872 12.7138L13.0567 12.7315Z" fill="#9327FE"/>
<path d="M12.9805 11.9672C12.8413 11.5393 5.7024 6.74366 0.788742 3.42153C0.622959 3.30944 0.703245 3.05118 0.903363 3.05118L6.75554 3.05114C6.79672 3.05114 6.83692 3.06366 6.87081 3.08704L13.1421 7.41362C13.3618 7.56519 13.493 7.81506 13.493 8.08197L13.493 11.6693L12.9805 11.9672Z" fill="#9327FE"/>
<path d="M16.419 16.3992C16.2486 16.3477 15.9929 16.3133 15.7373 16.3133C15.0555 16.3133 13.9818 16.5882 13.5387 17.5501V16.3992H11.0334V24.9363H13.6239V21.2089C13.6239 19.5083 14.5613 18.8899 15.6009 18.8899C15.8566 18.8899 16.1293 18.9071 16.419 18.9758V16.3992Z" fill="#0556F3"/>
<path d="M21.7763 22.7892C20.8049 22.7892 19.8675 22.0849 19.8675 20.6592C19.8675 19.2163 20.8049 18.5464 21.7763 18.5464C22.7648 18.5464 23.6852 19.2163 23.6852 20.6592C23.6852 22.1021 22.7648 22.7892 21.7763 22.7892ZM21.7763 16.1416C19.254 16.1416 17.277 18.0139 17.277 20.6592C17.277 23.3045 19.254 25.194 21.7763 25.194C24.3158 25.194 26.2757 23.3045 26.2757 20.6592C26.2757 18.0139 24.3158 16.1416 21.7763 16.1416Z" fill="#0556F3"/>
<path d="M27.3468 25.4173C27.5854 26.9461 29.1363 28.4577 31.5734 28.4577C34.7434 28.4577 36.1069 26.3277 36.1069 23.8713V16.3992H33.6356V17.3096C33.397 16.863 32.6642 16.2446 31.2837 16.2446C28.9658 16.2446 27.3468 18.1685 27.3468 20.4187C27.3468 22.7892 29.034 24.5756 31.2837 24.5756C32.5108 24.5756 33.2436 24.0775 33.5504 23.6137V24.0088C33.5504 25.5547 32.7494 26.1903 31.4541 26.1903C30.4827 26.1903 29.8009 25.5891 29.6305 24.7646L27.3468 25.4173ZM31.7609 22.3082C30.7213 22.3082 29.9373 21.5868 29.9373 20.4187C29.9373 19.2506 30.7894 18.5292 31.7609 18.5292C32.7323 18.5292 33.5675 19.2506 33.5675 20.4187C33.5675 21.5868 32.8176 22.3082 31.7609 22.3082Z" fill="#0556F3"/>
<path d="M43.6812 16.3992C43.5107 16.3477 43.2551 16.3133 42.9994 16.3133C42.3177 16.3133 41.244 16.5882 40.8009 17.5501V16.3992H38.2956V24.9363H40.8861V21.2089C40.8861 19.5083 41.8235 18.8899 42.8631 18.8899C43.1187 18.8899 43.3914 18.9071 43.6812 18.9758V16.3992Z" fill="#0556F3"/>
<path d="M44.8079 22.583C44.8079 23.94 45.8816 25.1768 47.7393 25.1768C48.8641 25.1768 49.6822 24.6958 50.1253 23.9744C50.1253 24.5584 50.1935 24.8676 50.2105 24.9363H52.5454C52.5284 24.8504 52.4431 24.2836 52.4431 23.6137V19.4396C52.4431 17.6875 51.4376 16.1416 48.6937 16.1416C46.2054 16.1416 45.0805 17.7562 44.9783 18.9758L47.228 19.4396C47.2791 18.804 47.7733 18.1857 48.6766 18.1857C49.4947 18.1857 49.9208 18.6151 49.9208 19.1132C49.9208 19.4052 49.7674 19.6285 49.3072 19.6973L47.3132 20.0064C45.9157 20.2126 44.8079 21.0714 44.8079 22.583ZM48.3699 23.2873C47.654 23.2873 47.3643 22.8579 47.3643 22.4113C47.3643 21.8101 47.7733 21.5524 48.3187 21.4665L49.9208 21.2089V21.5868C49.9208 22.9094 49.1368 23.2873 48.3699 23.2873Z" fill="#0556F3"/>
<path d="M57.2134 24.9363V20.0236C57.2134 19.2506 57.7077 18.5464 58.611 18.5464C59.5483 18.5464 59.9744 19.1819 59.9744 19.9893V24.9363H62.5309V20.0064C62.5309 19.2506 63.0251 18.5464 63.9454 18.5464C64.8658 18.5464 65.2918 19.1819 65.2918 19.9893V24.9363H67.7972V19.4052C67.7972 17.0863 66.2633 16.1416 64.6612 16.1416C63.5194 16.1416 62.7013 16.5195 62.0366 17.4814C61.6105 16.6397 60.7414 16.1416 59.5313 16.1416C58.611 16.1416 57.5202 16.6225 57.0941 17.3783V16.3992H54.6229V24.9363H57.2134Z" fill="#0556F3"/>
<path d="M83.0981 24.9363V22.6861H79.127L83.0299 18.5464V16.3992H76.0934V18.6323H79.7235L75.9911 22.6346V24.9363H83.0981Z" fill="#0556F3"/>
<path d="M73.1141 24.9187H70.1355L71.0118 19.3219H70.1355V16.2027H73.9851V19.3219L73.1141 24.9187Z" fill="#065AFF"/>
<path d="M73.9851 10.5671H70.1355V14.2577H73.9851V10.5671Z" fill="#065AFF"/>
<path d="M11.1697 39.803C11.1697 38.2784 9.97896 37.0988 8.38758 37.0988H5.70561V45H7.47504V42.4961H8.38758C9.97896 42.4961 11.1697 41.3276 11.1697 39.803ZM9.45592 39.803C9.45592 40.3817 8.99965 40.8379 8.36533 40.8379H7.47504V38.768H8.36533C8.99965 38.768 9.45592 39.2132 9.45592 39.803ZM12.3023 45H14.0717V41.7393H14.3611L16.9874 45H19.113L16.3197 41.5168C17.3213 41.1607 17.8666 40.5041 17.8666 39.4803C17.8666 38.1671 16.9095 37.0988 15.4183 37.0988H12.3023V45ZM14.0717 40.237V38.7235H15.2068C15.7299 38.7235 16.1083 39.0017 16.1083 39.4803C16.1083 39.9365 15.7299 40.237 15.2068 40.237H14.0717ZM23.0162 45.1335C25.2641 45.1335 27.1004 43.2973 27.1004 41.0494C27.1004 38.8014 25.2641 36.9652 23.0162 36.9652C20.7571 36.9652 18.932 38.8014 18.932 41.0494C18.932 43.2973 20.7571 45.1335 23.0162 45.1335ZM23.0162 43.4198C21.7253 43.4198 20.7126 42.3292 20.7126 41.0494C20.7126 39.7696 21.7253 38.679 23.0162 38.679C24.296 38.679 25.3087 39.7696 25.3087 41.0494C25.3087 42.3292 24.296 43.4198 23.0162 43.4198Z" fill="url(#paint4_linear_5_159)"/>
<defs>
<linearGradient id="paint0_linear_5_159" x1="15.8387" y1="36.6393" x2="15.8387" y2="49.4839" gradientUnits="userSpaceOnUse">
<stop stop-color="#9327FE"/>
<stop offset="1" stop-color="#6501E5"/>
</linearGradient>
<linearGradient id="paint1_linear_5_159" x1="3.3215" y1="23.4259" x2="3.3215" y2="15.7201" gradientUnits="userSpaceOnUse">
<stop stop-color="#00A3FF"/>
<stop offset="1" stop-color="#0597EA"/>
</linearGradient>
<linearGradient id="paint2_linear_5_159" x1="3.32147" y1="15.9679" x2="3.32147" y2="12.0685" gradientUnits="userSpaceOnUse">
<stop stop-color="#00A3FF"/>
<stop offset="1" stop-color="#0597EA"/>
</linearGradient>
<linearGradient id="paint3_linear_5_159" x1="4.96746" y1="14.5701" x2="14.3407" y2="9.31151" gradientUnits="userSpaceOnUse">
<stop stop-color="#6501E5"/>
<stop offset="1" stop-color="#5F01D8"/>
</linearGradient>
<linearGradient id="paint4_linear_5_159" x1="16.4839" y1="36.3394" x2="16.4839" y2="47.7243" gradientUnits="userSpaceOnUse">
<stop stop-color="#9327FE"/>
<stop offset="1" stop-color="#6501E5"/>
</linearGradient>
</defs>
</svg>
