<svg width="548" height="483" viewBox="0 0 548 483" fill="none" xmlns="http://www.w3.org/2000/svg">
<path d="M481.197 181.833C487.696 185.609 487.727 191.732 481.27 195.508L387.741 250.206C381.284 253.982 370.78 253.985 364.281 250.209L270.137 195.509C263.638 191.733 263.607 185.61 270.064 181.834L363.593 127.136C370.05 123.36 380.554 123.358 387.053 127.134L481.197 181.833Z" fill="black" fill-opacity="0.02"/>
<g clip-path="url(#clip0_2563:58319)" filter="url(#filter0_d_2563:58319)">
<path d="M538.994 119.531L538.908 149.837C538.908 149.956 538.904 150.075 538.898 150.194L538.985 119.889C538.991 119.77 538.994 119.651 538.994 119.531Z" fill="#F0EFF8"/>
<path d="M538.984 119.889L538.897 150.194C538.88 150.547 538.837 150.899 538.77 151.249L538.856 120.944C538.923 120.594 538.966 120.241 538.984 119.889Z" fill="#F0F0F8"/>
<path d="M538.863 120.945L538.777 151.251C538.71 151.598 538.619 151.944 538.504 152.289L538.59 121.983C538.705 121.639 538.796 121.293 538.863 120.945Z" fill="#F0F0F8"/>
<path d="M538.587 121.982L538.501 152.288C538.384 152.637 538.242 152.985 538.074 153.328L538.16 123.023C538.328 122.678 538.47 122.331 538.587 121.982Z" fill="#F1F1F8"/>
<path d="M538.16 123.021L538.074 153.327C537.899 153.686 537.698 154.041 537.469 154.392L537.555 124.086C537.784 123.736 537.986 123.381 538.16 123.021Z" fill="#F1F1F9"/>
<path d="M537.555 124.088L537.468 154.393C537.221 154.773 536.94 155.147 536.629 155.513L536.715 125.208C537.027 124.841 537.306 124.467 537.555 124.088Z" fill="#F2F2F9"/>
<path d="M536.715 125.209L536.629 155.514C536.259 155.95 535.844 156.376 535.383 156.79L535.469 126.484C535.929 126.071 536.345 125.645 536.715 125.209Z" fill="#F2F2F9"/>
<path d="M535.468 126.482L535.381 156.788C534.728 157.375 533.983 157.939 533.148 158.471L533.235 128.166C534.07 127.633 534.814 127.07 535.468 126.482Z" fill="#F3F3F9"/>
<path d="M533.236 128.168L533.15 158.473C532.916 158.623 532.674 158.77 532.426 158.914L532.512 128.609C532.761 128.465 533.002 128.317 533.236 128.168Z" fill="#F3F3F9"/>
<path d="M248.602 128.608L248.516 158.913C244.12 156.375 241.924 153.043 241.934 149.716L242.02 119.41C242.01 122.738 244.205 126.069 248.602 128.608Z" fill="#EEEDF7"/>
<path d="M532.518 128.605L532.433 158.911L406.664 232L406.75 201.695L532.518 128.605Z" fill="#F5F5FA"/>
<path d="M375.197 201.7L375.112 232.005L248.516 158.915L248.602 128.609L375.197 201.7Z" fill="#EEEEF7"/>
<path d="M406.747 201.689L406.661 231.995C404.993 232.964 403.126 233.747 401.133 234.344L401.219 204.038C403.212 203.441 405.08 202.658 406.747 201.689Z" fill="#F3F3F9"/>
<path d="M401.219 204.039L401.133 234.345C400.051 234.669 398.932 234.938 397.789 235.153L397.875 204.847C399.018 204.632 400.136 204.363 401.219 204.039Z" fill="#F3F3F9"/>
<path d="M397.876 204.848L397.79 235.153C396.994 235.303 396.187 235.425 395.371 235.521L395.457 205.216C396.273 205.12 397.081 204.997 397.876 204.848Z" fill="#F2F2F9"/>
<path d="M395.456 205.213L395.37 235.518C394.668 235.601 393.96 235.664 393.25 235.707L393.336 205.402C394.047 205.359 394.754 205.295 395.456 205.213Z" fill="#F2F2F9"/>
<path d="M393.338 205.408L393.252 235.714C392.602 235.753 391.95 235.776 391.297 235.783L391.383 205.477C392.036 205.471 392.688 205.448 393.338 205.408Z" fill="#F1F1F9"/>
<path d="M391.381 205.471L391.295 235.777C390.676 235.783 390.056 235.775 389.438 235.751L389.524 205.445C390.142 205.469 390.762 205.477 391.381 205.471Z" fill="#F1F1F8"/>
<path d="M389.523 205.445L389.437 235.75C388.834 235.727 388.232 235.691 387.633 235.639L387.719 205.334C388.318 205.385 388.92 205.422 389.523 205.445Z" fill="#F0F0F8"/>
<path d="M387.72 205.338L387.634 235.644C387.035 235.592 386.44 235.528 385.848 235.448L385.934 205.143C386.526 205.222 387.121 205.287 387.72 205.338Z" fill="#F0F0F8"/>
<path d="M385.935 205.138L385.849 235.444C385.242 235.363 384.639 235.266 384.043 235.155L384.129 204.85C384.726 204.96 385.329 205.057 385.935 205.138Z" fill="#F0EFF8"/>
<path d="M384.129 204.851L384.042 235.156C383.408 235.038 382.782 234.903 382.164 234.751L382.25 204.445C382.868 204.597 383.495 204.732 384.129 204.851Z" fill="#EFEFF7"/>
<path d="M382.25 204.449L382.164 234.755C381.476 234.585 380.799 234.396 380.137 234.184L380.223 203.879C380.885 204.09 381.561 204.28 382.25 204.449Z" fill="#EFEEF7"/>
<path d="M380.223 203.876L380.137 234.182C379.337 233.927 378.558 233.641 377.805 233.325L377.891 203.02C378.644 203.336 379.423 203.621 380.223 203.876Z" fill="#EEEEF7"/>
<path d="M377.892 203.022L377.806 233.328C376.864 232.933 375.963 232.49 375.113 231.999L375.2 201.693C376.049 202.184 376.951 202.627 377.892 203.022Z" fill="#EEEDF7"/>
<path d="M532.419 110.332C541.159 115.377 541.201 123.559 532.517 128.605L406.749 201.693C398.066 206.739 383.941 206.742 375.202 201.696L248.606 128.607C239.867 123.561 239.825 115.379 248.508 110.333L374.276 37.2448C382.959 32.199 397.083 32.1961 405.823 37.2418L532.419 110.332Z" fill="#F8F8FC"/>
</g>
<g clip-path="url(#clip1_2563:58319)">
<path d="M335.078 64.2441H445.637V131.221C445.637 132.363 445.314 133.493 444.663 134.431C420.229 169.659 353.205 164.095 335.789 134.254C335.302 133.42 335.078 132.466 335.078 131.5V64.2441Z" fill="#943DFF"/>
<path d="M318.699 143.411L335.025 133.207L369.038 155.922C352.202 157.538 334.009 152.243 318.699 143.411Z" fill="#E9E6FF"/>
<path d="M369.443 156.13C379.154 150.9 388.588 137.209 390.359 124.755L335.08 92.6328V131.478C335.08 137.454 352.261 153.889 369.443 156.13Z" fill="#6423CE"/>
<path d="M488.973 57.0723L488.941 68.4304L390.672 125.502L390.704 114.143L488.973 57.0723Z" fill="#AA93F0"/>
<path d="M390.702 114.142L390.67 125.501L291.758 68.4304L291.79 57.0723L390.702 114.142Z" fill="#845EB5"/>
<path d="M488.971 57.0702L390.701 114.141L291.789 57.0711L390.058 0L488.971 57.0702Z" fill="#AF99FF"/>
<path d="M447.351 130.316C448.934 132.75 448.825 138.106 449.684 143.493C450.114 146.191 451.182 147.106 452.504 148.466C453.004 148.466 448.121 152.564 443.388 152.564C438.655 152.564 434.78 148.927 434.78 148.927C435.734 147.361 438.423 145.703 438.423 143.493C438.423 140.132 438.933 133.581 440.421 130.315C441.686 127.538 445.768 127.882 447.351 130.316Z" fill="#FFC33D"/>
<path d="M387.246 49.8457L440.799 81.8065C442.748 82.9695 443.941 85.0715 443.941 87.3408V130.911" stroke="#FFC33D" stroke-width="7.48276" stroke-linecap="round" stroke-linejoin="round"/>
<path d="M447.692 129.861C446.183 130.748 443.186 130.911 440.167 129.861C439.677 130.783 439.51 131.277 439.784 132.263C442.761 133.546 445.12 133.453 448.181 132.404C448.292 131.282 448.16 130.746 447.692 129.861Z" fill="#F5B614"/>
</g>
<g filter="url(#filter1_d_2563:58319)">
<path d="M355.025 251.508L354.954 276.592C354.954 276.654 354.952 276.716 354.949 276.777L355.02 251.693C355.024 251.631 355.025 251.569 355.025 251.508Z" fill="#F0EFF8"/>
<path d="M355.02 251.695L354.949 276.78C354.939 276.962 354.917 277.144 354.883 277.326L354.954 252.241C354.989 252.06 355.01 251.877 355.02 251.695Z" fill="#F0F0F8"/>
<path d="M354.954 252.24L354.883 277.325C354.849 277.505 354.802 277.684 354.742 277.861L354.813 252.777C354.873 252.599 354.92 252.42 354.954 252.24Z" fill="#F1F0F8"/>
<path d="M354.811 252.773L354.74 277.858C354.679 278.039 354.606 278.218 354.52 278.396L354.591 253.311C354.677 253.133 354.751 252.954 354.811 252.773Z" fill="#F1F1F8"/>
<path d="M354.591 253.312L354.52 278.397C354.43 278.583 354.325 278.766 354.207 278.948L354.278 253.863C354.397 253.682 354.501 253.498 354.591 253.312Z" fill="#F1F1F9"/>
<path d="M354.279 253.863L354.207 278.948C354.079 279.144 353.935 279.337 353.773 279.527L353.845 254.442C354.006 254.253 354.151 254.059 354.279 253.863Z" fill="#F2F2F9"/>
<path d="M353.844 254.443L353.773 279.528C353.581 279.753 353.367 279.973 353.129 280.188L353.2 255.103C353.438 254.889 353.653 254.668 353.844 254.443Z" fill="#F2F2F9"/>
<path d="M353.202 255.105L353.131 280.19C352.793 280.494 352.408 280.786 351.977 281.061L352.048 255.976C352.479 255.701 352.864 255.409 353.202 255.105Z" fill="#F3F3F9"/>
<path d="M352.047 255.977L351.976 281.061C351.855 281.139 351.73 281.215 351.602 281.289L351.673 256.205C351.801 256.13 351.926 256.054 352.047 255.977Z" fill="#F3F3FA"/>
<path d="M69.3938 334.978L69.3227 360.062C67.0487 358.749 65.913 357.025 65.918 355.303L65.9891 330.219C65.9841 331.94 67.1198 333.664 69.3938 334.978Z" fill="#EEEDF7"/>
<path d="M351.674 256.203L351.603 281.288L151.09 397.875L151.161 372.79L351.674 256.203Z" fill="#F5F5FA"/>
<path d="M134.852 372.786L134.781 397.871L69.3242 360.059L69.3953 334.975L134.852 372.786Z" fill="#EEEEF7"/>
<path d="M151.155 372.787L151.084 397.872C150.222 398.373 149.256 398.778 148.227 399.087L148.298 374.002C149.327 373.693 150.293 373.288 151.155 372.787Z" fill="#F3F3FA"/>
<path d="M148.299 374.004L148.228 399.089C147.669 399.256 147.091 399.396 146.5 399.506L146.571 374.422C147.162 374.311 147.74 374.172 148.299 374.004Z" fill="#F3F3F9"/>
<path d="M146.571 374.422L146.5 399.507C146.088 399.584 145.671 399.647 145.25 399.697L145.321 374.612C145.742 374.563 146.16 374.499 146.571 374.422Z" fill="#F2F2F9"/>
<path d="M145.319 374.611L145.248 399.696C144.885 399.739 144.52 399.771 144.152 399.794L144.223 374.709C144.591 374.687 144.956 374.654 145.319 374.611Z" fill="#F2F2F9"/>
<path d="M144.226 374.711L144.155 399.796C143.819 399.816 143.482 399.828 143.145 399.831L143.216 374.747C143.553 374.744 143.89 374.732 144.226 374.711Z" fill="#F1F1F9"/>
<path d="M143.215 374.742L143.144 399.827C142.824 399.83 142.503 399.825 142.184 399.813L142.255 374.729C142.575 374.74 142.895 374.745 143.215 374.742Z" fill="#F1F1F8"/>
<path d="M142.253 374.733L142.182 399.818C141.871 399.806 141.559 399.787 141.25 399.76L141.321 374.676C141.631 374.702 141.942 374.721 142.253 374.733Z" fill="#F1F0F8"/>
<path d="M141.322 374.673L141.251 399.758C140.942 399.732 140.634 399.698 140.328 399.657L140.399 374.572C140.705 374.613 141.013 374.647 141.322 374.673Z" fill="#F0F0F8"/>
<path d="M140.399 374.571L140.328 399.656C140.014 399.614 139.703 399.564 139.395 399.507L139.466 374.422C139.774 374.479 140.085 374.529 140.399 374.571Z" fill="#F0EFF8"/>
<path d="M139.464 374.421L139.393 399.505C139.065 399.444 138.741 399.374 138.422 399.296L138.493 374.211C138.812 374.289 139.136 374.359 139.464 374.421Z" fill="#EFEFF7"/>
<path d="M138.495 374.217L138.423 399.302C138.067 399.214 137.718 399.116 137.375 399.007L137.446 373.922C137.789 374.031 138.139 374.129 138.495 374.217Z" fill="#EFEEF7"/>
<path d="M137.446 373.918L137.374 399.002C136.96 398.87 136.557 398.723 136.168 398.559L136.239 373.475C136.629 373.638 137.031 373.786 137.446 373.918Z" fill="#EEEEF7"/>
<path d="M136.241 373.475L136.17 398.56C135.683 398.355 135.217 398.126 134.777 397.872L134.848 372.787C135.288 373.041 135.754 373.27 136.241 373.475Z" fill="#EEEDF7"/>
<path d="M351.619 246.75C356.138 249.36 356.162 253.591 351.672 256.201L151.159 372.789C146.67 375.399 139.369 375.399 134.85 372.789L69.3931 334.977C64.8742 332.367 64.8504 328.136 69.34 325.526L269.853 208.938C274.343 206.328 281.644 206.328 286.162 208.938L351.619 246.75Z" fill="#F8F8FC"/>
</g>
<path d="M193.359 318.142L229.612 302.05L188.18 263.762L157.66 281.149L193.359 318.142Z" fill="#EAEAFF"/>
<path d="M225.724 300.817L187.648 267.828L261.758 235.141L304.559 270.379L225.724 300.817Z" fill="#FF6363"/>
<path d="M187.57 267.884V258.053L191.503 256.408L191.526 266.107L187.57 267.884Z" fill="#CC4F4F"/>
<path d="M226.817 298.62V287.92L189.195 258.541V267.139L226.817 298.62Z" fill="#DBDCDC"/>
<path d="M225.73 303.8V300.804L304.557 270.375V272.908L225.73 303.8Z" fill="#CC4F4F"/>
<path d="M225.687 285.88L185.684 254.724L259.793 221.602L304.599 254.762L225.687 285.88Z" fill="#FF6363"/>
<path d="M226.817 298.632L226.781 287.924L301.533 259.111V270.001L226.817 298.632Z" fill="#F3F4F4"/>
<path d="M225.609 289.289V285.751L304.558 254.84V257.789L225.609 289.289Z" fill="#CC4F4F"/>
<path d="M225.61 289.283L187.648 258.354V267.807L225.742 300.826V303.795L185.379 268.79V254.422L225.61 285.754V289.283Z" fill="#CC4F4F"/>
<path d="M252.228 215.777L187.496 255.14L236.65 284.215L302.181 245.46L252.228 215.777Z" fill="#9948FF"/>
<path d="M187.496 255.177V245.609L196.268 240.77V249.693L187.496 255.177Z" fill="#7210ED"/>
<path d="M237.446 281.755L237.371 272.341L300.477 235.814V244.662L237.446 281.755Z" fill="#F3F4F4"/>
<path d="M237.478 281.642V272.568L191.273 246.705V255.023L237.478 281.642Z" fill="#DBDCDC"/>
<path d="M236.648 273.173V269.883L303.8 230.371V233.85L236.648 273.173Z" fill="#7210ED"/>
<path d="M236.648 287.539V284.249L302.175 245.455V249.123L236.648 287.539Z" fill="#7210ED"/>
<path d="M236.65 273.17L187.648 245.643V255.173L236.65 284.21V287.538L185.379 257.138V241.711L236.65 269.691V273.17Z" fill="#7101FF"/>
<path d="M236.649 269.993L185.375 241.712L253.437 200.875L303.801 230.367L236.649 269.993Z" fill="#9948FF"/>
<path d="M139.269 297.393L127.734 224.717L178.716 255.348L187.554 330.752L139.269 297.393Z" fill="#F8A737"/>
<path d="M141.316 220.816V216.887L188.881 245.623V250.656L141.316 220.816Z" fill="#F8A737"/>
<path d="M142.348 220.008L133.867 225.662L178.873 253.028L187.694 247.826L142.348 220.008Z" fill="#DBDCDC"/>
<path d="M187.536 330.773L178.648 255.292L195.271 246.238L202.927 320.693L187.536 330.773Z" fill="#FFC33D"/>
<path d="M131.154 222.72L127.727 224.716L178.648 255.301L195.271 246.24L144.159 215.186L141.314 216.889L188.656 245.845L178.648 251.216L131.154 222.72Z" fill="#FFC33D"/>
<path d="M111.145 315.856V235.084L162.059 265.672V344.522L111.145 315.856Z" fill="#00BBE1"/>
<path d="M125.762 230.398L117.281 236.052L162.288 263.418L171.108 258.216L125.762 230.398Z" fill="#DBDCDC"/>
<path d="M124.727 231.202L124.744 227.23L172.291 256.01V261.042L124.727 231.202Z" fill="#0082CC"/>
<path d="M114.565 233.112L111.145 235.091L162.059 265.68L178.679 256.69L127.57 225.578L124.743 227.232L172.067 256.237L162.059 261.609L114.565 233.112Z" fill="#00A3FF"/>
<path d="M162.059 344.526V265.681L178.682 256.684L178.54 335.056L162.059 344.526Z" fill="#00A3FF"/>
<path d="M94.6875 325.41V244.639L145.602 275.227V354.076L94.6875 325.41Z" fill="#00BBE1"/>
<path d="M109.305 239.947L100.824 245.601L145.83 272.967L154.651 267.765L109.305 239.947Z" fill="#DBDCDC"/>
<path d="M108.273 240.753L108.291 236.781L155.838 265.56V270.593L108.273 240.753Z" fill="#00BBE1"/>
<path d="M98.1121 242.663L94.6914 244.642L145.606 275.23L162.226 266.24L111.116 235.129L108.289 236.783L155.614 265.788L145.606 271.159L98.1121 242.663Z" fill="#00DBCD"/>
<path d="M145.602 354.077V275.231L162.224 266.234L162.083 344.607L145.602 354.077Z" fill="#00DBCD"/>
<path d="M100.416 437.999L98.2695 397.582L118.42 398.253L117.078 438.553L100.416 437.999Z" fill="#FF986C"/>
<path d="M119.616 427.728C111.862 424.238 105.502 423.687 97.207 425.013L99.1456 442.105L97.207 454.9H138.305L137.563 449.206C137.31 447.27 135.876 445.697 133.971 445.268L118.065 441.686L119.616 427.728Z" fill="#0000F3"/>
<path d="M99.2539 441.395C100.029 441.782 101.888 442.141 103.519 442.17" stroke="#7B7BFF" stroke-width="0.775443" stroke-linecap="round" stroke-linejoin="round"/>
<path d="M117.865 439.455L117.09 442.945" stroke="#7B7BFF" stroke-width="0.775443" stroke-linecap="round" stroke-linejoin="round"/>
<path d="M98.0938 451.084C102.585 451.503 105.126 451.537 109.725 451.472" stroke="#7B7BFF" stroke-width="0.775443" stroke-linecap="round" stroke-linejoin="round"/>
<path d="M32.2606 399.161L11.7114 394.896L5.50781 430.179L21.0167 433.281L32.2606 399.161Z" fill="#FF986C"/>
<path d="M26.0554 425.913C17.6129 422.67 12.5382 422.404 3.17989 423.167V437.932L0.078125 454.217L41.5643 454.992L40.462 448.929C40.182 447.389 39.1464 446.093 37.7061 445.481L21.7905 438.708L26.0554 425.913Z" fill="#0000F3"/>
<path d="M3.48828 438.289C4.26372 438.677 6.12225 439.036 7.75321 439.065" stroke="#7B7BFF" stroke-width="0.775443" stroke-linecap="round" stroke-linejoin="round"/>
<path d="M22.0997 436.35L21.3242 439.839" stroke="#7B7BFF" stroke-width="0.775443" stroke-linecap="round" stroke-linejoin="round"/>
<path d="M0.773438 451.086C5.26446 451.505 7.80542 451.539 12.4051 451.474" stroke="#7B7BFF" stroke-width="0.775443" stroke-linecap="round" stroke-linejoin="round"/>
<path d="M62.8895 339.843L35.3612 407.694L7.44531 402.266L28.77 322.395L36.8334 261.104C32.1807 243.656 35.6702 234.351 40.7893 220.812H91.5808L62.8895 339.843Z" fill="#FFC33D"/>
<path d="M121.434 404.98L108.639 220.812H60.5628C57.4606 231.669 57.8485 264.237 71.4177 266.564C75.5308 285.21 82.2099 324.242 86.5388 342.557L93.9055 404.98H121.434Z" fill="#FFC33D"/>
<path d="M110.112 242.493C100.419 247.145 87.2357 254.9 34.8936 251.023C33.3436 240.554 38.3468 223.905 39.1592 222.331L108.949 220.393L110.112 242.493Z" fill="#FC9318"/>
<path d="M60.8709 250.248C60.0967 259.553 65.522 264.594 71.3378 266.92L75.9905 287.857" stroke="#25265E" stroke-width="1.08562" stroke-linecap="round" stroke-linejoin="round"/>
<path d="M99.6445 248.693L109.725 339.032L114.378 404.557" stroke="#CE6F00" stroke-width="1.08562" stroke-linecap="round" stroke-linejoin="round" stroke-dasharray="6.2 3.1"/>
<path d="M69.0156 277.387L57.384 337.871L31.4067 406.11" stroke="#CE6F00" stroke-width="1.08562" stroke-linecap="round" stroke-linejoin="round" stroke-dasharray="6.2 3.1"/>
<path d="M101.195 260.716C108.95 259.94 109.337 251.023 108.562 244.432" stroke="#CE6F00" stroke-width="1.08562" stroke-linecap="round" stroke-linejoin="round"/>
<path d="M55.4463 107.178C56.6095 103.3 58.6163 94.131 56.6882 85.1094L76.0743 99.0355C72.8735 106.409 75.9356 111.626 76.3833 119.972L45.832 114.576L55.4463 107.178Z" fill="#FF986C"/>
<path d="M75.3001 111.471C65.9158 112.602 57.7737 110.276 55.4473 107.174C46.5306 109.112 35.2235 114.96 33.8149 121.164C31.8782 129.693 31.8751 160.323 38.853 187.076C37.2159 209.613 35.1662 222.065 30.3242 244.071C55.1384 250.662 93.8317 256.059 112.83 240.55C107.481 208.757 101.586 195.574 102.828 171.955C104.388 161.449 106.627 150.599 105.93 145.59C103.604 136.672 93.8317 118.03 75.3001 111.471Z" fill="#FB2F4D"/>
<path d="M102.36 172.311C98.8463 175.885 97.1107 177.465 93.0547 179.29" stroke="#B70822" stroke-width="0.775443" stroke-linecap="round" stroke-linejoin="round"/>
<path d="M102.36 176.965C101.584 178.903 100.809 180.067 99.2578 181.23" stroke="#B70822" stroke-width="0.775443" stroke-linecap="round" stroke-linejoin="round"/>
<path d="M5.28815 146.163C4.19431 138.101 27.5695 115.475 42.6905 113.925L31.9129 168.625C22.0324 170.852 6.0194 151.553 5.28815 146.163Z" fill="#FF8855"/>
<path d="M102.749 136.643C100.035 170.762 82.2948 194.816 65.2188 216.933V190.568C79.0982 173.122 91.5397 159.213 98.484 137.418L102.749 136.643Z" fill="#3100BB"/>
<path d="M84.5257 116.094C70.7991 116.787 65.9151 128.469 65.9151 139.745L50.4062 136.224C56.9975 118.033 65.9151 112.992 79.0976 112.992C81.6636 113.925 82.8253 114.633 84.5257 116.094Z" fill="#1E1ECE"/>
<path d="M55.4458 107.178C49.0052 112.656 47.9383 116.093 44.9773 121.523H34.1211C37.2229 112.218 44.4765 108.258 55.4458 107.178Z" fill="#1E1ECE"/>
<path d="M71.8604 218.098C70.0427 228.923 23.2564 230.666 8.52974 218.098C1.64605 207.542 0.53131 175.184 3.48232 157.595C4.63716 150.711 7.0685 145.615 10.5127 143.835C12.2348 142.945 15.367 142.356 18.9973 142.508C18.8771 131.669 25.2911 118.169 30.432 116.514C44.9772 111.832 63.9671 109.134 72.668 126.032C77.9335 136.258 77.843 182.473 71.8604 218.098Z" fill="#1E1ECE"/>
<path d="M71.7305 219.232C68.2421 224.661 56.2228 226.211 51.1799 226.599C48.4031 216.033 47.5076 175.242 48.6979 157.637C49.1638 150.747 50.1445 145.647 51.5338 143.865C52.2285 142.974 53.4919 142.384 54.9563 142.536C54.9078 131.689 58.3802 113.994 62.0368 115.323C66.3018 116.872 73.2066 124.232 74.4439 130.832C76.7702 143.239 79.4843 181.623 71.7305 219.232Z" fill="#3100BB"/>
<path d="M11.6328 147.891C22.6263 150.789 33.3452 152.156 46.5277 150.605C43.8137 175.807 44.9768 195.193 48.0786 222.721C43.4969 222.853 37.9979 222.721 34.8961 221.945" stroke="#7B7BFF" stroke-width="1.08562" stroke-linecap="round" stroke-linejoin="round" stroke-dasharray="6.2 3.1"/>
<path d="M5.42969 151.768C13.0787 155.492 18.6021 156.702 31.407 156.808" stroke="#7B7BFF" stroke-width="1.08562" stroke-linecap="round" stroke-linejoin="round" stroke-dasharray="6.2 3.1"/>
<path d="M31.4086 221.169C24.4296 220.394 17.394 218.902 10.8594 215.354" stroke="#7B7BFF" stroke-width="1.08562" stroke-linecap="round" stroke-linejoin="round" stroke-dasharray="6.2 3.1"/>
<path d="M22.1016 143.629C31.3328 145.102 36.8891 145.269 47.6912 143.629C48.8568 141.065 49.0975 139.837 52.3438 139.364C52.2861 134.217 52.5367 131.448 53.1193 126.57M53.1193 126.57C53.5534 122.368 55.2575 120.138 56.6088 116.876C45.7549 116.374 39.8575 116.355 31.4069 119.203C28.6928 120.118 26.4288 124.172 25.9788 127.345C33.7332 125.406 43.1756 125.481 53.1193 126.57Z" stroke="#7B7BFF" stroke-width="1.08562" stroke-linecap="round" stroke-linejoin="round" stroke-dasharray="6.2 3.1"/>
<path d="M25.2006 129.668C24.0383 131.607 22.4285 136.787 22.4859 140.912" stroke="#7B7BFF" stroke-width="1.08562" stroke-linecap="round" stroke-linejoin="round" stroke-dasharray="6.2 3.1"/>
<path d="M51.1802 225.824C46.9155 194.031 48.818 146.647 50.7916 144.015C51.9543 142.464 55.0379 143.239 55.0565 142.076C55.2429 130.407 56.7613 124.596 60.8723 114.936" stroke="#7B7BFF" stroke-width="0.775443" stroke-linecap="round" stroke-linejoin="round"/>
<path d="M34.1211 226.21C48.5351 227.689 64.3582 226.349 70.5083 220.847C71.0891 220.327 71.4325 219.606 71.5979 218.844C79.4786 182.555 77.8967 148.086 74.4441 130.055C73.1349 123.219 68.3585 118.174 62.8125 115.709C55.8335 112.608 42.651 113.771 38.386 114.546" stroke="#000147" stroke-width="1.08562" stroke-linecap="round" stroke-linejoin="round"/>
<path d="M125.333 101.359C114.528 106.199 79.8718 114.932 76.7693 121.523C71.5691 132.571 81.69 145.787 94.2163 141.683C110.073 136.489 142.034 114.04 142.384 109.817C143.313 98.6004 121.961 70.214 110.654 55.5376C105.379 50.245 101.629 50.6726 95.9514 50.3086C90.2738 49.9445 93.6589 49.4687 88.2546 51.2519C86.0653 53.8144 85.5508 55.1489 85.6396 58.6023C90.3398 58.2688 88.9176 56.4793 92.3713 59.3409C95.825 62.2026 100.83 61.4296 104.679 60.9581C110.349 70.1604 122.129 91.2529 125.333 101.359Z" fill="#FF986C"/>
<path d="M77.5469 135.869C80.6486 140.522 87.6276 147.113 102.749 138.195" stroke="#B70822" stroke-width="0.775443" stroke-linecap="round" stroke-linejoin="round"/>
<path d="M88.0156 147.496C90.7297 147.884 94.6069 144.782 95.3823 142.844" stroke="#B70822" stroke-width="0.775443" stroke-linecap="round" stroke-linejoin="round"/>
<path d="M125.625 101.363C127.176 101.363 129.502 102.14 132.604 103.69" stroke="#FF7236" stroke-width="0.775443" stroke-linecap="round" stroke-linejoin="round"/>
<path d="M98.1733 82.9879C96.8276 84.1731 95.6244 84.8306 93.875 85.079V76.7793C95.0537 79.1617 95.7887 80.4979 98.1733 82.9879Z" fill="#FF8855"/>
<path d="M86.0698 102.53C78.7533 105.188 54.4876 91.4967 55.1107 78.7164C55.8233 64.101 65.5895 53.4234 83.0468 55.2414C93.6502 56.3456 94.2263 72.6761 94.2264 85.6082C94.2264 92.2991 90.3367 100.98 86.0698 102.53Z" fill="#FF986C"/>
<path d="M69.0903 91.3084C70.0598 90.0195 70.9489 88.1765 71.0283 85.4932C68.3143 84.33 65.9883 81.616 65.988 78.5142C65.9875 74.9396 68.8128 73.2743 71.0283 75.0247C76.4477 79.3062 73.045 83.6612 72.8701 96.7852C72.8651 97.1584 73.4171 97.2112 73.5019 96.8478C75.9659 86.2782 79.8992 81.9302 76.7654 73.0543C73.9256 65.011 98.364 72.3049 95.4554 54.8626C91.2304 29.5262 44.9745 40.4867 41.9498 61.4539C39.828 76.1627 44.2769 88.2226 54.7446 92.8593C58.6213 94.5764 67.0724 93.9913 69.0903 91.3084Z" fill="#14004B"/>
<ellipse cx="38.2896" cy="53.2457" rx="12.1079" ry="13.4532" transform="rotate(31.4904 38.2896 53.2457)" fill="#14004B"/>
<path d="M48.4644 45.1426C48.8521 52.897 46.2778 61.1885 41.0977 66.0795" stroke="#FFC33D" stroke-width="0.620354" stroke-linecap="round" stroke-linejoin="round"/>
<path d="M50.403 48.2422C50.0152 55.9966 48.8521 61.8124 41.0977 66.0774" stroke="#FFC33D" stroke-width="0.620354" stroke-linecap="round" stroke-linejoin="round"/>
<path d="M71.3398 97.4863C72.503 99.0372 78.3188 102.527 84.1346 102.527" stroke="#FF7236" stroke-width="0.775443" stroke-linecap="round" stroke-linejoin="round"/>
<g clip-path="url(#clip2_2563:58319)" filter="url(#filter2_d_2563:58319)">
<path d="M509.348 370.625L509.281 394.268C509.281 394.361 509.278 394.455 509.273 394.547L509.341 370.904C509.346 370.811 509.348 370.718 509.348 370.625Z" fill="#F0EFF8"/>
<path d="M509.339 370.904L509.272 394.548C509.258 394.823 509.225 395.098 509.172 395.371L509.239 371.727C509.292 371.454 509.325 371.179 509.339 370.904Z" fill="#F0F0F8"/>
<path d="M509.241 371.727L509.174 395.37C509.122 395.641 509.051 395.911 508.961 396.18L509.028 372.536C509.118 372.268 509.189 371.997 509.241 371.727Z" fill="#F0F0F8"/>
<path d="M509.029 372.539L508.962 396.182C508.871 396.455 508.759 396.726 508.629 396.994L508.696 373.351C508.827 373.082 508.938 372.811 509.029 372.539Z" fill="#F1F1F8"/>
<path d="M508.696 373.35L508.628 396.993C508.492 397.273 508.335 397.55 508.156 397.824L508.224 374.18C508.402 373.907 508.56 373.63 508.696 373.35Z" fill="#F1F1F9"/>
<path d="M508.222 374.178L508.155 397.821C507.962 398.117 507.743 398.409 507.5 398.695L507.567 375.051C507.81 374.765 508.028 374.474 508.222 374.178Z" fill="#F2F2F9"/>
<path d="M507.571 375.051L507.503 398.694C507.215 399.034 506.891 399.367 506.531 399.689L506.599 376.046C506.958 375.723 507.282 375.391 507.571 375.051Z" fill="#F2F2F9"/>
<path d="M506.594 376.049L506.527 399.692C506.017 400.151 505.437 400.59 504.785 401.006L504.852 377.362C505.504 376.947 506.085 376.507 506.594 376.049Z" fill="#F3F3F9"/>
<path d="M504.855 377.359L504.788 401.003C504.605 401.119 504.416 401.234 504.223 401.347L504.29 377.703C504.484 377.591 504.672 377.476 504.855 377.359Z" fill="#F3F3F9"/>
<path d="M282.797 377.707L282.729 401.35C279.299 399.37 277.586 396.771 277.594 394.175L277.661 370.531C277.654 373.127 279.366 375.727 282.797 377.707Z" fill="#EEEDF7"/>
<path d="M504.297 377.705L504.23 401.348L406.109 458.37L406.176 434.727L504.297 377.705Z" fill="#F5F5FA"/>
<path d="M381.564 434.728L381.497 458.372L282.73 401.348L282.798 377.705L381.564 434.728Z" fill="#EEEEF7"/>
<path d="M406.177 434.729L406.11 458.372C404.809 459.128 403.352 459.739 401.797 460.204L401.864 436.561C403.419 436.095 404.877 435.484 406.177 434.729Z" fill="#F3F3F9"/>
<path d="M401.867 436.562L401.8 460.206C400.956 460.459 400.083 460.669 399.191 460.836L399.259 437.193C400.15 437.025 401.023 436.815 401.867 436.562Z" fill="#F3F3F9"/>
<path d="M399.255 437.195L399.188 460.839C398.567 460.955 397.937 461.051 397.301 461.126L397.368 437.482C398.004 437.408 398.634 437.312 399.255 437.195Z" fill="#F2F2F9"/>
<path d="M397.37 437.479L397.302 461.122C396.755 461.186 396.202 461.236 395.648 461.269L395.716 437.626C396.27 437.592 396.822 437.543 397.37 437.479Z" fill="#F2F2F9"/>
<path d="M395.717 437.629L395.65 461.272C395.143 461.303 394.634 461.321 394.125 461.326L394.192 437.683C394.702 437.678 395.21 437.66 395.717 437.629Z" fill="#F1F1F9"/>
<path d="M394.192 437.682L394.125 461.326C393.642 461.33 393.158 461.324 392.676 461.306L392.743 437.662C393.226 437.681 393.709 437.687 394.192 437.682Z" fill="#F1F1F8"/>
<path d="M392.744 437.659L392.677 461.302C392.206 461.284 391.737 461.256 391.27 461.216L391.337 437.572C391.804 437.612 392.274 437.641 392.744 437.659Z" fill="#F0F0F8"/>
<path d="M391.336 437.574L391.268 461.218C390.801 461.178 390.337 461.127 389.875 461.065L389.942 437.422C390.404 437.484 390.869 437.534 391.336 437.574Z" fill="#F0F0F8"/>
<path d="M389.941 437.422L389.874 461.066C389.4 461.003 388.93 460.927 388.465 460.841L388.532 437.197C388.997 437.284 389.468 437.359 389.941 437.422Z" fill="#F0EFF8"/>
<path d="M388.533 437.195L388.465 460.838C387.97 460.746 387.482 460.641 387 460.522L387.067 436.879C387.549 436.997 388.038 437.103 388.533 437.195Z" fill="#EFEFF7"/>
<path d="M387.067 436.88L386.999 460.524C386.463 460.392 385.935 460.244 385.418 460.079L385.485 436.436C386.002 436.6 386.529 436.749 387.067 436.88Z" fill="#EFEEF7"/>
<path d="M385.489 436.434L385.421 460.077C384.797 459.878 384.189 459.656 383.602 459.409L383.669 435.766C384.256 436.012 384.864 436.235 385.489 436.434Z" fill="#EEEEF7"/>
<path d="M383.668 435.771L383.601 459.414C382.866 459.106 382.163 458.761 381.5 458.378L381.567 434.734C382.23 435.117 382.933 435.463 383.668 435.771Z" fill="#EEEDF7"/>
<path d="M504.222 363.448C511.04 367.385 511.073 373.768 504.299 377.705L406.178 434.726C399.403 438.662 388.384 438.665 381.566 434.728L282.8 377.706C275.981 373.769 275.949 367.386 282.723 363.449L380.843 306.428C387.618 302.492 398.637 302.489 405.456 306.426L504.222 363.448Z" fill="#F8F8FC"/>
<ellipse cx="379.33" cy="372.561" rx="32.9241" ry="22.9359" fill="#825E02" fill-opacity="0.12"/>
</g>
<path d="M426.777 369.615L426.766 373.663L391.742 394.004L391.754 389.955L426.777 369.615Z" fill="#FFC33D"/>
<path d="M391.756 389.955L391.745 394.003L356.492 373.663L356.504 369.615L391.756 389.955Z" fill="#F5AF14"/>
<path d="M426.776 369.61L391.753 389.95L356.5 369.61L391.524 349.27L426.776 369.61Z" fill="#FFC33D"/>
<path d="M424.324 354.42L424.334 368.213L391.773 387.434V373.282L424.324 354.42Z" fill="#7A4C0E"/>
<path d="M391.845 373.301V387.385L358.508 368.572V354.34L391.845 373.301Z" fill="#603322"/>
<path d="M424.319 354.419L391.845 373.306L358.508 354.337L391.63 335.203L424.319 354.419Z" fill="#6D4038"/>
<ellipse cx="391.634" cy="353.44" rx="16.923" ry="10.5119" fill="#F5B614"/>
<rect x="374.711" y="350.41" width="33.8461" height="3.27415" fill="#F5B614"/>
<ellipse cx="391.634" cy="350.206" rx="16.923" ry="10.0499" fill="#FFD26C"/>
<path d="M436.736 275.147C436.736 283.95 428.765 297.962 421.17 297.644C414.615 297.644 409.301 289.951 409.301 280.461C409.301 270.971 419.495 264 426.051 264C432.606 264 436.736 265.844 436.736 275.147Z" fill="#F5B614"/>
<path d="M432.144 274.514C432.829 279.417 429.817 287.005 426.281 290.223C428.528 283.607 429.56 279.794 430.44 272.549C431.176 272.395 431.97 273.274 432.144 274.514Z" fill="#FFD26C"/>
<path d="M431.714 259.852C433.328 289.186 418.888 320.145 391.457 320.877C366.092 321.554 350.389 293.929 351.2 257.888C350.157 247.145 369.928 258.582 392.321 258.582C414.714 258.582 431.714 247.254 431.714 259.852Z" fill="#FFC33D"/>
<path d="M367.974 280.463L372.133 282.253C364.652 287.683 354.718 304.548 363.153 315.522C349.405 313.847 352.319 291.746 367.974 280.463Z" fill="#FFD26C"/>
<ellipse cx="391.453" cy="257.535" rx="40.2572" ry="23.3342" fill="#FFD26C"/>
<ellipse cx="391.452" cy="257.535" rx="34.3659" ry="19.9194" fill="#F5B614"/>
<path d="M372.126 287.34V282.373C365.705 285.492 356.687 297.043 358.304 308.826C359.598 318.252 367.253 315.757 372.126 314.429V309.866C369.794 311.021 363.787 311.021 362.99 308.826C360.292 301.397 364.389 292.875 372.126 287.34Z" fill="#F5B614"/>
<path d="M403.429 316.965C394.209 319.053 388.439 318.892 379.844 316.965C383.7 322.91 383.656 326.379 383.656 336.314V350.06C383.656 354.681 399.135 354.45 399.135 350.06V336.314C399.135 327.881 398.924 321.412 403.429 316.965Z" fill="#FFC33D"/>
<path d="M368.203 308.309C366.845 309.002 365.766 308.944 362.965 308.684C363.542 310.792 368.636 311.687 372.13 309.695C370.253 309.695 369.069 309.262 368.203 308.309Z" fill="#FFD26C"/>
<defs>
<filter id="filter0_d_2563:58319" x="215.17" y="24.5364" width="332.757" height="238.016" filterUnits="userSpaceOnUse" color-interpolation-filters="sRGB">
<feFlood flood-opacity="0" result="BackgroundImageFix"/>
<feColorMatrix in="SourceAlpha" type="matrix" values="0 0 0 0 0 0 0 0 0 0 0 0 0 0 0 0 0 0 127 0" result="hardAlpha"/>
<feOffset dx="-8.92255" dy="8.92255"/>
<feGaussianBlur stdDeviation="8.92255"/>
<feColorMatrix type="matrix" values="0 0 0 0 0 0 0 0 0 0 0 0 0 0 0 0 0 0 0.12 0"/>
<feBlend mode="normal" in2="BackgroundImageFix" result="effect1_dropShadow_2563:58319"/>
<feBlend mode="normal" in="SourceGraphic" in2="effect1_dropShadow_2563:58319" result="shape"/>
</filter>
<filter id="filter1_d_2563:58319" x="59.1155" y="200.178" width="316.315" height="220.062" filterUnits="userSpaceOnUse" color-interpolation-filters="sRGB">
<feFlood flood-opacity="0" result="BackgroundImageFix"/>
<feColorMatrix in="SourceAlpha" type="matrix" values="0 0 0 0 0 0 0 0 0 0 0 0 0 0 0 0 0 0 127 0" result="hardAlpha"/>
<feOffset dx="6.80251" dy="6.80251"/>
<feGaussianBlur stdDeviation="6.80251"/>
<feColorMatrix type="matrix" values="0 0 0 0 0 0 0 0 0 0 0 0 0 0 0 0 0 0 0.12 0"/>
<feBlend mode="normal" in2="BackgroundImageFix" result="effect1_dropShadow_2563:58319"/>
<feBlend mode="normal" in="SourceGraphic" in2="effect1_dropShadow_2563:58319" result="shape"/>
</filter>
<filter id="filter2_d_2563:58319" x="256.714" y="296.515" width="259.606" height="185.694" filterUnits="userSpaceOnUse" color-interpolation-filters="sRGB">
<feFlood flood-opacity="0" result="BackgroundImageFix"/>
<feColorMatrix in="SourceAlpha" type="matrix" values="0 0 0 0 0 0 0 0 0 0 0 0 0 0 0 0 0 0 127 0" result="hardAlpha"/>
<feOffset dx="-6.96111" dy="6.96111"/>
<feGaussianBlur stdDeviation="6.96111"/>
<feColorMatrix type="matrix" values="0 0 0 0 0 0 0 0 0 0 0 0 0 0 0 0 0 0 0.12 0"/>
<feBlend mode="normal" in2="BackgroundImageFix" result="effect1_dropShadow_2563:58319"/>
<feBlend mode="normal" in="SourceGraphic" in2="effect1_dropShadow_2563:58319" result="shape"/>
</filter>
<clipPath id="clip0_2563:58319">
<rect width="297.065" height="202.326" fill="white" transform="translate(241.938 33.459)"/>
</clipPath>
<clipPath id="clip1_2563:58319">
<rect width="197.214" height="159.862" fill="white" transform="translate(291.754)"/>
</clipPath>
<clipPath id="clip2_2563:58319">
<rect width="231.761" height="157.849" fill="white" transform="translate(277.598 303.477)"/>
</clipPath>
</defs>
</svg>
