<svg width="591" height="261" viewBox="0 0 591 261" fill="none" xmlns="http://www.w3.org/2000/svg">
<g clip-path="url(#clip0_38:10)">
<rect width="591" height="261" fill="#25265E"/>
<circle cx="446.516" cy="146.727" r="156.727" fill="#EFF4FC"/>
<path d="M453.443 53.7925V203.779C453.443 210.268 448.167 215.531 441.661 215.531H209.782C203.276 215.531 198 210.268 198 203.779V53.7925C198 47.3032 203.276 42.0405 209.782 42.0405H441.661C448.178 42.0405 453.443 47.3032 453.443 53.7925Z" fill="#E9F2FF"/>
<path d="M453.443 53.7924V61.0575H198V53.7924C198 47.3032 203.276 42.0405 209.782 42.0405H441.661C448.178 42.0405 453.443 47.3032 453.443 53.7924Z" fill="#BAC9D6"/>
<path d="M208.205 54.484C209.83 54.484 211.148 53.1698 211.148 51.5486C211.148 49.9275 209.83 48.6133 208.205 48.6133C206.58 48.6133 205.262 49.9275 205.262 51.5486C205.262 53.1698 206.58 54.484 208.205 54.484Z" fill="#939393"/>
<path d="M217.485 54.484C219.11 54.484 220.428 53.1698 220.428 51.5486C220.428 49.9275 219.11 48.6133 217.485 48.6133C215.86 48.6133 214.542 49.9275 214.542 51.5486C214.542 53.1698 215.86 54.484 217.485 54.484Z" fill="#CEDCED"/>
<path d="M226.713 54.484C228.338 54.484 229.656 53.1698 229.656 51.5486C229.656 49.9275 228.338 48.6133 226.713 48.6133C225.088 48.6133 223.77 49.9275 223.77 51.5486C223.77 53.1698 225.088 54.484 226.713 54.484Z" fill="white"/>
<path d="M450.385 61.2153H201.059C200.974 61.2153 200.901 61.1419 200.901 61.058C200.901 60.9741 200.974 60.9008 201.059 60.9008H450.385C450.469 60.9008 450.542 60.9741 450.542 61.058C450.542 61.1419 450.479 61.2153 450.385 61.2153Z" fill="#939393"/>
<path d="M313.409 92.172H305.337C302.889 88.2826 298.548 85.6932 293.608 85.6932C288.669 85.6932 284.328 88.2826 281.879 92.172H273.808C270.339 92.172 267.533 94.9711 267.533 98.4306V166.206C267.533 169.665 270.339 172.465 273.808 172.465H313.409C316.877 172.465 319.683 169.665 319.683 166.206V98.4306C319.683 94.9711 316.877 92.172 313.409 92.172Z" fill="#CEDCED"/>
<path d="M374.535 92.172H366.463C364.014 88.2826 359.674 85.6932 354.734 85.6932C349.794 85.6932 345.454 88.2826 343.005 92.172H334.933C331.465 92.172 328.659 94.9711 328.659 98.4306V166.206C328.659 169.665 331.465 172.465 334.933 172.465H374.535C378.003 172.465 380.809 169.665 380.809 166.206V98.4306C380.809 94.9711 377.993 92.172 374.535 92.172Z" fill="#CEDCED"/>
<path d="M435.408 92.172H427.347C424.898 88.2826 420.557 85.6932 415.618 85.6932C410.668 85.6932 406.338 88.2826 403.889 92.172H395.817C392.349 92.172 389.543 94.9711 389.543 98.4306V166.206C389.543 169.665 392.349 172.465 395.817 172.465H435.418C438.887 172.465 441.693 169.665 441.693 166.206V98.4306C441.693 94.9711 438.876 92.172 435.408 92.172Z" fill="#CEDCED"/>
<path d="M252.662 92.172H244.59C242.142 88.2826 237.801 85.6932 232.861 85.6932C227.922 85.6932 223.581 88.2826 221.132 92.172H213.061C209.592 92.172 206.786 94.9711 206.786 98.4306V166.206C206.786 169.665 209.592 172.465 213.061 172.465H252.662C256.13 172.465 258.936 169.665 258.936 166.206V98.4306C258.947 94.9711 256.13 92.172 252.662 92.172Z" fill="#CEDCED"/>
<path d="M362.343 187.477H284.843C281.68 187.477 279.115 190.035 279.115 193.191V199.984C279.115 203.139 281.68 205.697 284.843 205.697H362.343C365.507 205.697 368.071 203.139 368.071 199.984V193.191C368.071 190.035 365.507 187.477 362.343 187.477Z" fill="#CEDCED"/>
<path d="M211.925 160.722V90.2627C211.925 87.5475 214.132 85.3459 216.855 85.3459H259.136C261.858 85.3459 264.065 87.5475 264.065 90.2627V160.722C264.065 163.437 261.858 165.638 259.136 165.638H216.865C214.132 165.638 211.925 163.437 211.925 160.722Z" fill="#7AD001"/>
<path d="M219.156 123.447V115.585C219.156 115.344 219.356 115.145 219.597 115.145H256.393C256.634 115.145 256.834 115.344 256.834 115.585V123.447C256.834 123.689 256.634 123.888 256.393 123.888H219.608C219.356 123.888 219.156 123.689 219.156 123.447Z" fill="white"/>
<path d="M219.156 137.869V130.006C219.156 129.765 219.356 129.566 219.597 129.566H256.393C256.634 129.566 256.834 129.765 256.834 130.006V137.869C256.834 138.11 256.634 138.309 256.393 138.309H219.608C219.356 138.319 219.156 138.12 219.156 137.869Z" fill="#017326"/>
<path d="M251.842 92.6624C251.842 95.734 250.833 98.5646 249.141 100.86C246.619 104.268 242.572 106.469 238.001 106.469C234.343 106.469 231.022 105.054 228.542 102.747C225.841 100.231 224.159 96.6461 224.159 92.6729C224.159 85.0514 230.36 78.8662 238.001 78.8662C245.652 78.8662 251.842 85.0409 251.842 92.6624Z" fill="#00ABFE"/>
<path d="M249.141 100.859C246.619 104.266 242.572 106.468 238.001 106.468C234.343 106.468 231.022 105.052 228.542 102.746C228.72 102.41 228.899 102.075 229.078 101.74C229.624 100.712 230.213 99.6743 231.106 98.93C232.43 97.8187 234.217 97.5147 235.836 96.8857C236.308 96.697 236.76 96.4874 237.191 96.2253C238.484 96.2043 239.787 96.2777 241.059 96.4664C242.352 96.6446 243.623 96.9381 244.864 97.3155C245.704 97.5776 246.556 97.8921 247.26 98.4268C248.101 99.0453 248.679 99.9259 249.141 100.859Z" fill="#FF6162"/>
<path d="M233.04 88.6052C232.168 88.0077 231.4 87.2529 230.812 86.3722C231.579 86.1835 232.357 85.9948 233.051 85.6174C233.797 85.2191 234.438 84.632 235.173 84.2232C236.267 83.6151 237.591 83.4264 238.789 83.7828C239.987 84.1393 241.006 85.0828 241.385 86.4037C242.184 86.2989 242.888 87.0537 243.003 87.8399C243.119 88.6262 242.804 89.4229 242.457 90.1358C242.005 91.0793 241.479 91.9913 240.891 92.9034C239.987 91.8341 239.041 90.7438 237.79 90.1043C237.191 89.8003 236.529 89.6116 235.878 89.4334C234.974 89.1923 233.933 89.2132 233.04 88.6052Z" fill="#3B2C26"/>
<path d="M232.798 88.191C232.62 89.6167 232.546 91.1054 233.071 92.4368C233.597 93.7681 234.879 94.9004 236.308 94.9213C236.035 96.2737 235.646 97.5946 235.152 98.905C237.359 99.1985 239.682 98.2865 241.08 96.5777C240.891 95.5923 240.702 94.6173 240.376 93.4746C240.922 93.1706 241.395 92.7303 241.753 92.2061C241.963 91.8916 242.141 91.5142 242.078 91.1368C242.005 90.686 241.532 90.3401 241.08 90.3925C240.628 90.4449 240.25 90.8852 240.187 91.2207C239.63 90.7804 239.262 90.1304 238.904 89.2183C238.347 89.0192 237.843 88.7047 237.423 88.2853C237.349 88.2119 237.265 88.1281 237.17 88.1176C237.055 88.1071 236.96 88.1805 236.866 88.2329C236.266 88.6103 235.436 88.6103 234.837 88.2119C234.217 88.5474 233.408 88.4531 232.798 88.191Z" fill="#FFAD92"/>
<path d="M237.076 89.4894C236.771 89.2483 236.277 89.3426 236.014 89.6362C235.752 89.9297 235.689 90.3595 235.762 90.7474C235.794 90.9361 235.857 91.1143 235.962 91.2716C236.056 91.4079 236.204 91.5022 236.351 91.5651C236.897 91.7853 237.601 91.4708 237.791 90.9151C237.99 90.3595 237.528 89.8563 237.076 89.4894Z" fill="#3B2C26"/>
<path d="M233.975 89.4894C233.67 89.2483 233.177 89.3426 232.914 89.6362C232.651 89.9297 232.588 90.3595 232.662 90.7474C232.693 90.9361 232.756 91.1143 232.861 91.2716C232.956 91.4079 233.103 91.5022 233.25 91.5651C233.797 91.7853 234.501 91.4708 234.69 90.9151C234.89 90.3595 234.427 89.8563 233.975 89.4894Z" fill="#3B2C26"/>
<path d="M236.15 95.1793C236.066 95.1793 236.003 95.1164 235.992 95.043C235.982 94.9591 236.045 94.8753 236.129 94.8648C237.317 94.7285 238.462 94.2987 239.44 93.6068C239.513 93.5543 239.608 93.5753 239.66 93.6487C239.713 93.7221 239.692 93.8164 239.618 93.8688C238.599 94.5817 237.401 95.043 236.16 95.1793C236.16 95.1793 236.15 95.1793 236.15 95.1793Z" fill="#EB7154"/>
<path d="M234.532 90.6515C234.501 90.6515 234.48 90.641 234.459 90.6305C234.385 90.5886 234.354 90.4942 234.396 90.4209C234.406 90.3999 234.648 89.9806 235.11 89.8862C235.394 89.8233 235.688 89.8967 235.993 90.0959L237.339 89.6241C237.36 89.6137 237.37 89.6136 237.391 89.6136H240.67C240.754 89.6136 240.828 89.687 240.828 89.7709C240.828 89.8548 240.754 89.9281 240.67 89.9281H237.412L236.014 90.4209C235.962 90.4418 235.909 90.4313 235.867 90.3999C235.615 90.2217 235.384 90.1483 235.173 90.2007C234.848 90.2741 234.669 90.5781 234.669 90.5886C234.637 90.62 234.585 90.6515 234.532 90.6515Z" fill="#3B2C26"/>
<path d="M226.513 153.658L233.733 150.733L226.513 147.451V143.992L238.284 149.863V151.865L226.513 157.075V153.658V153.658Z" fill="#017326"/>
<path d="M249.498 159.94H237.486V157.089H249.498V159.94Z" fill="white"/>
<path d="M333.798 160.716V90.2572C333.798 87.542 336.005 85.3405 338.727 85.3405H381.009C383.731 85.3405 385.938 87.542 385.938 90.2572V160.716C385.938 163.431 383.731 165.633 381.009 165.633H338.727C336.005 165.633 333.798 163.431 333.798 160.716Z" fill="#00ABFE"/>
<path d="M341.029 123.446V115.584C341.029 115.343 341.228 115.144 341.47 115.144H378.265C378.507 115.144 378.707 115.343 378.707 115.584V123.446C378.707 123.688 378.507 123.887 378.265 123.887H341.47C341.228 123.887 341.029 123.688 341.029 123.446Z" fill="white"/>
<path d="M341.029 137.859V129.996C341.029 129.755 341.228 129.556 341.47 129.556H378.265C378.507 129.556 378.707 129.755 378.707 129.996V137.859C378.707 138.1 378.507 138.299 378.265 138.299H341.47C341.228 138.309 341.029 138.11 341.029 137.859Z" fill="#0097D3"/>
<path d="M373.715 92.6586C373.715 95.7302 372.706 98.5607 371.014 100.857C370.835 101.098 370.656 101.328 370.467 101.549C367.934 104.557 364.13 106.465 359.884 106.465C359.663 106.465 359.432 106.455 359.211 106.444C355.816 106.287 352.747 104.903 350.425 102.733C350.246 102.565 350.067 102.398 349.899 102.219C347.513 99.7454 346.042 96.3697 346.042 92.6586C346.042 85.0371 352.243 78.8519 359.884 78.8519C367.524 78.8519 373.715 85.0371 373.715 92.6586Z" fill="#FEB000"/>
<path d="M355.585 89.5805C355.007 88.637 354.629 87.4629 354.997 86.425C355.26 85.6807 355.869 85.1041 356.573 84.7372C357.278 84.3703 358.055 84.213 358.844 84.0977C359.747 83.9719 360.683 83.9195 361.566 84.1501C362.448 84.3807 363.279 84.9364 363.605 85.8694C364.098 85.7226 364.645 85.9533 364.971 86.3411C365.297 86.729 365.423 87.2532 365.433 87.7669C365.465 89.2765 364.55 90.6498 363.562 91.7401C362.238 91.7191 360.903 91.6982 359.59 91.4675C358.276 91.2264 356.542 91.153 355.585 89.5805Z" fill="#3B2C26"/>
<path d="M370.457 101.569C367.924 104.578 364.119 106.486 359.873 106.486C359.653 106.486 359.421 106.475 359.201 106.465C355.806 106.307 352.737 104.924 350.414 102.754C350.236 102.586 350.057 102.418 349.889 102.24C350.173 101.621 350.456 101.003 350.73 100.395C350.961 99.8915 351.203 99.3674 351.623 99.0004C351.98 98.6859 352.443 98.5077 352.895 98.3609C354.292 97.8892 355.743 97.5223 356.783 97.407H356.794C357.078 97.365 357.361 97.3126 357.645 97.2707C357.761 97.2497 357.887 97.2287 358.002 97.2078C359.106 97.0191 360.189 96.8304 361.197 96.5997C361.628 96.6626 362.059 96.7465 362.49 96.8304C362.532 96.8408 362.574 96.8513 362.616 96.8513C362.879 96.9038 363.131 96.9562 363.384 97.0191C364.371 97.2497 365.338 97.5223 366.295 97.8368C366.81 98.0045 367.325 98.1932 367.777 98.4867C368.355 98.8642 368.817 99.3988 369.248 99.9439C369.668 100.468 370.068 101.013 370.457 101.569Z" fill="#FF6162"/>
<path d="M359.148 106.115C359.064 106.115 358.991 106.052 358.991 105.968C358.896 103.305 358.991 101.177 359.106 98.8812C359.106 98.7973 359.19 98.7239 359.275 98.7344C359.359 98.7344 359.432 98.8078 359.422 98.9021C359.306 101.198 359.211 103.305 359.306 105.958C359.317 106.041 359.243 106.115 359.148 106.115C359.159 106.115 359.159 106.115 359.148 106.115Z" fill="#EB7154"/>
<path d="M355.144 88.9031C355.27 90.1506 355.396 91.3981 355.827 92.5723C356.005 93.0755 356.258 93.5577 356.636 93.9246C357.014 94.2915 357.561 94.5222 357.918 94.4698C357.845 95.4552 357.761 96.4406 357.592 97.6043C358.244 97.9503 358.864 98.3696 359.432 98.8414C360.756 98.4849 361.964 97.6882 362.826 96.5874C362.627 95.6229 362.469 94.6375 362.301 93.5892C362.406 93.4005 362.511 93.2013 362.637 92.8134C363.32 92.7295 363.94 92.2368 364.161 91.5868C364.277 91.2304 364.287 90.8215 364.119 90.4861C363.951 90.1506 363.604 89.8885 363.226 89.878C362.847 89.8675 362.469 90.1401 362.28 90.3812C362.112 90.507 361.88 90.5594 361.681 90.507C361.555 90.0143 361.47 89.5006 361.397 88.9031C360.987 88.5886 360.714 88.1168 360.577 87.5822C359.085 88.6305 357.151 89.0813 355.144 88.9031Z" fill="#FFAD92"/>
<path d="M357.877 94.6324C357.793 94.6324 357.719 94.5695 357.719 94.4856C357.719 94.4017 357.782 94.3284 357.866 94.3179C358.949 94.2655 360 93.9195 360.893 93.3115C360.967 93.259 361.061 93.28 361.114 93.3534C361.166 93.4268 361.145 93.5211 361.072 93.5736C360.126 94.2026 359.022 94.5695 357.877 94.6324C357.877 94.6324 357.887 94.6324 357.877 94.6324Z" fill="#EB7154"/>
<path d="M362.848 96.4314C361.912 97.4902 360.725 98.3289 359.4 98.8216C359.999 99.3458 360.525 99.9643 360.945 100.635C361.912 99.524 362.743 98.287 363.405 96.966C363.184 96.8507 362.974 96.704 362.848 96.4314Z" fill="#E0464F"/>
<path d="M357.635 96.5599C358.076 97.4196 358.717 98.1639 359.558 98.73C358.948 99.2018 358.454 99.8203 358.076 100.407C357.645 99.401 357.204 98.3945 356.794 97.3986C357.046 97.1365 357.298 96.8744 357.635 96.5599Z" fill="#E0464F"/>
<path d="M358.245 149.686C357.919 147.265 359.506 144.833 361.702 143.721C363.889 142.61 366.527 142.673 368.923 143.428C367.735 143.931 367.042 145.178 366.59 146.384C366.138 147.59 365.812 148.89 364.992 149.886C363.815 151.322 361.86 151.835 360.063 152.16C359.338 151.51 358.402 150.871 358.245 149.686Z" fill="#FEB000"/>
<path d="M357.33 150.76C355.197 152.291 353.021 153.863 351.539 156.023C350.982 156.841 350.53 157.774 350.499 158.759C350.467 159.745 350.94 160.803 351.844 161.223C352.611 161.59 353.557 161.432 354.293 161.003C355.029 160.573 355.607 159.912 356.122 159.241C357.74 157.134 359.012 154.754 359.926 152.196C359.064 151.788 358.276 151.263 357.33 150.76Z" fill="#7AD001"/>
<path d="M358.749 150.697C358.665 150.697 358.602 150.634 358.592 150.55C358.487 149.051 358.907 147.552 359.779 146.326C360.641 145.12 361.955 144.208 363.384 143.82C363.468 143.799 363.552 143.852 363.573 143.935C363.595 144.019 363.542 144.103 363.458 144.124C362.092 144.491 360.841 145.361 360.021 146.514C359.201 147.667 358.792 149.125 358.897 150.54C358.907 150.624 358.834 150.697 358.749 150.708C358.76 150.697 358.749 150.697 358.749 150.697Z" fill="#EAEAEA"/>
<path d="M362.134 146.927C362.113 146.927 362.092 146.927 362.081 146.916C361.997 146.885 361.955 146.791 361.987 146.717C362.312 145.847 363.027 145.281 363.563 144.966C364.236 144.558 364.992 144.317 365.717 144.086C365.802 144.054 365.886 144.107 365.917 144.191C365.949 144.275 365.896 144.358 365.812 144.39C365.097 144.621 364.372 144.862 363.721 145.239C363.227 145.533 362.575 146.057 362.281 146.833C362.26 146.885 362.197 146.927 362.134 146.927Z" fill="#EAEAEA"/>
<path d="M359.59 151.713C359.506 151.713 359.433 151.65 359.433 151.567C359.433 151.483 359.496 151.409 359.58 151.399C361.345 151.315 363.027 150.424 364.078 149.009C364.131 148.935 364.225 148.925 364.299 148.977C364.372 149.03 364.383 149.124 364.33 149.197C363.227 150.686 361.461 151.629 359.59 151.713C359.601 151.713 359.601 151.713 359.59 151.713Z" fill="#EAEAEA"/>
<path d="M363.237 148.229C363.205 148.229 363.184 148.218 363.153 148.208C363.079 148.166 363.058 148.061 363.1 147.987C363.605 147.17 364.225 146.425 364.929 145.775C364.992 145.713 365.097 145.723 365.15 145.786C365.213 145.849 365.202 145.954 365.139 146.006C364.456 146.646 363.857 147.358 363.363 148.155C363.342 148.208 363.289 148.229 363.237 148.229Z" fill="#EAEAEA"/>
<path d="M359.201 150.957C359.149 150.957 359.107 150.936 359.075 150.894C359.022 150.82 359.033 150.726 359.107 150.674C359.968 150.034 360.704 149.269 361.303 148.378C361.356 148.304 361.45 148.283 361.524 148.336C361.597 148.388 361.618 148.483 361.566 148.556C360.946 149.468 360.179 150.265 359.296 150.925C359.264 150.946 359.233 150.957 359.201 150.957Z" fill="#EAEAEA"/>
<path d="M356.416 150.85C356.826 150.347 357.235 149.833 357.666 149.299C357.95 149.361 358.202 149.508 358.444 149.665C359.569 150.368 360.599 151.238 361.471 152.276C360.914 152.611 360.388 152.989 359.905 153.377C359.81 153.24 359.695 153.125 359.579 152.999C358.749 152.098 357.814 151.144 356.416 150.85Z" fill="white"/>
<path d="M394.671 160.72V90.2611C394.671 87.5459 396.878 85.3444 399.601 85.3444H441.882C444.604 85.3444 446.811 87.5459 446.811 90.2611V160.72C446.811 163.435 444.604 165.637 441.882 165.637H399.601C396.889 165.637 394.671 163.435 394.671 160.72Z" fill="#FF6162"/>
<path d="M401.902 123.459V115.597C401.902 115.355 402.102 115.156 402.344 115.156H439.139C439.38 115.156 439.58 115.355 439.58 115.597V123.459C439.58 123.7 439.38 123.899 439.139 123.899H402.344C402.102 123.899 401.902 123.7 401.902 123.459Z" fill="white"/>
<path d="M401.902 137.867V130.004C401.902 129.763 402.102 129.564 402.344 129.564H439.139C439.38 129.564 439.58 129.763 439.58 130.004V137.867C439.58 138.108 439.38 138.307 439.139 138.307H402.344C402.102 138.318 401.902 138.118 401.902 137.867Z" fill="#E0464F"/>
<path d="M434.588 92.6641C434.588 95.7357 433.579 98.5662 431.887 100.862C431.708 101.103 431.529 101.334 431.34 101.554C431.193 101.722 431.046 101.89 430.899 102.047C428.376 104.762 424.761 106.46 420.757 106.46C420.536 106.46 420.305 106.45 420.084 106.439C416.91 106.293 414.009 105.066 411.75 103.137C411.592 103.001 411.445 102.864 411.298 102.728C411.119 102.56 410.94 102.393 410.772 102.214C408.387 99.7404 406.915 96.3647 406.915 92.6536C406.915 85.0321 413.116 78.8469 420.757 78.8469C428.397 78.8469 434.588 85.0426 434.588 92.6641Z" fill="#7AD001"/>
<path d="M430.899 102.054C428.377 104.769 424.761 106.467 420.757 106.467C420.537 106.467 420.305 106.457 420.085 106.446C416.911 106.3 414.01 105.073 411.75 103.144C411.845 102.851 411.96 102.568 412.087 102.284C412.339 101.718 412.644 101.163 413.085 100.733C413.915 99.9362 415.103 99.6741 415.733 99.4015C415.996 99.391 416.248 99.3701 416.511 99.3491C419.023 99.0975 421.482 98.2169 424.005 98.3112C424.394 98.3217 424.772 98.3637 425.161 98.4161C425.718 98.4895 426.285 98.5943 426.842 98.6991C427.662 98.8564 428.535 99.0346 429.165 99.5902C429.964 100.314 430.258 101.561 430.899 102.054Z" fill="#C87AED"/>
<path d="M426.412 94.7872C423.994 96.6846 420.705 96.9362 417.636 97.1145C416.385 97.1879 415.103 97.2508 413.915 96.8524C414.178 95.2065 414.283 93.5396 414.231 91.8832C414.199 91.0026 414.136 90.1116 414.304 89.2519C414.483 88.3923 414.945 87.5431 415.849 87.1972C416.08 86.4319 416.753 85.8553 417.499 85.5827C418.256 85.3102 419.076 85.3101 419.874 85.394C420.747 85.4779 421.64 85.6771 422.386 86.1383C424.036 87.1447 424.698 89.1785 425.234 91.0341C425.613 92.3131 425.991 93.613 426.412 94.7872Z" fill="#3B2C26"/>
<path d="M422.155 92.5385C422.25 92.0982 422.439 91.5636 422.891 91.5111C423.364 91.4587 423.679 92.0039 423.7 92.4756C423.732 93.3457 423.217 94.1425 422.702 94.8344C423.059 95.9352 423.311 96.7843 423.553 97.644C424.173 98.0947 424.667 98.252 425.161 98.4197C424.741 100.233 423.795 101.89 422.281 102.77C420.768 103.651 418.635 103.578 417.415 102.32C416.68 101.575 416.343 100.527 416.165 99.4995C417.027 99.1641 417.699 98.8705 418.361 98.5665C418.582 97.5496 418.729 96.7843 418.866 96.019C418.162 95.6416 417.499 95.432 417.027 94.9707C416.627 94.5723 416.417 94.0377 416.249 93.503C415.902 92.3918 415.734 91.2176 415.776 89.8443C416.196 89.5298 416.575 89.1524 416.879 88.733C417.699 90.3684 419.654 91.3329 421.451 91.0079C421.514 91.6055 421.672 92.2135 422.155 92.5385Z" fill="#FFAD92"/>
<path d="M419.664 96.3395C419.349 96.3395 419.034 96.2871 418.739 96.1613C418.655 96.1299 418.624 96.0355 418.655 95.9516C418.687 95.8678 418.781 95.8363 418.865 95.8678C419.675 96.1928 420.673 95.9936 421.283 95.3751C421.346 95.3122 421.44 95.3122 421.503 95.3751C421.566 95.438 421.566 95.5323 421.503 95.5952C421.02 96.0774 420.337 96.3395 419.664 96.3395Z" fill="#EB7154"/>
<path d="M430.342 146.596L428.324 146.491L426.811 146.407C426.495 148.001 426.611 149.877 427.841 151.681L428.965 150.873L430.815 149.552C431.036 148.116 430.342 146.596 430.342 146.596Z" fill="#00ABFE"/>
<path d="M417.593 154.469C417.593 154.469 418.224 157.928 420.126 159.763C420.484 160.109 420.431 160.696 420.011 160.947C419.716 161.125 419.359 161.304 418.96 161.419C418.707 161.492 418.434 161.419 418.245 161.241C417.562 160.612 415.912 158.798 414.945 155.171L417.593 154.469Z" fill="#BABABA"/>
<path d="M427.369 143.446C428.042 145.155 429.261 148.96 429.198 154.118C429.188 154.621 428.767 155.009 428.273 154.988C425.656 154.862 421.032 155.03 415.052 156.865C414.653 156.991 414.253 157.116 413.843 157.253C412.803 157.599 411.647 157.211 411.058 156.288C410.459 155.355 409.923 154.003 410.133 152.242C410.238 151.361 410.816 150.606 411.647 150.281C412.004 150.145 412.424 149.977 412.897 149.778C414.999 148.918 418.1 147.597 420.664 146.245C422.745 145.144 424.658 143.97 426.077 143.037C426.529 142.723 427.159 142.922 427.369 143.446Z" fill="white"/>
<path d="M415.04 156.865C414.64 156.991 414.241 157.116 413.831 157.253C412.791 157.599 411.634 157.211 411.046 156.288C410.447 155.355 409.911 154.003 410.121 152.242C410.226 151.361 410.804 150.606 411.634 150.281C411.992 150.145 412.412 149.977 412.885 149.778C412.496 151.309 412.16 154.59 415.04 156.865Z" fill="#00ABFE"/>
<path d="M435.807 200.32C420.558 205.122 405.392 210.206 390.321 215.563C385.738 216.549 380.662 217.471 376.363 215.427C374.903 214.735 373.61 213.718 372.38 212.68C363.363 205.08 356.374 195.121 352.285 184.071C350.32 182.782 348.712 181.23 347.734 179.28C346.662 177.131 344.97 174.196 344.802 171.795C344.508 167.381 343.898 163.555 346 159.016C351.592 157.16 356.794 154.539 361.629 151.352C365.507 152.097 369.091 154.047 371.655 156.919C373.421 158.9 374.692 161.259 376.09 163.513C381.272 171.889 388.271 179.008 393.81 187.153C408.555 175.359 437.321 156.898 441.514 157.024C444.11 158.397 445.172 160.641 445.771 163.503C448.409 176.093 444.898 189.816 435.807 200.32Z" fill="#FEB000"/>
<path d="M398.024 193.663C397.971 193.663 397.919 193.642 397.887 193.589L393.767 187.1C393.725 187.027 393.746 186.932 393.82 186.88C393.894 186.838 393.988 186.859 394.041 186.932L398.161 193.422C398.203 193.495 398.182 193.589 398.108 193.642C398.077 193.652 398.045 193.663 398.024 193.663Z" fill="#ED9100"/>
<path d="M357.729 149.863C353.819 141.308 349.92 132.754 345.664 124.503C343.11 128.739 341.575 133.593 341.06 138.132C342.164 143.866 343.635 149.538 345.485 155.262C347.839 154.717 350.151 154.004 352.401 153.123C354.229 152.4 356.048 151.561 357.729 149.863Z" fill="#FFAD92"/>
<path d="M345.485 144.393C345.433 144.393 345.37 144.362 345.349 144.309C345.307 144.236 345.338 144.142 345.412 144.1L349.553 141.93C349.626 141.888 349.721 141.919 349.763 141.993C349.805 142.066 349.773 142.16 349.7 142.202L345.559 144.372C345.538 144.393 345.506 144.393 345.485 144.393Z" fill="#EB7154"/>
<path d="M361.355 151.507C361.103 150.71 360.851 149.892 360.367 149.211C359.884 148.529 359.148 147.963 358.318 147.911C357.33 147.848 356.437 148.477 355.627 149.033C352.485 151.203 348.996 152.859 345.328 153.928C344.813 154.075 344.245 154.264 344.014 154.736C343.751 155.27 344.045 155.899 344.34 156.423C345.096 157.765 345.853 159.107 346.715 160.46C350.898 159.82 354.797 157.964 358.349 155.669C359.758 154.736 361.986 153.488 361.355 151.507Z" fill="#ED9100"/>
<path d="M283.151 155.256L305.905 88.5605C306.788 85.9921 309.584 84.6083 312.169 85.4889L352.201 99.0754C354.776 99.956 356.164 102.745 355.281 105.324L332.527 172.019C331.644 174.588 328.848 175.971 326.263 175.091L286.231 161.504C283.656 160.624 282.279 157.835 283.151 155.256Z" fill="#C87AED"/>
<path d="M302.038 122.29L304.581 114.847C304.665 114.616 304.917 114.491 305.149 114.574L339.989 126.4C340.22 126.484 340.346 126.735 340.262 126.966L337.719 134.409C337.635 134.64 337.382 134.765 337.151 134.682L302.311 122.856C302.08 122.772 301.954 122.521 302.038 122.29Z" fill="white"/>
<path d="M297.382 135.954L299.925 128.511C300.009 128.28 300.261 128.154 300.493 128.238L335.333 140.063C335.564 140.147 335.69 140.399 335.606 140.629L333.063 148.073C332.979 148.303 332.726 148.429 332.495 148.345L297.655 136.509C297.424 136.436 297.298 136.184 297.382 135.954Z" fill="#A65ED1"/>
<path d="M342.921 103.655C341.933 106.559 340.063 108.918 337.719 110.543C336.931 111.088 336.09 111.549 335.207 111.916C332.191 113.195 328.712 113.405 325.359 112.272C321.902 111.098 319.211 108.687 317.613 105.71C317.351 105.217 317.109 104.703 316.909 104.179C315.774 101.265 315.627 97.952 316.72 94.7651C319.179 87.5525 327.041 83.6841 334.282 86.1477C341.513 88.6008 345.381 96.4424 342.921 103.655Z" fill="#FF6162"/>
<path d="M335.207 111.929C332.19 113.208 328.711 113.418 325.359 112.286C321.901 111.111 319.211 108.7 317.613 105.723C317.35 105.23 317.109 104.717 316.909 104.192C317.329 103.794 317.771 103.406 318.212 103.018C318.822 102.484 319.463 101.949 320.23 101.655C321.943 101.016 323.803 101.75 325.622 101.865C325.926 101.886 326.221 101.886 326.525 101.865C327.45 101.792 328.375 101.813 329.258 101.844C329.752 102.295 330.246 102.746 330.74 103.207C330.898 103.354 331.055 103.5 331.213 103.658C332.096 104.486 332.957 105.335 333.819 106.184C333.861 106.226 333.903 106.268 333.935 106.3C334.282 106.656 334.629 107.033 334.839 107.484C335.133 108.103 335.144 108.816 335.154 109.497C335.165 110.294 335.186 111.111 335.207 111.929Z" fill="#00ABFE"/>
<path d="M326.21 95.0031C325.506 94.2274 325.611 92.9589 326.22 92.1097C326.83 91.2606 327.828 90.7783 328.837 90.4848C329.52 90.2856 330.246 90.1598 330.95 90.2646C331.727 90.38 332.432 90.7679 333.073 91.2082C333.766 91.6799 334.439 92.2565 334.765 93.0323C335.133 93.9024 335.017 94.8983 334.765 95.8104C334.534 96.649 334.176 97.4772 333.588 98.1167C332.999 98.7562 332.137 99.1965 331.559 99.228C329.815 98.0853 328.007 96.974 326.21 95.0031Z" fill="#3B2C26"/>
<path d="M333.872 94.1679C335.795 93.8744 337.824 95.2686 338.233 97.1557C338.643 99.0532 337.582 100.951 336.426 102.513C335.27 104.075 333.924 105.637 333.609 107.335C332.443 107.042 331.486 106.046 331.234 104.882C330.982 103.708 331.434 102.418 332.295 101.674C332.358 99.6822 332.821 97.7218 333.872 94.1679Z" fill="#3B2C26"/>
<path d="M325.758 94.7376C325.495 95.6287 325.296 96.5617 325.359 97.4843C325.422 98.4173 325.79 99.3503 326.305 99.9584C326.021 100.808 325.695 101.636 325.422 102.38C324.444 104.057 323.467 105.735 322.605 107.485C324.108 107.181 325.622 106.846 327.04 106.248C328.459 105.651 329.783 104.781 330.761 103.481C330.624 102.359 330.561 101.237 330.561 99.8745C331.013 99.8535 331.476 99.7592 331.864 99.518C332.253 99.2769 332.548 98.8681 332.569 98.4068C332.579 98.1238 332.463 97.8093 332.211 97.673C331.959 97.5262 331.581 97.6206 331.286 97.8826C330.719 97.2012 330.551 96.2158 330.666 95.2094C330.393 95.3771 330.12 95.5344 329.836 95.6706C329.72 95.7231 329.594 95.7755 329.489 95.7335C329.311 95.6602 329.3 95.3981 329.395 95.2198C329.489 95.0416 329.657 94.9158 329.615 94.6957C328.512 95.1884 327.219 95.2723 325.758 94.7376Z" fill="#FFAD92"/>
<path d="M328.239 100.606C327.492 100.606 326.746 100.407 326.116 100.009C326.042 99.967 326.021 99.8621 326.063 99.7888C326.105 99.7154 326.21 99.6944 326.284 99.7363C327.219 100.323 328.449 100.449 329.489 100.072C329.573 100.04 329.658 100.082 329.689 100.166C329.721 100.25 329.679 100.334 329.594 100.365C329.164 100.523 328.701 100.606 328.239 100.606Z" fill="#EB7154"/>
<path d="M300.945 160.684C300.482 160.527 300.135 160.128 300.041 159.646L298.265 149.854L300.934 149.372L302.195 156.333L308.543 148.859C308.901 148.429 309.489 148.271 310.015 148.45L323.583 153.052L322.711 155.62L310.015 151.312L302.406 160.275C302.069 160.673 301.523 160.841 301.018 160.705C300.997 160.705 300.966 160.694 300.945 160.684Z" fill="white"/>
<path d="M348.975 117.416C349.563 120.174 350.572 122.836 351.938 125.3C352.422 126.16 352.947 126.998 353.242 127.931C354.461 131.695 351.812 135.584 351.549 139.379C350.162 140.092 348.68 140.595 347.156 140.585C346.116 139.736 345.716 138.341 345.506 137.02C344.928 133.236 345.59 129.284 347.346 125.436C346.578 123.497 345.801 121.463 346.053 119.387C346.137 118.674 346.368 117.962 346.862 117.448C347.388 116.955 348.207 116.714 348.975 117.416Z" fill="#FFAD92"/>
<path d="M346.358 140.872C346.294 140.872 346.231 140.83 346.21 140.767C344.371 135.914 344.707 130.284 347.125 125.692C347.167 125.619 347.261 125.587 347.335 125.629C347.409 125.671 347.44 125.766 347.398 125.839C345.023 130.357 344.686 135.893 346.505 140.663C346.536 140.746 346.494 140.83 346.41 140.862C346.4 140.862 346.379 140.872 346.358 140.872Z" fill="#EB7154"/>
<path d="M514.705 263.524H429.849C429.018 247.244 430.71 230.208 434.641 213.686C434.567 212.418 434.504 211.149 434.452 209.881C434.452 209.87 434.452 209.86 434.452 209.849C434.347 207.144 434.294 204.44 434.305 201.725C434.368 187.079 436.133 172.266 439.581 157.851C439.602 157.757 439.623 157.652 439.654 157.558C443.574 155.86 447.789 154.864 451.982 154.256C453.296 154.067 454.62 153.91 455.924 153.784C457.731 153.05 459.56 152.39 461.42 151.823C466.391 150.303 471.499 149.381 476.418 149.003C479.728 149.276 483.071 149.59 486.402 150.041C492.981 150.922 499.508 152.358 505.635 155.189C507.906 156.237 510.123 157.474 512.267 158.952V159.036C512.12 177.109 512.278 195.183 512.73 213.33C512.73 213.414 512.73 213.508 512.74 213.592C512.803 216.129 512.877 218.676 512.95 221.224C512.95 221.297 512.95 221.381 512.961 221.454C513.255 231.277 513.623 241.142 514.085 251.028C514.275 255.179 514.485 259.352 514.705 263.524Z" fill="#FEB000"/>
<path d="M447.726 258.399C447.673 258.399 447.61 258.367 447.589 258.315C447.547 258.242 447.579 258.147 447.652 258.105C458.015 252.602 467.474 245.609 475.766 237.327C475.829 237.264 475.924 237.264 475.987 237.327C476.05 237.39 476.05 237.484 475.987 237.547C467.663 245.85 458.183 252.864 447.8 258.378C447.779 258.388 447.747 258.399 447.726 258.399Z" fill="#ED9100"/>
<path d="M434.693 213.333C434.609 213.333 434.546 213.27 434.536 213.187C433.453 200.544 433.937 187.775 435.965 175.247C435.975 175.163 436.06 175.1 436.144 175.121C436.228 175.132 436.291 175.216 436.27 175.299C434.241 187.806 433.758 200.544 434.84 213.155C434.851 213.239 434.788 213.323 434.693 213.323C434.704 213.333 434.704 213.333 434.693 213.333Z" fill="#ED9100"/>
<path d="M434.851 184.253C434.788 184.253 434.725 184.211 434.704 184.148C434.031 182.167 433.547 180.102 433.285 178.026C433.274 177.942 433.337 177.858 433.421 177.848C433.505 177.837 433.59 177.9 433.6 177.984C433.863 180.039 434.336 182.083 435.008 184.044C435.04 184.127 434.987 184.211 434.914 184.243C434.893 184.253 434.872 184.253 434.851 184.253Z" fill="#ED9100"/>
<path d="M463.364 173.842C474.589 173.423 485.361 169.229 495.251 163.904C498.425 162.195 501.589 160.319 504.016 157.645C505.057 156.503 505.982 155.108 505.919 153.567C505.814 150.873 502.913 149.269 500.369 148.357C494.673 146.323 488.724 145.013 482.419 144.835C476.859 144.572 471.278 144.73 465.739 145.306C463.091 145.579 460.39 145.967 458.015 147.172C452.959 149.751 450.321 155.978 451.299 161.556C452.287 167.133 456.196 174.115 463.364 173.842Z" fill="#ED9100"/>
<path d="M472.413 172.292C471.982 177.387 471.751 182.523 471.541 188.069C471.699 194.883 471.951 201.698 472.256 208.533C471.331 208.585 470.406 208.648 469.281 208.533C468.703 196.445 468.829 184.316 469.922 172.239C469.954 171.841 470.227 171.495 470.616 171.369C470.816 171.306 471.026 171.254 471.226 171.222C471.877 171.107 472.466 171.631 472.413 172.292Z" fill="white"/>
<path d="M467.989 211.233C468.798 211.579 469.639 211.936 470.522 211.988C471.404 212.041 472.371 211.716 472.844 210.961C473.275 210.279 473.223 209.388 473.002 208.613C472.781 207.837 472.413 207.103 472.245 206.306C472.088 205.572 472.067 204.702 471.478 204.231C470.826 203.706 469.786 204.01 469.239 204.65C468.693 205.289 468.525 206.149 468.367 206.977C468.115 208.298 467.863 209.64 467.999 210.982C467.989 211.17 468.01 211.181 467.989 211.233Z" fill="#4D5A6D"/>
<path d="M457.952 171.63C456.333 176.368 454.872 181.191 453.348 186.401C451.824 193.048 450.405 199.715 449.018 206.424C448.104 206.257 447.189 206.078 446.128 205.701C448.514 193.897 451.593 182.218 455.587 170.823C455.755 170.33 456.217 169.984 456.743 169.984C456.753 169.984 456.764 169.984 456.774 169.984C457.626 169.973 458.225 170.823 457.952 171.63Z" fill="white"/>
<path d="M444.226 208.005C444.93 208.54 445.655 209.095 446.496 209.357C447.347 209.619 448.356 209.536 448.997 208.928C449.586 208.372 449.754 207.502 449.733 206.684C449.712 205.866 449.533 205.07 449.565 204.262C449.596 203.508 449.785 202.669 449.334 202.061C448.829 201.39 447.747 201.432 447.063 201.914C446.38 202.407 446.002 203.193 445.645 203.958C445.077 205.175 444.51 206.422 444.299 207.753C444.236 207.942 444.247 207.953 444.226 208.005Z" fill="#4D5A6D"/>
<path d="M485.603 133.957C486.328 140.991 486.686 148.067 486.202 155.238C488.966 155.71 491.762 155.993 494.589 155.961C488.42 162.063 480.327 165.858 472.109 168.667C468.146 170.02 463.743 171.162 459.917 169.674C457.889 168.091 456.554 165.648 456.312 163.1C456.07 160.542 456.922 157.901 458.498 155.993C459.129 155.699 459.812 155.5 460.548 155.248C461.809 150.363 463.007 145.478 463.911 140.75C471.058 138.307 478.299 136.148 485.603 133.957Z" fill="#FFAD92"/>
<path d="M485.603 133.957C486.328 140.991 486.686 148.067 486.202 155.238C488.966 155.71 491.762 155.993 494.589 155.961C488.42 162.063 480.327 165.858 472.109 168.667C468.146 170.02 463.743 171.162 459.917 169.674C457.889 168.091 456.554 165.648 456.312 163.1C456.07 160.542 456.922 157.901 458.498 155.993C459.129 155.699 459.812 155.5 460.548 155.248C461.809 150.363 463.007 145.478 463.911 140.75C471.058 138.307 478.299 136.148 485.603 133.957Z" fill="#FFAD92"/>
<path d="M490.942 134.32C494.926 130.713 498.94 126.971 501.578 122.285C502.65 120.387 503.491 118.322 503.628 116.152C503.764 113.982 503.102 111.696 501.547 110.176C502.85 109.558 504.164 108.73 505.383 107.786C505.951 107.335 506.56 106.706 506.413 106.004C506.266 105.28 505.425 104.935 504.689 104.903C502.734 104.798 500.969 105.972 499.361 107.094C498.72 101.611 495.745 96.9042 491.878 93.3504C488 89.7965 483.26 87.3014 478.373 85.3515C474.568 83.8314 470.595 82.6048 466.496 82.3323C464.121 82.175 461.651 82.3532 459.528 83.433C457.405 84.5023 455.692 86.6095 455.598 88.9788C453.18 90.1739 451.593 92.2706 450.416 94.4302C448.503 97.9316 447.337 101.894 447.452 105.878C447.568 109.862 449.018 113.866 451.909 117.001C462.723 122.274 473.538 127.547 484.353 132.82C486.434 133.837 489.177 135.913 490.942 134.32Z" fill="#3B2C26"/>
<path d="M486.959 120.162C485.771 123.076 484.752 126.064 483.932 129.104C483.806 129.576 483.68 130.079 483.764 130.562C483.859 131.044 484.226 131.516 484.72 131.558C485.109 131.589 485.467 131.358 485.782 131.117C487.316 129.975 488.662 128.57 489.734 126.987C490.974 126.588 492.172 125.917 493.486 125.718C494.799 125.519 496.271 125.865 497.112 126.882C498.089 128.067 498.005 129.817 497.563 131.295C497.122 132.763 496.386 134.136 495.419 135.321C494.453 136.495 493.223 137.481 491.804 138.026C490.385 138.571 488.756 138.655 487.337 138.11C481.536 143.194 473.906 146.203 466.107 146.685C462.135 147.063 457.384 146.916 453.958 144.19C449.964 141.014 449.06 135.394 448.808 130.31C448.409 122.332 448.892 114.323 450.248 106.439C450.794 106.754 451.215 107.236 451.709 107.624C452.213 108.001 452.875 108.274 453.464 108.064C453.958 107.886 454.273 107.414 454.504 106.943C455.093 105.789 455.398 104.5 455.272 103.179C456.417 105.276 457.72 107.288 459.181 109.196C459.917 110.15 460.747 111.125 461.903 111.471C463.532 111.964 465.33 110.989 466.318 109.605C467.305 108.221 467.663 106.492 467.894 105.066C469.796 107.865 471.814 110.601 473.927 113.243C474.841 114.386 475.787 115.518 476.964 116.378C477.91 117.069 479.108 117.583 480.254 117.3C481.168 117.08 481.914 116.367 482.387 115.56C482.86 114.753 483.112 113.82 483.533 112.729C484.226 115.371 484.973 118.149 486.959 120.162Z" fill="#FFAD92"/>
<path d="M465.13 136.189C464.541 136.189 463.942 136.158 463.332 136.105C460.81 135.875 458.246 135.214 456.186 134.669C456.102 134.648 456.049 134.564 456.07 134.481C456.091 134.397 456.175 134.344 456.259 134.365C458.309 134.9 460.863 135.571 463.364 135.791C466.055 136.032 468.43 135.739 470.448 134.921C470.532 134.889 470.616 134.931 470.658 135.005C470.689 135.089 470.647 135.172 470.574 135.214C468.955 135.864 467.137 136.189 465.13 136.189Z" fill="#EB7154"/>
<path d="M464.521 146.981C463.154 146.981 461.777 146.898 460.422 146.719C460.338 146.709 460.275 146.625 460.285 146.541C460.296 146.457 460.369 146.394 460.464 146.405C469.975 147.61 479.886 144.497 486.98 138.05C487.043 137.987 487.148 137.997 487.201 138.06C487.264 138.123 487.253 138.228 487.19 138.28C481.042 143.868 472.802 146.981 464.521 146.981Z" fill="#EB7154"/>
<path d="M488.694 237.535C482.051 234.831 475.325 232.336 468.525 230.04C463.953 230.312 459.539 229.191 456.071 226.706C455.209 227.67 453.643 227.346 452.466 226.821C451.152 226.234 449.912 225.49 448.777 224.609C448.094 224.085 447.432 223.488 447.032 222.712C446.602 221.873 446.538 220.898 446.538 219.955C446.538 217.743 446.833 215.552 447.138 213.361C447.232 212.637 447.337 211.903 447.684 211.253C448.031 210.603 448.651 210.058 449.376 210.016C446.528 208.318 443.764 206.41 441.136 204.324C440.674 203.946 440.19 203.548 439.938 203.013C439.686 202.479 439.749 201.745 440.233 201.389C440.748 201.001 441.473 201.2 442.082 201.409C446.234 202.846 450.322 204.45 454.337 206.232C455.587 206.788 456.828 207.354 457.973 208.098C459.003 208.769 459.949 209.587 460.874 210.404C464.531 213.623 468.105 216.935 471.773 220.332C477.91 221.192 484.038 222.009 490.186 222.817C490.869 222.911 491.552 222.995 492.719 222.628C491.657 227.545 490.281 232.409 488.694 237.535Z" fill="#FFAD92"/>
<path d="M449.428 210.04C449.355 210.04 449.291 209.987 449.27 209.924C449.249 209.84 449.302 209.756 449.386 209.735C450.994 209.337 452.718 209.243 454.368 209.473C454.452 209.484 454.515 209.568 454.504 209.652C454.494 209.735 454.41 209.798 454.326 209.788C452.718 209.557 451.036 209.652 449.47 210.04C449.449 210.029 449.439 210.04 449.428 210.04Z" fill="#EB7154"/>
<path d="M447.284 213.831C447.21 213.831 447.147 213.779 447.126 213.706C447.116 213.622 447.168 213.538 447.253 213.527C448.945 213.234 450.668 213.129 452.381 213.223C452.465 213.223 452.539 213.307 452.529 213.391C452.529 213.475 452.455 213.538 452.36 213.538C450.668 213.444 448.966 213.548 447.305 213.842C447.295 213.831 447.295 213.831 447.284 213.831Z" fill="#EB7154"/>
<path d="M446.896 217.96C446.833 217.96 446.77 217.918 446.749 217.855C446.717 217.772 446.759 217.688 446.843 217.656C448.451 217.038 450.122 216.608 451.825 216.356C451.909 216.346 451.993 216.398 452.004 216.493C452.014 216.576 451.962 216.66 451.867 216.671C450.186 216.912 448.535 217.342 446.948 217.95C446.927 217.95 446.906 217.96 446.896 217.96Z" fill="#EB7154"/>
<path d="M447.032 222.189C446.969 222.189 446.917 222.157 446.885 222.094C446.854 222.011 446.885 221.927 446.959 221.885C448.514 221.172 450.175 220.732 451.877 220.564C451.961 220.553 452.045 220.616 452.045 220.7C452.056 220.784 451.993 220.868 451.909 220.868C450.238 221.036 448.619 221.476 447.095 222.168C447.085 222.189 447.053 222.189 447.032 222.189Z" fill="#EB7154"/>
<path d="M456.102 226.897C456.039 226.897 455.976 226.855 455.955 226.793C455.451 225.367 454.042 224.298 452.539 224.182C452.455 224.172 452.392 224.098 452.392 224.014C452.403 223.931 452.476 223.857 452.56 223.868C454.189 223.994 455.703 225.157 456.249 226.688C456.281 226.772 456.239 226.855 456.155 226.887C456.134 226.897 456.113 226.897 456.102 226.897Z" fill="#EB7154"/>
<path d="M455.545 220.738C455.461 220.738 455.388 220.675 455.388 220.581C455.304 217.624 455.367 214.637 455.545 211.691C455.556 211.607 455.619 211.544 455.713 211.544C455.797 211.554 455.871 211.628 455.861 211.712C455.671 214.647 455.619 217.635 455.703 220.57C455.703 220.665 455.64 220.738 455.545 220.738Z" fill="#EB7154"/>
<path d="M488.693 237.696C488.672 237.696 488.651 237.696 488.63 237.686C482.03 235.002 475.251 232.486 468.504 230.211C463.901 230.484 459.497 229.32 456.092 226.93C455.009 227.978 453.159 227.318 452.403 226.982C451.078 226.385 449.828 225.64 448.682 224.749C448.041 224.257 447.316 223.628 446.896 222.799C446.444 221.919 446.381 220.912 446.381 219.969C446.381 217.746 446.685 215.513 446.98 213.354C447.074 212.662 447.179 211.876 447.537 211.194C447.799 210.691 448.283 210.156 448.934 209.957C446.181 208.301 443.522 206.445 441.031 204.464C440.527 204.055 440.043 203.646 439.791 203.091C439.528 202.524 439.56 201.686 440.127 201.266C440.684 200.847 441.451 201.025 442.124 201.266C446.265 202.692 450.385 204.317 454.389 206.089C455.661 206.655 456.89 207.221 458.047 207.965C459.066 208.626 459.97 209.402 460.968 210.282C464.605 213.469 468.083 216.709 471.772 220.126L471.825 220.179C477.921 221.028 484.09 221.856 490.186 222.653C490.869 222.747 491.521 222.831 492.656 222.474C492.708 222.453 492.771 222.474 492.813 222.506C492.855 222.537 492.876 222.6 492.866 222.653C491.951 226.993 490.711 231.605 488.851 237.591C488.841 237.633 488.809 237.665 488.767 237.686C488.746 237.696 488.714 237.696 488.693 237.696ZM468.525 229.886C468.546 229.886 468.556 229.886 468.577 229.897C475.293 232.161 482.03 234.656 488.599 237.329C490.385 231.543 491.594 227.056 492.498 222.841C491.447 223.124 490.785 223.041 490.154 222.957C484.048 222.16 477.847 221.332 471.741 220.472C471.709 220.472 471.678 220.451 471.657 220.43L471.562 220.346C467.873 216.929 464.394 213.689 460.758 210.502C459.77 209.632 458.866 208.867 457.878 208.217C456.743 207.483 455.524 206.917 454.263 206.361C450.269 204.6 446.149 202.975 442.019 201.549C441.399 201.329 440.758 201.183 440.316 201.508C439.885 201.833 439.864 202.493 440.075 202.944C440.295 203.437 440.726 203.803 441.22 204.202C443.806 206.267 446.57 208.175 449.439 209.884C449.502 209.915 449.523 209.989 449.512 210.052C449.491 210.114 449.439 210.167 449.365 210.167C448.64 210.209 448.083 210.785 447.799 211.32C447.474 211.949 447.368 212.672 447.274 213.375C446.98 215.524 446.675 217.746 446.675 219.948C446.675 220.86 446.738 221.814 447.158 222.642C447.547 223.418 448.241 224.005 448.85 224.487C449.975 225.357 451.215 226.091 452.508 226.678C453.233 227.003 455.009 227.643 455.934 226.605C455.987 226.542 456.081 226.531 456.144 226.584C459.528 228.995 463.922 230.169 468.525 229.886Z" fill="#EB7154"/>
<path d="M492.278 240.213C490.564 240.014 488.872 239.668 487.233 239.175C486.981 239.102 486.707 239.007 486.539 238.798C486.287 238.473 486.381 238.001 486.497 237.602C487.905 232.675 489.303 227.759 490.712 222.831C490.796 222.517 490.901 222.181 491.174 222.003C491.447 221.814 491.815 221.846 492.141 221.888C493.78 222.077 495.42 222.265 496.954 222.653C496.849 225.882 496.482 229.1 495.851 232.266C495.283 235.055 494.464 237.927 492.278 240.213Z" fill="#ED9100"/>
<path d="M544.007 236.31C543.681 241.772 539.33 246.332 534.317 248.555C529.304 250.777 523.681 251.092 518.205 251.385C508.231 250.955 498.531 247.244 490.859 241.007C490.722 240.482 490.743 240.42 490.764 240.357C492.246 237.987 492.897 235.209 493.518 232.484C494.316 229.003 495.115 225.523 495.914 222.032C497.122 220.847 498.457 219.641 500.139 219.295C501.305 219.065 502.504 219.275 503.66 219.495C508.484 220.407 513.287 221.466 518.048 222.65C512.845 214.085 508.053 205.363 503.922 196.347C503.313 187.845 506.707 179.217 510.701 170.81C510.249 166.826 510.712 162.737 512.141 158.963C513.318 159.592 514.495 160.211 515.683 160.84C516.66 161.364 517.659 161.899 518.426 162.695C519.183 163.503 519.677 164.645 519.309 165.83C524.848 175.674 529.693 185.895 533.571 196.62C536.345 198.465 537.754 202.145 536.839 205.394C539.877 215.196 544.68 225.082 544.007 236.31Z" fill="#FEB000"/>
<path d="M532.089 227.872C532.068 227.872 532.047 227.872 532.026 227.861C523.986 224.014 514.59 221.288 504.122 219.758C502.577 219.527 501.074 219.349 499.634 219.632C498.016 219.946 496.713 220.848 496.145 222.053C496.103 222.127 496.019 222.169 495.935 222.127C495.861 222.085 495.819 222.001 495.861 221.917C496.471 220.617 497.869 219.653 499.582 219.317C501.074 219.034 502.609 219.213 504.175 219.443C514.674 220.984 524.091 223.72 532.173 227.578C532.247 227.62 532.289 227.714 532.247 227.788C532.205 227.84 532.142 227.872 532.089 227.872Z" fill="#ED9100"/>
<path d="M517.869 222.729C517.816 222.729 517.764 222.698 517.732 222.646C512.887 214.164 508.252 205.421 503.975 196.647C503.933 196.573 503.964 196.479 504.048 196.437C504.122 196.395 504.216 196.426 504.258 196.51C508.536 205.274 513.171 214.018 518.005 222.488C518.047 222.562 518.026 222.656 517.942 222.698C517.921 222.729 517.9 222.729 517.869 222.729Z" fill="#ED9100"/>
<path d="M506.213 200.958C506.192 200.958 506.171 200.958 506.14 200.937L501.4 198.641C501.326 198.599 501.284 198.504 501.326 198.431C501.368 198.358 501.463 198.316 501.536 198.358L506.276 200.654C506.35 200.695 506.392 200.79 506.35 200.863C506.329 200.926 506.276 200.958 506.213 200.958Z" fill="#ED9100"/>
<path d="M531.605 199.371C531.574 199.371 531.542 199.361 531.521 199.351C525.846 195.639 520.15 191.352 516.902 185.198C516.86 185.125 516.891 185.03 516.965 184.988C517.039 184.946 517.133 184.978 517.175 185.051C520.391 191.142 526.056 195.398 531.689 199.088C531.763 199.141 531.784 199.235 531.732 199.309C531.7 199.351 531.658 199.371 531.605 199.371Z" fill="#ED9100"/>
<path d="M518.205 251.557C518.195 251.557 518.195 251.557 518.205 251.557C508.242 251.127 498.489 247.426 490.753 241.147C490.732 241.126 490.711 241.094 490.701 241.063C490.564 240.518 490.575 240.434 490.606 240.329C490.638 240.245 490.722 240.203 490.806 240.235C490.89 240.266 490.932 240.35 490.901 240.434C490.89 240.465 490.88 240.507 490.985 240.937C498.657 247.154 508.326 250.823 518.195 251.253C523.355 250.98 529.188 250.666 534.243 248.433C534.327 248.401 534.412 248.433 534.454 248.517C534.496 248.601 534.454 248.684 534.369 248.726C529.272 250.97 523.397 251.274 518.205 251.557Z" fill="#ED9100"/>
<path d="M463.911 170.549C462.523 170.549 461.157 170.339 459.864 169.836C459.854 169.825 459.833 169.825 459.822 169.815C457.773 168.211 456.396 165.716 456.154 163.126C455.913 160.579 456.743 157.885 458.372 155.914C458.446 155.798 458.519 155.673 458.593 155.536C458.919 154.981 459.328 154.289 459.917 153.482C459.97 153.408 460.064 153.398 460.138 153.45C460.211 153.503 460.222 153.597 460.169 153.67C459.591 154.467 459.181 155.148 458.856 155.694C458.771 155.83 458.698 155.956 458.624 156.081C458.624 156.092 458.614 156.092 458.614 156.102C457.027 158.01 456.228 160.621 456.459 163.095C456.701 165.59 458.015 168.001 459.991 169.553C463.732 170.999 467.999 169.92 472.056 168.536C482.061 165.118 489.187 161.093 494.463 155.872C494.547 155.756 495.262 154.666 494.926 153.691C494.715 153.073 494.106 152.611 493.128 152.328C493.044 152.307 492.992 152.213 493.023 152.129C493.055 152.045 493.139 151.993 493.223 152.024C494.305 152.339 494.978 152.863 495.23 153.586C495.64 154.761 494.757 156.008 494.715 156.06C494.715 156.071 494.705 156.071 494.694 156.081C489.376 161.334 482.219 165.38 472.151 168.829C469.439 169.752 466.612 170.549 463.911 170.549Z" fill="#CE7A00"/>
<path d="M497.879 157.174C497.836 157.174 497.805 157.163 497.773 157.132C497.71 157.069 497.7 156.975 497.763 156.912C498.877 155.664 499.35 154.438 499.15 153.263C498.835 151.376 496.88 150.255 496.87 150.244C496.796 150.202 496.764 150.108 496.806 150.035C496.849 149.961 496.943 149.93 497.017 149.972C497.101 150.024 499.119 151.177 499.455 153.211C499.665 154.48 499.171 155.8 497.984 157.121C497.963 157.163 497.921 157.174 497.879 157.174Z" fill="#CE7A00"/>
</g>
<defs>
<clipPath id="clip0_38:10">
<path d="M0 10C0 4.47715 4.47715 0 10 0H581C586.523 0 591 4.47715 591 10V261H0V10Z" fill="white"/>
</clipPath>
</defs>
</svg>
