<svg width="58" height="58" viewBox="0 0 58 58" fill="none" xmlns="http://www.w3.org/2000/svg">
<rect width="58" height="58" rx="29" fill="#1DA1F2" fill-opacity="0.2"/>
<path d="M24.7254 38.5C33.4045 38.5 38.1528 31.1876 38.1528 24.8578C38.1528 24.6522 38.1528 24.4466 38.1436 24.2409C39.0683 23.5602 39.8663 22.7176 40.5 21.7525C39.6371 22.1398 38.7225 22.3953 37.786 22.5107C38.7728 21.9105 39.5116 20.9669 39.8652 19.8552C38.9377 20.4141 37.9224 20.8066 36.8637 21.0153C36.423 20.537 35.8903 20.1557 35.2987 19.895C34.707 19.6344 34.0689 19.4999 33.424 19.5C32.172 19.5009 30.9715 20.0066 30.0862 20.906C29.2008 21.8055 28.7031 23.0251 28.7021 24.297C28.7021 24.6709 28.7482 25.0354 28.8218 25.3905C26.9448 25.2948 25.1087 24.7991 23.4326 23.9356C21.7565 23.0722 20.2779 21.8603 19.0927 20.3786C18.4905 21.4353 18.3066 22.6854 18.5785 23.8749C18.8504 25.0643 19.5577 26.1041 20.5567 26.7832C19.8081 26.7568 19.0762 26.5519 18.42 26.185V26.2504C18.421 27.3571 18.798 28.4296 19.4874 29.2866C20.1767 30.1436 21.1361 30.7325 22.2035 30.954C21.799 31.0673 21.3811 31.1239 20.9615 31.1222C20.6568 31.1222 20.3623 31.0942 20.076 31.0381C20.3769 31.9912 20.9638 32.8247 21.7545 33.4218C22.5452 34.0189 23.5 34.3497 24.4851 34.3677C22.8136 35.7026 20.7485 36.4269 18.6224 36.4239C18.2452 36.4239 17.868 36.4052 17.5 36.3585C19.6582 37.7577 22.1652 38.5007 24.7254 38.5" fill="#1DA1F2"/>
</svg>
