<svg width="124" height="12" viewBox="0 0 124 12" fill="none" xmlns="http://www.w3.org/2000/svg">
<g clip-path="url(#clip0_19:36)">
<path fill-rule="evenodd" clip-rule="evenodd" d="M19.1 7.90002C18.8 8.00002 18.4 8.00002 18.1 8.00002C12.4 8.60002 6.09999 7.70002 1.09999 5.00002C0.799987 4.90002 0.799987 4.70002 0.899987 4.50002C0.999987 4.30002 1.19999 4.30002 1.39999 4.40002C6.29999 7.00002 12.4 7.90002 18 7.30002C18.2 7.30002 18.4 7.30002 18.6 7.20002C18.4 6.80002 18.3 6.40002 18.3 6.00002C18.3 5.40002 18.6 4.90002 19 4.40002C19.6 3.70002 20.4 3.10002 21.3 2.80002C22 2.50002 22.7 2.40002 23.2 2.50002C23.6 2.50002 24 2.70002 24.2 3.00002C24.4 3.30002 24.6 3.70002 24.4 4.40002C24.2 5.50002 23.4 6.20002 22.4 6.80002C21.7 7.20002 20.8 7.50002 20 7.70002C20.2 7.90002 20.5 8.00002 20.8 8.20002C23.1 9.30002 26.7 9.30002 30.6 8.70002C36.5 7.70002 43 5.40002 46 3.30002C46.2 3.20002 46.4 3.20002 46.5 3.40002C46.6 3.60002 46.6 3.80002 46.4 3.90002C43.3 6.00002 36.8 8.40002 30.7 9.30002C26.7 9.90002 22.8 9.90002 20.5 8.70002C19.9 8.50002 19.5 8.20002 19.1 7.90002ZM19.4 7.10002C19.1 6.80002 19 6.40002 19 6.10002C19 5.70002 19.2 5.30002 19.5 4.90002C20 4.30002 20.8 3.80002 21.5 3.50002C22 3.30002 22.6 3.20002 23 3.20002C23.2 3.20002 23.4 3.30002 23.6 3.40002C23.7 3.60002 23.7 3.80002 23.7 4.10002C23.5 5.00002 22.9 5.60002 22.1 6.00002C21.3 6.60002 20.3 6.90002 19.4 7.10002Z" fill="#6501E5"/>
<path fill-rule="evenodd" clip-rule="evenodd" d="M1.4 4.40004C3.2 5.60004 4.7 7.50004 5.7 9.40004C5.8 9.60004 5.7 9.80004 5.6 9.90004C5.3 10 5.1 10 5 9.80004C4.1 8.00004 2.7 6.20004 0.899997 5.00004C0.799997 4.90004 0.699997 4.70004 0.799997 4.50004C0.999997 4.30004 1.2 4.30004 1.4 4.40004Z" fill="#6501E5"/>
<path fill-rule="evenodd" clip-rule="evenodd" d="M1.29999 4.3C3.29999 4.9 5.59999 4.1 7.39999 3.2C7.59999 3.1 7.79999 3.2 7.89999 3.4C7.99999 3.6 7.89999 3.8 7.69999 3.9C5.79999 4.9 3.29999 5.7 1.09999 5.1C0.899988 5 0.799988 4.8 0.799988 4.6C0.899988 4.4 1.09999 4.3 1.29999 4.3Z" fill="#6501E5"/>
<path d="M56.4 9.5H57.8V5.9L61 0.9H59.3L57 4.4L54.7 0.9H53.1L56.3 5.8V9.5H56.4ZM66.4 6.5C66.4 4.8 65 3.4 63.3 3.4C61.6 3.4 60.2 4.8 60.2 6.5C60.2 8.2 61.6 9.6 63.3 9.6C65 9.6 66.4 8.2 66.4 6.5ZM61.5 6.5C61.5 5.4 62.2 4.6 63.3 4.6C64.4 4.6 65.1 5.4 65.1 6.5C65.1 7.6 64.4 8.4 63.3 8.4C62.2 8.4 61.5 7.5 61.5 6.5ZM67.7 7.1C67.7 8.6 68.6 9.6 69.9 9.6C70.7 9.6 71.3 9.3 71.7 8.7V9.5H73V3.5H71.7V6.5C71.7 7.8 71.1 8.5 70.2 8.5C69.4 8.5 69 7.9 69 7V3.5H67.7V7.1ZM77.1 6.5C77.1 8.2 78.3 9.6 80 9.6C80.9 9.6 81.6 9.2 81.9 8.7V9.5H83.2V3.5H82V4.3C81.7 3.8 80.9 3.4 80.1 3.4C78.4 3.3 77.1 4.8 77.1 6.5ZM82.1 6.5C82.1 7.6 81.4 8.4 80.3 8.4C79.2 8.4 78.5 7.6 78.5 6.5C78.5 5.4 79.2 4.6 80.3 4.6C81.4 4.6 82.1 5.4 82.1 6.5ZM85.1 9.5H86.4V6.5C86.4 5.3 87.1 4.7 87.8 4.7C88 4.7 88.2 4.7 88.5 4.8V3.5C88.3 3.5 88.2 3.5 88 3.5C87.3 3.5 86.6 3.9 86.4 4.6V3.5H85.1V9.5V9.5ZM95 7.6H93.6C93.3 8.2 92.7 8.4 92.1 8.4C91 8.4 90.3 7.7 90.3 6.8H95.1C95.2 4.8 93.9 3.4 92.1 3.4C90.3 3.4 89 4.7 89 6.5C89 8.3 90.3 9.6 92.1 9.6C93.6 9.6 94.7 8.7 95 7.6ZM92 4.5C92.7 4.5 93.4 4.9 93.6 5.9H90.3C90.5 4.9 91.2 4.5 92 4.5ZM99.3 9.5H100.6V6.5C100.6 5.2 101.3 4.5 102.1 4.5C102.9 4.5 103.3 5.1 103.3 6V9.4H104.6V5.9C104.6 4.4 103.7 3.4 102.3 3.4C101.5 3.4 100.8 3.7 100.5 4.3V0.5H99.2V9.5H99.3ZM112 7.6H110.6C110.3 8.2 109.7 8.4 109.1 8.4C108 8.4 107.3 7.7 107.3 6.8H112.1C112.2 4.8 110.9 3.4 109.1 3.4C107.3 3.4 106 4.7 106 6.5C106 8.3 107.3 9.6 109.1 9.6C110.6 9.6 111.6 8.7 112 7.6ZM109 4.5C109.7 4.5 110.4 4.9 110.6 5.9H107.3C107.5 4.9 108.2 4.5 109 4.5ZM113.4 9.5H114.7V6.5C114.7 5.3 115.4 4.7 116.1 4.7C116.3 4.7 116.5 4.7 116.8 4.8V3.5C116.6 3.5 116.5 3.5 116.3 3.5C115.6 3.5 114.9 3.9 114.7 4.6V3.5H113.4V9.5V9.5ZM123.3 7.6H122C121.7 8.2 121.1 8.4 120.5 8.4C119.4 8.4 118.7 7.7 118.7 6.8H123.5C123.6 4.8 122.3 3.4 120.5 3.4C118.7 3.4 117.4 4.7 117.4 6.5C117.4 8.3 118.7 9.6 120.5 9.6C121.9 9.6 123 8.7 123.3 7.6ZM120.4 4.5C121.1 4.5 121.8 4.9 122 5.9H118.7C118.9 4.9 119.5 4.5 120.4 4.5Z" fill="#6501E5"/>
</g>
<defs>
<clipPath id="clip0_19:36">
<rect width="123.4" height="11.5" fill="white"/>
</clipPath>
</defs>
</svg>
